<?xml version="1.0" encoding="utf-8" ?>
<svg baseProfile="full" height="240mm" version="1.1" viewBox="0 0 240 240" width="240mm" xmlns="http://www.w3.org/2000/svg" xmlns:ev="http://www.w3.org/2001/xml-events" xmlns:xlink="http://www.w3.org/1999/xlink"><defs /><line stroke="rgb(100%,0%,0%)" stroke-width="1" x1="16.0" x2="16.0" y1="12.0" y2="31.5" /><line stroke="rgb(100%,0%,0%)" stroke-width="1" x1="16.0" x2="20.0" y1="31.5" y2="31.5" /><line stroke="rgb(100%,0%,0%)" stroke-width="1" x1="20.0" x2="20.0" y1="31.5" y2="39.5" /><line stroke="rgb(100%,0%,0%)" stroke-width="1" x1="20.0" x2="16.0" y1="39.5" y2="39.5" /><line stroke="rgb(100%,0%,0%)" stroke-width="1" x1="16.0" x2="16.0" y1="39.5" y2="47.5" /><line stroke="rgb(100%,0%,0%)" stroke-width="1" x1="16.0" x2="20.0" y1="47.5" y2="47.5" /><line stroke="rgb(100%,0%,0%)" stroke-width="1" x1="20.0" x2="20.0" y1="47.5" y2="55.5" /><line stroke="rgb(100%,0%,0%)" stroke-width="1" x1="20.0" x2="16.0" y1="55.5" y2="55.5" /><line stroke="rgb(100%,0%,0%)" stroke-width="1" x1="16.0" x2="16.0" y1="55.5" y2="63.5" /><line stroke="rgb(100%,0%,0%)" stroke-width="1" x1="16.0" x2="20.0" y1="63.5" y2="63.5" /><line stroke="rgb(100%,0%,0%)" stroke-width="1" x1="20.0" x2="20.0" y1="63.5" y2="71.5" /><line stroke="rgb(100%,0%,0%)" stroke-width="1" x1="20.0" x2="16.0" y1="71.5" y2="71.5" /><line stroke="rgb(100%,0%,0%)" stroke-width="1" x1="16.0" x2="16.0" y1="71.5" y2="91.0" /><line stroke="rgb(100%,0%,0%)" stroke-width="1" x1="12.0" x2="31.5" y1="87.0" y2="87.0" /><line stroke="rgb(100%,0%,0%)" stroke-width="1" x1="31.5" x2="31.5" y1="87.0" y2="83.0" /><line stroke="rgb(100%,0%,0%)" stroke-width="1" x1="31.5" x2="39.5" y1="83.0" y2="83.0" /><line stroke="rgb(100%,0%,0%)" stroke-width="1" x1="39.5" x2="39.5" y1="83.0" y2="87.0" /><line stroke="rgb(100%,0%,0%)" stroke-width="1" x1="39.5" x2="47.5" y1="87.0" y2="87.0" /><line stroke="rgb(100%,0%,0%)" stroke-width="1" x1="47.5" x2="47.5" y1="87.0" y2="83.0" /><line stroke="rgb(100%,0%,0%)" stroke-width="1" x1="47.5" x2="55.5" y1="83.0" y2="83.0" /><line stroke="rgb(100%,0%,0%)" stroke-width="1" x1="55.5" x2="55.5" y1="83.0" y2="87.0" /><line stroke="rgb(100%,0%,0%)" stroke-width="1" x1="55.5" x2="63.5" y1="87.0" y2="87.0" /><line stroke="rgb(100%,0%,0%)" stroke-width="1" x1="63.5" x2="63.5" y1="87.0" y2="83.0" /><line stroke="rgb(100%,0%,0%)" stroke-width="1" x1="63.5" x2="71.5" y1="83.0" y2="83.0" /><line stroke="rgb(100%,0%,0%)" stroke-width="1" x1="71.5" x2="71.5" y1="83.0" y2="87.0" /><line stroke="rgb(100%,0%,0%)" stroke-width="1" x1="71.5" x2="91.0" y1="87.0" y2="87.0" /><line stroke="rgb(100%,0%,0%)" stroke-width="1" x1="87.0" x2="87.0" y1="91.0" y2="71.5" /><line stroke="rgb(100%,0%,0%)" stroke-width="1" x1="87.0" x2="83.0" y1="71.5" y2="71.5" /><line stroke="rgb(100%,0%,0%)" stroke-width="1" x1="83.0" x2="83.0" y1="71.5" y2="63.5" /><line stroke="rgb(100%,0%,0%)" stroke-width="1" x1="83.0" x2="87.0" y1="63.5" y2="63.5" /><line stroke="rgb(100%,0%,0%)" stroke-width="1" x1="87.0" x2="87.0" y1="63.5" y2="55.5" /><line stroke="rgb(100%,0%,0%)" stroke-width="1" x1="87.0" x2="83.0" y1="55.5" y2="55.5" /><line stroke="rgb(100%,0%,0%)" stroke-width="1" x1="83.0" x2="83.0" y1="55.5" y2="47.5" /><line stroke="rgb(100%,0%,0%)" stroke-width="1" x1="83.0" x2="87.0" y1="47.5" y2="47.5" /><line stroke="rgb(100%,0%,0%)" stroke-width="1" x1="87.0" x2="87.0" y1="47.5" y2="39.5" /><line stroke="rgb(100%,0%,0%)" stroke-width="1" x1="87.0" x2="83.0" y1="39.5" y2="39.5" /><line stroke="rgb(100%,0%,0%)" stroke-width="1" x1="83.0" x2="83.0" y1="39.5" y2="31.5" /><line stroke="rgb(100%,0%,0%)" stroke-width="1" x1="83.0" x2="87.0" y1="31.5" y2="31.5" /><line stroke="rgb(100%,0%,0%)" stroke-width="1" x1="87.0" x2="87.0" y1="31.5" y2="12.0" /><line stroke="rgb(100%,0%,0%)" stroke-width="1" x1="91.0" x2="71.5" y1="16.0" y2="16.0" /><line stroke="rgb(100%,0%,0%)" stroke-width="1" x1="71.5" x2="71.5" y1="16.0" y2="20.0" /><line stroke="rgb(100%,0%,0%)" stroke-width="1" x1="71.5" x2="63.5" y1="20.0" y2="20.0" /><line stroke="rgb(100%,0%,0%)" stroke-width="1" x1="63.5" x2="63.5" y1="20.0" y2="16.0" /><line stroke="rgb(100%,0%,0%)" stroke-width="1" x1="63.5" x2="55.5" y1="16.0" y2="16.0" /><line stroke="rgb(100%,0%,0%)" stroke-width="1" x1="55.5" x2="55.5" y1="16.0" y2="20.0" /><line stroke="rgb(100%,0%,0%)" stroke-width="1" x1="55.5" x2="47.5" y1="20.0" y2="20.0" /><line stroke="rgb(100%,0%,0%)" stroke-width="1" x1="47.5" x2="47.5" y1="20.0" y2="16.0" /><line stroke="rgb(100%,0%,0%)" stroke-width="1" x1="47.5" x2="39.5" y1="16.0" y2="16.0" /><line stroke="rgb(100%,0%,0%)" stroke-width="1" x1="39.5" x2="39.5" y1="16.0" y2="20.0" /><line stroke="rgb(100%,0%,0%)" stroke-width="1" x1="39.5" x2="31.5" y1="20.0" y2="20.0" /><line stroke="rgb(100%,0%,0%)" stroke-width="1" x1="31.5" x2="31.5" y1="20.0" y2="16.0" /><line stroke="rgb(100%,0%,0%)" stroke-width="1" x1="31.5" x2="12.0" y1="16.0" y2="16.0" /><circle cx="51.5" cy="51.5" fill="none" r="17.3" stroke="rgb(255,0,0)" stroke-width="1" /></svg>