<?xml version="1.0" encoding="utf-8" ?>
<svg baseProfile="full" height="240mm" version="1.1" viewBox="0 0 240 240" width="240mm" xmlns="http://www.w3.org/2000/svg" xmlns:ev="http://www.w3.org/2001/xml-events" xmlns:xlink="http://www.w3.org/1999/xlink"><defs /><line stroke="rgb(100%,0%,0%)" stroke-width="1" x1="16.0" x2="16.0" y1="12.0" y2="31.0" /><line stroke="rgb(100%,0%,0%)" stroke-width="1" x1="16.0" x2="20.0" y1="31.0" y2="31.0" /><line stroke="rgb(100%,0%,0%)" stroke-width="1" x1="20.0" x2="20.0" y1="31.0" y2="39.0" /><line stroke="rgb(100%,0%,0%)" stroke-width="1" x1="20.0" x2="16.0" y1="39.0" y2="39.0" /><line stroke="rgb(100%,0%,0%)" stroke-width="1" x1="16.0" x2="16.0" y1="39.0" y2="47.0" /><line stroke="rgb(100%,0%,0%)" stroke-width="1" x1="16.0" x2="20.0" y1="47.0" y2="47.0" /><line stroke="rgb(100%,0%,0%)" stroke-width="1" x1="20.0" x2="20.0" y1="47.0" y2="55.0" /><line stroke="rgb(100%,0%,0%)" stroke-width="1" x1="20.0" x2="16.0" y1="55.0" y2="55.0" /><line stroke="rgb(100%,0%,0%)" stroke-width="1" x1="16.0" x2="16.0" y1="55.0" y2="63.0" /><line stroke="rgb(100%,0%,0%)" stroke-width="1" x1="16.0" x2="20.0" y1="63.0" y2="63.0" /><line stroke="rgb(100%,0%,0%)" stroke-width="1" x1="20.0" x2="20.0" y1="63.0" y2="71.0" /><line stroke="rgb(100%,0%,0%)" stroke-width="1" x1="20.0" x2="16.0" y1="71.0" y2="71.0" /><line stroke="rgb(100%,0%,0%)" stroke-width="1" x1="16.0" x2="16.0" y1="71.0" y2="90.0" /><line stroke="rgb(100%,0%,0%)" stroke-width="1" x1="12.0" x2="31.0" y1="86.0" y2="86.0" /><line stroke="rgb(100%,0%,0%)" stroke-width="1" x1="31.0" x2="31.0" y1="86.0" y2="82.0" /><line stroke="rgb(100%,0%,0%)" stroke-width="1" x1="31.0" x2="39.0" y1="82.0" y2="82.0" /><line stroke="rgb(100%,0%,0%)" stroke-width="1" x1="39.0" x2="39.0" y1="82.0" y2="86.0" /><line stroke="rgb(100%,0%,0%)" stroke-width="1" x1="39.0" x2="47.0" y1="86.0" y2="86.0" /><line stroke="rgb(100%,0%,0%)" stroke-width="1" x1="47.0" x2="47.0" y1="86.0" y2="82.0" /><line stroke="rgb(100%,0%,0%)" stroke-width="1" x1="47.0" x2="55.0" y1="82.0" y2="82.0" /><line stroke="rgb(100%,0%,0%)" stroke-width="1" x1="55.0" x2="55.0" y1="82.0" y2="86.0" /><line stroke="rgb(100%,0%,0%)" stroke-width="1" x1="55.0" x2="63.0" y1="86.0" y2="86.0" /><line stroke="rgb(100%,0%,0%)" stroke-width="1" x1="63.0" x2="63.0" y1="86.0" y2="82.0" /><line stroke="rgb(100%,0%,0%)" stroke-width="1" x1="63.0" x2="71.0" y1="82.0" y2="82.0" /><line stroke="rgb(100%,0%,0%)" stroke-width="1" x1="71.0" x2="71.0" y1="82.0" y2="86.0" /><line stroke="rgb(100%,0%,0%)" stroke-width="1" x1="71.0" x2="90.0" y1="86.0" y2="86.0" /><line stroke="rgb(100%,0%,0%)" stroke-width="1" x1="86.0" x2="86.0" y1="90.0" y2="71.0" /><line stroke="rgb(100%,0%,0%)" stroke-width="1" x1="86.0" x2="82.0" y1="71.0" y2="71.0" /><line stroke="rgb(100%,0%,0%)" stroke-width="1" x1="82.0" x2="82.0" y1="71.0" y2="63.0" /><line stroke="rgb(100%,0%,0%)" stroke-width="1" x1="82.0" x2="86.0" y1="63.0" y2="63.0" /><line stroke="rgb(100%,0%,0%)" stroke-width="1" x1="86.0" x2="86.0" y1="63.0" y2="55.0" /><line stroke="rgb(100%,0%,0%)" stroke-width="1" x1="86.0" x2="82.0" y1="55.0" y2="55.0" /><line stroke="rgb(100%,0%,0%)" stroke-width="1" x1="82.0" x2="82.0" y1="55.0" y2="47.0" /><line stroke="rgb(100%,0%,0%)" stroke-width="1" x1="82.0" x2="86.0" y1="47.0" y2="47.0" /><line stroke="rgb(100%,0%,0%)" stroke-width="1" x1="86.0" x2="86.0" y1="47.0" y2="39.0" /><line stroke="rgb(100%,0%,0%)" stroke-width="1" x1="86.0" x2="82.0" y1="39.0" y2="39.0" /><line stroke="rgb(100%,0%,0%)" stroke-width="1" x1="82.0" x2="82.0" y1="39.0" y2="31.0" /><line stroke="rgb(100%,0%,0%)" stroke-width="1" x1="82.0" x2="86.0" y1="31.0" y2="31.0" /><line stroke="rgb(100%,0%,0%)" stroke-width="1" x1="86.0" x2="86.0" y1="31.0" y2="12.0" /><line stroke="rgb(100%,0%,0%)" stroke-width="1" x1="90.0" x2="71.0" y1="16.0" y2="16.0" /><line stroke="rgb(100%,0%,0%)" stroke-width="1" x1="71.0" x2="71.0" y1="16.0" y2="20.0" /><line stroke="rgb(100%,0%,0%)" stroke-width="1" x1="71.0" x2="63.0" y1="20.0" y2="20.0" /><line stroke="rgb(100%,0%,0%)" stroke-width="1" x1="63.0" x2="63.0" y1="20.0" y2="16.0" /><line stroke="rgb(100%,0%,0%)" stroke-width="1" x1="63.0" x2="55.0" y1="16.0" y2="16.0" /><line stroke="rgb(100%,0%,0%)" stroke-width="1" x1="55.0" x2="55.0" y1="16.0" y2="20.0" /><line stroke="rgb(100%,0%,0%)" stroke-width="1" x1="55.0" x2="47.0" y1="20.0" y2="20.0" /><line stroke="rgb(100%,0%,0%)" stroke-width="1" x1="47.0" x2="47.0" y1="20.0" y2="16.0" /><line stroke="rgb(100%,0%,0%)" stroke-width="1" x1="47.0" x2="39.0" y1="16.0" y2="16.0" /><line stroke="rgb(100%,0%,0%)" stroke-width="1" x1="39.0" x2="39.0" y1="16.0" y2="20.0" /><line stroke="rgb(100%,0%,0%)" stroke-width="1" x1="39.0" x2="31.0" y1="20.0" y2="20.0" /><line stroke="rgb(100%,0%,0%)" stroke-width="1" x1="31.0" x2="31.0" y1="20.0" y2="16.0" /><line stroke="rgb(100%,0%,0%)" stroke-width="1" x1="31.0" x2="12.0" y1="16.0" y2="16.0" /><circle cx="51" cy="51" fill="none" r="17.3" stroke="rgb(255,0,0)" stroke-width="1" /></svg>