<?xml version="1.0" encoding="utf-8" ?>
<svg baseProfile="full" height="240mm" version="1.1" viewBox="0 0 240 240" width="240mm" xmlns="http://www.w3.org/2000/svg" xmlns:ev="http://www.w3.org/2001/xml-events" xmlns:xlink="http://www.w3.org/1999/xlink"><defs /><line stroke="rgb(100%,0%,0%)" stroke-width="1" x1="20.0" x2="20.0" y1="12.0" y2="37.5" /><line stroke="rgb(100%,0%,0%)" stroke-width="1" x1="20.0" x2="17.0" y1="37.5" y2="37.5" /><line stroke="rgb(100%,0%,0%)" stroke-width="1" x1="17.0" x2="17.0" y1="37.5" y2="45.5" /><line stroke="rgb(100%,0%,0%)" stroke-width="1" x1="17.0" x2="20.0" y1="45.5" y2="45.5" /><line stroke="rgb(100%,0%,0%)" stroke-width="1" x1="20.0" x2="20.0" y1="45.5" y2="53.5" /><line stroke="rgb(100%,0%,0%)" stroke-width="1" x1="20.0" x2="17.0" y1="53.5" y2="53.5" /><line stroke="rgb(100%,0%,0%)" stroke-width="1" x1="17.0" x2="17.0" y1="53.5" y2="61.5" /><line stroke="rgb(100%,0%,0%)" stroke-width="1" x1="17.0" x2="20.0" y1="61.5" y2="61.5" /><line stroke="rgb(100%,0%,0%)" stroke-width="1" x1="20.0" x2="20.0" y1="61.5" y2="87.0" /><line stroke="rgb(100%,0%,0%)" stroke-width="1" x1="12.0" x2="37.5" y1="79.0" y2="79.0" /><line stroke="rgb(100%,0%,0%)" stroke-width="1" x1="37.5" x2="37.5" y1="79.0" y2="82.0" /><line stroke="rgb(100%,0%,0%)" stroke-width="1" x1="37.5" x2="45.5" y1="82.0" y2="82.0" /><line stroke="rgb(100%,0%,0%)" stroke-width="1" x1="45.5" x2="45.5" y1="82.0" y2="79.0" /><line stroke="rgb(100%,0%,0%)" stroke-width="1" x1="45.5" x2="53.5" y1="79.0" y2="79.0" /><line stroke="rgb(100%,0%,0%)" stroke-width="1" x1="53.5" x2="53.5" y1="79.0" y2="82.0" /><line stroke="rgb(100%,0%,0%)" stroke-width="1" x1="53.5" x2="61.5" y1="82.0" y2="82.0" /><line stroke="rgb(100%,0%,0%)" stroke-width="1" x1="61.5" x2="61.5" y1="82.0" y2="79.0" /><line stroke="rgb(100%,0%,0%)" stroke-width="1" x1="61.5" x2="87.0" y1="79.0" y2="79.0" /><line stroke="rgb(100%,0%,0%)" stroke-width="1" x1="79.0" x2="79.0" y1="87.0" y2="61.5" /><line stroke="rgb(100%,0%,0%)" stroke-width="1" x1="79.0" x2="82.0" y1="61.5" y2="61.5" /><line stroke="rgb(100%,0%,0%)" stroke-width="1" x1="82.0" x2="82.0" y1="61.5" y2="53.5" /><line stroke="rgb(100%,0%,0%)" stroke-width="1" x1="82.0" x2="79.0" y1="53.5" y2="53.5" /><line stroke="rgb(100%,0%,0%)" stroke-width="1" x1="79.0" x2="79.0" y1="53.5" y2="45.5" /><line stroke="rgb(100%,0%,0%)" stroke-width="1" x1="79.0" x2="82.0" y1="45.5" y2="45.5" /><line stroke="rgb(100%,0%,0%)" stroke-width="1" x1="82.0" x2="82.0" y1="45.5" y2="37.5" /><line stroke="rgb(100%,0%,0%)" stroke-width="1" x1="82.0" x2="79.0" y1="37.5" y2="37.5" /><line stroke="rgb(100%,0%,0%)" stroke-width="1" x1="79.0" x2="79.0" y1="37.5" y2="12.0" /><line stroke="rgb(100%,0%,0%)" stroke-width="1" x1="87.0" x2="61.5" y1="20.0" y2="20.0" /><line stroke="rgb(100%,0%,0%)" stroke-width="1" x1="61.5" x2="61.5" y1="20.0" y2="17.0" /><line stroke="rgb(100%,0%,0%)" stroke-width="1" x1="61.5" x2="53.5" y1="17.0" y2="17.0" /><line stroke="rgb(100%,0%,0%)" stroke-width="1" x1="53.5" x2="53.5" y1="17.0" y2="20.0" /><line stroke="rgb(100%,0%,0%)" stroke-width="1" x1="53.5" x2="45.5" y1="20.0" y2="20.0" /><line stroke="rgb(100%,0%,0%)" stroke-width="1" x1="45.5" x2="45.5" y1="20.0" y2="17.0" /><line stroke="rgb(100%,0%,0%)" stroke-width="1" x1="45.5" x2="37.5" y1="17.0" y2="17.0" /><line stroke="rgb(100%,0%,0%)" stroke-width="1" x1="37.5" x2="37.5" y1="17.0" y2="20.0" /><line stroke="rgb(100%,0%,0%)" stroke-width="1" x1="37.5" x2="12.0" y1="20.0" y2="20.0" /><circle cx="49.5" cy="49.5" fill="none" r="17.3" stroke="rgb(255,0,0)" stroke-width="1" /></svg>