<?xml version="1.0" encoding="utf-8" ?>
<svg baseProfile="full" height="240mm" version="1.1" viewBox="0 0 240 240" width="240mm" xmlns="http://www.w3.org/2000/svg" xmlns:ev="http://www.w3.org/2001/xml-events" xmlns:xlink="http://www.w3.org/1999/xlink"><defs /><line stroke="rgb(100%,0%,0%)" stroke-width="1" x1="13.470171282556267" x2="20.954693579369753" y1="13.887607921537825" y2="34.09258225672576" /><line stroke="rgb(100%,0%,0%)" stroke-width="1" x1="20.954693579369753" x2="24.70561615424337" y1="34.09258225672576" y2="32.7031291854407" /><line stroke="rgb(100%,0%,0%)" stroke-width="1" x1="24.70561615424337" x2="27.484522296813488" y1="32.7031291854407" y2="40.204974335187934" /><line stroke="rgb(100%,0%,0%)" stroke-width="1" x1="27.484522296813488" x2="23.73359972193987" y1="40.204974335187934" y2="41.594427406472995" /><line stroke="rgb(100%,0%,0%)" stroke-width="1" x1="23.73359972193987" x2="26.51250586450999" y1="41.594427406472995" y2="49.09627255622023" /><line stroke="rgb(100%,0%,0%)" stroke-width="1" x1="26.51250586450999" x2="30.263428439383606" y1="49.09627255622023" y2="47.70681948493517" /><line stroke="rgb(100%,0%,0%)" stroke-width="1" x1="30.263428439383606" x2="33.042334581953725" y1="47.70681948493517" y2="55.2086646346824" /><line stroke="rgb(100%,0%,0%)" stroke-width="1" x1="33.042334581953725" x2="29.29141200708011" y1="55.2086646346824" y2="56.59811770596746" /><line stroke="rgb(100%,0%,0%)" stroke-width="1" x1="29.29141200708011" x2="32.07031814965022" y1="56.59811770596746" y2="64.0999628557147" /><line stroke="rgb(100%,0%,0%)" stroke-width="1" x1="32.07031814965022" x2="35.82124072452384" y1="64.0999628557147" y2="62.71050978442963" /><line stroke="rgb(100%,0%,0%)" stroke-width="1" x1="35.82124072452384" x2="38.600146867093954" y1="62.71050978442963" y2="70.21235493417686" /><line stroke="rgb(100%,0%,0%)" stroke-width="1" x1="38.600146867093954" x2="34.84922429222034" y1="70.21235493417686" y2="71.60180800546192" /><line stroke="rgb(100%,0%,0%)" stroke-width="1" x1="34.84922429222034" x2="37.628130434790464" y1="71.60180800546192" y2="79.10365315520916" /><line stroke="rgb(100%,0%,0%)" stroke-width="1" x1="37.628130434790464" x2="41.37905300966408" y1="79.10365315520916" y2="77.7142000839241" /><line stroke="rgb(100%,0%,0%)" stroke-width="1" x1="41.37905300966408" x2="44.15795915223419" y1="77.7142000839241" y2="85.21604523367132" /><line stroke="rgb(100%,0%,0%)" stroke-width="1" x1="44.15795915223419" x2="40.40703657736057" y1="85.21604523367132" y2="86.60549830495638" /><line stroke="rgb(100%,0%,0%)" stroke-width="1" x1="40.40703657736057" x2="43.185942719930694" y1="86.60549830495638" y2="94.10734345470362" /><line stroke="rgb(100%,0%,0%)" stroke-width="1" x1="43.185942719930694" x2="46.936865294804306" y1="94.10734345470362" y2="92.71789038341856" /><line stroke="rgb(100%,0%,0%)" stroke-width="1" x1="46.936865294804306" x2="49.71577143737443" y1="92.71789038341856" y2="100.21973553316579" /><line stroke="rgb(100%,0%,0%)" stroke-width="1" x1="49.71577143737443" x2="45.964848862500816" y1="100.21973553316579" y2="101.60918860445085" /><line stroke="rgb(100%,0%,0%)" stroke-width="1" x1="45.964848862500816" x2="48.74375500507092" y1="101.60918860445085" y2="109.11103375419809" /><line stroke="rgb(100%,0%,0%)" stroke-width="1" x1="48.74375500507092" x2="52.49467757994454" y1="109.11103375419809" y2="107.72158068291303" /><line stroke="rgb(100%,0%,0%)" stroke-width="1" x1="52.49467757994454" x2="55.27358372251466" y1="107.72158068291303" y2="115.22342583266025" /><line stroke="rgb(100%,0%,0%)" stroke-width="1" x1="55.27358372251466" x2="51.522661147641045" y1="115.22342583266025" y2="116.61287890394532" /><line stroke="rgb(100%,0%,0%)" stroke-width="1" x1="51.522661147641045" x2="54.30156729021117" y1="116.61287890394532" y2="124.11472405369256" /><line stroke="rgb(100%,0%,0%)" stroke-width="1" x1="54.30156729021117" x2="58.05248986508478" y1="124.11472405369256" y2="122.7252709824075" /><line stroke="rgb(100%,0%,0%)" stroke-width="1" x1="58.05248986508478" x2="60.831396007654895" y1="122.7252709824075" y2="130.22711613215472" /><line stroke="rgb(100%,0%,0%)" stroke-width="1" x1="60.831396007654895" x2="57.080473432781275" y1="130.22711613215472" y2="131.61656920343978" /><line stroke="rgb(100%,0%,0%)" stroke-width="1" x1="57.080473432781275" x2="59.8593795753514" y1="131.61656920343978" y2="139.118414353187" /><line stroke="rgb(100%,0%,0%)" stroke-width="1" x1="59.8593795753514" x2="63.61030215022501" y1="139.118414353187" y2="137.72896128190195" /><line stroke="rgb(100%,0%,0%)" stroke-width="1" x1="63.61030215022501" x2="66.38920829279513" y1="137.72896128190195" y2="145.23080643164917" /><line stroke="rgb(100%,0%,0%)" stroke-width="1" x1="66.38920829279513" x2="62.63828571792152" y1="145.23080643164917" y2="146.62025950293423" /><line stroke="rgb(100%,0%,0%)" stroke-width="1" x1="62.63828571792152" x2="65.41719186049164" y1="146.62025950293423" y2="154.1221046526815" /><line stroke="rgb(100%,0%,0%)" stroke-width="1" x1="65.41719186049164" x2="69.16811443536525" y1="154.1221046526815" y2="152.73265158139642" /><line stroke="rgb(100%,0%,0%)" stroke-width="1" x1="69.16811443536525" x2="71.94702057793536" y1="152.73265158139642" y2="160.23449673114365" /><line stroke="rgb(100%,0%,0%)" stroke-width="1" x1="71.94702057793536" x2="68.19609800306175" y1="160.23449673114365" y2="161.6239498024287" /><line stroke="rgb(100%,0%,0%)" stroke-width="1" x1="68.19609800306175" x2="76.02798356769651" y1="161.6239498024287" y2="182.76665478133503" /><line stroke="rgb(100%,0%,0%)" stroke-width="1" x1="69.0" x2="89.0" y1="173.87535656030275" y2="173.87535656030275" /><line stroke="rgb(100%,0%,0%)" stroke-width="1" x1="89.0" x2="89.0" y1="173.87535656030275" y2="177.87535656030275" /><line stroke="rgb(100%,0%,0%)" stroke-width="1" x1="89.0" x2="97.0" y1="177.87535656030275" y2="177.87535656030275" /><line stroke="rgb(100%,0%,0%)" stroke-width="1" x1="97.0" x2="97.0" y1="177.87535656030275" y2="173.87535656030275" /><line stroke="rgb(100%,0%,0%)" stroke-width="1" x1="97.0" x2="105.0" y1="173.87535656030275" y2="173.87535656030275" /><line stroke="rgb(100%,0%,0%)" stroke-width="1" x1="105.0" x2="105.0" y1="173.87535656030275" y2="177.87535656030275" /><line stroke="rgb(100%,0%,0%)" stroke-width="1" x1="105.0" x2="113.0" y1="177.87535656030275" y2="177.87535656030275" /><line stroke="rgb(100%,0%,0%)" stroke-width="1" x1="113.0" x2="113.0" y1="177.87535656030275" y2="173.87535656030275" /><line stroke="rgb(100%,0%,0%)" stroke-width="1" x1="113.0" x2="121.0" y1="173.87535656030275" y2="173.87535656030275" /><line stroke="rgb(100%,0%,0%)" stroke-width="1" x1="121.0" x2="121.0" y1="173.87535656030275" y2="177.87535656030275" /><line stroke="rgb(100%,0%,0%)" stroke-width="1" x1="121.0" x2="129.0" y1="177.87535656030275" y2="177.87535656030275" /><line stroke="rgb(100%,0%,0%)" stroke-width="1" x1="129.0" x2="129.0" y1="177.87535656030275" y2="173.87535656030275" /><line stroke="rgb(100%,0%,0%)" stroke-width="1" x1="129.0" x2="149.0" y1="173.87535656030275" y2="173.87535656030275" /><line stroke="rgb(100%,0%,0%)" stroke-width="1" x1="141.9720164323035" x2="149.80390199693824" y1="182.76665478133503" y2="161.6239498024287" /><line stroke="rgb(100%,0%,0%)" stroke-width="1" x1="149.80390199693824" x2="146.05297942206462" y1="161.6239498024287" y2="160.23449673114365" /><line stroke="rgb(100%,0%,0%)" stroke-width="1" x1="146.05297942206462" x2="148.83188556463475" y1="160.23449673114365" y2="152.73265158139642" /><line stroke="rgb(100%,0%,0%)" stroke-width="1" x1="148.83188556463475" x2="152.58280813950836" y1="152.73265158139642" y2="154.1221046526815" /><line stroke="rgb(100%,0%,0%)" stroke-width="1" x1="152.58280813950836" x2="155.36171428207848" y1="154.1221046526815" y2="146.62025950293423" /><line stroke="rgb(100%,0%,0%)" stroke-width="1" x1="155.36171428207848" x2="151.61079170720487" y1="146.62025950293423" y2="145.23080643164917" /><line stroke="rgb(100%,0%,0%)" stroke-width="1" x1="151.61079170720487" x2="154.389697849775" y1="145.23080643164917" y2="137.72896128190195" /><line stroke="rgb(100%,0%,0%)" stroke-width="1" x1="154.389697849775" x2="158.1406204246486" y1="137.72896128190195" y2="139.118414353187" /><line stroke="rgb(100%,0%,0%)" stroke-width="1" x1="158.1406204246486" x2="160.91952656721872" y1="139.118414353187" y2="131.61656920343978" /><line stroke="rgb(100%,0%,0%)" stroke-width="1" x1="160.91952656721872" x2="157.1686039923451" y1="131.61656920343978" y2="130.22711613215472" /><line stroke="rgb(100%,0%,0%)" stroke-width="1" x1="157.1686039923451" x2="159.94751013491523" y1="130.22711613215472" y2="122.7252709824075" /><line stroke="rgb(100%,0%,0%)" stroke-width="1" x1="159.94751013491523" x2="163.69843270978885" y1="122.7252709824075" y2="124.11472405369256" /><line stroke="rgb(100%,0%,0%)" stroke-width="1" x1="163.69843270978885" x2="166.47733885235894" y1="124.11472405369256" y2="116.61287890394532" /><line stroke="rgb(100%,0%,0%)" stroke-width="1" x1="166.47733885235894" x2="162.72641627748533" y1="116.61287890394532" y2="115.22342583266025" /><line stroke="rgb(100%,0%,0%)" stroke-width="1" x1="162.72641627748533" x2="165.50532242005545" y1="115.22342583266025" y2="107.72158068291303" /><line stroke="rgb(100%,0%,0%)" stroke-width="1" x1="165.50532242005545" x2="169.25624499492906" y1="107.72158068291303" y2="109.11103375419809" /><line stroke="rgb(100%,0%,0%)" stroke-width="1" x1="169.25624499492906" x2="172.03515113749918" y1="109.11103375419809" y2="101.60918860445085" /><line stroke="rgb(100%,0%,0%)" stroke-width="1" x1="172.03515113749918" x2="168.28422856262557" y1="101.60918860445085" y2="100.21973553316579" /><line stroke="rgb(100%,0%,0%)" stroke-width="1" x1="168.28422856262557" x2="171.0631347051957" y1="100.21973553316579" y2="92.71789038341856" /><line stroke="rgb(100%,0%,0%)" stroke-width="1" x1="171.0631347051957" x2="174.8140572800693" y1="92.71789038341856" y2="94.10734345470362" /><line stroke="rgb(100%,0%,0%)" stroke-width="1" x1="174.8140572800693" x2="177.59296342263943" y1="94.10734345470362" y2="86.60549830495638" /><line stroke="rgb(100%,0%,0%)" stroke-width="1" x1="177.59296342263943" x2="173.84204084776582" y1="86.60549830495638" y2="85.21604523367132" /><line stroke="rgb(100%,0%,0%)" stroke-width="1" x1="173.84204084776582" x2="176.62094699033594" y1="85.21604523367132" y2="77.7142000839241" /><line stroke="rgb(100%,0%,0%)" stroke-width="1" x1="176.62094699033594" x2="180.37186956520955" y1="77.7142000839241" y2="79.10365315520916" /><line stroke="rgb(100%,0%,0%)" stroke-width="1" x1="180.37186956520955" x2="183.15077570777964" y1="79.10365315520916" y2="71.60180800546192" /><line stroke="rgb(100%,0%,0%)" stroke-width="1" x1="183.15077570777964" x2="179.39985313290603" y1="71.60180800546192" y2="70.21235493417686" /><line stroke="rgb(100%,0%,0%)" stroke-width="1" x1="179.39985313290603" x2="182.17875927547615" y1="70.21235493417686" y2="62.71050978442963" /><line stroke="rgb(100%,0%,0%)" stroke-width="1" x1="182.17875927547615" x2="185.92968185034977" y1="62.71050978442963" y2="64.0999628557147" /><line stroke="rgb(100%,0%,0%)" stroke-width="1" x1="185.92968185034977" x2="188.7085879929199" y1="64.0999628557147" y2="56.59811770596746" /><line stroke="rgb(100%,0%,0%)" stroke-width="1" x1="188.7085879929199" x2="184.95766541804628" y1="56.59811770596746" y2="55.2086646346824" /><line stroke="rgb(100%,0%,0%)" stroke-width="1" x1="184.95766541804628" x2="187.7365715606164" y1="55.2086646346824" y2="47.70681948493517" /><line stroke="rgb(100%,0%,0%)" stroke-width="1" x1="187.7365715606164" x2="191.48749413549" y1="47.70681948493517" y2="49.09627255622023" /><line stroke="rgb(100%,0%,0%)" stroke-width="1" x1="191.48749413549" x2="194.26640027806013" y1="49.09627255622023" y2="41.594427406472995" /><line stroke="rgb(100%,0%,0%)" stroke-width="1" x1="194.26640027806013" x2="190.51547770318652" y1="41.594427406472995" y2="40.204974335187934" /><line stroke="rgb(100%,0%,0%)" stroke-width="1" x1="190.51547770318652" x2="193.29438384575664" y1="40.204974335187934" y2="32.7031291854407" /><line stroke="rgb(100%,0%,0%)" stroke-width="1" x1="193.29438384575664" x2="197.04530642063025" y1="32.7031291854407" y2="34.09258225672576" /><line stroke="rgb(100%,0%,0%)" stroke-width="1" x1="197.04530642063025" x2="204.52982871744373" y1="34.09258225672576" y2="13.887607921537825" /><line stroke="rgb(100%,0%,0%)" stroke-width="1" x1="206.0" x2="185.0" y1="20.0" y2="20.0" /><line stroke="rgb(100%,0%,0%)" stroke-width="1" x1="185.0" x2="185.0" y1="20.0" y2="16.0" /><line stroke="rgb(100%,0%,0%)" stroke-width="1" x1="185.0" x2="177.0" y1="16.0" y2="16.0" /><line stroke="rgb(100%,0%,0%)" stroke-width="1" x1="177.0" x2="177.0" y1="16.0" y2="20.0" /><line stroke="rgb(100%,0%,0%)" stroke-width="1" x1="177.0" x2="169.0" y1="20.0" y2="20.0" /><line stroke="rgb(100%,0%,0%)" stroke-width="1" x1="169.0" x2="169.0" y1="20.0" y2="16.0" /><line stroke="rgb(100%,0%,0%)" stroke-width="1" x1="169.0" x2="161.0" y1="16.0" y2="16.0" /><line stroke="rgb(100%,0%,0%)" stroke-width="1" x1="161.0" x2="161.0" y1="16.0" y2="20.0" /><line stroke="rgb(100%,0%,0%)" stroke-width="1" x1="161.0" x2="153.0" y1="20.0" y2="20.0" /><line stroke="rgb(100%,0%,0%)" stroke-width="1" x1="153.0" x2="153.0" y1="20.0" y2="16.0" /><line stroke="rgb(100%,0%,0%)" stroke-width="1" x1="153.0" x2="145.0" y1="16.0" y2="16.0" /><line stroke="rgb(100%,0%,0%)" stroke-width="1" x1="145.0" x2="145.0" y1="16.0" y2="20.0" /><line stroke="rgb(100%,0%,0%)" stroke-width="1" x1="145.0" x2="137.0" y1="20.0" y2="20.0" /><line stroke="rgb(100%,0%,0%)" stroke-width="1" x1="137.0" x2="137.0" y1="20.0" y2="16.0" /><line stroke="rgb(100%,0%,0%)" stroke-width="1" x1="137.0" x2="129.0" y1="16.0" y2="16.0" /><line stroke="rgb(100%,0%,0%)" stroke-width="1" x1="129.0" x2="129.0" y1="16.0" y2="20.0" /><line stroke="rgb(100%,0%,0%)" stroke-width="1" x1="129.0" x2="121.0" y1="20.0" y2="20.0" /><line stroke="rgb(100%,0%,0%)" stroke-width="1" x1="121.0" x2="121.0" y1="20.0" y2="16.0" /><line stroke="rgb(100%,0%,0%)" stroke-width="1" x1="121.0" x2="113.0" y1="16.0" y2="16.0" /><line stroke="rgb(100%,0%,0%)" stroke-width="1" x1="113.0" x2="113.0" y1="16.0" y2="20.0" /><line stroke="rgb(100%,0%,0%)" stroke-width="1" x1="113.0" x2="105.0" y1="20.0" y2="20.0" /><line stroke="rgb(100%,0%,0%)" stroke-width="1" x1="105.0" x2="105.0" y1="20.0" y2="16.0" /><line stroke="rgb(100%,0%,0%)" stroke-width="1" x1="105.0" x2="97.0" y1="16.0" y2="16.0" /><line stroke="rgb(100%,0%,0%)" stroke-width="1" x1="97.0" x2="97.0" y1="16.0" y2="20.0" /><line stroke="rgb(100%,0%,0%)" stroke-width="1" x1="97.0" x2="89.0" y1="20.0" y2="20.0" /><line stroke="rgb(100%,0%,0%)" stroke-width="1" x1="89.0" x2="89.0" y1="20.0" y2="16.0" /><line stroke="rgb(100%,0%,0%)" stroke-width="1" x1="89.0" x2="81.0" y1="16.0" y2="16.0" /><line stroke="rgb(100%,0%,0%)" stroke-width="1" x1="81.0" x2="81.0" y1="16.0" y2="20.0" /><line stroke="rgb(100%,0%,0%)" stroke-width="1" x1="81.0" x2="73.0" y1="20.0" y2="20.0" /><line stroke="rgb(100%,0%,0%)" stroke-width="1" x1="73.0" x2="73.0" y1="20.0" y2="16.0" /><line stroke="rgb(100%,0%,0%)" stroke-width="1" x1="73.0" x2="65.0" y1="16.0" y2="16.0" /><line stroke="rgb(100%,0%,0%)" stroke-width="1" x1="65.0" x2="65.0" y1="16.0" y2="20.0" /><line stroke="rgb(100%,0%,0%)" stroke-width="1" x1="65.0" x2="57.0" y1="20.0" y2="20.0" /><line stroke="rgb(100%,0%,0%)" stroke-width="1" x1="57.0" x2="57.0" y1="20.0" y2="16.0" /><line stroke="rgb(100%,0%,0%)" stroke-width="1" x1="57.0" x2="49.0" y1="16.0" y2="16.0" /><line stroke="rgb(100%,0%,0%)" stroke-width="1" x1="49.0" x2="49.0" y1="16.0" y2="20.0" /><line stroke="rgb(100%,0%,0%)" stroke-width="1" x1="49.0" x2="41.0" y1="20.0" y2="20.0" /><line stroke="rgb(100%,0%,0%)" stroke-width="1" x1="41.0" x2="41.0" y1="20.0" y2="16.0" /><line stroke="rgb(100%,0%,0%)" stroke-width="1" x1="41.0" x2="33.0" y1="16.0" y2="16.0" /><line stroke="rgb(100%,0%,0%)" stroke-width="1" x1="33.0" x2="33.0" y1="16.0" y2="20.0" /><line stroke="rgb(100%,0%,0%)" stroke-width="1" x1="33.0" x2="12.0" y1="20.0" y2="20.0" /></svg>