<?xml version="1.0" encoding="utf-8" ?>
<svg baseProfile="full" height="240mm" version="1.1" viewBox="0 0 240 240" width="240mm" xmlns="http://www.w3.org/2000/svg" xmlns:ev="http://www.w3.org/2001/xml-events" xmlns:xlink="http://www.w3.org/1999/xlink"><defs /><line stroke="rgb(100%,0%,0%)" stroke-width="1" x1="17.119673388553153" x2="24.905030000933202" y1="12.536507612960866" y2="32.709896830684166" /><line stroke="rgb(100%,0%,0%)" stroke-width="1" x1="24.905030000933202" x2="22.106220355793525" y1="32.709896830684166" y2="33.790019309976735" /><line stroke="rgb(100%,0%,0%)" stroke-width="1" x1="22.106220355793525" x2="24.986546967240372" y1="33.790019309976735" y2="41.25351169701587" /><line stroke="rgb(100%,0%,0%)" stroke-width="1" x1="24.986546967240372" x2="27.78535661238005" y1="41.25351169701587" y2="40.1733892177233" /><line stroke="rgb(100%,0%,0%)" stroke-width="1" x1="27.78535661238005" x2="30.6656832238269" y1="40.1733892177233" y2="47.63688160476243" /><line stroke="rgb(100%,0%,0%)" stroke-width="1" x1="30.6656832238269" x2="27.866873578687226" y1="47.63688160476243" y2="48.717004084055" /><line stroke="rgb(100%,0%,0%)" stroke-width="1" x1="27.866873578687226" x2="30.747200190134073" y1="48.717004084055" y2="56.18049647109413" /><line stroke="rgb(100%,0%,0%)" stroke-width="1" x1="30.747200190134073" x2="33.54600983527375" y1="56.18049647109413" y2="55.10037399180156" /><line stroke="rgb(100%,0%,0%)" stroke-width="1" x1="33.54600983527375" x2="36.4263364467206" y1="55.10037399180156" y2="62.56386637884069" /><line stroke="rgb(100%,0%,0%)" stroke-width="1" x1="36.4263364467206" x2="33.62752680158092" y1="62.56386637884069" y2="63.64398885813326" /><line stroke="rgb(100%,0%,0%)" stroke-width="1" x1="33.62752680158092" x2="36.50785341302777" y1="63.64398885813326" y2="71.1074812451724" /><line stroke="rgb(100%,0%,0%)" stroke-width="1" x1="36.50785341302777" x2="39.306663058167445" y1="71.1074812451724" y2="70.02735876587982" /><line stroke="rgb(100%,0%,0%)" stroke-width="1" x1="39.306663058167445" x2="42.1869896696143" y1="70.02735876587982" y2="77.49085115291896" /><line stroke="rgb(100%,0%,0%)" stroke-width="1" x1="42.1869896696143" x2="39.38818002447462" y1="77.49085115291896" y2="78.57097363221153" /><line stroke="rgb(100%,0%,0%)" stroke-width="1" x1="39.38818002447462" x2="42.26850663592147" y1="78.57097363221153" y2="86.03446601925066" /><line stroke="rgb(100%,0%,0%)" stroke-width="1" x1="42.26850663592147" x2="45.067316281061146" y1="86.03446601925066" y2="84.95434353995809" /><line stroke="rgb(100%,0%,0%)" stroke-width="1" x1="45.067316281061146" x2="47.94764289250799" y1="84.95434353995809" y2="92.41783592699723" /><line stroke="rgb(100%,0%,0%)" stroke-width="1" x1="47.94764289250799" x2="45.148833247368316" y1="92.41783592699723" y2="93.4979584062898" /><line stroke="rgb(100%,0%,0%)" stroke-width="1" x1="45.148833247368316" x2="48.02915985881516" y1="93.4979584062898" y2="100.96145079332892" /><line stroke="rgb(100%,0%,0%)" stroke-width="1" x1="48.02915985881516" x2="50.82796950395484" y1="100.96145079332892" y2="99.88132831403635" /><line stroke="rgb(100%,0%,0%)" stroke-width="1" x1="50.82796950395484" x2="53.708296115401694" y1="99.88132831403635" y2="107.34482070107549" /><line stroke="rgb(100%,0%,0%)" stroke-width="1" x1="53.708296115401694" x2="50.90948647026202" y1="107.34482070107549" y2="108.42494318036806" /><line stroke="rgb(100%,0%,0%)" stroke-width="1" x1="50.90948647026202" x2="53.789813081708864" y1="108.42494318036806" y2="115.8884355674072" /><line stroke="rgb(100%,0%,0%)" stroke-width="1" x1="53.789813081708864" x2="56.58862272684854" y1="115.8884355674072" y2="114.80831308811463" /><line stroke="rgb(100%,0%,0%)" stroke-width="1" x1="56.58862272684854" x2="59.46894933829539" y1="114.80831308811463" y2="122.27180547515376" /><line stroke="rgb(100%,0%,0%)" stroke-width="1" x1="59.46894933829539" x2="56.67013969315571" y1="122.27180547515376" y2="123.35192795444632" /><line stroke="rgb(100%,0%,0%)" stroke-width="1" x1="56.67013969315571" x2="59.55046630460256" y1="123.35192795444632" y2="130.81542034148544" /><line stroke="rgb(100%,0%,0%)" stroke-width="1" x1="59.55046630460256" x2="62.349275949742236" y1="130.81542034148544" y2="129.73529786219288" /><line stroke="rgb(100%,0%,0%)" stroke-width="1" x1="62.349275949742236" x2="65.2296025611891" y1="129.73529786219288" y2="137.19879024923202" /><line stroke="rgb(100%,0%,0%)" stroke-width="1" x1="65.2296025611891" x2="62.43079291604942" y1="137.19879024923202" y2="138.27891272852457" /><line stroke="rgb(100%,0%,0%)" stroke-width="1" x1="62.43079291604942" x2="65.31111952749626" y1="138.27891272852457" y2="145.7424051155637" /><line stroke="rgb(100%,0%,0%)" stroke-width="1" x1="65.31111952749626" x2="68.10992917263593" y1="145.7424051155637" y2="144.66228263627116" /><line stroke="rgb(100%,0%,0%)" stroke-width="1" x1="68.10992917263593" x2="76.25532661144685" y1="144.66228263627116" y2="165.76860840237435" /><line stroke="rgb(100%,0%,0%)" stroke-width="1" x1="65.375" x2="85.375" y1="158.30511601533522" y2="158.30511601533522" /><line stroke="rgb(100%,0%,0%)" stroke-width="1" x1="85.375" x2="85.375" y1="158.30511601533522" y2="161.30511601533522" /><line stroke="rgb(100%,0%,0%)" stroke-width="1" x1="85.375" x2="93.375" y1="161.30511601533522" y2="161.30511601533522" /><line stroke="rgb(100%,0%,0%)" stroke-width="1" x1="93.375" x2="93.375" y1="161.30511601533522" y2="158.30511601533522" /><line stroke="rgb(100%,0%,0%)" stroke-width="1" x1="93.375" x2="101.375" y1="158.30511601533522" y2="158.30511601533522" /><line stroke="rgb(100%,0%,0%)" stroke-width="1" x1="101.375" x2="101.375" y1="158.30511601533522" y2="161.30511601533522" /><line stroke="rgb(100%,0%,0%)" stroke-width="1" x1="101.375" x2="109.375" y1="161.30511601533522" y2="161.30511601533522" /><line stroke="rgb(100%,0%,0%)" stroke-width="1" x1="109.375" x2="109.375" y1="161.30511601533522" y2="158.30511601533522" /><line stroke="rgb(100%,0%,0%)" stroke-width="1" x1="109.375" x2="117.375" y1="158.30511601533522" y2="158.30511601533522" /><line stroke="rgb(100%,0%,0%)" stroke-width="1" x1="117.375" x2="117.375" y1="158.30511601533522" y2="161.30511601533522" /><line stroke="rgb(100%,0%,0%)" stroke-width="1" x1="117.375" x2="125.375" y1="161.30511601533522" y2="161.30511601533522" /><line stroke="rgb(100%,0%,0%)" stroke-width="1" x1="125.375" x2="125.375" y1="161.30511601533522" y2="158.30511601533522" /><line stroke="rgb(100%,0%,0%)" stroke-width="1" x1="125.375" x2="145.375" y1="158.30511601533522" y2="158.30511601533522" /><line stroke="rgb(100%,0%,0%)" stroke-width="1" x1="134.49467338855314" x2="142.64007082736407" y1="165.76860840237435" y2="144.66228263627116" /><line stroke="rgb(100%,0%,0%)" stroke-width="1" x1="142.64007082736407" x2="145.43888047250374" y1="144.66228263627116" y2="145.7424051155637" /><line stroke="rgb(100%,0%,0%)" stroke-width="1" x1="145.43888047250374" x2="148.31920708395057" y1="145.7424051155637" y2="138.27891272852457" /><line stroke="rgb(100%,0%,0%)" stroke-width="1" x1="148.31920708395057" x2="145.5203974388109" y1="138.27891272852457" y2="137.19879024923202" /><line stroke="rgb(100%,0%,0%)" stroke-width="1" x1="145.5203974388109" x2="148.40072405025776" y1="137.19879024923202" y2="129.73529786219288" /><line stroke="rgb(100%,0%,0%)" stroke-width="1" x1="148.40072405025776" x2="151.19953369539743" y1="129.73529786219288" y2="130.81542034148544" /><line stroke="rgb(100%,0%,0%)" stroke-width="1" x1="151.19953369539743" x2="154.07986030684427" y1="130.81542034148544" y2="123.35192795444632" /><line stroke="rgb(100%,0%,0%)" stroke-width="1" x1="154.07986030684427" x2="151.2810506617046" y1="123.35192795444632" y2="122.27180547515376" /><line stroke="rgb(100%,0%,0%)" stroke-width="1" x1="151.2810506617046" x2="154.16137727315146" y1="122.27180547515376" y2="114.80831308811463" /><line stroke="rgb(100%,0%,0%)" stroke-width="1" x1="154.16137727315146" x2="156.96018691829113" y1="114.80831308811463" y2="115.8884355674072" /><line stroke="rgb(100%,0%,0%)" stroke-width="1" x1="156.96018691829113" x2="159.840513529738" y1="115.8884355674072" y2="108.42494318036806" /><line stroke="rgb(100%,0%,0%)" stroke-width="1" x1="159.840513529738" x2="157.04170388459832" y1="108.42494318036806" y2="107.34482070107549" /><line stroke="rgb(100%,0%,0%)" stroke-width="1" x1="157.04170388459832" x2="159.92203049604515" y1="107.34482070107549" y2="99.88132831403635" /><line stroke="rgb(100%,0%,0%)" stroke-width="1" x1="159.92203049604515" x2="162.72084014118482" y1="99.88132831403635" y2="100.96145079332892" /><line stroke="rgb(100%,0%,0%)" stroke-width="1" x1="162.72084014118482" x2="165.60116675263168" y1="100.96145079332892" y2="93.4979584062898" /><line stroke="rgb(100%,0%,0%)" stroke-width="1" x1="165.60116675263168" x2="162.802357107492" y1="93.4979584062898" y2="92.41783592699723" /><line stroke="rgb(100%,0%,0%)" stroke-width="1" x1="162.802357107492" x2="165.68268371893885" y1="92.41783592699723" y2="84.95434353995809" /><line stroke="rgb(100%,0%,0%)" stroke-width="1" x1="165.68268371893885" x2="168.48149336407852" y1="84.95434353995809" y2="86.03446601925066" /><line stroke="rgb(100%,0%,0%)" stroke-width="1" x1="168.48149336407852" x2="171.36181997552538" y1="86.03446601925066" y2="78.57097363221153" /><line stroke="rgb(100%,0%,0%)" stroke-width="1" x1="171.36181997552538" x2="168.5630103303857" y1="78.57097363221153" y2="77.49085115291896" /><line stroke="rgb(100%,0%,0%)" stroke-width="1" x1="168.5630103303857" x2="171.44333694183254" y1="77.49085115291896" y2="70.02735876587982" /><line stroke="rgb(100%,0%,0%)" stroke-width="1" x1="171.44333694183254" x2="174.2421465869722" y1="70.02735876587982" y2="71.1074812451724" /><line stroke="rgb(100%,0%,0%)" stroke-width="1" x1="174.2421465869722" x2="177.12247319841907" y1="71.1074812451724" y2="63.64398885813326" /><line stroke="rgb(100%,0%,0%)" stroke-width="1" x1="177.12247319841907" x2="174.3236635532794" y1="63.64398885813326" y2="62.56386637884069" /><line stroke="rgb(100%,0%,0%)" stroke-width="1" x1="174.3236635532794" x2="177.20399016472626" y1="62.56386637884069" y2="55.10037399180156" /><line stroke="rgb(100%,0%,0%)" stroke-width="1" x1="177.20399016472626" x2="180.00279980986593" y1="55.10037399180156" y2="56.18049647109413" /><line stroke="rgb(100%,0%,0%)" stroke-width="1" x1="180.00279980986593" x2="182.88312642131277" y1="56.18049647109413" y2="48.717004084055" /><line stroke="rgb(100%,0%,0%)" stroke-width="1" x1="182.88312642131277" x2="180.0843167761731" y1="48.717004084055" y2="47.63688160476243" /><line stroke="rgb(100%,0%,0%)" stroke-width="1" x1="180.0843167761731" x2="182.96464338761996" y1="47.63688160476243" y2="40.1733892177233" /><line stroke="rgb(100%,0%,0%)" stroke-width="1" x1="182.96464338761996" x2="185.76345303275963" y1="40.1733892177233" y2="41.25351169701587" /><line stroke="rgb(100%,0%,0%)" stroke-width="1" x1="185.76345303275963" x2="188.64377964420646" y1="41.25351169701587" y2="33.790019309976735" /><line stroke="rgb(100%,0%,0%)" stroke-width="1" x1="188.64377964420646" x2="185.8449699990668" y1="33.790019309976735" y2="32.709896830684166" /><line stroke="rgb(100%,0%,0%)" stroke-width="1" x1="185.8449699990668" x2="193.63032661144686" y1="32.709896830684166" y2="12.536507612960866" /><line stroke="rgb(100%,0%,0%)" stroke-width="1" x1="198.75" x2="173.375" y1="20.0" y2="20.0" /><line stroke="rgb(100%,0%,0%)" stroke-width="1" x1="173.375" x2="173.375" y1="20.0" y2="17.5" /><line stroke="rgb(100%,0%,0%)" stroke-width="1" x1="173.375" x2="165.375" y1="17.5" y2="17.5" /><line stroke="rgb(100%,0%,0%)" stroke-width="1" x1="165.375" x2="165.375" y1="17.5" y2="20.0" /><line stroke="rgb(100%,0%,0%)" stroke-width="1" x1="165.375" x2="157.375" y1="20.0" y2="20.0" /><line stroke="rgb(100%,0%,0%)" stroke-width="1" x1="157.375" x2="157.375" y1="20.0" y2="17.5" /><line stroke="rgb(100%,0%,0%)" stroke-width="1" x1="157.375" x2="149.375" y1="17.5" y2="17.5" /><line stroke="rgb(100%,0%,0%)" stroke-width="1" x1="149.375" x2="149.375" y1="17.5" y2="20.0" /><line stroke="rgb(100%,0%,0%)" stroke-width="1" x1="149.375" x2="141.375" y1="20.0" y2="20.0" /><line stroke="rgb(100%,0%,0%)" stroke-width="1" x1="141.375" x2="141.375" y1="20.0" y2="17.5" /><line stroke="rgb(100%,0%,0%)" stroke-width="1" x1="141.375" x2="133.375" y1="17.5" y2="17.5" /><line stroke="rgb(100%,0%,0%)" stroke-width="1" x1="133.375" x2="133.375" y1="17.5" y2="20.0" /><line stroke="rgb(100%,0%,0%)" stroke-width="1" x1="133.375" x2="125.375" y1="20.0" y2="20.0" /><line stroke="rgb(100%,0%,0%)" stroke-width="1" x1="125.375" x2="125.375" y1="20.0" y2="17.5" /><line stroke="rgb(100%,0%,0%)" stroke-width="1" x1="125.375" x2="117.375" y1="17.5" y2="17.5" /><line stroke="rgb(100%,0%,0%)" stroke-width="1" x1="117.375" x2="117.375" y1="17.5" y2="20.0" /><line stroke="rgb(100%,0%,0%)" stroke-width="1" x1="117.375" x2="109.375" y1="20.0" y2="20.0" /><line stroke="rgb(100%,0%,0%)" stroke-width="1" x1="109.375" x2="109.375" y1="20.0" y2="17.5" /><line stroke="rgb(100%,0%,0%)" stroke-width="1" x1="109.375" x2="101.375" y1="17.5" y2="17.5" /><line stroke="rgb(100%,0%,0%)" stroke-width="1" x1="101.375" x2="101.375" y1="17.5" y2="20.0" /><line stroke="rgb(100%,0%,0%)" stroke-width="1" x1="101.375" x2="93.375" y1="20.0" y2="20.0" /><line stroke="rgb(100%,0%,0%)" stroke-width="1" x1="93.375" x2="93.375" y1="20.0" y2="17.5" /><line stroke="rgb(100%,0%,0%)" stroke-width="1" x1="93.375" x2="85.375" y1="17.5" y2="17.5" /><line stroke="rgb(100%,0%,0%)" stroke-width="1" x1="85.375" x2="85.375" y1="17.5" y2="20.0" /><line stroke="rgb(100%,0%,0%)" stroke-width="1" x1="85.375" x2="77.375" y1="20.0" y2="20.0" /><line stroke="rgb(100%,0%,0%)" stroke-width="1" x1="77.375" x2="77.375" y1="20.0" y2="17.5" /><line stroke="rgb(100%,0%,0%)" stroke-width="1" x1="77.375" x2="69.375" y1="17.5" y2="17.5" /><line stroke="rgb(100%,0%,0%)" stroke-width="1" x1="69.375" x2="69.375" y1="17.5" y2="20.0" /><line stroke="rgb(100%,0%,0%)" stroke-width="1" x1="69.375" x2="61.375" y1="20.0" y2="20.0" /><line stroke="rgb(100%,0%,0%)" stroke-width="1" x1="61.375" x2="61.375" y1="20.0" y2="17.5" /><line stroke="rgb(100%,0%,0%)" stroke-width="1" x1="61.375" x2="53.375" y1="17.5" y2="17.5" /><line stroke="rgb(100%,0%,0%)" stroke-width="1" x1="53.375" x2="53.375" y1="17.5" y2="20.0" /><line stroke="rgb(100%,0%,0%)" stroke-width="1" x1="53.375" x2="45.375" y1="20.0" y2="20.0" /><line stroke="rgb(100%,0%,0%)" stroke-width="1" x1="45.375" x2="45.375" y1="20.0" y2="17.5" /><line stroke="rgb(100%,0%,0%)" stroke-width="1" x1="45.375" x2="37.375" y1="17.5" y2="17.5" /><line stroke="rgb(100%,0%,0%)" stroke-width="1" x1="37.375" x2="37.375" y1="17.5" y2="20.0" /><line stroke="rgb(100%,0%,0%)" stroke-width="1" x1="37.375" x2="12.0" y1="20.0" y2="20.0" /></svg>