<?xml version="1.0" encoding="utf-8" ?>
<svg baseProfile="full" height="240mm" version="1.1" viewBox="0 0 240 240" width="240mm" xmlns="http://www.w3.org/2000/svg" xmlns:ev="http://www.w3.org/2001/xml-events" xmlns:xlink="http://www.w3.org/1999/xlink"><defs /><line stroke="rgb(100%,0%,0%)" stroke-width="1" x1="13.463686875404138" x2="21.062180493423696" y1="13.894542544801753" y2="34.34053671997606" /><line stroke="rgb(100%,0%,0%)" stroke-width="1" x1="21.062180493423696" x2="24.811626100422167" y1="34.34053671997606" y2="32.947102961177364" /><line stroke="rgb(100%,0%,0%)" stroke-width="1" x1="24.811626100422167" x2="27.59849361801956" y1="32.947102961177364" y2="40.445994175174306" /><line stroke="rgb(100%,0%,0%)" stroke-width="1" x1="27.59849361801956" x2="23.84904801102109" y1="40.445994175174306" y2="41.839427933973" /><line stroke="rgb(100%,0%,0%)" stroke-width="1" x1="23.84904801102109" x2="26.635915528618483" y1="41.839427933973" y2="49.33831914796994" /><line stroke="rgb(100%,0%,0%)" stroke-width="1" x1="26.635915528618483" x2="30.385361135616954" y1="49.33831914796994" y2="47.94488538917125" /><line stroke="rgb(100%,0%,0%)" stroke-width="1" x1="30.385361135616954" x2="33.17222865321435" y1="47.94488538917125" y2="55.44377660316819" /><line stroke="rgb(100%,0%,0%)" stroke-width="1" x1="33.17222865321435" x2="29.422783046215876" y1="55.44377660316819" y2="56.83721036196688" /><line stroke="rgb(100%,0%,0%)" stroke-width="1" x1="29.422783046215876" x2="32.20965056381326" y1="56.83721036196688" y2="64.33610157596382" /><line stroke="rgb(100%,0%,0%)" stroke-width="1" x1="32.20965056381326" x2="35.95909617081173" y1="64.33610157596382" y2="62.94266781716513" /><line stroke="rgb(100%,0%,0%)" stroke-width="1" x1="35.95909617081173" x2="38.74596368840913" y1="62.94266781716513" y2="70.44155903116207" /><line stroke="rgb(100%,0%,0%)" stroke-width="1" x1="38.74596368840913" x2="34.996518081410656" y1="70.44155903116207" y2="71.83499278996076" /><line stroke="rgb(100%,0%,0%)" stroke-width="1" x1="34.996518081410656" x2="37.78338559900805" y1="71.83499278996076" y2="79.3338840039577" /><line stroke="rgb(100%,0%,0%)" stroke-width="1" x1="37.78338559900805" x2="41.53283120600652" y1="79.3338840039577" y2="77.94045024515901" /><line stroke="rgb(100%,0%,0%)" stroke-width="1" x1="41.53283120600652" x2="44.31969872360391" y1="77.94045024515901" y2="85.43934145915595" /><line stroke="rgb(100%,0%,0%)" stroke-width="1" x1="44.31969872360391" x2="40.57025311660544" y1="85.43934145915595" y2="86.83277521795465" /><line stroke="rgb(100%,0%,0%)" stroke-width="1" x1="40.57025311660544" x2="43.357120634202836" y1="86.83277521795465" y2="94.33166643195159" /><line stroke="rgb(100%,0%,0%)" stroke-width="1" x1="43.357120634202836" x2="47.10656624120131" y1="94.33166643195159" y2="92.9382326731529" /><line stroke="rgb(100%,0%,0%)" stroke-width="1" x1="47.10656624120131" x2="49.89343375879869" y1="92.9382326731529" y2="100.43712388714985" /><line stroke="rgb(100%,0%,0%)" stroke-width="1" x1="49.89343375879869" x2="46.14398815180022" y1="100.43712388714985" y2="101.83055764594855" /><line stroke="rgb(100%,0%,0%)" stroke-width="1" x1="46.14398815180022" x2="48.930855669397616" y1="101.83055764594855" y2="109.32944885994549" /><line stroke="rgb(100%,0%,0%)" stroke-width="1" x1="48.930855669397616" x2="52.68030127639609" y1="109.32944885994549" y2="107.9360151011468" /><line stroke="rgb(100%,0%,0%)" stroke-width="1" x1="52.68030127639609" x2="55.46716879399348" y1="107.9360151011468" y2="115.43490631514373" /><line stroke="rgb(100%,0%,0%)" stroke-width="1" x1="55.46716879399348" x2="51.71772318699501" y1="115.43490631514373" y2="116.82834007394243" /><line stroke="rgb(100%,0%,0%)" stroke-width="1" x1="51.71772318699501" x2="54.5045907045924" y1="116.82834007394243" y2="124.32723128793937" /><line stroke="rgb(100%,0%,0%)" stroke-width="1" x1="54.5045907045924" x2="58.25403631159087" y1="124.32723128793937" y2="122.93379752914068" /><line stroke="rgb(100%,0%,0%)" stroke-width="1" x1="58.25403631159087" x2="61.04090382918827" y1="122.93379752914068" y2="130.43268874313762" /><line stroke="rgb(100%,0%,0%)" stroke-width="1" x1="61.04090382918827" x2="57.291458222189796" y1="130.43268874313762" y2="131.8261225019363" /><line stroke="rgb(100%,0%,0%)" stroke-width="1" x1="57.291458222189796" x2="60.07832573978718" y1="131.8261225019363" y2="139.32501371593324" /><line stroke="rgb(100%,0%,0%)" stroke-width="1" x1="60.07832573978718" x2="63.82777134678565" y1="139.32501371593324" y2="137.93157995713455" /><line stroke="rgb(100%,0%,0%)" stroke-width="1" x1="63.82777134678565" x2="66.61463886438304" y1="137.93157995713455" y2="145.4304711711315" /><line stroke="rgb(100%,0%,0%)" stroke-width="1" x1="66.61463886438304" x2="62.86519325738457" y1="145.4304711711315" y2="146.8239049299302" /><line stroke="rgb(100%,0%,0%)" stroke-width="1" x1="62.86519325738457" x2="65.65206077498196" y1="146.8239049299302" y2="154.32279614392715" /><line stroke="rgb(100%,0%,0%)" stroke-width="1" x1="65.65206077498196" x2="69.40150638198044" y1="154.32279614392715" y2="152.92936238512846" /><line stroke="rgb(100%,0%,0%)" stroke-width="1" x1="69.40150638198044" x2="72.18837389957784" y1="152.92936238512846" y2="160.42825359912538" /><line stroke="rgb(100%,0%,0%)" stroke-width="1" x1="72.18837389957784" x2="68.43892829257936" y1="160.42825359912538" y2="161.82168735792408" /><line stroke="rgb(100%,0%,0%)" stroke-width="1" x1="68.43892829257936" x2="76.03742191059891" y1="161.82168735792408" y2="182.2676815330984" /><line stroke="rgb(100%,0%,0%)" stroke-width="1" x1="69.0" x2="89.0" y1="177.37535656030275" y2="177.37535656030275" /><line stroke="rgb(100%,0%,0%)" stroke-width="1" x1="89.0" x2="89.0" y1="177.37535656030275" y2="173.37535656030275" /><line stroke="rgb(100%,0%,0%)" stroke-width="1" x1="89.0" x2="97.0" y1="173.37535656030275" y2="173.37535656030275" /><line stroke="rgb(100%,0%,0%)" stroke-width="1" x1="97.0" x2="97.0" y1="173.37535656030275" y2="177.37535656030275" /><line stroke="rgb(100%,0%,0%)" stroke-width="1" x1="97.0" x2="105.0" y1="177.37535656030275" y2="177.37535656030275" /><line stroke="rgb(100%,0%,0%)" stroke-width="1" x1="105.0" x2="105.0" y1="177.37535656030275" y2="173.37535656030275" /><line stroke="rgb(100%,0%,0%)" stroke-width="1" x1="105.0" x2="113.0" y1="173.37535656030275" y2="173.37535656030275" /><line stroke="rgb(100%,0%,0%)" stroke-width="1" x1="113.0" x2="113.0" y1="173.37535656030275" y2="177.37535656030275" /><line stroke="rgb(100%,0%,0%)" stroke-width="1" x1="113.0" x2="121.0" y1="177.37535656030275" y2="177.37535656030275" /><line stroke="rgb(100%,0%,0%)" stroke-width="1" x1="121.0" x2="121.0" y1="177.37535656030275" y2="173.37535656030275" /><line stroke="rgb(100%,0%,0%)" stroke-width="1" x1="121.0" x2="129.0" y1="173.37535656030275" y2="173.37535656030275" /><line stroke="rgb(100%,0%,0%)" stroke-width="1" x1="129.0" x2="129.0" y1="173.37535656030275" y2="177.37535656030275" /><line stroke="rgb(100%,0%,0%)" stroke-width="1" x1="129.0" x2="149.0" y1="177.37535656030275" y2="177.37535656030275" /><line stroke="rgb(100%,0%,0%)" stroke-width="1" x1="141.9625780894011" x2="149.56107170742064" y1="182.2676815330984" y2="161.82168735792408" /><line stroke="rgb(100%,0%,0%)" stroke-width="1" x1="149.56107170742064" x2="145.81162610042216" y1="161.82168735792408" y2="160.42825359912538" /><line stroke="rgb(100%,0%,0%)" stroke-width="1" x1="145.81162610042216" x2="148.59849361801957" y1="160.42825359912538" y2="152.92936238512846" /><line stroke="rgb(100%,0%,0%)" stroke-width="1" x1="148.59849361801957" x2="152.34793922501805" y1="152.92936238512846" y2="154.32279614392715" /><line stroke="rgb(100%,0%,0%)" stroke-width="1" x1="152.34793922501805" x2="155.13480674261544" y1="154.32279614392715" y2="146.8239049299302" /><line stroke="rgb(100%,0%,0%)" stroke-width="1" x1="155.13480674261544" x2="151.38536113561696" y1="146.8239049299302" y2="145.4304711711315" /><line stroke="rgb(100%,0%,0%)" stroke-width="1" x1="151.38536113561696" x2="154.17222865321435" y1="145.4304711711315" y2="137.93157995713455" /><line stroke="rgb(100%,0%,0%)" stroke-width="1" x1="154.17222865321435" x2="157.92167426021282" y1="137.93157995713455" y2="139.32501371593324" /><line stroke="rgb(100%,0%,0%)" stroke-width="1" x1="157.92167426021282" x2="160.7085417778102" y1="139.32501371593324" y2="131.8261225019363" /><line stroke="rgb(100%,0%,0%)" stroke-width="1" x1="160.7085417778102" x2="156.95909617081173" y1="131.8261225019363" y2="130.43268874313762" /><line stroke="rgb(100%,0%,0%)" stroke-width="1" x1="156.95909617081173" x2="159.74596368840912" y1="130.43268874313762" y2="122.93379752914068" /><line stroke="rgb(100%,0%,0%)" stroke-width="1" x1="159.74596368840912" x2="163.4954092954076" y1="122.93379752914068" y2="124.32723128793937" /><line stroke="rgb(100%,0%,0%)" stroke-width="1" x1="163.4954092954076" x2="166.28227681300498" y1="124.32723128793937" y2="116.82834007394243" /><line stroke="rgb(100%,0%,0%)" stroke-width="1" x1="166.28227681300498" x2="162.5328312060065" y1="116.82834007394243" y2="115.43490631514373" /><line stroke="rgb(100%,0%,0%)" stroke-width="1" x1="162.5328312060065" x2="165.31969872360392" y1="115.43490631514373" y2="107.9360151011468" /><line stroke="rgb(100%,0%,0%)" stroke-width="1" x1="165.31969872360392" x2="169.0691443306024" y1="107.9360151011468" y2="109.32944885994549" /><line stroke="rgb(100%,0%,0%)" stroke-width="1" x1="169.0691443306024" x2="171.85601184819978" y1="109.32944885994549" y2="101.83055764594855" /><line stroke="rgb(100%,0%,0%)" stroke-width="1" x1="171.85601184819978" x2="168.1065662412013" y1="101.83055764594855" y2="100.43712388714985" /><line stroke="rgb(100%,0%,0%)" stroke-width="1" x1="168.1065662412013" x2="170.8934337587987" y1="100.43712388714985" y2="92.9382326731529" /><line stroke="rgb(100%,0%,0%)" stroke-width="1" x1="170.8934337587987" x2="174.64287936579717" y1="92.9382326731529" y2="94.33166643195159" /><line stroke="rgb(100%,0%,0%)" stroke-width="1" x1="174.64287936579717" x2="177.42974688339456" y1="94.33166643195159" y2="86.83277521795465" /><line stroke="rgb(100%,0%,0%)" stroke-width="1" x1="177.42974688339456" x2="173.68030127639608" y1="86.83277521795465" y2="85.43934145915595" /><line stroke="rgb(100%,0%,0%)" stroke-width="1" x1="173.68030127639608" x2="176.4671687939935" y1="85.43934145915595" y2="77.94045024515901" /><line stroke="rgb(100%,0%,0%)" stroke-width="1" x1="176.4671687939935" x2="180.21661440099197" y1="77.94045024515901" y2="79.3338840039577" /><line stroke="rgb(100%,0%,0%)" stroke-width="1" x1="180.21661440099197" x2="183.00348191858936" y1="79.3338840039577" y2="71.83499278996076" /><line stroke="rgb(100%,0%,0%)" stroke-width="1" x1="183.00348191858936" x2="179.25403631159088" y1="71.83499278996076" y2="70.44155903116207" /><line stroke="rgb(100%,0%,0%)" stroke-width="1" x1="179.25403631159088" x2="182.04090382918827" y1="70.44155903116207" y2="62.94266781716513" /><line stroke="rgb(100%,0%,0%)" stroke-width="1" x1="182.04090382918827" x2="185.79034943618674" y1="62.94266781716513" y2="64.33610157596382" /><line stroke="rgb(100%,0%,0%)" stroke-width="1" x1="185.79034943618674" x2="188.57721695378413" y1="64.33610157596382" y2="56.83721036196688" /><line stroke="rgb(100%,0%,0%)" stroke-width="1" x1="188.57721695378413" x2="184.82777134678565" y1="56.83721036196688" y2="55.44377660316819" /><line stroke="rgb(100%,0%,0%)" stroke-width="1" x1="184.82777134678565" x2="187.61463886438304" y1="55.44377660316819" y2="47.94488538917125" /><line stroke="rgb(100%,0%,0%)" stroke-width="1" x1="187.61463886438304" x2="191.36408447138152" y1="47.94488538917125" y2="49.33831914796994" /><line stroke="rgb(100%,0%,0%)" stroke-width="1" x1="191.36408447138152" x2="194.1509519889789" y1="49.33831914796994" y2="41.839427933973" /><line stroke="rgb(100%,0%,0%)" stroke-width="1" x1="194.1509519889789" x2="190.40150638198043" y1="41.839427933973" y2="40.445994175174306" /><line stroke="rgb(100%,0%,0%)" stroke-width="1" x1="190.40150638198043" x2="193.18837389957784" y1="40.445994175174306" y2="32.947102961177364" /><line stroke="rgb(100%,0%,0%)" stroke-width="1" x1="193.18837389957784" x2="196.93781950657632" y1="32.947102961177364" y2="34.34053671997606" /><line stroke="rgb(100%,0%,0%)" stroke-width="1" x1="196.93781950657632" x2="204.53631312459586" y1="34.34053671997606" y2="13.894542544801753" /><line stroke="rgb(100%,0%,0%)" stroke-width="1" x1="206.0" x2="185.0" y1="20.0" y2="20.0" /><line stroke="rgb(100%,0%,0%)" stroke-width="1" x1="185.0" x2="185.0" y1="20.0" y2="16.0" /><line stroke="rgb(100%,0%,0%)" stroke-width="1" x1="185.0" x2="177.0" y1="16.0" y2="16.0" /><line stroke="rgb(100%,0%,0%)" stroke-width="1" x1="177.0" x2="177.0" y1="16.0" y2="20.0" /><line stroke="rgb(100%,0%,0%)" stroke-width="1" x1="177.0" x2="169.0" y1="20.0" y2="20.0" /><line stroke="rgb(100%,0%,0%)" stroke-width="1" x1="169.0" x2="169.0" y1="20.0" y2="16.0" /><line stroke="rgb(100%,0%,0%)" stroke-width="1" x1="169.0" x2="161.0" y1="16.0" y2="16.0" /><line stroke="rgb(100%,0%,0%)" stroke-width="1" x1="161.0" x2="161.0" y1="16.0" y2="20.0" /><line stroke="rgb(100%,0%,0%)" stroke-width="1" x1="161.0" x2="153.0" y1="20.0" y2="20.0" /><line stroke="rgb(100%,0%,0%)" stroke-width="1" x1="153.0" x2="153.0" y1="20.0" y2="16.0" /><line stroke="rgb(100%,0%,0%)" stroke-width="1" x1="153.0" x2="145.0" y1="16.0" y2="16.0" /><line stroke="rgb(100%,0%,0%)" stroke-width="1" x1="145.0" x2="145.0" y1="16.0" y2="20.0" /><line stroke="rgb(100%,0%,0%)" stroke-width="1" x1="145.0" x2="137.0" y1="20.0" y2="20.0" /><line stroke="rgb(100%,0%,0%)" stroke-width="1" x1="137.0" x2="137.0" y1="20.0" y2="16.0" /><line stroke="rgb(100%,0%,0%)" stroke-width="1" x1="137.0" x2="129.0" y1="16.0" y2="16.0" /><line stroke="rgb(100%,0%,0%)" stroke-width="1" x1="129.0" x2="129.0" y1="16.0" y2="20.0" /><line stroke="rgb(100%,0%,0%)" stroke-width="1" x1="129.0" x2="121.0" y1="20.0" y2="20.0" /><line stroke="rgb(100%,0%,0%)" stroke-width="1" x1="121.0" x2="121.0" y1="20.0" y2="16.0" /><line stroke="rgb(100%,0%,0%)" stroke-width="1" x1="121.0" x2="113.0" y1="16.0" y2="16.0" /><line stroke="rgb(100%,0%,0%)" stroke-width="1" x1="113.0" x2="113.0" y1="16.0" y2="20.0" /><line stroke="rgb(100%,0%,0%)" stroke-width="1" x1="113.0" x2="105.0" y1="20.0" y2="20.0" /><line stroke="rgb(100%,0%,0%)" stroke-width="1" x1="105.0" x2="105.0" y1="20.0" y2="16.0" /><line stroke="rgb(100%,0%,0%)" stroke-width="1" x1="105.0" x2="97.0" y1="16.0" y2="16.0" /><line stroke="rgb(100%,0%,0%)" stroke-width="1" x1="97.0" x2="97.0" y1="16.0" y2="20.0" /><line stroke="rgb(100%,0%,0%)" stroke-width="1" x1="97.0" x2="89.0" y1="20.0" y2="20.0" /><line stroke="rgb(100%,0%,0%)" stroke-width="1" x1="89.0" x2="89.0" y1="20.0" y2="16.0" /><line stroke="rgb(100%,0%,0%)" stroke-width="1" x1="89.0" x2="81.0" y1="16.0" y2="16.0" /><line stroke="rgb(100%,0%,0%)" stroke-width="1" x1="81.0" x2="81.0" y1="16.0" y2="20.0" /><line stroke="rgb(100%,0%,0%)" stroke-width="1" x1="81.0" x2="73.0" y1="20.0" y2="20.0" /><line stroke="rgb(100%,0%,0%)" stroke-width="1" x1="73.0" x2="73.0" y1="20.0" y2="16.0" /><line stroke="rgb(100%,0%,0%)" stroke-width="1" x1="73.0" x2="65.0" y1="16.0" y2="16.0" /><line stroke="rgb(100%,0%,0%)" stroke-width="1" x1="65.0" x2="65.0" y1="16.0" y2="20.0" /><line stroke="rgb(100%,0%,0%)" stroke-width="1" x1="65.0" x2="57.0" y1="20.0" y2="20.0" /><line stroke="rgb(100%,0%,0%)" stroke-width="1" x1="57.0" x2="57.0" y1="20.0" y2="16.0" /><line stroke="rgb(100%,0%,0%)" stroke-width="1" x1="57.0" x2="49.0" y1="16.0" y2="16.0" /><line stroke="rgb(100%,0%,0%)" stroke-width="1" x1="49.0" x2="49.0" y1="16.0" y2="20.0" /><line stroke="rgb(100%,0%,0%)" stroke-width="1" x1="49.0" x2="41.0" y1="20.0" y2="20.0" /><line stroke="rgb(100%,0%,0%)" stroke-width="1" x1="41.0" x2="41.0" y1="20.0" y2="16.0" /><line stroke="rgb(100%,0%,0%)" stroke-width="1" x1="41.0" x2="33.0" y1="16.0" y2="16.0" /><line stroke="rgb(100%,0%,0%)" stroke-width="1" x1="33.0" x2="33.0" y1="16.0" y2="20.0" /><line stroke="rgb(100%,0%,0%)" stroke-width="1" x1="33.0" x2="12.0" y1="20.0" y2="20.0" /></svg>