<?xml version="1.0" encoding="utf-8" ?>
<svg baseProfile="full" height="240mm" version="1.1" viewBox="0 0 240 240" width="240mm" xmlns="http://www.w3.org/2000/svg" xmlns:ev="http://www.w3.org/2001/xml-events" xmlns:xlink="http://www.w3.org/1999/xlink"><defs /><line stroke="rgb(100%,0%,0%)" stroke-width="1" x1="17.038045505018694" x2="24.28771913170387" y1="12.568524670722507" y2="30.75778814297064" /><line stroke="rgb(100%,0%,0%)" stroke-width="1" x1="24.28771913170387" x2="21.50091588322481" y1="30.75778814297064" y2="31.86852107858863" /><line stroke="rgb(100%,0%,0%)" stroke-width="1" x1="21.50091588322481" x2="24.462870378206116" y1="31.86852107858863" y2="39.29999640786612" /><line stroke="rgb(100%,0%,0%)" stroke-width="1" x1="24.462870378206116" x2="27.249673626685176" y1="39.29999640786612" y2="38.18926347224813" /><line stroke="rgb(100%,0%,0%)" stroke-width="1" x1="27.249673626685176" x2="30.211628121666482" y1="38.18926347224813" y2="45.62073880152562" /><line stroke="rgb(100%,0%,0%)" stroke-width="1" x1="30.211628121666482" x2="27.424824873187422" y1="45.62073880152562" y2="46.73147173714361" /><line stroke="rgb(100%,0%,0%)" stroke-width="1" x1="27.424824873187422" x2="30.38677936816873" y1="46.73147173714361" y2="54.162947066421104" /><line stroke="rgb(100%,0%,0%)" stroke-width="1" x1="30.38677936816873" x2="33.17358261664779" y1="54.162947066421104" y2="53.052214130803115" /><line stroke="rgb(100%,0%,0%)" stroke-width="1" x1="33.17358261664779" x2="36.13553711162909" y1="53.052214130803115" y2="60.48368946008061" /><line stroke="rgb(100%,0%,0%)" stroke-width="1" x1="36.13553711162909" x2="33.34873386315003" y1="60.48368946008061" y2="61.5944223956986" /><line stroke="rgb(100%,0%,0%)" stroke-width="1" x1="33.34873386315003" x2="36.310688358131344" y1="61.5944223956986" y2="69.02589772497609" /><line stroke="rgb(100%,0%,0%)" stroke-width="1" x1="36.310688358131344" x2="39.097491606610404" y1="69.02589772497609" y2="67.9151647893581" /><line stroke="rgb(100%,0%,0%)" stroke-width="1" x1="39.097491606610404" x2="42.0594461015917" y1="67.9151647893581" y2="75.34664011863559" /><line stroke="rgb(100%,0%,0%)" stroke-width="1" x1="42.0594461015917" x2="39.27264285311264" y1="75.34664011863559" y2="76.45737305425358" /><line stroke="rgb(100%,0%,0%)" stroke-width="1" x1="39.27264285311264" x2="42.234597348093956" y1="76.45737305425358" y2="83.88884838353107" /><line stroke="rgb(100%,0%,0%)" stroke-width="1" x1="42.234597348093956" x2="45.02140059657302" y1="83.88884838353107" y2="82.77811544791308" /><line stroke="rgb(100%,0%,0%)" stroke-width="1" x1="45.02140059657302" x2="47.983355091554316" y1="82.77811544791308" y2="90.20959077719058" /><line stroke="rgb(100%,0%,0%)" stroke-width="1" x1="47.983355091554316" x2="45.196551843075255" y1="90.20959077719058" y2="91.32032371280857" /><line stroke="rgb(100%,0%,0%)" stroke-width="1" x1="45.196551843075255" x2="48.15850633805657" y1="91.32032371280857" y2="98.75179904208606" /><line stroke="rgb(100%,0%,0%)" stroke-width="1" x1="48.15850633805657" x2="50.94530958653563" y1="98.75179904208606" y2="97.64106610646807" /><line stroke="rgb(100%,0%,0%)" stroke-width="1" x1="50.94530958653563" x2="53.90726408151693" y1="97.64106610646807" y2="105.07254143574556" /><line stroke="rgb(100%,0%,0%)" stroke-width="1" x1="53.90726408151693" x2="51.12046083303787" y1="105.07254143574556" y2="106.18327437136355" /><line stroke="rgb(100%,0%,0%)" stroke-width="1" x1="51.12046083303787" x2="54.08241532801918" y1="106.18327437136355" y2="113.61474970064104" /><line stroke="rgb(100%,0%,0%)" stroke-width="1" x1="54.08241532801918" x2="56.86921857649824" y1="113.61474970064104" y2="112.50401676502305" /><line stroke="rgb(100%,0%,0%)" stroke-width="1" x1="56.86921857649824" x2="59.83117307147954" y1="112.50401676502305" y2="119.93549209430054" /><line stroke="rgb(100%,0%,0%)" stroke-width="1" x1="59.83117307147954" x2="57.04436982300048" y1="119.93549209430054" y2="121.04622502991853" /><line stroke="rgb(100%,0%,0%)" stroke-width="1" x1="57.04436982300048" x2="60.00632431798179" y1="121.04622502991853" y2="128.47770035919604" /><line stroke="rgb(100%,0%,0%)" stroke-width="1" x1="60.00632431798179" x2="62.79312756646085" y1="128.47770035919604" y2="127.36696742357805" /><line stroke="rgb(100%,0%,0%)" stroke-width="1" x1="62.79312756646085" x2="65.75508206144215" y1="127.36696742357805" y2="134.79844275285552" /><line stroke="rgb(100%,0%,0%)" stroke-width="1" x1="65.75508206144215" x2="62.96827881296309" y1="134.79844275285552" y2="135.9091756884735" /><line stroke="rgb(100%,0%,0%)" stroke-width="1" x1="62.96827881296309" x2="65.9302333079444" y1="135.9091756884735" y2="143.34065101775101" /><line stroke="rgb(100%,0%,0%)" stroke-width="1" x1="65.9302333079444" x2="68.71703655642347" y1="143.34065101775101" y2="142.22991808213303" /><line stroke="rgb(100%,0%,0%)" stroke-width="1" x1="68.71703655642347" x2="76.33695449498131" y1="142.22991808213303" y2="161.34811597054085" /><line stroke="rgb(100%,0%,0%)" stroke-width="1" x1="65.375" x2="85.375" y1="153.91664064126334" y2="153.91664064126334" /><line stroke="rgb(100%,0%,0%)" stroke-width="1" x1="85.375" x2="85.375" y1="153.91664064126334" y2="156.91664064126334" /><line stroke="rgb(100%,0%,0%)" stroke-width="1" x1="85.375" x2="93.375" y1="156.91664064126334" y2="156.91664064126334" /><line stroke="rgb(100%,0%,0%)" stroke-width="1" x1="93.375" x2="93.375" y1="156.91664064126334" y2="153.91664064126334" /><line stroke="rgb(100%,0%,0%)" stroke-width="1" x1="93.375" x2="101.375" y1="153.91664064126334" y2="153.91664064126334" /><line stroke="rgb(100%,0%,0%)" stroke-width="1" x1="101.375" x2="101.375" y1="153.91664064126334" y2="156.91664064126334" /><line stroke="rgb(100%,0%,0%)" stroke-width="1" x1="101.375" x2="109.375" y1="156.91664064126334" y2="156.91664064126334" /><line stroke="rgb(100%,0%,0%)" stroke-width="1" x1="109.375" x2="109.375" y1="156.91664064126334" y2="153.91664064126334" /><line stroke="rgb(100%,0%,0%)" stroke-width="1" x1="109.375" x2="117.375" y1="153.91664064126334" y2="153.91664064126334" /><line stroke="rgb(100%,0%,0%)" stroke-width="1" x1="117.375" x2="117.375" y1="153.91664064126334" y2="156.91664064126334" /><line stroke="rgb(100%,0%,0%)" stroke-width="1" x1="117.375" x2="125.375" y1="156.91664064126334" y2="156.91664064126334" /><line stroke="rgb(100%,0%,0%)" stroke-width="1" x1="125.375" x2="125.375" y1="156.91664064126334" y2="153.91664064126334" /><line stroke="rgb(100%,0%,0%)" stroke-width="1" x1="125.375" x2="145.375" y1="153.91664064126334" y2="153.91664064126334" /><line stroke="rgb(100%,0%,0%)" stroke-width="1" x1="134.4130455050187" x2="142.03296344357653" y1="161.34811597054085" y2="142.22991808213303" /><line stroke="rgb(100%,0%,0%)" stroke-width="1" x1="142.03296344357653" x2="144.8197666920556" y1="142.22991808213303" y2="143.34065101775101" /><line stroke="rgb(100%,0%,0%)" stroke-width="1" x1="144.8197666920556" x2="147.7817211870369" y1="143.34065101775101" y2="135.9091756884735" /><line stroke="rgb(100%,0%,0%)" stroke-width="1" x1="147.7817211870369" x2="144.99491793855785" y1="135.9091756884735" y2="134.79844275285552" /><line stroke="rgb(100%,0%,0%)" stroke-width="1" x1="144.99491793855785" x2="147.95687243353916" y1="134.79844275285552" y2="127.36696742357805" /><line stroke="rgb(100%,0%,0%)" stroke-width="1" x1="147.95687243353916" x2="150.74367568201822" y1="127.36696742357805" y2="128.47770035919604" /><line stroke="rgb(100%,0%,0%)" stroke-width="1" x1="150.74367568201822" x2="153.70563017699953" y1="128.47770035919604" y2="121.04622502991853" /><line stroke="rgb(100%,0%,0%)" stroke-width="1" x1="153.70563017699953" x2="150.91882692852047" y1="121.04622502991853" y2="119.93549209430054" /><line stroke="rgb(100%,0%,0%)" stroke-width="1" x1="150.91882692852047" x2="153.88078142350176" y1="119.93549209430054" y2="112.50401676502305" /><line stroke="rgb(100%,0%,0%)" stroke-width="1" x1="153.88078142350176" x2="156.66758467198082" y1="112.50401676502305" y2="113.61474970064104" /><line stroke="rgb(100%,0%,0%)" stroke-width="1" x1="156.66758467198082" x2="159.62953916696213" y1="113.61474970064104" y2="106.18327437136355" /><line stroke="rgb(100%,0%,0%)" stroke-width="1" x1="159.62953916696213" x2="156.84273591848307" y1="106.18327437136355" y2="105.07254143574556" /><line stroke="rgb(100%,0%,0%)" stroke-width="1" x1="156.84273591848307" x2="159.80469041346439" y1="105.07254143574556" y2="97.64106610646807" /><line stroke="rgb(100%,0%,0%)" stroke-width="1" x1="159.80469041346439" x2="162.59149366194345" y1="97.64106610646807" y2="98.75179904208606" /><line stroke="rgb(100%,0%,0%)" stroke-width="1" x1="162.59149366194345" x2="165.55344815692476" y1="98.75179904208606" y2="91.32032371280857" /><line stroke="rgb(100%,0%,0%)" stroke-width="1" x1="165.55344815692476" x2="162.7666449084457" y1="91.32032371280857" y2="90.20959077719058" /><line stroke="rgb(100%,0%,0%)" stroke-width="1" x1="162.7666449084457" x2="165.72859940342698" y1="90.20959077719058" y2="82.77811544791308" /><line stroke="rgb(100%,0%,0%)" stroke-width="1" x1="165.72859940342698" x2="168.51540265190604" y1="82.77811544791308" y2="83.88884838353107" /><line stroke="rgb(100%,0%,0%)" stroke-width="1" x1="168.51540265190604" x2="171.47735714688736" y1="83.88884838353107" y2="76.45737305425358" /><line stroke="rgb(100%,0%,0%)" stroke-width="1" x1="171.47735714688736" x2="168.6905538984083" y1="76.45737305425358" y2="75.34664011863559" /><line stroke="rgb(100%,0%,0%)" stroke-width="1" x1="168.6905538984083" x2="171.6525083933896" y1="75.34664011863559" y2="67.9151647893581" /><line stroke="rgb(100%,0%,0%)" stroke-width="1" x1="171.6525083933896" x2="174.43931164186867" y1="67.9151647893581" y2="69.02589772497609" /><line stroke="rgb(100%,0%,0%)" stroke-width="1" x1="174.43931164186867" x2="177.40126613684998" y1="69.02589772497609" y2="61.5944223956986" /><line stroke="rgb(100%,0%,0%)" stroke-width="1" x1="177.40126613684998" x2="174.61446288837092" y1="61.5944223956986" y2="60.48368946008061" /><line stroke="rgb(100%,0%,0%)" stroke-width="1" x1="174.61446288837092" x2="177.5764173833522" y1="60.48368946008061" y2="53.052214130803115" /><line stroke="rgb(100%,0%,0%)" stroke-width="1" x1="177.5764173833522" x2="180.36322063183127" y1="53.052214130803115" y2="54.162947066421104" /><line stroke="rgb(100%,0%,0%)" stroke-width="1" x1="180.36322063183127" x2="183.32517512681258" y1="54.162947066421104" y2="46.73147173714361" /><line stroke="rgb(100%,0%,0%)" stroke-width="1" x1="183.32517512681258" x2="180.53837187833352" y1="46.73147173714361" y2="45.62073880152562" /><line stroke="rgb(100%,0%,0%)" stroke-width="1" x1="180.53837187833352" x2="183.50032637331483" y1="45.62073880152562" y2="38.18926347224813" /><line stroke="rgb(100%,0%,0%)" stroke-width="1" x1="183.50032637331483" x2="186.2871296217939" y1="38.18926347224813" y2="39.29999640786612" /><line stroke="rgb(100%,0%,0%)" stroke-width="1" x1="186.2871296217939" x2="189.2490841167752" y1="39.29999640786612" y2="31.86852107858863" /><line stroke="rgb(100%,0%,0%)" stroke-width="1" x1="189.2490841167752" x2="186.46228086829615" y1="31.86852107858863" y2="30.75778814297064" /><line stroke="rgb(100%,0%,0%)" stroke-width="1" x1="186.46228086829615" x2="193.7119544949813" y1="30.75778814297064" y2="12.568524670722507" /><line stroke="rgb(100%,0%,0%)" stroke-width="1" x1="198.75" x2="173.375" y1="20.0" y2="20.0" /><line stroke="rgb(100%,0%,0%)" stroke-width="1" x1="173.375" x2="173.375" y1="20.0" y2="17.5" /><line stroke="rgb(100%,0%,0%)" stroke-width="1" x1="173.375" x2="165.375" y1="17.5" y2="17.5" /><line stroke="rgb(100%,0%,0%)" stroke-width="1" x1="165.375" x2="165.375" y1="17.5" y2="20.0" /><line stroke="rgb(100%,0%,0%)" stroke-width="1" x1="165.375" x2="157.375" y1="20.0" y2="20.0" /><line stroke="rgb(100%,0%,0%)" stroke-width="1" x1="157.375" x2="157.375" y1="20.0" y2="17.5" /><line stroke="rgb(100%,0%,0%)" stroke-width="1" x1="157.375" x2="149.375" y1="17.5" y2="17.5" /><line stroke="rgb(100%,0%,0%)" stroke-width="1" x1="149.375" x2="149.375" y1="17.5" y2="20.0" /><line stroke="rgb(100%,0%,0%)" stroke-width="1" x1="149.375" x2="141.375" y1="20.0" y2="20.0" /><line stroke="rgb(100%,0%,0%)" stroke-width="1" x1="141.375" x2="141.375" y1="20.0" y2="17.5" /><line stroke="rgb(100%,0%,0%)" stroke-width="1" x1="141.375" x2="133.375" y1="17.5" y2="17.5" /><line stroke="rgb(100%,0%,0%)" stroke-width="1" x1="133.375" x2="133.375" y1="17.5" y2="20.0" /><line stroke="rgb(100%,0%,0%)" stroke-width="1" x1="133.375" x2="125.375" y1="20.0" y2="20.0" /><line stroke="rgb(100%,0%,0%)" stroke-width="1" x1="125.375" x2="125.375" y1="20.0" y2="17.5" /><line stroke="rgb(100%,0%,0%)" stroke-width="1" x1="125.375" x2="117.375" y1="17.5" y2="17.5" /><line stroke="rgb(100%,0%,0%)" stroke-width="1" x1="117.375" x2="117.375" y1="17.5" y2="20.0" /><line stroke="rgb(100%,0%,0%)" stroke-width="1" x1="117.375" x2="109.375" y1="20.0" y2="20.0" /><line stroke="rgb(100%,0%,0%)" stroke-width="1" x1="109.375" x2="109.375" y1="20.0" y2="17.5" /><line stroke="rgb(100%,0%,0%)" stroke-width="1" x1="109.375" x2="101.375" y1="17.5" y2="17.5" /><line stroke="rgb(100%,0%,0%)" stroke-width="1" x1="101.375" x2="101.375" y1="17.5" y2="20.0" /><line stroke="rgb(100%,0%,0%)" stroke-width="1" x1="101.375" x2="93.375" y1="20.0" y2="20.0" /><line stroke="rgb(100%,0%,0%)" stroke-width="1" x1="93.375" x2="93.375" y1="20.0" y2="17.5" /><line stroke="rgb(100%,0%,0%)" stroke-width="1" x1="93.375" x2="85.375" y1="17.5" y2="17.5" /><line stroke="rgb(100%,0%,0%)" stroke-width="1" x1="85.375" x2="85.375" y1="17.5" y2="20.0" /><line stroke="rgb(100%,0%,0%)" stroke-width="1" x1="85.375" x2="77.375" y1="20.0" y2="20.0" /><line stroke="rgb(100%,0%,0%)" stroke-width="1" x1="77.375" x2="77.375" y1="20.0" y2="17.5" /><line stroke="rgb(100%,0%,0%)" stroke-width="1" x1="77.375" x2="69.375" y1="17.5" y2="17.5" /><line stroke="rgb(100%,0%,0%)" stroke-width="1" x1="69.375" x2="69.375" y1="17.5" y2="20.0" /><line stroke="rgb(100%,0%,0%)" stroke-width="1" x1="69.375" x2="61.375" y1="20.0" y2="20.0" /><line stroke="rgb(100%,0%,0%)" stroke-width="1" x1="61.375" x2="61.375" y1="20.0" y2="17.5" /><line stroke="rgb(100%,0%,0%)" stroke-width="1" x1="61.375" x2="53.375" y1="17.5" y2="17.5" /><line stroke="rgb(100%,0%,0%)" stroke-width="1" x1="53.375" x2="53.375" y1="17.5" y2="20.0" /><line stroke="rgb(100%,0%,0%)" stroke-width="1" x1="53.375" x2="45.375" y1="20.0" y2="20.0" /><line stroke="rgb(100%,0%,0%)" stroke-width="1" x1="45.375" x2="45.375" y1="20.0" y2="17.5" /><line stroke="rgb(100%,0%,0%)" stroke-width="1" x1="45.375" x2="37.375" y1="17.5" y2="17.5" /><line stroke="rgb(100%,0%,0%)" stroke-width="1" x1="37.375" x2="37.375" y1="17.5" y2="20.0" /><line stroke="rgb(100%,0%,0%)" stroke-width="1" x1="37.375" x2="12.0" y1="20.0" y2="20.0" /></svg>