<?xml version="1.0" encoding="utf-8" ?>
<svg baseProfile="full" height="240mm" version="1.1" viewBox="0 0 240 240" width="240mm" xmlns="http://www.w3.org/2000/svg" xmlns:ev="http://www.w3.org/2001/xml-events" xmlns:xlink="http://www.w3.org/1999/xlink"><defs /><line stroke="rgb(100%,0%,0%)" stroke-width="1" x1="17.074828278340572" x2="24.565888854950575" y1="12.553969487115701" y2="31.622479282383352" /><line stroke="rgb(100%,0%,0%)" stroke-width="1" x1="24.565888854950575" x2="21.773627412618964" y1="31.622479282383352" y2="32.71941867800564" /><line stroke="rgb(100%,0%,0%)" stroke-width="1" x1="21.773627412618964" x2="24.698799134278392" y1="32.71941867800564" y2="40.16544919088994" /><line stroke="rgb(100%,0%,0%)" stroke-width="1" x1="24.698799134278392" x2="27.491060576610003" y1="40.16544919088994" y2="39.06850979526765" /><line stroke="rgb(100%,0%,0%)" stroke-width="1" x1="27.491060576610003" x2="30.41623229826943" y1="39.06850979526765" y2="46.51454030815195" /><line stroke="rgb(100%,0%,0%)" stroke-width="1" x1="30.41623229826943" x2="27.62397085593782" y1="46.51454030815195" y2="47.611479703774236" /><line stroke="rgb(100%,0%,0%)" stroke-width="1" x1="27.62397085593782" x2="30.549142577597248" y1="47.611479703774236" y2="55.057510216658535" /><line stroke="rgb(100%,0%,0%)" stroke-width="1" x1="30.549142577597248" x2="33.34140401992886" y1="55.057510216658535" y2="53.96057082103625" /><line stroke="rgb(100%,0%,0%)" stroke-width="1" x1="33.34140401992886" x2="36.266575741588284" y1="53.96057082103625" y2="61.40660133392055" /><line stroke="rgb(100%,0%,0%)" stroke-width="1" x1="36.266575741588284" x2="33.47431429925667" y1="61.40660133392055" y2="62.503540729542834" /><line stroke="rgb(100%,0%,0%)" stroke-width="1" x1="33.47431429925667" x2="36.3994860209161" y1="62.503540729542834" y2="69.94957124242714" /><line stroke="rgb(100%,0%,0%)" stroke-width="1" x1="36.3994860209161" x2="39.191747463247715" y1="69.94957124242714" y2="68.85263184680485" /><line stroke="rgb(100%,0%,0%)" stroke-width="1" x1="39.191747463247715" x2="42.11691918490714" y1="68.85263184680485" y2="76.29866235968915" /><line stroke="rgb(100%,0%,0%)" stroke-width="1" x1="42.11691918490714" x2="39.324657742575525" y1="76.29866235968915" y2="77.39560175531143" /><line stroke="rgb(100%,0%,0%)" stroke-width="1" x1="39.324657742575525" x2="42.249829464234956" y1="77.39560175531143" y2="84.84163226819572" /><line stroke="rgb(100%,0%,0%)" stroke-width="1" x1="42.249829464234956" x2="45.04209090656657" y1="84.84163226819572" y2="83.74469287257344" /><line stroke="rgb(100%,0%,0%)" stroke-width="1" x1="45.04209090656657" x2="47.967262628225996" y1="83.74469287257344" y2="91.19072338545774" /><line stroke="rgb(100%,0%,0%)" stroke-width="1" x1="47.967262628225996" x2="45.17500118589438" y1="91.19072338545774" y2="92.28766278108003" /><line stroke="rgb(100%,0%,0%)" stroke-width="1" x1="45.17500118589438" x2="48.10017290755381" y1="92.28766278108003" y2="99.73369329396432" /><line stroke="rgb(100%,0%,0%)" stroke-width="1" x1="48.10017290755381" x2="50.89243434988543" y1="99.73369329396432" y2="98.63675389834204" /><line stroke="rgb(100%,0%,0%)" stroke-width="1" x1="50.89243434988543" x2="53.81760607154485" y1="98.63675389834204" y2="106.08278441122633" /><line stroke="rgb(100%,0%,0%)" stroke-width="1" x1="53.81760607154485" x2="51.02534462921324" y1="106.08278441122633" y2="107.17972380684861" /><line stroke="rgb(100%,0%,0%)" stroke-width="1" x1="51.02534462921324" x2="53.95051635087267" y1="107.17972380684861" y2="114.62575431973292" /><line stroke="rgb(100%,0%,0%)" stroke-width="1" x1="53.95051635087267" x2="56.74277779320428" y1="114.62575431973292" y2="113.52881492411063" /><line stroke="rgb(100%,0%,0%)" stroke-width="1" x1="56.74277779320428" x2="59.66794951486371" y1="113.52881492411063" y2="120.97484543699494" /><line stroke="rgb(100%,0%,0%)" stroke-width="1" x1="59.66794951486371" x2="56.87568807253209" y1="120.97484543699494" y2="122.07178483261723" /><line stroke="rgb(100%,0%,0%)" stroke-width="1" x1="56.87568807253209" x2="59.80085979419152" y1="122.07178483261723" y2="129.51781534550153" /><line stroke="rgb(100%,0%,0%)" stroke-width="1" x1="59.80085979419152" x2="62.59312123652313" y1="129.51781534550153" y2="128.42087594987925" /><line stroke="rgb(100%,0%,0%)" stroke-width="1" x1="62.59312123652313" x2="65.51829295818257" y1="128.42087594987925" y2="135.86690646276352" /><line stroke="rgb(100%,0%,0%)" stroke-width="1" x1="65.51829295818257" x2="62.726031515850956" y1="135.86690646276352" y2="136.9638458583858" /><line stroke="rgb(100%,0%,0%)" stroke-width="1" x1="62.726031515850956" x2="65.65120323751039" y1="136.9638458583858" y2="144.40987637127012" /><line stroke="rgb(100%,0%,0%)" stroke-width="1" x1="65.65120323751039" x2="68.443464679842" y1="144.40987637127012" y2="143.31293697564783" /><line stroke="rgb(100%,0%,0%)" stroke-width="1" x1="68.443464679842" x2="76.30017172165942" y1="143.31293697564783" y2="163.31220058502603" /><line stroke="rgb(100%,0%,0%)" stroke-width="1" x1="65.375" x2="85.375" y1="155.86617007214173" y2="155.86617007214173" /><line stroke="rgb(100%,0%,0%)" stroke-width="1" x1="85.375" x2="85.375" y1="155.86617007214173" y2="158.86617007214173" /><line stroke="rgb(100%,0%,0%)" stroke-width="1" x1="85.375" x2="93.375" y1="158.86617007214173" y2="158.86617007214173" /><line stroke="rgb(100%,0%,0%)" stroke-width="1" x1="93.375" x2="93.375" y1="158.86617007214173" y2="155.86617007214173" /><line stroke="rgb(100%,0%,0%)" stroke-width="1" x1="93.375" x2="101.375" y1="155.86617007214173" y2="155.86617007214173" /><line stroke="rgb(100%,0%,0%)" stroke-width="1" x1="101.375" x2="101.375" y1="155.86617007214173" y2="158.86617007214173" /><line stroke="rgb(100%,0%,0%)" stroke-width="1" x1="101.375" x2="109.375" y1="158.86617007214173" y2="158.86617007214173" /><line stroke="rgb(100%,0%,0%)" stroke-width="1" x1="109.375" x2="109.375" y1="158.86617007214173" y2="155.86617007214173" /><line stroke="rgb(100%,0%,0%)" stroke-width="1" x1="109.375" x2="117.375" y1="155.86617007214173" y2="155.86617007214173" /><line stroke="rgb(100%,0%,0%)" stroke-width="1" x1="117.375" x2="117.375" y1="155.86617007214173" y2="158.86617007214173" /><line stroke="rgb(100%,0%,0%)" stroke-width="1" x1="117.375" x2="125.375" y1="158.86617007214173" y2="158.86617007214173" /><line stroke="rgb(100%,0%,0%)" stroke-width="1" x1="125.375" x2="125.375" y1="158.86617007214173" y2="155.86617007214173" /><line stroke="rgb(100%,0%,0%)" stroke-width="1" x1="125.375" x2="145.375" y1="155.86617007214173" y2="155.86617007214173" /><line stroke="rgb(100%,0%,0%)" stroke-width="1" x1="134.44982827834056" x2="142.306535320158" y1="163.31220058502603" y2="143.31293697564783" /><line stroke="rgb(100%,0%,0%)" stroke-width="1" x1="142.306535320158" x2="145.0987967624896" y1="143.31293697564783" y2="144.40987637127012" /><line stroke="rgb(100%,0%,0%)" stroke-width="1" x1="145.0987967624896" x2="148.02396848414904" y1="144.40987637127012" y2="136.9638458583858" /><line stroke="rgb(100%,0%,0%)" stroke-width="1" x1="148.02396848414904" x2="145.23170704181743" y1="136.9638458583858" y2="135.86690646276352" /><line stroke="rgb(100%,0%,0%)" stroke-width="1" x1="145.23170704181743" x2="148.15687876347687" y1="135.86690646276352" y2="128.42087594987925" /><line stroke="rgb(100%,0%,0%)" stroke-width="1" x1="148.15687876347687" x2="150.94914020580848" y1="128.42087594987925" y2="129.51781534550153" /><line stroke="rgb(100%,0%,0%)" stroke-width="1" x1="150.94914020580848" x2="153.8743119274679" y1="129.51781534550153" y2="122.07178483261723" /><line stroke="rgb(100%,0%,0%)" stroke-width="1" x1="153.8743119274679" x2="151.08205048513628" y1="122.07178483261723" y2="120.97484543699494" /><line stroke="rgb(100%,0%,0%)" stroke-width="1" x1="151.08205048513628" x2="154.00722220679572" y1="120.97484543699494" y2="113.52881492411063" /><line stroke="rgb(100%,0%,0%)" stroke-width="1" x1="154.00722220679572" x2="156.79948364912732" y1="113.52881492411063" y2="114.62575431973292" /><line stroke="rgb(100%,0%,0%)" stroke-width="1" x1="156.79948364912732" x2="159.72465537078676" y1="114.62575431973292" y2="107.17972380684861" /><line stroke="rgb(100%,0%,0%)" stroke-width="1" x1="159.72465537078676" x2="156.93239392845516" y1="107.17972380684861" y2="106.08278441122633" /><line stroke="rgb(100%,0%,0%)" stroke-width="1" x1="156.93239392845516" x2="159.85756565011457" y1="106.08278441122633" y2="98.63675389834204" /><line stroke="rgb(100%,0%,0%)" stroke-width="1" x1="159.85756565011457" x2="162.64982709244617" y1="98.63675389834204" y2="99.73369329396432" /><line stroke="rgb(100%,0%,0%)" stroke-width="1" x1="162.64982709244617" x2="165.5749988141056" y1="99.73369329396432" y2="92.28766278108003" /><line stroke="rgb(100%,0%,0%)" stroke-width="1" x1="165.5749988141056" x2="162.782737371774" y1="92.28766278108003" y2="91.19072338545774" /><line stroke="rgb(100%,0%,0%)" stroke-width="1" x1="162.782737371774" x2="165.70790909343341" y1="91.19072338545774" y2="83.74469287257344" /><line stroke="rgb(100%,0%,0%)" stroke-width="1" x1="165.70790909343341" x2="168.50017053576502" y1="83.74469287257344" y2="84.84163226819572" /><line stroke="rgb(100%,0%,0%)" stroke-width="1" x1="168.50017053576502" x2="171.42534225742446" y1="84.84163226819572" y2="77.39560175531143" /><line stroke="rgb(100%,0%,0%)" stroke-width="1" x1="171.42534225742446" x2="168.63308081509285" y1="77.39560175531143" y2="76.29866235968915" /><line stroke="rgb(100%,0%,0%)" stroke-width="1" x1="168.63308081509285" x2="171.55825253675226" y1="76.29866235968915" y2="68.85263184680485" /><line stroke="rgb(100%,0%,0%)" stroke-width="1" x1="171.55825253675226" x2="174.35051397908387" y1="68.85263184680485" y2="69.94957124242714" /><line stroke="rgb(100%,0%,0%)" stroke-width="1" x1="174.35051397908387" x2="177.2756857007433" y1="69.94957124242714" y2="62.503540729542834" /><line stroke="rgb(100%,0%,0%)" stroke-width="1" x1="177.2756857007433" x2="174.4834242584117" y1="62.503540729542834" y2="61.40660133392055" /><line stroke="rgb(100%,0%,0%)" stroke-width="1" x1="174.4834242584117" x2="177.40859598007114" y1="61.40660133392055" y2="53.96057082103625" /><line stroke="rgb(100%,0%,0%)" stroke-width="1" x1="177.40859598007114" x2="180.20085742240275" y1="53.96057082103625" y2="55.057510216658535" /><line stroke="rgb(100%,0%,0%)" stroke-width="1" x1="180.20085742240275" x2="183.12602914406216" y1="55.057510216658535" y2="47.611479703774236" /><line stroke="rgb(100%,0%,0%)" stroke-width="1" x1="183.12602914406216" x2="180.33376770173055" y1="47.611479703774236" y2="46.51454030815195" /><line stroke="rgb(100%,0%,0%)" stroke-width="1" x1="180.33376770173055" x2="183.25893942339" y1="46.51454030815195" y2="39.06850979526765" /><line stroke="rgb(100%,0%,0%)" stroke-width="1" x1="183.25893942339" x2="186.0512008657216" y1="39.06850979526765" y2="40.16544919088994" /><line stroke="rgb(100%,0%,0%)" stroke-width="1" x1="186.0512008657216" x2="188.97637258738104" y1="40.16544919088994" y2="32.71941867800564" /><line stroke="rgb(100%,0%,0%)" stroke-width="1" x1="188.97637258738104" x2="186.18411114504943" y1="32.71941867800564" y2="31.622479282383352" /><line stroke="rgb(100%,0%,0%)" stroke-width="1" x1="186.18411114504943" x2="193.67517172165944" y1="31.622479282383352" y2="12.553969487115701" /><line stroke="rgb(100%,0%,0%)" stroke-width="1" x1="198.75" x2="173.375" y1="20.0" y2="20.0" /><line stroke="rgb(100%,0%,0%)" stroke-width="1" x1="173.375" x2="173.375" y1="20.0" y2="17.5" /><line stroke="rgb(100%,0%,0%)" stroke-width="1" x1="173.375" x2="165.375" y1="17.5" y2="17.5" /><line stroke="rgb(100%,0%,0%)" stroke-width="1" x1="165.375" x2="165.375" y1="17.5" y2="20.0" /><line stroke="rgb(100%,0%,0%)" stroke-width="1" x1="165.375" x2="157.375" y1="20.0" y2="20.0" /><line stroke="rgb(100%,0%,0%)" stroke-width="1" x1="157.375" x2="157.375" y1="20.0" y2="17.5" /><line stroke="rgb(100%,0%,0%)" stroke-width="1" x1="157.375" x2="149.375" y1="17.5" y2="17.5" /><line stroke="rgb(100%,0%,0%)" stroke-width="1" x1="149.375" x2="149.375" y1="17.5" y2="20.0" /><line stroke="rgb(100%,0%,0%)" stroke-width="1" x1="149.375" x2="141.375" y1="20.0" y2="20.0" /><line stroke="rgb(100%,0%,0%)" stroke-width="1" x1="141.375" x2="141.375" y1="20.0" y2="17.5" /><line stroke="rgb(100%,0%,0%)" stroke-width="1" x1="141.375" x2="133.375" y1="17.5" y2="17.5" /><line stroke="rgb(100%,0%,0%)" stroke-width="1" x1="133.375" x2="133.375" y1="17.5" y2="20.0" /><line stroke="rgb(100%,0%,0%)" stroke-width="1" x1="133.375" x2="125.375" y1="20.0" y2="20.0" /><line stroke="rgb(100%,0%,0%)" stroke-width="1" x1="125.375" x2="125.375" y1="20.0" y2="17.5" /><line stroke="rgb(100%,0%,0%)" stroke-width="1" x1="125.375" x2="117.375" y1="17.5" y2="17.5" /><line stroke="rgb(100%,0%,0%)" stroke-width="1" x1="117.375" x2="117.375" y1="17.5" y2="20.0" /><line stroke="rgb(100%,0%,0%)" stroke-width="1" x1="117.375" x2="109.375" y1="20.0" y2="20.0" /><line stroke="rgb(100%,0%,0%)" stroke-width="1" x1="109.375" x2="109.375" y1="20.0" y2="17.5" /><line stroke="rgb(100%,0%,0%)" stroke-width="1" x1="109.375" x2="101.375" y1="17.5" y2="17.5" /><line stroke="rgb(100%,0%,0%)" stroke-width="1" x1="101.375" x2="101.375" y1="17.5" y2="20.0" /><line stroke="rgb(100%,0%,0%)" stroke-width="1" x1="101.375" x2="93.375" y1="20.0" y2="20.0" /><line stroke="rgb(100%,0%,0%)" stroke-width="1" x1="93.375" x2="93.375" y1="20.0" y2="17.5" /><line stroke="rgb(100%,0%,0%)" stroke-width="1" x1="93.375" x2="85.375" y1="17.5" y2="17.5" /><line stroke="rgb(100%,0%,0%)" stroke-width="1" x1="85.375" x2="85.375" y1="17.5" y2="20.0" /><line stroke="rgb(100%,0%,0%)" stroke-width="1" x1="85.375" x2="77.375" y1="20.0" y2="20.0" /><line stroke="rgb(100%,0%,0%)" stroke-width="1" x1="77.375" x2="77.375" y1="20.0" y2="17.5" /><line stroke="rgb(100%,0%,0%)" stroke-width="1" x1="77.375" x2="69.375" y1="17.5" y2="17.5" /><line stroke="rgb(100%,0%,0%)" stroke-width="1" x1="69.375" x2="69.375" y1="17.5" y2="20.0" /><line stroke="rgb(100%,0%,0%)" stroke-width="1" x1="69.375" x2="61.375" y1="20.0" y2="20.0" /><line stroke="rgb(100%,0%,0%)" stroke-width="1" x1="61.375" x2="61.375" y1="20.0" y2="17.5" /><line stroke="rgb(100%,0%,0%)" stroke-width="1" x1="61.375" x2="53.375" y1="17.5" y2="17.5" /><line stroke="rgb(100%,0%,0%)" stroke-width="1" x1="53.375" x2="53.375" y1="17.5" y2="20.0" /><line stroke="rgb(100%,0%,0%)" stroke-width="1" x1="53.375" x2="45.375" y1="20.0" y2="20.0" /><line stroke="rgb(100%,0%,0%)" stroke-width="1" x1="45.375" x2="45.375" y1="20.0" y2="17.5" /><line stroke="rgb(100%,0%,0%)" stroke-width="1" x1="45.375" x2="37.375" y1="17.5" y2="17.5" /><line stroke="rgb(100%,0%,0%)" stroke-width="1" x1="37.375" x2="37.375" y1="17.5" y2="20.0" /><line stroke="rgb(100%,0%,0%)" stroke-width="1" x1="37.375" x2="12.0" y1="20.0" y2="20.0" /></svg>