<?xml version="1.0" encoding="utf-8" ?>
<svg baseProfile="full" height="240mm" version="1.1" viewBox="0 0 240 240" width="240mm" xmlns="http://www.w3.org/2000/svg" xmlns:ev="http://www.w3.org/2001/xml-events" xmlns:xlink="http://www.w3.org/1999/xlink"><defs /><line stroke="rgb(100%,0%,0%)" stroke-width="1" x1="13.470171282556267" x2="20.78101194545912" y1="13.887607921537825" y2="33.62371693486655" /><line stroke="rgb(100%,0%,0%)" stroke-width="1" x1="20.78101194545912" x2="24.531934520332737" y1="33.62371693486655" y2="32.23426386358149" /><line stroke="rgb(100%,0%,0%)" stroke-width="1" x1="24.531934520332737" x2="27.310840662902855" y1="32.23426386358149" y2="39.73610901332872" /><line stroke="rgb(100%,0%,0%)" stroke-width="1" x1="27.310840662902855" x2="23.55991808802924" y1="39.73610901332872" y2="41.12556208461378" /><line stroke="rgb(100%,0%,0%)" stroke-width="1" x1="23.55991808802924" x2="26.338824230599357" y1="41.12556208461378" y2="48.627407234361016" /><line stroke="rgb(100%,0%,0%)" stroke-width="1" x1="26.338824230599357" x2="30.089746805472974" y1="48.627407234361016" y2="47.237954163075955" /><line stroke="rgb(100%,0%,0%)" stroke-width="1" x1="30.089746805472974" x2="32.86865294804309" y1="47.237954163075955" y2="54.73979931282319" /><line stroke="rgb(100%,0%,0%)" stroke-width="1" x1="32.86865294804309" x2="29.117730373169476" y1="54.73979931282319" y2="56.12925238410825" /><line stroke="rgb(100%,0%,0%)" stroke-width="1" x1="29.117730373169476" x2="31.89663651573959" y1="56.12925238410825" y2="63.63109753385548" /><line stroke="rgb(100%,0%,0%)" stroke-width="1" x1="31.89663651573959" x2="35.64755909061321" y1="63.63109753385548" y2="62.24164446257042" /><line stroke="rgb(100%,0%,0%)" stroke-width="1" x1="35.64755909061321" x2="38.42646523318332" y1="62.24164446257042" y2="69.74348961231765" /><line stroke="rgb(100%,0%,0%)" stroke-width="1" x1="38.42646523318332" x2="34.67554265830971" y1="69.74348961231765" y2="71.1329426836027" /><line stroke="rgb(100%,0%,0%)" stroke-width="1" x1="34.67554265830971" x2="37.45444880087983" y1="71.1329426836027" y2="78.63478783334995" /><line stroke="rgb(100%,0%,0%)" stroke-width="1" x1="37.45444880087983" x2="41.205371375753444" y1="78.63478783334995" y2="77.24533476206489" /><line stroke="rgb(100%,0%,0%)" stroke-width="1" x1="41.205371375753444" x2="43.98427751832356" y1="77.24533476206489" y2="84.74717991181211" /><line stroke="rgb(100%,0%,0%)" stroke-width="1" x1="43.98427751832356" x2="40.23335494344994" y1="84.74717991181211" y2="86.13663298309717" /><line stroke="rgb(100%,0%,0%)" stroke-width="1" x1="40.23335494344994" x2="43.01226108602006" y1="86.13663298309717" y2="93.63847813284441" /><line stroke="rgb(100%,0%,0%)" stroke-width="1" x1="43.01226108602006" x2="46.763183660893674" y1="93.63847813284441" y2="92.24902506155935" /><line stroke="rgb(100%,0%,0%)" stroke-width="1" x1="46.763183660893674" x2="49.542089803463796" y1="92.24902506155935" y2="99.75087021130658" /><line stroke="rgb(100%,0%,0%)" stroke-width="1" x1="49.542089803463796" x2="45.79116722859018" y1="99.75087021130658" y2="101.14032328259164" /><line stroke="rgb(100%,0%,0%)" stroke-width="1" x1="45.79116722859018" x2="48.57007337116029" y1="101.14032328259164" y2="108.64216843233888" /><line stroke="rgb(100%,0%,0%)" stroke-width="1" x1="48.57007337116029" x2="52.32099594603391" y1="108.64216843233888" y2="107.25271536105382" /><line stroke="rgb(100%,0%,0%)" stroke-width="1" x1="52.32099594603391" x2="55.099902088604026" y1="107.25271536105382" y2="114.75456051080104" /><line stroke="rgb(100%,0%,0%)" stroke-width="1" x1="55.099902088604026" x2="51.34897951373041" y1="114.75456051080104" y2="116.1440135820861" /><line stroke="rgb(100%,0%,0%)" stroke-width="1" x1="51.34897951373041" x2="54.127885656300535" y1="116.1440135820861" y2="123.64585873183334" /><line stroke="rgb(100%,0%,0%)" stroke-width="1" x1="54.127885656300535" x2="57.87880823117415" y1="123.64585873183334" y2="122.25640566054828" /><line stroke="rgb(100%,0%,0%)" stroke-width="1" x1="57.87880823117415" x2="60.65771437374426" y1="122.25640566054828" y2="129.75825081029552" /><line stroke="rgb(100%,0%,0%)" stroke-width="1" x1="60.65771437374426" x2="56.90679179887064" y1="129.75825081029552" y2="131.14770388158058" /><line stroke="rgb(100%,0%,0%)" stroke-width="1" x1="56.90679179887064" x2="59.685697941440765" y1="131.14770388158058" y2="138.6495490313278" /><line stroke="rgb(100%,0%,0%)" stroke-width="1" x1="59.685697941440765" x2="63.43662051631438" y1="138.6495490313278" y2="137.26009596004275" /><line stroke="rgb(100%,0%,0%)" stroke-width="1" x1="63.43662051631438" x2="66.2155266588845" y1="137.26009596004275" y2="144.76194110978997" /><line stroke="rgb(100%,0%,0%)" stroke-width="1" x1="66.2155266588845" x2="62.46460408401089" y1="144.76194110978997" y2="146.15139418107503" /><line stroke="rgb(100%,0%,0%)" stroke-width="1" x1="62.46460408401089" x2="65.24351022658101" y1="146.15139418107503" y2="153.65323933082226" /><line stroke="rgb(100%,0%,0%)" stroke-width="1" x1="65.24351022658101" x2="68.99443280145462" y1="153.65323933082226" y2="152.2637862595372" /><line stroke="rgb(100%,0%,0%)" stroke-width="1" x1="68.99443280145462" x2="71.77333894402473" y1="152.2637862595372" y2="159.76563140928442" /><line stroke="rgb(100%,0%,0%)" stroke-width="1" x1="71.77333894402473" x2="68.02241636915112" y1="159.76563140928442" y2="161.15508448056949" /><line stroke="rgb(100%,0%,0%)" stroke-width="1" x1="68.02241636915112" x2="76.02798356769651" y1="161.15508448056949" y2="182.76665478133503" /><line stroke="rgb(100%,0%,0%)" stroke-width="1" x1="69.0" x2="89.0" y1="173.87535656030275" y2="173.87535656030275" /><line stroke="rgb(100%,0%,0%)" stroke-width="1" x1="89.0" x2="89.0" y1="173.87535656030275" y2="177.87535656030275" /><line stroke="rgb(100%,0%,0%)" stroke-width="1" x1="89.0" x2="97.0" y1="177.87535656030275" y2="177.87535656030275" /><line stroke="rgb(100%,0%,0%)" stroke-width="1" x1="97.0" x2="97.0" y1="177.87535656030275" y2="173.87535656030275" /><line stroke="rgb(100%,0%,0%)" stroke-width="1" x1="97.0" x2="105.0" y1="173.87535656030275" y2="173.87535656030275" /><line stroke="rgb(100%,0%,0%)" stroke-width="1" x1="105.0" x2="105.0" y1="173.87535656030275" y2="177.87535656030275" /><line stroke="rgb(100%,0%,0%)" stroke-width="1" x1="105.0" x2="113.0" y1="177.87535656030275" y2="177.87535656030275" /><line stroke="rgb(100%,0%,0%)" stroke-width="1" x1="113.0" x2="113.0" y1="177.87535656030275" y2="173.87535656030275" /><line stroke="rgb(100%,0%,0%)" stroke-width="1" x1="113.0" x2="121.0" y1="173.87535656030275" y2="173.87535656030275" /><line stroke="rgb(100%,0%,0%)" stroke-width="1" x1="121.0" x2="121.0" y1="173.87535656030275" y2="177.87535656030275" /><line stroke="rgb(100%,0%,0%)" stroke-width="1" x1="121.0" x2="129.0" y1="177.87535656030275" y2="177.87535656030275" /><line stroke="rgb(100%,0%,0%)" stroke-width="1" x1="129.0" x2="129.0" y1="177.87535656030275" y2="173.87535656030275" /><line stroke="rgb(100%,0%,0%)" stroke-width="1" x1="129.0" x2="149.0" y1="173.87535656030275" y2="173.87535656030275" /><line stroke="rgb(100%,0%,0%)" stroke-width="1" x1="141.9720164323035" x2="149.97758363084887" y1="182.76665478133503" y2="161.15508448056949" /><line stroke="rgb(100%,0%,0%)" stroke-width="1" x1="149.97758363084887" x2="146.22666105597526" y1="161.15508448056949" y2="159.76563140928442" /><line stroke="rgb(100%,0%,0%)" stroke-width="1" x1="146.22666105597526" x2="149.00556719854538" y1="159.76563140928442" y2="152.2637862595372" /><line stroke="rgb(100%,0%,0%)" stroke-width="1" x1="149.00556719854538" x2="152.756489773419" y1="152.2637862595372" y2="153.65323933082226" /><line stroke="rgb(100%,0%,0%)" stroke-width="1" x1="152.756489773419" x2="155.5353959159891" y1="153.65323933082226" y2="146.15139418107503" /><line stroke="rgb(100%,0%,0%)" stroke-width="1" x1="155.5353959159891" x2="151.7844733411155" y1="146.15139418107503" y2="144.76194110978997" /><line stroke="rgb(100%,0%,0%)" stroke-width="1" x1="151.7844733411155" x2="154.56337948368562" y1="144.76194110978997" y2="137.26009596004275" /><line stroke="rgb(100%,0%,0%)" stroke-width="1" x1="154.56337948368562" x2="158.31430205855924" y1="137.26009596004275" y2="138.6495490313278" /><line stroke="rgb(100%,0%,0%)" stroke-width="1" x1="158.31430205855924" x2="161.09320820112936" y1="138.6495490313278" y2="131.14770388158058" /><line stroke="rgb(100%,0%,0%)" stroke-width="1" x1="161.09320820112936" x2="157.34228562625574" y1="131.14770388158058" y2="129.75825081029552" /><line stroke="rgb(100%,0%,0%)" stroke-width="1" x1="157.34228562625574" x2="160.12119176882587" y1="129.75825081029552" y2="122.25640566054828" /><line stroke="rgb(100%,0%,0%)" stroke-width="1" x1="160.12119176882587" x2="163.87211434369948" y1="122.25640566054828" y2="123.64585873183334" /><line stroke="rgb(100%,0%,0%)" stroke-width="1" x1="163.87211434369948" x2="166.65102048626957" y1="123.64585873183334" y2="116.1440135820861" /><line stroke="rgb(100%,0%,0%)" stroke-width="1" x1="166.65102048626957" x2="162.90009791139596" y1="116.1440135820861" y2="114.75456051080104" /><line stroke="rgb(100%,0%,0%)" stroke-width="1" x1="162.90009791139596" x2="165.67900405396608" y1="114.75456051080104" y2="107.25271536105382" /><line stroke="rgb(100%,0%,0%)" stroke-width="1" x1="165.67900405396608" x2="169.4299266288397" y1="107.25271536105382" y2="108.64216843233888" /><line stroke="rgb(100%,0%,0%)" stroke-width="1" x1="169.4299266288397" x2="172.20883277140982" y1="108.64216843233888" y2="101.14032328259164" /><line stroke="rgb(100%,0%,0%)" stroke-width="1" x1="172.20883277140982" x2="168.4579101965362" y1="101.14032328259164" y2="99.75087021130658" /><line stroke="rgb(100%,0%,0%)" stroke-width="1" x1="168.4579101965362" x2="171.23681633910633" y1="99.75087021130658" y2="92.24902506155935" /><line stroke="rgb(100%,0%,0%)" stroke-width="1" x1="171.23681633910633" x2="174.98773891397994" y1="92.24902506155935" y2="93.63847813284441" /><line stroke="rgb(100%,0%,0%)" stroke-width="1" x1="174.98773891397994" x2="177.76664505655006" y1="93.63847813284441" y2="86.13663298309717" /><line stroke="rgb(100%,0%,0%)" stroke-width="1" x1="177.76664505655006" x2="174.01572248167645" y1="86.13663298309717" y2="84.74717991181211" /><line stroke="rgb(100%,0%,0%)" stroke-width="1" x1="174.01572248167645" x2="176.79462862424657" y1="84.74717991181211" y2="77.24533476206489" /><line stroke="rgb(100%,0%,0%)" stroke-width="1" x1="176.79462862424657" x2="180.54555119912018" y1="77.24533476206489" y2="78.63478783334995" /><line stroke="rgb(100%,0%,0%)" stroke-width="1" x1="180.54555119912018" x2="183.32445734169028" y1="78.63478783334995" y2="71.1329426836027" /><line stroke="rgb(100%,0%,0%)" stroke-width="1" x1="183.32445734169028" x2="179.57353476681666" y1="71.1329426836027" y2="69.74348961231765" /><line stroke="rgb(100%,0%,0%)" stroke-width="1" x1="179.57353476681666" x2="182.3524409093868" y1="69.74348961231765" y2="62.24164446257042" /><line stroke="rgb(100%,0%,0%)" stroke-width="1" x1="182.3524409093868" x2="186.1033634842604" y1="62.24164446257042" y2="63.63109753385548" /><line stroke="rgb(100%,0%,0%)" stroke-width="1" x1="186.1033634842604" x2="188.88226962683052" y1="63.63109753385548" y2="56.12925238410825" /><line stroke="rgb(100%,0%,0%)" stroke-width="1" x1="188.88226962683052" x2="185.1313470519569" y1="56.12925238410825" y2="54.73979931282319" /><line stroke="rgb(100%,0%,0%)" stroke-width="1" x1="185.1313470519569" x2="187.91025319452703" y1="54.73979931282319" y2="47.237954163075955" /><line stroke="rgb(100%,0%,0%)" stroke-width="1" x1="187.91025319452703" x2="191.66117576940064" y1="47.237954163075955" y2="48.627407234361016" /><line stroke="rgb(100%,0%,0%)" stroke-width="1" x1="191.66117576940064" x2="194.44008191197076" y1="48.627407234361016" y2="41.12556208461378" /><line stroke="rgb(100%,0%,0%)" stroke-width="1" x1="194.44008191197076" x2="190.68915933709715" y1="41.12556208461378" y2="39.73610901332872" /><line stroke="rgb(100%,0%,0%)" stroke-width="1" x1="190.68915933709715" x2="193.46806547966727" y1="39.73610901332872" y2="32.23426386358149" /><line stroke="rgb(100%,0%,0%)" stroke-width="1" x1="193.46806547966727" x2="197.2189880545409" y1="32.23426386358149" y2="33.62371693486655" /><line stroke="rgb(100%,0%,0%)" stroke-width="1" x1="197.2189880545409" x2="204.52982871744373" y1="33.62371693486655" y2="13.887607921537825" /><line stroke="rgb(100%,0%,0%)" stroke-width="1" x1="206.0" x2="185.0" y1="20.0" y2="20.0" /><line stroke="rgb(100%,0%,0%)" stroke-width="1" x1="185.0" x2="185.0" y1="20.0" y2="16.0" /><line stroke="rgb(100%,0%,0%)" stroke-width="1" x1="185.0" x2="177.0" y1="16.0" y2="16.0" /><line stroke="rgb(100%,0%,0%)" stroke-width="1" x1="177.0" x2="177.0" y1="16.0" y2="20.0" /><line stroke="rgb(100%,0%,0%)" stroke-width="1" x1="177.0" x2="169.0" y1="20.0" y2="20.0" /><line stroke="rgb(100%,0%,0%)" stroke-width="1" x1="169.0" x2="169.0" y1="20.0" y2="16.0" /><line stroke="rgb(100%,0%,0%)" stroke-width="1" x1="169.0" x2="161.0" y1="16.0" y2="16.0" /><line stroke="rgb(100%,0%,0%)" stroke-width="1" x1="161.0" x2="161.0" y1="16.0" y2="20.0" /><line stroke="rgb(100%,0%,0%)" stroke-width="1" x1="161.0" x2="153.0" y1="20.0" y2="20.0" /><line stroke="rgb(100%,0%,0%)" stroke-width="1" x1="153.0" x2="153.0" y1="20.0" y2="16.0" /><line stroke="rgb(100%,0%,0%)" stroke-width="1" x1="153.0" x2="145.0" y1="16.0" y2="16.0" /><line stroke="rgb(100%,0%,0%)" stroke-width="1" x1="145.0" x2="145.0" y1="16.0" y2="20.0" /><line stroke="rgb(100%,0%,0%)" stroke-width="1" x1="145.0" x2="137.0" y1="20.0" y2="20.0" /><line stroke="rgb(100%,0%,0%)" stroke-width="1" x1="137.0" x2="137.0" y1="20.0" y2="16.0" /><line stroke="rgb(100%,0%,0%)" stroke-width="1" x1="137.0" x2="129.0" y1="16.0" y2="16.0" /><line stroke="rgb(100%,0%,0%)" stroke-width="1" x1="129.0" x2="129.0" y1="16.0" y2="20.0" /><line stroke="rgb(100%,0%,0%)" stroke-width="1" x1="129.0" x2="121.0" y1="20.0" y2="20.0" /><line stroke="rgb(100%,0%,0%)" stroke-width="1" x1="121.0" x2="121.0" y1="20.0" y2="16.0" /><line stroke="rgb(100%,0%,0%)" stroke-width="1" x1="121.0" x2="113.0" y1="16.0" y2="16.0" /><line stroke="rgb(100%,0%,0%)" stroke-width="1" x1="113.0" x2="113.0" y1="16.0" y2="20.0" /><line stroke="rgb(100%,0%,0%)" stroke-width="1" x1="113.0" x2="105.0" y1="20.0" y2="20.0" /><line stroke="rgb(100%,0%,0%)" stroke-width="1" x1="105.0" x2="105.0" y1="20.0" y2="16.0" /><line stroke="rgb(100%,0%,0%)" stroke-width="1" x1="105.0" x2="97.0" y1="16.0" y2="16.0" /><line stroke="rgb(100%,0%,0%)" stroke-width="1" x1="97.0" x2="97.0" y1="16.0" y2="20.0" /><line stroke="rgb(100%,0%,0%)" stroke-width="1" x1="97.0" x2="89.0" y1="20.0" y2="20.0" /><line stroke="rgb(100%,0%,0%)" stroke-width="1" x1="89.0" x2="89.0" y1="20.0" y2="16.0" /><line stroke="rgb(100%,0%,0%)" stroke-width="1" x1="89.0" x2="81.0" y1="16.0" y2="16.0" /><line stroke="rgb(100%,0%,0%)" stroke-width="1" x1="81.0" x2="81.0" y1="16.0" y2="20.0" /><line stroke="rgb(100%,0%,0%)" stroke-width="1" x1="81.0" x2="73.0" y1="20.0" y2="20.0" /><line stroke="rgb(100%,0%,0%)" stroke-width="1" x1="73.0" x2="73.0" y1="20.0" y2="16.0" /><line stroke="rgb(100%,0%,0%)" stroke-width="1" x1="73.0" x2="65.0" y1="16.0" y2="16.0" /><line stroke="rgb(100%,0%,0%)" stroke-width="1" x1="65.0" x2="65.0" y1="16.0" y2="20.0" /><line stroke="rgb(100%,0%,0%)" stroke-width="1" x1="65.0" x2="57.0" y1="20.0" y2="20.0" /><line stroke="rgb(100%,0%,0%)" stroke-width="1" x1="57.0" x2="57.0" y1="20.0" y2="16.0" /><line stroke="rgb(100%,0%,0%)" stroke-width="1" x1="57.0" x2="49.0" y1="16.0" y2="16.0" /><line stroke="rgb(100%,0%,0%)" stroke-width="1" x1="49.0" x2="49.0" y1="16.0" y2="20.0" /><line stroke="rgb(100%,0%,0%)" stroke-width="1" x1="49.0" x2="41.0" y1="20.0" y2="20.0" /><line stroke="rgb(100%,0%,0%)" stroke-width="1" x1="41.0" x2="41.0" y1="20.0" y2="16.0" /><line stroke="rgb(100%,0%,0%)" stroke-width="1" x1="41.0" x2="33.0" y1="16.0" y2="16.0" /><line stroke="rgb(100%,0%,0%)" stroke-width="1" x1="33.0" x2="33.0" y1="16.0" y2="20.0" /><line stroke="rgb(100%,0%,0%)" stroke-width="1" x1="33.0" x2="12.0" y1="20.0" y2="20.0" /></svg>