<?xml version="1.0" encoding="utf-8" ?>
<svg baseProfile="full" height="240mm" version="1.1" viewBox="0 0 240 240" width="240mm" xmlns="http://www.w3.org/2000/svg" xmlns:ev="http://www.w3.org/2001/xml-events" xmlns:xlink="http://www.w3.org/1999/xlink"><defs /><line stroke="rgb(100%,0%,0%)" stroke-width="1" x1="14.62916491132529" x2="21.01217739404967" y1="13.35514255606183" y2="32.552689696643746" /><line stroke="rgb(100%,0%,0%)" stroke-width="1" x1="21.01217739404967" x2="23.858945811208415" y1="32.552689696643746" y2="31.60616469482526" /><line stroke="rgb(100%,0%,0%)" stroke-width="1" x1="23.858945811208415" x2="26.38301248272438" y1="31.60616469482526" y2="39.19754714058192" /><line stroke="rgb(100%,0%,0%)" stroke-width="1" x1="26.38301248272438" x2="23.536244065565633" y1="39.19754714058192" y2="40.144072142400404" /><line stroke="rgb(100%,0%,0%)" stroke-width="1" x1="23.536244065565633" x2="26.060310737081597" y1="40.144072142400404" y2="47.73545458815706" /><line stroke="rgb(100%,0%,0%)" stroke-width="1" x1="26.060310737081597" x2="28.907079154240343" y1="47.73545458815706" y2="46.788929586338575" /><line stroke="rgb(100%,0%,0%)" stroke-width="1" x1="28.907079154240343" x2="31.431145825756307" y1="46.788929586338575" y2="54.38031203209523" /><line stroke="rgb(100%,0%,0%)" stroke-width="1" x1="31.431145825756307" x2="28.58437740859756" y1="54.38031203209523" y2="55.32683703391372" /><line stroke="rgb(100%,0%,0%)" stroke-width="1" x1="28.58437740859756" x2="31.108444080113525" y1="55.32683703391372" y2="62.91821947967038" /><line stroke="rgb(100%,0%,0%)" stroke-width="1" x1="31.108444080113525" x2="33.95521249727227" y1="62.91821947967038" y2="61.97169447785189" /><line stroke="rgb(100%,0%,0%)" stroke-width="1" x1="33.95521249727227" x2="36.47927916878824" y1="61.97169447785189" y2="69.56307692360855" /><line stroke="rgb(100%,0%,0%)" stroke-width="1" x1="36.47927916878824" x2="33.63251075162949" y1="69.56307692360855" y2="70.50960192542703" /><line stroke="rgb(100%,0%,0%)" stroke-width="1" x1="33.63251075162949" x2="36.15657742314545" y1="70.50960192542703" y2="78.10098437118369" /><line stroke="rgb(100%,0%,0%)" stroke-width="1" x1="36.15657742314545" x2="39.0033458403042" y1="78.10098437118369" y2="77.1544593693652" /><line stroke="rgb(100%,0%,0%)" stroke-width="1" x1="39.0033458403042" x2="41.52741251182017" y1="77.1544593693652" y2="84.74584181512185" /><line stroke="rgb(100%,0%,0%)" stroke-width="1" x1="41.52741251182017" x2="38.68064409466142" y1="84.74584181512185" y2="85.69236681694034" /><line stroke="rgb(100%,0%,0%)" stroke-width="1" x1="38.68064409466142" x2="41.20471076617738" y1="85.69236681694034" y2="93.283749262697" /><line stroke="rgb(100%,0%,0%)" stroke-width="1" x1="41.20471076617738" x2="44.05147918333613" y1="93.283749262697" y2="92.33722426087851" /><line stroke="rgb(100%,0%,0%)" stroke-width="1" x1="44.05147918333613" x2="46.575545854852095" y1="92.33722426087851" y2="99.92860670663518" /><line stroke="rgb(100%,0%,0%)" stroke-width="1" x1="46.575545854852095" x2="43.728777437693346" y1="99.92860670663518" y2="100.87513170845367" /><line stroke="rgb(100%,0%,0%)" stroke-width="1" x1="43.728777437693346" x2="50.42729825435722" y1="100.87513170845367" y2="121.02160165475514" /><line stroke="rgb(100%,0%,0%)" stroke-width="1" x1="42.75" x2="68.75" y1="115.48369420718001" y2="115.48369420718001" /><line stroke="rgb(100%,0%,0%)" stroke-width="1" x1="68.75" x2="68.75" y1="115.48369420718001" y2="112.48369420718001" /><line stroke="rgb(100%,0%,0%)" stroke-width="1" x1="68.75" x2="76.75" y1="112.48369420718001" y2="112.48369420718001" /><line stroke="rgb(100%,0%,0%)" stroke-width="1" x1="76.75" x2="76.75" y1="112.48369420718001" y2="115.48369420718001" /><line stroke="rgb(100%,0%,0%)" stroke-width="1" x1="76.75" x2="84.75" y1="115.48369420718001" y2="115.48369420718001" /><line stroke="rgb(100%,0%,0%)" stroke-width="1" x1="84.75" x2="84.75" y1="115.48369420718001" y2="112.48369420718001" /><line stroke="rgb(100%,0%,0%)" stroke-width="1" x1="84.75" x2="92.75" y1="112.48369420718001" y2="112.48369420718001" /><line stroke="rgb(100%,0%,0%)" stroke-width="1" x1="92.75" x2="92.75" y1="112.48369420718001" y2="115.48369420718001" /><line stroke="rgb(100%,0%,0%)" stroke-width="1" x1="92.75" x2="118.75" y1="115.48369420718001" y2="115.48369420718001" /><line stroke="rgb(100%,0%,0%)" stroke-width="1" x1="111.07270174564277" x2="117.77122256230665" y1="121.02160165475514" y2="100.87513170845367" /><line stroke="rgb(100%,0%,0%)" stroke-width="1" x1="117.77122256230665" x2="114.9244541451479" y1="100.87513170845367" y2="99.92860670663518" /><line stroke="rgb(100%,0%,0%)" stroke-width="1" x1="114.9244541451479" x2="117.44852081666387" y1="99.92860670663518" y2="92.33722426087851" /><line stroke="rgb(100%,0%,0%)" stroke-width="1" x1="117.44852081666387" x2="120.29528923382261" y1="92.33722426087851" y2="93.283749262697" /><line stroke="rgb(100%,0%,0%)" stroke-width="1" x1="120.29528923382261" x2="122.81935590533858" y1="93.283749262697" y2="85.69236681694034" /><line stroke="rgb(100%,0%,0%)" stroke-width="1" x1="122.81935590533858" x2="119.97258748817984" y1="85.69236681694034" y2="84.74584181512185" /><line stroke="rgb(100%,0%,0%)" stroke-width="1" x1="119.97258748817984" x2="122.49665415969581" y1="84.74584181512185" y2="77.1544593693652" /><line stroke="rgb(100%,0%,0%)" stroke-width="1" x1="122.49665415969581" x2="125.34342257685455" y1="77.1544593693652" y2="78.10098437118369" /><line stroke="rgb(100%,0%,0%)" stroke-width="1" x1="125.34342257685455" x2="127.86748924837052" y1="78.10098437118369" y2="70.50960192542703" /><line stroke="rgb(100%,0%,0%)" stroke-width="1" x1="127.86748924837052" x2="125.02072083121178" y1="70.50960192542703" y2="69.56307692360855" /><line stroke="rgb(100%,0%,0%)" stroke-width="1" x1="125.02072083121178" x2="127.54478750272773" y1="69.56307692360855" y2="61.97169447785189" /><line stroke="rgb(100%,0%,0%)" stroke-width="1" x1="127.54478750272773" x2="130.39155591988649" y1="61.97169447785189" y2="62.91821947967038" /><line stroke="rgb(100%,0%,0%)" stroke-width="1" x1="130.39155591988649" x2="132.91562259140247" y1="62.91821947967038" y2="55.32683703391372" /><line stroke="rgb(100%,0%,0%)" stroke-width="1" x1="132.91562259140247" x2="130.0688541742437" y1="55.32683703391372" y2="54.38031203209523" /><line stroke="rgb(100%,0%,0%)" stroke-width="1" x1="130.0688541742437" x2="132.59292084575966" y1="54.38031203209523" y2="46.788929586338575" /><line stroke="rgb(100%,0%,0%)" stroke-width="1" x1="132.59292084575966" x2="135.43968926291842" y1="46.788929586338575" y2="47.73545458815706" /><line stroke="rgb(100%,0%,0%)" stroke-width="1" x1="135.43968926291842" x2="137.96375593443437" y1="47.73545458815706" y2="40.144072142400404" /><line stroke="rgb(100%,0%,0%)" stroke-width="1" x1="137.96375593443437" x2="135.11698751727562" y1="40.144072142400404" y2="39.19754714058192" /><line stroke="rgb(100%,0%,0%)" stroke-width="1" x1="135.11698751727562" x2="137.6410541887916" y1="39.19754714058192" y2="31.60616469482526" /><line stroke="rgb(100%,0%,0%)" stroke-width="1" x1="137.6410541887916" x2="140.48782260595036" y1="31.60616469482526" y2="32.552689696643746" /><line stroke="rgb(100%,0%,0%)" stroke-width="1" x1="140.48782260595036" x2="146.8708350886747" y1="32.552689696643746" y2="13.35514255606183" /><line stroke="rgb(100%,0%,0%)" stroke-width="1" x1="149.5" x2="124.75" y1="20.0" y2="20.0" /><line stroke="rgb(100%,0%,0%)" stroke-width="1" x1="124.75" x2="124.75" y1="20.0" y2="17.5" /><line stroke="rgb(100%,0%,0%)" stroke-width="1" x1="124.75" x2="116.75" y1="17.5" y2="17.5" /><line stroke="rgb(100%,0%,0%)" stroke-width="1" x1="116.75" x2="116.75" y1="17.5" y2="20.0" /><line stroke="rgb(100%,0%,0%)" stroke-width="1" x1="116.75" x2="108.75" y1="20.0" y2="20.0" /><line stroke="rgb(100%,0%,0%)" stroke-width="1" x1="108.75" x2="108.75" y1="20.0" y2="17.5" /><line stroke="rgb(100%,0%,0%)" stroke-width="1" x1="108.75" x2="100.75" y1="17.5" y2="17.5" /><line stroke="rgb(100%,0%,0%)" stroke-width="1" x1="100.75" x2="100.75" y1="17.5" y2="20.0" /><line stroke="rgb(100%,0%,0%)" stroke-width="1" x1="100.75" x2="92.75" y1="20.0" y2="20.0" /><line stroke="rgb(100%,0%,0%)" stroke-width="1" x1="92.75" x2="92.75" y1="20.0" y2="17.5" /><line stroke="rgb(100%,0%,0%)" stroke-width="1" x1="92.75" x2="84.75" y1="17.5" y2="17.5" /><line stroke="rgb(100%,0%,0%)" stroke-width="1" x1="84.75" x2="84.75" y1="17.5" y2="20.0" /><line stroke="rgb(100%,0%,0%)" stroke-width="1" x1="84.75" x2="76.75" y1="20.0" y2="20.0" /><line stroke="rgb(100%,0%,0%)" stroke-width="1" x1="76.75" x2="76.75" y1="20.0" y2="17.5" /><line stroke="rgb(100%,0%,0%)" stroke-width="1" x1="76.75" x2="68.75" y1="17.5" y2="17.5" /><line stroke="rgb(100%,0%,0%)" stroke-width="1" x1="68.75" x2="68.75" y1="17.5" y2="20.0" /><line stroke="rgb(100%,0%,0%)" stroke-width="1" x1="68.75" x2="60.75" y1="20.0" y2="20.0" /><line stroke="rgb(100%,0%,0%)" stroke-width="1" x1="60.75" x2="60.75" y1="20.0" y2="17.5" /><line stroke="rgb(100%,0%,0%)" stroke-width="1" x1="60.75" x2="52.75" y1="17.5" y2="17.5" /><line stroke="rgb(100%,0%,0%)" stroke-width="1" x1="52.75" x2="52.75" y1="17.5" y2="20.0" /><line stroke="rgb(100%,0%,0%)" stroke-width="1" x1="52.75" x2="44.75" y1="20.0" y2="20.0" /><line stroke="rgb(100%,0%,0%)" stroke-width="1" x1="44.75" x2="44.75" y1="20.0" y2="17.5" /><line stroke="rgb(100%,0%,0%)" stroke-width="1" x1="44.75" x2="36.75" y1="17.5" y2="17.5" /><line stroke="rgb(100%,0%,0%)" stroke-width="1" x1="36.75" x2="36.75" y1="17.5" y2="20.0" /><line stroke="rgb(100%,0%,0%)" stroke-width="1" x1="36.75" x2="12.0" y1="20.0" y2="20.0" /></svg>