<?xml version="1.0" encoding="utf-8" ?>
<svg baseProfile="full" height="240mm" version="1.1" viewBox="0 0 240 240" width="240mm" xmlns="http://www.w3.org/2000/svg" xmlns:ev="http://www.w3.org/2001/xml-events" xmlns:xlink="http://www.w3.org/1999/xlink"><defs /><line stroke="rgb(100%,0%,0%)" stroke-width="1" x1="14.542203603506975" x2="20.57017336192926" y1="13.426381628476769" y2="30.789646170975185" /><line stroke="rgb(100%,0%,0%)" stroke-width="1" x1="20.57017336192926" x2="23.40424197131275" y1="30.789646170975185" y2="29.80574825080911" /><line stroke="rgb(100%,0%,0%)" stroke-width="1" x1="23.40424197131275" x2="26.027969758422284" y1="29.80574825080911" y2="37.36326454249841" /><line stroke="rgb(100%,0%,0%)" stroke-width="1" x1="26.027969758422284" x2="23.193901149038794" y1="37.36326454249841" y2="38.34716246266449" /><line stroke="rgb(100%,0%,0%)" stroke-width="1" x1="23.193901149038794" x2="25.817628936148328" y1="38.34716246266449" y2="45.9046787543538" /><line stroke="rgb(100%,0%,0%)" stroke-width="1" x1="25.817628936148328" x2="28.651697545531817" y1="45.9046787543538" y2="44.920780834187724" /><line stroke="rgb(100%,0%,0%)" stroke-width="1" x1="28.651697545531817" x2="31.275425332641355" y1="44.920780834187724" y2="52.478297125877035" /><line stroke="rgb(100%,0%,0%)" stroke-width="1" x1="31.275425332641355" x2="28.441356723257865" y1="52.478297125877035" y2="53.462195046043114" /><line stroke="rgb(100%,0%,0%)" stroke-width="1" x1="28.441356723257865" x2="31.065084510367402" y1="53.462195046043114" y2="61.01971133773242" /><line stroke="rgb(100%,0%,0%)" stroke-width="1" x1="31.065084510367402" x2="33.89915311975089" y1="61.01971133773242" y2="60.03581341756634" /><line stroke="rgb(100%,0%,0%)" stroke-width="1" x1="33.89915311975089" x2="36.52288090686042" y1="60.03581341756634" y2="67.59332970925564" /><line stroke="rgb(100%,0%,0%)" stroke-width="1" x1="36.52288090686042" x2="33.68881229747693" y1="67.59332970925564" y2="68.57722762942171" /><line stroke="rgb(100%,0%,0%)" stroke-width="1" x1="33.68881229747693" x2="36.312540084586466" y1="68.57722762942171" y2="76.13474392111102" /><line stroke="rgb(100%,0%,0%)" stroke-width="1" x1="36.312540084586466" x2="39.14660869396996" y1="76.13474392111102" y2="75.15084600094495" /><line stroke="rgb(100%,0%,0%)" stroke-width="1" x1="39.14660869396996" x2="41.7703364810795" y1="75.15084600094495" y2="82.70836229263426" /><line stroke="rgb(100%,0%,0%)" stroke-width="1" x1="41.7703364810795" x2="38.936267871696" y1="82.70836229263426" y2="83.69226021280033" /><line stroke="rgb(100%,0%,0%)" stroke-width="1" x1="38.936267871696" x2="41.55999565880553" y1="83.69226021280033" y2="91.24977650448965" /><line stroke="rgb(100%,0%,0%)" stroke-width="1" x1="41.55999565880553" x2="44.39406426818903" y1="91.24977650448965" y2="90.26587858432357" /><line stroke="rgb(100%,0%,0%)" stroke-width="1" x1="44.39406426818903" x2="47.017792055298564" y1="90.26587858432357" y2="97.82339487601288" /><line stroke="rgb(100%,0%,0%)" stroke-width="1" x1="47.017792055298564" x2="44.18372344591507" y1="97.82339487601288" y2="98.80729279617896" /><line stroke="rgb(100%,0%,0%)" stroke-width="1" x1="44.18372344591507" x2="50.539659177726044" y1="98.80729279617896" y2="117.11524687513852" /><line stroke="rgb(100%,0%,0%)" stroke-width="1" x1="42.75" x2="68.75" y1="111.57383266328314" y2="111.57383266328314" /><line stroke="rgb(100%,0%,0%)" stroke-width="1" x1="68.75" x2="68.75" y1="111.57383266328314" y2="108.57383266328314" /><line stroke="rgb(100%,0%,0%)" stroke-width="1" x1="68.75" x2="76.75" y1="108.57383266328314" y2="108.57383266328314" /><line stroke="rgb(100%,0%,0%)" stroke-width="1" x1="76.75" x2="76.75" y1="108.57383266328314" y2="111.57383266328314" /><line stroke="rgb(100%,0%,0%)" stroke-width="1" x1="76.75" x2="84.75" y1="111.57383266328314" y2="111.57383266328314" /><line stroke="rgb(100%,0%,0%)" stroke-width="1" x1="84.75" x2="84.75" y1="111.57383266328314" y2="108.57383266328314" /><line stroke="rgb(100%,0%,0%)" stroke-width="1" x1="84.75" x2="92.75" y1="108.57383266328314" y2="108.57383266328314" /><line stroke="rgb(100%,0%,0%)" stroke-width="1" x1="92.75" x2="92.75" y1="108.57383266328314" y2="111.57383266328314" /><line stroke="rgb(100%,0%,0%)" stroke-width="1" x1="92.75" x2="118.75" y1="111.57383266328314" y2="111.57383266328314" /><line stroke="rgb(100%,0%,0%)" stroke-width="1" x1="110.96034082227396" x2="117.31627655408494" y1="117.11524687513852" y2="98.80729279617896" /><line stroke="rgb(100%,0%,0%)" stroke-width="1" x1="117.31627655408494" x2="114.48220794470144" y1="98.80729279617896" y2="97.82339487601288" /><line stroke="rgb(100%,0%,0%)" stroke-width="1" x1="114.48220794470144" x2="117.10593573181097" y1="97.82339487601288" y2="90.26587858432357" /><line stroke="rgb(100%,0%,0%)" stroke-width="1" x1="117.10593573181097" x2="119.94000434119447" y1="90.26587858432357" y2="91.24977650448965" /><line stroke="rgb(100%,0%,0%)" stroke-width="1" x1="119.94000434119447" x2="122.56373212830401" y1="91.24977650448965" y2="83.69226021280033" /><line stroke="rgb(100%,0%,0%)" stroke-width="1" x1="122.56373212830401" x2="119.72966351892052" y1="83.69226021280033" y2="82.70836229263426" /><line stroke="rgb(100%,0%,0%)" stroke-width="1" x1="119.72966351892052" x2="122.35339130603005" y1="82.70836229263426" y2="75.15084600094495" /><line stroke="rgb(100%,0%,0%)" stroke-width="1" x1="122.35339130603005" x2="125.18745991541354" y1="75.15084600094495" y2="76.13474392111102" /><line stroke="rgb(100%,0%,0%)" stroke-width="1" x1="125.18745991541354" x2="127.81118770252307" y1="76.13474392111102" y2="68.57722762942171" /><line stroke="rgb(100%,0%,0%)" stroke-width="1" x1="127.81118770252307" x2="124.97711909313958" y1="68.57722762942171" y2="67.59332970925564" /><line stroke="rgb(100%,0%,0%)" stroke-width="1" x1="124.97711909313958" x2="127.60084688024912" y1="67.59332970925564" y2="60.03581341756634" /><line stroke="rgb(100%,0%,0%)" stroke-width="1" x1="127.60084688024912" x2="130.4349154896326" y1="60.03581341756634" y2="61.01971133773242" /><line stroke="rgb(100%,0%,0%)" stroke-width="1" x1="130.4349154896326" x2="133.05864327674215" y1="61.01971133773242" y2="53.462195046043114" /><line stroke="rgb(100%,0%,0%)" stroke-width="1" x1="133.05864327674215" x2="130.22457466735867" y1="53.462195046043114" y2="52.478297125877035" /><line stroke="rgb(100%,0%,0%)" stroke-width="1" x1="130.22457466735867" x2="132.84830245446818" y1="52.478297125877035" y2="44.920780834187724" /><line stroke="rgb(100%,0%,0%)" stroke-width="1" x1="132.84830245446818" x2="135.68237106385166" y1="44.920780834187724" y2="45.9046787543538" /><line stroke="rgb(100%,0%,0%)" stroke-width="1" x1="135.68237106385166" x2="138.3060988509612" y1="45.9046787543538" y2="38.34716246266449" /><line stroke="rgb(100%,0%,0%)" stroke-width="1" x1="138.3060988509612" x2="135.47203024157773" y1="38.34716246266449" y2="37.36326454249841" /><line stroke="rgb(100%,0%,0%)" stroke-width="1" x1="135.47203024157773" x2="138.09575802868727" y1="37.36326454249841" y2="29.80574825080911" /><line stroke="rgb(100%,0%,0%)" stroke-width="1" x1="138.09575802868727" x2="140.92982663807075" y1="29.80574825080911" y2="30.789646170975185" /><line stroke="rgb(100%,0%,0%)" stroke-width="1" x1="140.92982663807075" x2="146.95779639649302" y1="30.789646170975185" y2="13.426381628476769" /><line stroke="rgb(100%,0%,0%)" stroke-width="1" x1="149.5" x2="124.75" y1="20.0" y2="20.0" /><line stroke="rgb(100%,0%,0%)" stroke-width="1" x1="124.75" x2="124.75" y1="20.0" y2="17.5" /><line stroke="rgb(100%,0%,0%)" stroke-width="1" x1="124.75" x2="116.75" y1="17.5" y2="17.5" /><line stroke="rgb(100%,0%,0%)" stroke-width="1" x1="116.75" x2="116.75" y1="17.5" y2="20.0" /><line stroke="rgb(100%,0%,0%)" stroke-width="1" x1="116.75" x2="108.75" y1="20.0" y2="20.0" /><line stroke="rgb(100%,0%,0%)" stroke-width="1" x1="108.75" x2="108.75" y1="20.0" y2="17.5" /><line stroke="rgb(100%,0%,0%)" stroke-width="1" x1="108.75" x2="100.75" y1="17.5" y2="17.5" /><line stroke="rgb(100%,0%,0%)" stroke-width="1" x1="100.75" x2="100.75" y1="17.5" y2="20.0" /><line stroke="rgb(100%,0%,0%)" stroke-width="1" x1="100.75" x2="92.75" y1="20.0" y2="20.0" /><line stroke="rgb(100%,0%,0%)" stroke-width="1" x1="92.75" x2="92.75" y1="20.0" y2="17.5" /><line stroke="rgb(100%,0%,0%)" stroke-width="1" x1="92.75" x2="84.75" y1="17.5" y2="17.5" /><line stroke="rgb(100%,0%,0%)" stroke-width="1" x1="84.75" x2="84.75" y1="17.5" y2="20.0" /><line stroke="rgb(100%,0%,0%)" stroke-width="1" x1="84.75" x2="76.75" y1="20.0" y2="20.0" /><line stroke="rgb(100%,0%,0%)" stroke-width="1" x1="76.75" x2="76.75" y1="20.0" y2="17.5" /><line stroke="rgb(100%,0%,0%)" stroke-width="1" x1="76.75" x2="68.75" y1="17.5" y2="17.5" /><line stroke="rgb(100%,0%,0%)" stroke-width="1" x1="68.75" x2="68.75" y1="17.5" y2="20.0" /><line stroke="rgb(100%,0%,0%)" stroke-width="1" x1="68.75" x2="60.75" y1="20.0" y2="20.0" /><line stroke="rgb(100%,0%,0%)" stroke-width="1" x1="60.75" x2="60.75" y1="20.0" y2="17.5" /><line stroke="rgb(100%,0%,0%)" stroke-width="1" x1="60.75" x2="52.75" y1="17.5" y2="17.5" /><line stroke="rgb(100%,0%,0%)" stroke-width="1" x1="52.75" x2="52.75" y1="17.5" y2="20.0" /><line stroke="rgb(100%,0%,0%)" stroke-width="1" x1="52.75" x2="44.75" y1="20.0" y2="20.0" /><line stroke="rgb(100%,0%,0%)" stroke-width="1" x1="44.75" x2="44.75" y1="20.0" y2="17.5" /><line stroke="rgb(100%,0%,0%)" stroke-width="1" x1="44.75" x2="36.75" y1="17.5" y2="17.5" /><line stroke="rgb(100%,0%,0%)" stroke-width="1" x1="36.75" x2="36.75" y1="17.5" y2="20.0" /><line stroke="rgb(100%,0%,0%)" stroke-width="1" x1="36.75" x2="12.0" y1="20.0" y2="20.0" /></svg>