<?xml version="1.0" encoding="utf-8" ?>
<svg baseProfile="full" height="240mm" version="1.1" viewBox="0 0 240 240" width="240mm" xmlns="http://www.w3.org/2000/svg" xmlns:ev="http://www.w3.org/2001/xml-events" xmlns:xlink="http://www.w3.org/1999/xlink"><defs /><line stroke="rgb(100%,0%,0%)" stroke-width="1" x1="17.078419996749947" x2="24.841871238421692" y1="12.552559480961971" y2="32.34248181082593" /><line stroke="rgb(100%,0%,0%)" stroke-width="1" x1="24.841871238421692" x2="22.04908104378243" y1="32.34248181082593" y2="33.4380743120447" /><line stroke="rgb(100%,0%,0%)" stroke-width="1" x1="22.04908104378243" x2="24.970661047032486" y1="33.4380743120447" y2="40.88551483108272" /><line stroke="rgb(100%,0%,0%)" stroke-width="1" x1="24.970661047032486" x2="27.763451241671746" y1="40.88551483108272" y2="39.789922329863955" /><line stroke="rgb(100%,0%,0%)" stroke-width="1" x1="27.763451241671746" x2="30.685031244921795" y1="39.789922329863955" y2="47.23736284890199" /><line stroke="rgb(100%,0%,0%)" stroke-width="1" x1="30.685031244921795" x2="27.892241050282536" y1="47.23736284890199" y2="48.332955350120756" /><line stroke="rgb(100%,0%,0%)" stroke-width="1" x1="27.892241050282536" x2="30.813821053532585" y1="48.332955350120756" y2="55.78039586915879" /><line stroke="rgb(100%,0%,0%)" stroke-width="1" x1="30.813821053532585" x2="33.606611248171845" y1="55.78039586915879" y2="54.68480336794002" /><line stroke="rgb(100%,0%,0%)" stroke-width="1" x1="33.606611248171845" x2="36.5281912514219" y1="54.68480336794002" y2="62.132243886978046" /><line stroke="rgb(100%,0%,0%)" stroke-width="1" x1="36.5281912514219" x2="33.73540105678264" y1="62.132243886978046" y2="63.22783638819681" /><line stroke="rgb(100%,0%,0%)" stroke-width="1" x1="33.73540105678264" x2="36.65698106003269" y1="63.22783638819681" y2="70.67527690723485" /><line stroke="rgb(100%,0%,0%)" stroke-width="1" x1="36.65698106003269" x2="39.44977125467195" y1="70.67527690723485" y2="69.57968440601607" /><line stroke="rgb(100%,0%,0%)" stroke-width="1" x1="39.44977125467195" x2="42.371351257922" y1="69.57968440601607" y2="77.02712492505411" /><line stroke="rgb(100%,0%,0%)" stroke-width="1" x1="42.371351257922" x2="39.57856106328274" y1="77.02712492505411" y2="78.12271742627289" /><line stroke="rgb(100%,0%,0%)" stroke-width="1" x1="39.57856106328274" x2="42.5001410665328" y1="78.12271742627289" y2="85.57015794531091" /><line stroke="rgb(100%,0%,0%)" stroke-width="1" x1="42.5001410665328" x2="45.29293126117206" y1="85.57015794531091" y2="84.47456544409214" /><line stroke="rgb(100%,0%,0%)" stroke-width="1" x1="45.29293126117206" x2="53.42158000325005" y1="84.47456544409214" y2="105.19541783883585" /><line stroke="rgb(100%,0%,0%)" stroke-width="1" x1="42.5" x2="68.5" y1="100.74797731979783" y2="100.74797731979783" /><line stroke="rgb(100%,0%,0%)" stroke-width="1" x1="68.5" x2="68.5" y1="100.74797731979783" y2="97.74797731979783" /><line stroke="rgb(100%,0%,0%)" stroke-width="1" x1="68.5" x2="76.5" y1="97.74797731979783" y2="97.74797731979783" /><line stroke="rgb(100%,0%,0%)" stroke-width="1" x1="76.5" x2="76.5" y1="97.74797731979783" y2="100.74797731979783" /><line stroke="rgb(100%,0%,0%)" stroke-width="1" x1="76.5" x2="84.5" y1="100.74797731979783" y2="100.74797731979783" /><line stroke="rgb(100%,0%,0%)" stroke-width="1" x1="84.5" x2="84.5" y1="100.74797731979783" y2="97.74797731979783" /><line stroke="rgb(100%,0%,0%)" stroke-width="1" x1="84.5" x2="92.5" y1="97.74797731979783" y2="97.74797731979783" /><line stroke="rgb(100%,0%,0%)" stroke-width="1" x1="92.5" x2="92.5" y1="97.74797731979783" y2="100.74797731979783" /><line stroke="rgb(100%,0%,0%)" stroke-width="1" x1="92.5" x2="118.5" y1="100.74797731979783" y2="100.74797731979783" /><line stroke="rgb(100%,0%,0%)" stroke-width="1" x1="107.57841999674994" x2="115.70706873882794" y1="105.19541783883585" y2="84.47456544409214" /><line stroke="rgb(100%,0%,0%)" stroke-width="1" x1="115.70706873882794" x2="118.49985893346721" y1="84.47456544409214" y2="85.57015794531091" /><line stroke="rgb(100%,0%,0%)" stroke-width="1" x1="118.49985893346721" x2="121.42143893671727" y1="85.57015794531091" y2="78.12271742627289" /><line stroke="rgb(100%,0%,0%)" stroke-width="1" x1="121.42143893671727" x2="118.628648742078" y1="78.12271742627289" y2="77.02712492505411" /><line stroke="rgb(100%,0%,0%)" stroke-width="1" x1="118.628648742078" x2="121.55022874532804" y1="77.02712492505411" y2="69.57968440601607" /><line stroke="rgb(100%,0%,0%)" stroke-width="1" x1="121.55022874532804" x2="124.34301893996731" y1="69.57968440601607" y2="70.67527690723485" /><line stroke="rgb(100%,0%,0%)" stroke-width="1" x1="124.34301893996731" x2="127.26459894321736" y1="70.67527690723485" y2="63.22783638819681" /><line stroke="rgb(100%,0%,0%)" stroke-width="1" x1="127.26459894321736" x2="124.4718087485781" y1="63.22783638819681" y2="62.132243886978046" /><line stroke="rgb(100%,0%,0%)" stroke-width="1" x1="124.4718087485781" x2="127.39338875182816" y1="62.132243886978046" y2="54.68480336794002" /><line stroke="rgb(100%,0%,0%)" stroke-width="1" x1="127.39338875182816" x2="130.1861789464674" y1="54.68480336794002" y2="55.78039586915879" /><line stroke="rgb(100%,0%,0%)" stroke-width="1" x1="130.1861789464674" x2="133.10775894971746" y1="55.78039586915879" y2="48.332955350120756" /><line stroke="rgb(100%,0%,0%)" stroke-width="1" x1="133.10775894971746" x2="130.3149687550782" y1="48.332955350120756" y2="47.23736284890199" /><line stroke="rgb(100%,0%,0%)" stroke-width="1" x1="130.3149687550782" x2="133.23654875832827" y1="47.23736284890199" y2="39.789922329863955" /><line stroke="rgb(100%,0%,0%)" stroke-width="1" x1="133.23654875832827" x2="136.02933895296752" y1="39.789922329863955" y2="40.88551483108272" /><line stroke="rgb(100%,0%,0%)" stroke-width="1" x1="136.02933895296752" x2="138.95091895621755" y1="40.88551483108272" y2="33.4380743120447" /><line stroke="rgb(100%,0%,0%)" stroke-width="1" x1="138.95091895621755" x2="136.1581287615783" y1="33.4380743120447" y2="32.34248181082593" /><line stroke="rgb(100%,0%,0%)" stroke-width="1" x1="136.1581287615783" x2="143.92158000325006" y1="32.34248181082593" y2="12.552559480961971" /><line stroke="rgb(100%,0%,0%)" stroke-width="1" x1="149.0" x2="124.5" y1="17.5" y2="17.5" /><line stroke="rgb(100%,0%,0%)" stroke-width="1" x1="124.5" x2="124.5" y1="17.5" y2="20.0" /><line stroke="rgb(100%,0%,0%)" stroke-width="1" x1="124.5" x2="116.5" y1="20.0" y2="20.0" /><line stroke="rgb(100%,0%,0%)" stroke-width="1" x1="116.5" x2="116.5" y1="20.0" y2="17.5" /><line stroke="rgb(100%,0%,0%)" stroke-width="1" x1="116.5" x2="108.5" y1="17.5" y2="17.5" /><line stroke="rgb(100%,0%,0%)" stroke-width="1" x1="108.5" x2="108.5" y1="17.5" y2="20.0" /><line stroke="rgb(100%,0%,0%)" stroke-width="1" x1="108.5" x2="100.5" y1="20.0" y2="20.0" /><line stroke="rgb(100%,0%,0%)" stroke-width="1" x1="100.5" x2="100.5" y1="20.0" y2="17.5" /><line stroke="rgb(100%,0%,0%)" stroke-width="1" x1="100.5" x2="92.5" y1="17.5" y2="17.5" /><line stroke="rgb(100%,0%,0%)" stroke-width="1" x1="92.5" x2="92.5" y1="17.5" y2="20.0" /><line stroke="rgb(100%,0%,0%)" stroke-width="1" x1="92.5" x2="84.5" y1="20.0" y2="20.0" /><line stroke="rgb(100%,0%,0%)" stroke-width="1" x1="84.5" x2="84.5" y1="20.0" y2="17.5" /><line stroke="rgb(100%,0%,0%)" stroke-width="1" x1="84.5" x2="76.5" y1="17.5" y2="17.5" /><line stroke="rgb(100%,0%,0%)" stroke-width="1" x1="76.5" x2="76.5" y1="17.5" y2="20.0" /><line stroke="rgb(100%,0%,0%)" stroke-width="1" x1="76.5" x2="68.5" y1="20.0" y2="20.0" /><line stroke="rgb(100%,0%,0%)" stroke-width="1" x1="68.5" x2="68.5" y1="20.0" y2="17.5" /><line stroke="rgb(100%,0%,0%)" stroke-width="1" x1="68.5" x2="60.5" y1="17.5" y2="17.5" /><line stroke="rgb(100%,0%,0%)" stroke-width="1" x1="60.5" x2="60.5" y1="17.5" y2="20.0" /><line stroke="rgb(100%,0%,0%)" stroke-width="1" x1="60.5" x2="52.5" y1="20.0" y2="20.0" /><line stroke="rgb(100%,0%,0%)" stroke-width="1" x1="52.5" x2="52.5" y1="20.0" y2="17.5" /><line stroke="rgb(100%,0%,0%)" stroke-width="1" x1="52.5" x2="44.5" y1="17.5" y2="17.5" /><line stroke="rgb(100%,0%,0%)" stroke-width="1" x1="44.5" x2="44.5" y1="17.5" y2="20.0" /><line stroke="rgb(100%,0%,0%)" stroke-width="1" x1="44.5" x2="36.5" y1="20.0" y2="20.0" /><line stroke="rgb(100%,0%,0%)" stroke-width="1" x1="36.5" x2="36.5" y1="20.0" y2="17.5" /><line stroke="rgb(100%,0%,0%)" stroke-width="1" x1="36.5" x2="12.0" y1="17.5" y2="17.5" /></svg>