<?xml version="1.0" encoding="utf-8" ?>
<svg baseProfile="full" height="240mm" version="1.1" viewBox="0 0 240 240" width="240mm" xmlns="http://www.w3.org/2000/svg" xmlns:ev="http://www.w3.org/2001/xml-events" xmlns:xlink="http://www.w3.org/1999/xlink"><defs /><line stroke="rgb(100%,0%,0%)" stroke-width="1" x1="17.04103187887093" x2="24.958676068477686" y1="12.56733509041731" y2="32.455753527381056" /><line stroke="rgb(100%,0%,0%)" stroke-width="1" x1="24.958676068477686" x2="22.171426727384176" y1="32.455753527381056" y2="33.56536657280446" /><line stroke="rgb(100%,0%,0%)" stroke-width="1" x1="22.171426727384176" x2="25.130394848513248" y1="33.56536657280446" y2="40.99803148238715" /><line stroke="rgb(100%,0%,0%)" stroke-width="1" x1="25.130394848513248" x2="27.917644189606758" y1="40.99803148238715" y2="39.88841843696375" /><line stroke="rgb(100%,0%,0%)" stroke-width="1" x1="27.917644189606758" x2="30.87661231073583" y1="39.88841843696375" y2="47.32108334654644" /><line stroke="rgb(100%,0%,0%)" stroke-width="1" x1="30.87661231073583" x2="28.08936296964232" y1="47.32108334654644" y2="48.43069639196984" /><line stroke="rgb(100%,0%,0%)" stroke-width="1" x1="28.08936296964232" x2="31.048331090771388" y1="48.43069639196984" y2="55.86336130155253" /><line stroke="rgb(100%,0%,0%)" stroke-width="1" x1="31.048331090771388" x2="33.8355804318649" y1="55.86336130155253" y2="54.75374825612913" /><line stroke="rgb(100%,0%,0%)" stroke-width="1" x1="33.8355804318649" x2="36.79454855299397" y1="54.75374825612913" y2="62.186413165711826" /><line stroke="rgb(100%,0%,0%)" stroke-width="1" x1="36.79454855299397" x2="34.00729921190047" y1="62.186413165711826" y2="63.29602621113523" /><line stroke="rgb(100%,0%,0%)" stroke-width="1" x1="34.00729921190047" x2="36.966267333029535" y1="63.29602621113523" y2="70.72869112071791" /><line stroke="rgb(100%,0%,0%)" stroke-width="1" x1="36.966267333029535" x2="39.75351667412304" y1="70.72869112071791" y2="69.61907807529451" /><line stroke="rgb(100%,0%,0%)" stroke-width="1" x1="39.75351667412304" x2="42.71248479525211" y1="69.61907807529451" y2="77.05174298487721" /><line stroke="rgb(100%,0%,0%)" stroke-width="1" x1="42.71248479525211" x2="39.9252354541586" y1="77.05174298487721" y2="78.16135603030061" /><line stroke="rgb(100%,0%,0%)" stroke-width="1" x1="39.9252354541586" x2="42.88420357528768" y1="78.16135603030061" y2="85.59402093988331" /><line stroke="rgb(100%,0%,0%)" stroke-width="1" x1="42.88420357528768" x2="45.671452916381185" y1="85.59402093988331" y2="84.4844078944599" /><line stroke="rgb(100%,0%,0%)" stroke-width="1" x1="45.671452916381185" x2="53.95896812112907" y1="84.4844078944599" y2="105.3019094451215" /><line stroke="rgb(100%,0%,0%)" stroke-width="1" x1="43.0" x2="69.0" y1="100.8692445355388" y2="100.8692445355388" /><line stroke="rgb(100%,0%,0%)" stroke-width="1" x1="69.0" x2="69.0" y1="100.8692445355388" y2="97.8692445355388" /><line stroke="rgb(100%,0%,0%)" stroke-width="1" x1="69.0" x2="77.0" y1="97.8692445355388" y2="97.8692445355388" /><line stroke="rgb(100%,0%,0%)" stroke-width="1" x1="77.0" x2="77.0" y1="97.8692445355388" y2="100.8692445355388" /><line stroke="rgb(100%,0%,0%)" stroke-width="1" x1="77.0" x2="85.0" y1="100.8692445355388" y2="100.8692445355388" /><line stroke="rgb(100%,0%,0%)" stroke-width="1" x1="85.0" x2="85.0" y1="100.8692445355388" y2="97.8692445355388" /><line stroke="rgb(100%,0%,0%)" stroke-width="1" x1="85.0" x2="93.0" y1="97.8692445355388" y2="97.8692445355388" /><line stroke="rgb(100%,0%,0%)" stroke-width="1" x1="93.0" x2="93.0" y1="97.8692445355388" y2="100.8692445355388" /><line stroke="rgb(100%,0%,0%)" stroke-width="1" x1="93.0" x2="119.0" y1="100.8692445355388" y2="100.8692445355388" /><line stroke="rgb(100%,0%,0%)" stroke-width="1" x1="108.04103187887092" x2="116.32854708361882" y1="105.3019094451215" y2="84.4844078944599" /><line stroke="rgb(100%,0%,0%)" stroke-width="1" x1="116.32854708361882" x2="119.11579642471233" y1="84.4844078944599" y2="85.59402093988331" /><line stroke="rgb(100%,0%,0%)" stroke-width="1" x1="119.11579642471233" x2="122.0747645458414" y1="85.59402093988331" y2="78.16135603030061" /><line stroke="rgb(100%,0%,0%)" stroke-width="1" x1="122.0747645458414" x2="119.28751520474789" y1="78.16135603030061" y2="77.05174298487721" /><line stroke="rgb(100%,0%,0%)" stroke-width="1" x1="119.28751520474789" x2="122.24648332587697" y1="77.05174298487721" y2="69.61907807529451" /><line stroke="rgb(100%,0%,0%)" stroke-width="1" x1="122.24648332587697" x2="125.03373266697048" y1="69.61907807529451" y2="70.72869112071791" /><line stroke="rgb(100%,0%,0%)" stroke-width="1" x1="125.03373266697048" x2="127.99270078809955" y1="70.72869112071791" y2="63.29602621113523" /><line stroke="rgb(100%,0%,0%)" stroke-width="1" x1="127.99270078809955" x2="125.20545144700604" y1="63.29602621113523" y2="62.186413165711826" /><line stroke="rgb(100%,0%,0%)" stroke-width="1" x1="125.20545144700604" x2="128.16441956813512" y1="62.186413165711826" y2="54.75374825612913" /><line stroke="rgb(100%,0%,0%)" stroke-width="1" x1="128.16441956813512" x2="130.95166890922863" y1="54.75374825612913" y2="55.86336130155253" /><line stroke="rgb(100%,0%,0%)" stroke-width="1" x1="130.95166890922863" x2="133.9106370303577" y1="55.86336130155253" y2="48.43069639196984" /><line stroke="rgb(100%,0%,0%)" stroke-width="1" x1="133.9106370303577" x2="131.12338768926418" y1="48.43069639196984" y2="47.32108334654644" /><line stroke="rgb(100%,0%,0%)" stroke-width="1" x1="131.12338768926418" x2="134.08235581039324" y1="47.32108334654644" y2="39.88841843696375" /><line stroke="rgb(100%,0%,0%)" stroke-width="1" x1="134.08235581039324" x2="136.86960515148675" y1="39.88841843696375" y2="40.99803148238715" /><line stroke="rgb(100%,0%,0%)" stroke-width="1" x1="136.86960515148675" x2="139.82857327261584" y1="40.99803148238715" y2="33.56536657280446" /><line stroke="rgb(100%,0%,0%)" stroke-width="1" x1="139.82857327261584" x2="137.04132393152233" y1="33.56536657280446" y2="32.455753527381056" /><line stroke="rgb(100%,0%,0%)" stroke-width="1" x1="137.04132393152233" x2="144.95896812112906" y1="32.455753527381056" y2="12.56733509041731" /><line stroke="rgb(100%,0%,0%)" stroke-width="1" x1="150.0" x2="125.0" y1="17.5" y2="17.5" /><line stroke="rgb(100%,0%,0%)" stroke-width="1" x1="125.0" x2="125.0" y1="17.5" y2="20.0" /><line stroke="rgb(100%,0%,0%)" stroke-width="1" x1="125.0" x2="117.0" y1="20.0" y2="20.0" /><line stroke="rgb(100%,0%,0%)" stroke-width="1" x1="117.0" x2="117.0" y1="20.0" y2="17.5" /><line stroke="rgb(100%,0%,0%)" stroke-width="1" x1="117.0" x2="109.0" y1="17.5" y2="17.5" /><line stroke="rgb(100%,0%,0%)" stroke-width="1" x1="109.0" x2="109.0" y1="17.5" y2="20.0" /><line stroke="rgb(100%,0%,0%)" stroke-width="1" x1="109.0" x2="101.0" y1="20.0" y2="20.0" /><line stroke="rgb(100%,0%,0%)" stroke-width="1" x1="101.0" x2="101.0" y1="20.0" y2="17.5" /><line stroke="rgb(100%,0%,0%)" stroke-width="1" x1="101.0" x2="93.0" y1="17.5" y2="17.5" /><line stroke="rgb(100%,0%,0%)" stroke-width="1" x1="93.0" x2="93.0" y1="17.5" y2="20.0" /><line stroke="rgb(100%,0%,0%)" stroke-width="1" x1="93.0" x2="85.0" y1="20.0" y2="20.0" /><line stroke="rgb(100%,0%,0%)" stroke-width="1" x1="85.0" x2="85.0" y1="20.0" y2="17.5" /><line stroke="rgb(100%,0%,0%)" stroke-width="1" x1="85.0" x2="77.0" y1="17.5" y2="17.5" /><line stroke="rgb(100%,0%,0%)" stroke-width="1" x1="77.0" x2="77.0" y1="17.5" y2="20.0" /><line stroke="rgb(100%,0%,0%)" stroke-width="1" x1="77.0" x2="69.0" y1="20.0" y2="20.0" /><line stroke="rgb(100%,0%,0%)" stroke-width="1" x1="69.0" x2="69.0" y1="20.0" y2="17.5" /><line stroke="rgb(100%,0%,0%)" stroke-width="1" x1="69.0" x2="61.0" y1="17.5" y2="17.5" /><line stroke="rgb(100%,0%,0%)" stroke-width="1" x1="61.0" x2="61.0" y1="17.5" y2="20.0" /><line stroke="rgb(100%,0%,0%)" stroke-width="1" x1="61.0" x2="53.0" y1="20.0" y2="20.0" /><line stroke="rgb(100%,0%,0%)" stroke-width="1" x1="53.0" x2="53.0" y1="20.0" y2="17.5" /><line stroke="rgb(100%,0%,0%)" stroke-width="1" x1="53.0" x2="45.0" y1="17.5" y2="17.5" /><line stroke="rgb(100%,0%,0%)" stroke-width="1" x1="45.0" x2="45.0" y1="17.5" y2="20.0" /><line stroke="rgb(100%,0%,0%)" stroke-width="1" x1="45.0" x2="37.0" y1="20.0" y2="20.0" /><line stroke="rgb(100%,0%,0%)" stroke-width="1" x1="37.0" x2="37.0" y1="20.0" y2="17.5" /><line stroke="rgb(100%,0%,0%)" stroke-width="1" x1="37.0" x2="12.0" y1="17.5" y2="17.5" /></svg>