<?xml version="1.0" encoding="utf-8" ?>
<svg baseProfile="full" height="240mm" version="1.1" viewBox="0 0 240 240" width="240mm" xmlns="http://www.w3.org/2000/svg" xmlns:ev="http://www.w3.org/2001/xml-events" xmlns:xlink="http://www.w3.org/1999/xlink"><defs /><line stroke="rgb(100%,0%,0%)" stroke-width="1" x1="18.435442797138307" x2="22.7012637756756" y1="12.154481485652234" y2="33.54556734994196" /><line stroke="rgb(100%,0%,0%)" stroke-width="1" x1="22.7012637756756" x2="18.778504518501716" y1="33.54556734994196" y2="34.32784595137281" /><line stroke="rgb(100%,0%,0%)" stroke-width="1" x1="18.778504518501716" x2="20.34306172136341" y1="34.32784595137281" y2="42.17336446572058" /><line stroke="rgb(100%,0%,0%)" stroke-width="1" x1="20.34306172136341" x2="24.265820978537292" y1="42.17336446572058" y2="41.391085864289735" /><line stroke="rgb(100%,0%,0%)" stroke-width="1" x1="24.265820978537292" x2="25.830378181398988" y1="41.391085864289735" y2="49.2366043786375" /><line stroke="rgb(100%,0%,0%)" stroke-width="1" x1="25.830378181398988" x2="21.907618924225105" y1="49.2366043786375" y2="50.01888298006835" /><line stroke="rgb(100%,0%,0%)" stroke-width="1" x1="21.907618924225105" x2="23.4721761270868" y1="50.01888298006835" y2="57.864401494416114" /><line stroke="rgb(100%,0%,0%)" stroke-width="1" x1="23.4721761270868" x2="27.394935384260684" y1="57.864401494416114" y2="57.08212289298527" /><line stroke="rgb(100%,0%,0%)" stroke-width="1" x1="27.394935384260684" x2="28.959492587122377" y1="57.08212289298527" y2="64.92764140733303" /><line stroke="rgb(100%,0%,0%)" stroke-width="1" x1="28.959492587122377" x2="25.036733329948493" y1="64.92764140733303" y2="65.70992000876387" /><line stroke="rgb(100%,0%,0%)" stroke-width="1" x1="25.036733329948493" x2="26.601290532810186" y1="65.70992000876387" y2="73.55543852311165" /><line stroke="rgb(100%,0%,0%)" stroke-width="1" x1="26.601290532810186" x2="30.52404978998407" y1="73.55543852311165" y2="72.7731599216808" /><line stroke="rgb(100%,0%,0%)" stroke-width="1" x1="30.52404978998407" x2="32.08860699284577" y1="72.7731599216808" y2="80.61867843602857" /><line stroke="rgb(100%,0%,0%)" stroke-width="1" x1="32.08860699284577" x2="28.165847735671885" y1="80.61867843602857" y2="81.40095703745942" /><line stroke="rgb(100%,0%,0%)" stroke-width="1" x1="28.165847735671885" x2="29.730404938533578" y1="81.40095703745942" y2="89.24647555180718" /><line stroke="rgb(100%,0%,0%)" stroke-width="1" x1="29.730404938533578" x2="33.65316419570746" y1="89.24647555180718" y2="88.46419695037633" /><line stroke="rgb(100%,0%,0%)" stroke-width="1" x1="33.65316419570746" x2="35.217721398569154" y1="88.46419695037633" y2="96.3097154647241" /><line stroke="rgb(100%,0%,0%)" stroke-width="1" x1="35.217721398569154" x2="31.29496214139527" y1="96.3097154647241" y2="97.09199406615495" /><line stroke="rgb(100%,0%,0%)" stroke-width="1" x1="31.29496214139527" x2="32.85951934425696" y1="97.09199406615495" y2="104.93751258050271" /><line stroke="rgb(100%,0%,0%)" stroke-width="1" x1="32.85951934425696" x2="36.782278601430846" y1="104.93751258050271" y2="104.15523397907187" /><line stroke="rgb(100%,0%,0%)" stroke-width="1" x1="36.782278601430846" x2="38.34683580429254" y1="104.15523397907187" y2="112.00075249341964" /><line stroke="rgb(100%,0%,0%)" stroke-width="1" x1="38.34683580429254" x2="34.42407654711865" y1="112.00075249341964" y2="112.78303109485049" /><line stroke="rgb(100%,0%,0%)" stroke-width="1" x1="34.42407654711865" x2="35.988633749980345" y1="112.78303109485049" y2="120.62854960919825" /><line stroke="rgb(100%,0%,0%)" stroke-width="1" x1="35.988633749980345" x2="39.91139300715423" y1="120.62854960919825" y2="119.8462710077674" /><line stroke="rgb(100%,0%,0%)" stroke-width="1" x1="39.91139300715423" x2="41.47595021001593" y1="119.8462710077674" y2="127.69178952211517" /><line stroke="rgb(100%,0%,0%)" stroke-width="1" x1="41.47595021001593" x2="37.553190952842044" y1="127.69178952211517" y2="128.47406812354603" /><line stroke="rgb(100%,0%,0%)" stroke-width="1" x1="37.553190952842044" x2="39.11774815570374" y1="128.47406812354603" y2="136.3195866378938" /><line stroke="rgb(100%,0%,0%)" stroke-width="1" x1="39.11774815570374" x2="43.04050741287762" y1="136.3195866378938" y2="135.53730803646295" /><line stroke="rgb(100%,0%,0%)" stroke-width="1" x1="43.04050741287762" x2="44.605064615739316" y1="135.53730803646295" y2="143.3828265508107" /><line stroke="rgb(100%,0%,0%)" stroke-width="1" x1="44.605064615739316" x2="40.68230535856543" y1="143.3828265508107" y2="144.16510515224155" /><line stroke="rgb(100%,0%,0%)" stroke-width="1" x1="40.68230535856543" x2="42.24686256142713" y1="144.16510515224155" y2="152.0106236665893" /><line stroke="rgb(100%,0%,0%)" stroke-width="1" x1="42.24686256142713" x2="46.169621818601016" y1="152.0106236665893" y2="151.22834506515846" /><line stroke="rgb(100%,0%,0%)" stroke-width="1" x1="46.169621818601016" x2="47.73417902146271" y1="151.22834506515846" y2="159.07386357950622" /><line stroke="rgb(100%,0%,0%)" stroke-width="1" x1="47.73417902146271" x2="43.81141976428882" y1="159.07386357950622" y2="159.85614218093707" /><line stroke="rgb(100%,0%,0%)" stroke-width="1" x1="43.81141976428882" x2="45.375976967150514" y1="159.85614218093707" y2="167.70166069528486" /><line stroke="rgb(100%,0%,0%)" stroke-width="1" x1="45.375976967150514" x2="49.2987362243244" y1="167.70166069528486" y2="166.919382093854" /><line stroke="rgb(100%,0%,0%)" stroke-width="1" x1="49.2987362243244" x2="53.56455720286169" y1="166.919382093854" y2="188.31046795814373" /><line stroke="rgb(100%,0%,0%)" stroke-width="1" x1="44.0" x2="64.0" y1="180.46494944379597" y2="180.46494944379597" /><line stroke="rgb(100%,0%,0%)" stroke-width="1" x1="64.0" x2="64.0" y1="180.46494944379597" y2="184.46494944379597" /><line stroke="rgb(100%,0%,0%)" stroke-width="1" x1="64.0" x2="72.0" y1="184.46494944379597" y2="184.46494944379597" /><line stroke="rgb(100%,0%,0%)" stroke-width="1" x1="72.0" x2="72.0" y1="184.46494944379597" y2="180.46494944379597" /><line stroke="rgb(100%,0%,0%)" stroke-width="1" x1="72.0" x2="80.0" y1="180.46494944379597" y2="180.46494944379597" /><line stroke="rgb(100%,0%,0%)" stroke-width="1" x1="80.0" x2="80.0" y1="180.46494944379597" y2="184.46494944379597" /><line stroke="rgb(100%,0%,0%)" stroke-width="1" x1="80.0" x2="88.0" y1="184.46494944379597" y2="184.46494944379597" /><line stroke="rgb(100%,0%,0%)" stroke-width="1" x1="88.0" x2="88.0" y1="184.46494944379597" y2="180.46494944379597" /><line stroke="rgb(100%,0%,0%)" stroke-width="1" x1="88.0" x2="96.0" y1="180.46494944379597" y2="180.46494944379597" /><line stroke="rgb(100%,0%,0%)" stroke-width="1" x1="96.0" x2="96.0" y1="180.46494944379597" y2="184.46494944379597" /><line stroke="rgb(100%,0%,0%)" stroke-width="1" x1="96.0" x2="104.0" y1="184.46494944379597" y2="184.46494944379597" /><line stroke="rgb(100%,0%,0%)" stroke-width="1" x1="104.0" x2="104.0" y1="184.46494944379597" y2="180.46494944379597" /><line stroke="rgb(100%,0%,0%)" stroke-width="1" x1="104.0" x2="124.0" y1="180.46494944379597" y2="180.46494944379597" /><line stroke="rgb(100%,0%,0%)" stroke-width="1" x1="114.43544279713831" x2="118.7012637756756" y1="188.31046795814373" y2="166.919382093854" /><line stroke="rgb(100%,0%,0%)" stroke-width="1" x1="118.7012637756756" x2="122.62402303284948" y1="166.919382093854" y2="167.70166069528486" /><line stroke="rgb(100%,0%,0%)" stroke-width="1" x1="122.62402303284948" x2="124.18858023571117" y1="167.70166069528486" y2="159.85614218093707" /><line stroke="rgb(100%,0%,0%)" stroke-width="1" x1="124.18858023571117" x2="120.26582097853729" y1="159.85614218093707" y2="159.07386357950622" /><line stroke="rgb(100%,0%,0%)" stroke-width="1" x1="120.26582097853729" x2="121.83037818139898" y1="159.07386357950622" y2="151.22834506515846" /><line stroke="rgb(100%,0%,0%)" stroke-width="1" x1="121.83037818139898" x2="125.75313743857286" y1="151.22834506515846" y2="152.0106236665893" /><line stroke="rgb(100%,0%,0%)" stroke-width="1" x1="125.75313743857286" x2="127.31769464143456" y1="152.0106236665893" y2="144.16510515224155" /><line stroke="rgb(100%,0%,0%)" stroke-width="1" x1="127.31769464143456" x2="123.39493538426068" y1="144.16510515224155" y2="143.3828265508107" /><line stroke="rgb(100%,0%,0%)" stroke-width="1" x1="123.39493538426068" x2="124.95949258712238" y1="143.3828265508107" y2="135.53730803646295" /><line stroke="rgb(100%,0%,0%)" stroke-width="1" x1="124.95949258712238" x2="128.88225184429626" y1="135.53730803646295" y2="136.3195866378938" /><line stroke="rgb(100%,0%,0%)" stroke-width="1" x1="128.88225184429626" x2="130.44680904715796" y1="136.3195866378938" y2="128.47406812354603" /><line stroke="rgb(100%,0%,0%)" stroke-width="1" x1="130.44680904715796" x2="126.52404978998408" y1="128.47406812354603" y2="127.69178952211517" /><line stroke="rgb(100%,0%,0%)" stroke-width="1" x1="126.52404978998408" x2="128.08860699284577" y1="127.69178952211517" y2="119.8462710077674" /><line stroke="rgb(100%,0%,0%)" stroke-width="1" x1="128.08860699284577" x2="132.01136625001965" y1="119.8462710077674" y2="120.62854960919825" /><line stroke="rgb(100%,0%,0%)" stroke-width="1" x1="132.01136625001965" x2="133.57592345288134" y1="120.62854960919825" y2="112.78303109485049" /><line stroke="rgb(100%,0%,0%)" stroke-width="1" x1="133.57592345288134" x2="129.65316419570746" y1="112.78303109485049" y2="112.00075249341964" /><line stroke="rgb(100%,0%,0%)" stroke-width="1" x1="129.65316419570746" x2="131.21772139856915" y1="112.00075249341964" y2="104.15523397907187" /><line stroke="rgb(100%,0%,0%)" stroke-width="1" x1="131.21772139856915" x2="135.14048065574303" y1="104.15523397907187" y2="104.93751258050271" /><line stroke="rgb(100%,0%,0%)" stroke-width="1" x1="135.14048065574303" x2="136.70503785860473" y1="104.93751258050271" y2="97.09199406615495" /><line stroke="rgb(100%,0%,0%)" stroke-width="1" x1="136.70503785860473" x2="132.78227860143085" y1="97.09199406615495" y2="96.3097154647241" /><line stroke="rgb(100%,0%,0%)" stroke-width="1" x1="132.78227860143085" x2="134.34683580429254" y1="96.3097154647241" y2="88.46419695037633" /><line stroke="rgb(100%,0%,0%)" stroke-width="1" x1="134.34683580429254" x2="138.26959506146642" y1="88.46419695037633" y2="89.24647555180718" /><line stroke="rgb(100%,0%,0%)" stroke-width="1" x1="138.26959506146642" x2="139.8341522643281" y1="89.24647555180718" y2="81.40095703745942" /><line stroke="rgb(100%,0%,0%)" stroke-width="1" x1="139.8341522643281" x2="135.91139300715423" y1="81.40095703745942" y2="80.61867843602857" /><line stroke="rgb(100%,0%,0%)" stroke-width="1" x1="135.91139300715423" x2="137.47595021001592" y1="80.61867843602857" y2="72.7731599216808" /><line stroke="rgb(100%,0%,0%)" stroke-width="1" x1="137.47595021001592" x2="141.3987094671898" y1="72.7731599216808" y2="73.55543852311165" /><line stroke="rgb(100%,0%,0%)" stroke-width="1" x1="141.3987094671898" x2="142.9632666700515" y1="73.55543852311165" y2="65.70992000876387" /><line stroke="rgb(100%,0%,0%)" stroke-width="1" x1="142.9632666700515" x2="139.04050741287762" y1="65.70992000876387" y2="64.92764140733303" /><line stroke="rgb(100%,0%,0%)" stroke-width="1" x1="139.04050741287762" x2="140.6050646157393" y1="64.92764140733303" y2="57.08212289298527" /><line stroke="rgb(100%,0%,0%)" stroke-width="1" x1="140.6050646157393" x2="144.5278238729132" y1="57.08212289298527" y2="57.864401494416114" /><line stroke="rgb(100%,0%,0%)" stroke-width="1" x1="144.5278238729132" x2="146.09238107577488" y1="57.864401494416114" y2="50.01888298006835" /><line stroke="rgb(100%,0%,0%)" stroke-width="1" x1="146.09238107577488" x2="142.169621818601" y1="50.01888298006835" y2="49.2366043786375" /><line stroke="rgb(100%,0%,0%)" stroke-width="1" x1="142.169621818601" x2="143.7341790214627" y1="49.2366043786375" y2="41.391085864289735" /><line stroke="rgb(100%,0%,0%)" stroke-width="1" x1="143.7341790214627" x2="147.65693827863657" y1="41.391085864289735" y2="42.17336446572058" /><line stroke="rgb(100%,0%,0%)" stroke-width="1" x1="147.65693827863657" x2="149.22149548149827" y1="42.17336446572058" y2="34.32784595137281" /><line stroke="rgb(100%,0%,0%)" stroke-width="1" x1="149.22149548149827" x2="145.2987362243244" y1="34.32784595137281" y2="33.54556734994196" /><line stroke="rgb(100%,0%,0%)" stroke-width="1" x1="145.2987362243244" x2="149.5645572028617" y1="33.54556734994196" y2="12.154481485652234" /><line stroke="rgb(100%,0%,0%)" stroke-width="1" x1="156.0" x2="136.0" y1="20.0" y2="20.0" /><line stroke="rgb(100%,0%,0%)" stroke-width="1" x1="136.0" x2="136.0" y1="20.0" y2="17.5" /><line stroke="rgb(100%,0%,0%)" stroke-width="1" x1="136.0" x2="128.0" y1="17.5" y2="17.5" /><line stroke="rgb(100%,0%,0%)" stroke-width="1" x1="128.0" x2="128.0" y1="17.5" y2="20.0" /><line stroke="rgb(100%,0%,0%)" stroke-width="1" x1="128.0" x2="120.0" y1="20.0" y2="20.0" /><line stroke="rgb(100%,0%,0%)" stroke-width="1" x1="120.0" x2="120.0" y1="20.0" y2="17.5" /><line stroke="rgb(100%,0%,0%)" stroke-width="1" x1="120.0" x2="112.0" y1="17.5" y2="17.5" /><line stroke="rgb(100%,0%,0%)" stroke-width="1" x1="112.0" x2="112.0" y1="17.5" y2="20.0" /><line stroke="rgb(100%,0%,0%)" stroke-width="1" x1="112.0" x2="104.0" y1="20.0" y2="20.0" /><line stroke="rgb(100%,0%,0%)" stroke-width="1" x1="104.0" x2="104.0" y1="20.0" y2="17.5" /><line stroke="rgb(100%,0%,0%)" stroke-width="1" x1="104.0" x2="96.0" y1="17.5" y2="17.5" /><line stroke="rgb(100%,0%,0%)" stroke-width="1" x1="96.0" x2="96.0" y1="17.5" y2="20.0" /><line stroke="rgb(100%,0%,0%)" stroke-width="1" x1="96.0" x2="88.0" y1="20.0" y2="20.0" /><line stroke="rgb(100%,0%,0%)" stroke-width="1" x1="88.0" x2="88.0" y1="20.0" y2="17.5" /><line stroke="rgb(100%,0%,0%)" stroke-width="1" x1="88.0" x2="80.0" y1="17.5" y2="17.5" /><line stroke="rgb(100%,0%,0%)" stroke-width="1" x1="80.0" x2="80.0" y1="17.5" y2="20.0" /><line stroke="rgb(100%,0%,0%)" stroke-width="1" x1="80.0" x2="72.0" y1="20.0" y2="20.0" /><line stroke="rgb(100%,0%,0%)" stroke-width="1" x1="72.0" x2="72.0" y1="20.0" y2="17.5" /><line stroke="rgb(100%,0%,0%)" stroke-width="1" x1="72.0" x2="64.0" y1="17.5" y2="17.5" /><line stroke="rgb(100%,0%,0%)" stroke-width="1" x1="64.0" x2="64.0" y1="17.5" y2="20.0" /><line stroke="rgb(100%,0%,0%)" stroke-width="1" x1="64.0" x2="56.0" y1="20.0" y2="20.0" /><line stroke="rgb(100%,0%,0%)" stroke-width="1" x1="56.0" x2="56.0" y1="20.0" y2="17.5" /><line stroke="rgb(100%,0%,0%)" stroke-width="1" x1="56.0" x2="48.0" y1="17.5" y2="17.5" /><line stroke="rgb(100%,0%,0%)" stroke-width="1" x1="48.0" x2="48.0" y1="17.5" y2="20.0" /><line stroke="rgb(100%,0%,0%)" stroke-width="1" x1="48.0" x2="40.0" y1="20.0" y2="20.0" /><line stroke="rgb(100%,0%,0%)" stroke-width="1" x1="40.0" x2="40.0" y1="20.0" y2="17.5" /><line stroke="rgb(100%,0%,0%)" stroke-width="1" x1="40.0" x2="32.0" y1="17.5" y2="17.5" /><line stroke="rgb(100%,0%,0%)" stroke-width="1" x1="32.0" x2="32.0" y1="17.5" y2="20.0" /><line stroke="rgb(100%,0%,0%)" stroke-width="1" x1="32.0" x2="12.0" y1="20.0" y2="20.0" /></svg>