<?xml version="1.0" encoding="utf-8" ?>
<svg baseProfile="full" height="240mm" version="1.1" viewBox="0 0 240 240" width="240mm" xmlns="http://www.w3.org/2000/svg" xmlns:ev="http://www.w3.org/2001/xml-events" xmlns:xlink="http://www.w3.org/1999/xlink"><defs /><line stroke="rgb(100%,0%,0%)" stroke-width="1" x1="15.415071473754633" x2="19.69409059746319" y1="12.790393186225655" y2="33.09903179252054" /><line stroke="rgb(100%,0%,0%)" stroke-width="1" x1="19.69409059746319" x2="22.629637450432952" y1="33.09903179252054" y2="32.48051366504219" /><line stroke="rgb(100%,0%,0%)" stroke-width="1" x1="22.629637450432952" x2="24.279019123708558" y1="32.48051366504219" y2="40.308638606294885" /><line stroke="rgb(100%,0%,0%)" stroke-width="1" x1="24.279019123708558" x2="21.343472270738797" y1="40.308638606294885" y2="40.92715673377324" /><line stroke="rgb(100%,0%,0%)" stroke-width="1" x1="21.343472270738797" x2="22.992853944014403" y1="40.92715673377324" y2="48.755281675025934" /><line stroke="rgb(100%,0%,0%)" stroke-width="1" x1="22.992853944014403" x2="25.928400796984164" y1="48.755281675025934" y2="48.13676354754758" /><line stroke="rgb(100%,0%,0%)" stroke-width="1" x1="25.928400796984164" x2="27.57778247025977" y1="48.13676354754758" y2="55.96488848880028" /><line stroke="rgb(100%,0%,0%)" stroke-width="1" x1="27.57778247025977" x2="24.64223561729001" y1="55.96488848880028" y2="56.58340661627863" /><line stroke="rgb(100%,0%,0%)" stroke-width="1" x1="24.64223561729001" x2="26.291617290565615" y1="56.58340661627863" y2="64.41153155753132" /><line stroke="rgb(100%,0%,0%)" stroke-width="1" x1="26.291617290565615" x2="29.227164143535376" y1="64.41153155753132" y2="63.79301343005297" /><line stroke="rgb(100%,0%,0%)" stroke-width="1" x1="29.227164143535376" x2="30.87654581681098" y1="63.79301343005297" y2="71.62113837130568" /><line stroke="rgb(100%,0%,0%)" stroke-width="1" x1="30.87654581681098" x2="27.94099896384122" y1="71.62113837130568" y2="72.23965649878403" /><line stroke="rgb(100%,0%,0%)" stroke-width="1" x1="27.94099896384122" x2="29.590380637116827" y1="72.23965649878403" y2="80.06778144003673" /><line stroke="rgb(100%,0%,0%)" stroke-width="1" x1="29.590380637116827" x2="32.52592749008659" y1="80.06778144003673" y2="79.44926331255837" /><line stroke="rgb(100%,0%,0%)" stroke-width="1" x1="32.52592749008659" x2="34.17530916336219" y1="79.44926331255837" y2="87.27738825381107" /><line stroke="rgb(100%,0%,0%)" stroke-width="1" x1="34.17530916336219" x2="31.239762310392432" y1="87.27738825381107" y2="87.89590638128942" /><line stroke="rgb(100%,0%,0%)" stroke-width="1" x1="31.239762310392432" x2="32.88914398366804" y1="87.89590638128942" y2="95.72403132254212" /><line stroke="rgb(100%,0%,0%)" stroke-width="1" x1="32.88914398366804" x2="35.82469083663781" y1="95.72403132254212" y2="95.10551319506376" /><line stroke="rgb(100%,0%,0%)" stroke-width="1" x1="35.82469083663781" x2="37.47407250991341" y1="95.10551319506376" y2="102.93363813631646" /><line stroke="rgb(100%,0%,0%)" stroke-width="1" x1="37.47407250991341" x2="34.53852565694365" y1="102.93363813631646" y2="103.55215626379481" /><line stroke="rgb(100%,0%,0%)" stroke-width="1" x1="34.53852565694365" x2="36.187907330219254" y1="103.55215626379481" y2="111.38028120504751" /><line stroke="rgb(100%,0%,0%)" stroke-width="1" x1="36.187907330219254" x2="39.12345418318902" y1="111.38028120504751" y2="110.76176307756916" /><line stroke="rgb(100%,0%,0%)" stroke-width="1" x1="39.12345418318902" x2="40.772835856464624" y1="110.76176307756916" y2="118.58988801882185" /><line stroke="rgb(100%,0%,0%)" stroke-width="1" x1="40.772835856464624" x2="37.83728900349486" y1="118.58988801882185" y2="119.2084061463002" /><line stroke="rgb(100%,0%,0%)" stroke-width="1" x1="37.83728900349486" x2="39.486670676770466" y1="119.2084061463002" y2="127.0365310875529" /><line stroke="rgb(100%,0%,0%)" stroke-width="1" x1="39.486670676770466" x2="42.42221752974023" y1="127.0365310875529" y2="126.41801296007455" /><line stroke="rgb(100%,0%,0%)" stroke-width="1" x1="42.42221752974023" x2="44.071599203015836" y1="126.41801296007455" y2="134.24613790132724" /><line stroke="rgb(100%,0%,0%)" stroke-width="1" x1="44.071599203015836" x2="41.13605235004607" y1="134.24613790132724" y2="134.8646560288056" /><line stroke="rgb(100%,0%,0%)" stroke-width="1" x1="41.13605235004607" x2="42.78543402332168" y1="134.8646560288056" y2="142.6927809700583" /><line stroke="rgb(100%,0%,0%)" stroke-width="1" x1="42.78543402332168" x2="45.72098087629144" y1="142.6927809700583" y2="142.07426284257994" /><line stroke="rgb(100%,0%,0%)" stroke-width="1" x1="45.72098087629144" x2="47.37036254956705" y1="142.07426284257994" y2="149.90238778383264" /><line stroke="rgb(100%,0%,0%)" stroke-width="1" x1="47.37036254956705" x2="44.43481569659728" y1="149.90238778383264" y2="150.520905911311" /><line stroke="rgb(100%,0%,0%)" stroke-width="1" x1="44.43481569659728" x2="48.71383482030584" y1="150.520905911311" y2="170.82954451760588" /><line stroke="rgb(100%,0%,0%)" stroke-width="1" x1="42.0" x2="62.0" y1="162.38290144887483" y2="162.38290144887483" /><line stroke="rgb(100%,0%,0%)" stroke-width="1" x1="62.0" x2="62.0" y1="162.38290144887483" y2="165.38290144887483" /><line stroke="rgb(100%,0%,0%)" stroke-width="1" x1="62.0" x2="70.0" y1="165.38290144887483" y2="165.38290144887483" /><line stroke="rgb(100%,0%,0%)" stroke-width="1" x1="70.0" x2="70.0" y1="165.38290144887483" y2="162.38290144887483" /><line stroke="rgb(100%,0%,0%)" stroke-width="1" x1="70.0" x2="78.0" y1="162.38290144887483" y2="162.38290144887483" /><line stroke="rgb(100%,0%,0%)" stroke-width="1" x1="78.0" x2="78.0" y1="162.38290144887483" y2="165.38290144887483" /><line stroke="rgb(100%,0%,0%)" stroke-width="1" x1="78.0" x2="86.0" y1="165.38290144887483" y2="165.38290144887483" /><line stroke="rgb(100%,0%,0%)" stroke-width="1" x1="86.0" x2="86.0" y1="165.38290144887483" y2="162.38290144887483" /><line stroke="rgb(100%,0%,0%)" stroke-width="1" x1="86.0" x2="94.0" y1="162.38290144887483" y2="162.38290144887483" /><line stroke="rgb(100%,0%,0%)" stroke-width="1" x1="94.0" x2="94.0" y1="162.38290144887483" y2="165.38290144887483" /><line stroke="rgb(100%,0%,0%)" stroke-width="1" x1="94.0" x2="102.0" y1="165.38290144887483" y2="165.38290144887483" /><line stroke="rgb(100%,0%,0%)" stroke-width="1" x1="102.0" x2="102.0" y1="165.38290144887483" y2="162.38290144887483" /><line stroke="rgb(100%,0%,0%)" stroke-width="1" x1="102.0" x2="122.0" y1="162.38290144887483" y2="162.38290144887483" /><line stroke="rgb(100%,0%,0%)" stroke-width="1" x1="115.28616517969415" x2="119.56518430340272" y1="170.82954451760588" y2="150.520905911311" /><line stroke="rgb(100%,0%,0%)" stroke-width="1" x1="119.56518430340272" x2="116.62963745043295" y1="150.520905911311" y2="149.90238778383264" /><line stroke="rgb(100%,0%,0%)" stroke-width="1" x1="116.62963745043295" x2="118.27901912370857" y1="149.90238778383264" y2="142.07426284257994" /><line stroke="rgb(100%,0%,0%)" stroke-width="1" x1="118.27901912370857" x2="121.21456597667833" y1="142.07426284257994" y2="142.6927809700583" /><line stroke="rgb(100%,0%,0%)" stroke-width="1" x1="121.21456597667833" x2="122.86394764995393" y1="142.6927809700583" y2="134.8646560288056" /><line stroke="rgb(100%,0%,0%)" stroke-width="1" x1="122.86394764995393" x2="119.92840079698416" y1="134.8646560288056" y2="134.24613790132724" /><line stroke="rgb(100%,0%,0%)" stroke-width="1" x1="119.92840079698416" x2="121.57778247025978" y1="134.24613790132724" y2="126.41801296007455" /><line stroke="rgb(100%,0%,0%)" stroke-width="1" x1="121.57778247025978" x2="124.51332932322954" y1="126.41801296007455" y2="127.0365310875529" /><line stroke="rgb(100%,0%,0%)" stroke-width="1" x1="124.51332932322954" x2="126.16271099650514" y1="127.0365310875529" y2="119.2084061463002" /><line stroke="rgb(100%,0%,0%)" stroke-width="1" x1="126.16271099650514" x2="123.22716414353538" y1="119.2084061463002" y2="118.58988801882185" /><line stroke="rgb(100%,0%,0%)" stroke-width="1" x1="123.22716414353538" x2="124.87654581681099" y1="118.58988801882185" y2="110.76176307756916" /><line stroke="rgb(100%,0%,0%)" stroke-width="1" x1="124.87654581681099" x2="127.81209266978075" y1="110.76176307756916" y2="111.38028120504751" /><line stroke="rgb(100%,0%,0%)" stroke-width="1" x1="127.81209266978075" x2="129.46147434305635" y1="111.38028120504751" y2="103.55215626379481" /><line stroke="rgb(100%,0%,0%)" stroke-width="1" x1="129.46147434305635" x2="126.52592749008659" y1="103.55215626379481" y2="102.93363813631646" /><line stroke="rgb(100%,0%,0%)" stroke-width="1" x1="126.52592749008659" x2="128.1753091633622" y1="102.93363813631646" y2="95.10551319506376" /><line stroke="rgb(100%,0%,0%)" stroke-width="1" x1="128.1753091633622" x2="131.11085601633195" y1="95.10551319506376" y2="95.72403132254212" /><line stroke="rgb(100%,0%,0%)" stroke-width="1" x1="131.11085601633195" x2="132.76023768960758" y1="95.72403132254212" y2="87.89590638128942" /><line stroke="rgb(100%,0%,0%)" stroke-width="1" x1="132.76023768960758" x2="129.8246908366378" y1="87.89590638128942" y2="87.27738825381107" /><line stroke="rgb(100%,0%,0%)" stroke-width="1" x1="129.8246908366378" x2="131.4740725099134" y1="87.27738825381107" y2="79.44926331255837" /><line stroke="rgb(100%,0%,0%)" stroke-width="1" x1="131.4740725099134" x2="134.40961936288318" y1="79.44926331255837" y2="80.06778144003673" /><line stroke="rgb(100%,0%,0%)" stroke-width="1" x1="134.40961936288318" x2="136.05900103615878" y1="80.06778144003673" y2="72.23965649878403" /><line stroke="rgb(100%,0%,0%)" stroke-width="1" x1="136.05900103615878" x2="133.123454183189" y1="72.23965649878403" y2="71.62113837130568" /><line stroke="rgb(100%,0%,0%)" stroke-width="1" x1="133.123454183189" x2="134.7728358564646" y1="71.62113837130568" y2="63.79301343005297" /><line stroke="rgb(100%,0%,0%)" stroke-width="1" x1="134.7728358564646" x2="137.70838270943437" y1="63.79301343005297" y2="64.41153155753132" /><line stroke="rgb(100%,0%,0%)" stroke-width="1" x1="137.70838270943437" x2="139.35776438271" y1="64.41153155753132" y2="56.58340661627863" /><line stroke="rgb(100%,0%,0%)" stroke-width="1" x1="139.35776438271" x2="136.42221752974024" y1="56.58340661627863" y2="55.96488848880028" /><line stroke="rgb(100%,0%,0%)" stroke-width="1" x1="136.42221752974024" x2="138.07159920301584" y1="55.96488848880028" y2="48.13676354754758" /><line stroke="rgb(100%,0%,0%)" stroke-width="1" x1="138.07159920301584" x2="141.0071460559856" y1="48.13676354754758" y2="48.755281675025934" /><line stroke="rgb(100%,0%,0%)" stroke-width="1" x1="141.0071460559856" x2="142.6565277292612" y1="48.755281675025934" y2="40.92715673377324" /><line stroke="rgb(100%,0%,0%)" stroke-width="1" x1="142.6565277292612" x2="139.72098087629143" y1="40.92715673377324" y2="40.308638606294885" /><line stroke="rgb(100%,0%,0%)" stroke-width="1" x1="139.72098087629143" x2="141.37036254956703" y1="40.308638606294885" y2="32.48051366504219" /><line stroke="rgb(100%,0%,0%)" stroke-width="1" x1="141.37036254956703" x2="144.3059094025368" y1="32.48051366504219" y2="33.09903179252054" /><line stroke="rgb(100%,0%,0%)" stroke-width="1" x1="144.3059094025368" x2="148.58492852624536" y1="33.09903179252054" y2="12.790393186225655" /><line stroke="rgb(100%,0%,0%)" stroke-width="1" x1="152.0" x2="126.0" y1="20.0" y2="20.0" /><line stroke="rgb(100%,0%,0%)" stroke-width="1" x1="126.0" x2="126.0" y1="20.0" y2="17.5" /><line stroke="rgb(100%,0%,0%)" stroke-width="1" x1="126.0" x2="118.0" y1="17.5" y2="17.5" /><line stroke="rgb(100%,0%,0%)" stroke-width="1" x1="118.0" x2="118.0" y1="17.5" y2="20.0" /><line stroke="rgb(100%,0%,0%)" stroke-width="1" x1="118.0" x2="110.0" y1="20.0" y2="20.0" /><line stroke="rgb(100%,0%,0%)" stroke-width="1" x1="110.0" x2="110.0" y1="20.0" y2="17.5" /><line stroke="rgb(100%,0%,0%)" stroke-width="1" x1="110.0" x2="102.0" y1="17.5" y2="17.5" /><line stroke="rgb(100%,0%,0%)" stroke-width="1" x1="102.0" x2="102.0" y1="17.5" y2="20.0" /><line stroke="rgb(100%,0%,0%)" stroke-width="1" x1="102.0" x2="94.0" y1="20.0" y2="20.0" /><line stroke="rgb(100%,0%,0%)" stroke-width="1" x1="94.0" x2="94.0" y1="20.0" y2="17.5" /><line stroke="rgb(100%,0%,0%)" stroke-width="1" x1="94.0" x2="86.0" y1="17.5" y2="17.5" /><line stroke="rgb(100%,0%,0%)" stroke-width="1" x1="86.0" x2="86.0" y1="17.5" y2="20.0" /><line stroke="rgb(100%,0%,0%)" stroke-width="1" x1="86.0" x2="78.0" y1="20.0" y2="20.0" /><line stroke="rgb(100%,0%,0%)" stroke-width="1" x1="78.0" x2="78.0" y1="20.0" y2="17.5" /><line stroke="rgb(100%,0%,0%)" stroke-width="1" x1="78.0" x2="70.0" y1="17.5" y2="17.5" /><line stroke="rgb(100%,0%,0%)" stroke-width="1" x1="70.0" x2="70.0" y1="17.5" y2="20.0" /><line stroke="rgb(100%,0%,0%)" stroke-width="1" x1="70.0" x2="62.0" y1="20.0" y2="20.0" /><line stroke="rgb(100%,0%,0%)" stroke-width="1" x1="62.0" x2="62.0" y1="20.0" y2="17.5" /><line stroke="rgb(100%,0%,0%)" stroke-width="1" x1="62.0" x2="54.0" y1="17.5" y2="17.5" /><line stroke="rgb(100%,0%,0%)" stroke-width="1" x1="54.0" x2="54.0" y1="17.5" y2="20.0" /><line stroke="rgb(100%,0%,0%)" stroke-width="1" x1="54.0" x2="46.0" y1="20.0" y2="20.0" /><line stroke="rgb(100%,0%,0%)" stroke-width="1" x1="46.0" x2="46.0" y1="20.0" y2="17.5" /><line stroke="rgb(100%,0%,0%)" stroke-width="1" x1="46.0" x2="38.0" y1="17.5" y2="17.5" /><line stroke="rgb(100%,0%,0%)" stroke-width="1" x1="38.0" x2="38.0" y1="17.5" y2="20.0" /><line stroke="rgb(100%,0%,0%)" stroke-width="1" x1="38.0" x2="12.0" y1="20.0" y2="20.0" /></svg>