<?xml version="1.0" encoding="utf-8" ?>
<svg baseProfile="full" height="240mm" version="1.1" viewBox="0 0 240 240" width="240mm" xmlns="http://www.w3.org/2000/svg" xmlns:ev="http://www.w3.org/2001/xml-events" xmlns:xlink="http://www.w3.org/1999/xlink"><defs /><line stroke="rgb(100%,0%,0%)" stroke-width="1" x1="15.438438113829827" x2="19.882257167700132" y1="12.775586310388945" y2="34.21014462830305" /><line stroke="rgb(100%,0%,0%)" stroke-width="1" x1="19.882257167700132" x2="22.819791216004198" y1="34.21014462830305" y2="33.601134189103256" /><line stroke="rgb(100%,0%,0%)" stroke-width="1" x1="22.819791216004198" x2="24.443819053870307" y1="33.601134189103256" y2="41.4345583179141" /><line stroke="rgb(100%,0%,0%)" stroke-width="1" x1="24.443819053870307" x2="21.50628500556624" y1="41.4345583179141" y2="42.043568757113896" /><line stroke="rgb(100%,0%,0%)" stroke-width="1" x1="21.50628500556624" x2="23.130312843432346" y1="42.043568757113896" y2="49.87699288592474" /><line stroke="rgb(100%,0%,0%)" stroke-width="1" x1="23.130312843432346" x2="26.067846891736412" y1="49.87699288592474" y2="49.26798244672495" /><line stroke="rgb(100%,0%,0%)" stroke-width="1" x1="26.067846891736412" x2="27.691874729602517" y1="49.26798244672495" y2="57.1014065755358" /><line stroke="rgb(100%,0%,0%)" stroke-width="1" x1="27.691874729602517" x2="24.75434068129845" y1="57.1014065755358" y2="57.71041701473559" /><line stroke="rgb(100%,0%,0%)" stroke-width="1" x1="24.75434068129845" x2="26.37836851916456" y1="57.71041701473559" y2="65.54384114354643" /><line stroke="rgb(100%,0%,0%)" stroke-width="1" x1="26.37836851916456" x2="29.315902567468626" y1="65.54384114354643" y2="64.93483070434664" /><line stroke="rgb(100%,0%,0%)" stroke-width="1" x1="29.315902567468626" x2="30.93993040533473" y1="64.93483070434664" y2="72.76825483315748" /><line stroke="rgb(100%,0%,0%)" stroke-width="1" x1="30.93993040533473" x2="28.002396357030666" y1="72.76825483315748" y2="73.37726527235728" /><line stroke="rgb(100%,0%,0%)" stroke-width="1" x1="28.002396357030666" x2="29.62642419489677" y1="73.37726527235728" y2="81.21068940116812" /><line stroke="rgb(100%,0%,0%)" stroke-width="1" x1="29.62642419489677" x2="32.56395824320084" y1="81.21068940116812" y2="80.60167896196833" /><line stroke="rgb(100%,0%,0%)" stroke-width="1" x1="32.56395824320084" x2="34.187986081066946" y1="80.60167896196833" y2="88.43510309077918" /><line stroke="rgb(100%,0%,0%)" stroke-width="1" x1="34.187986081066946" x2="31.25045203276288" y1="88.43510309077918" y2="89.04411352997897" /><line stroke="rgb(100%,0%,0%)" stroke-width="1" x1="31.25045203276288" x2="32.87447987062899" y1="89.04411352997897" y2="96.8775376587898" /><line stroke="rgb(100%,0%,0%)" stroke-width="1" x1="32.87447987062899" x2="35.812013918933054" y1="96.8775376587898" y2="96.26852721959001" /><line stroke="rgb(100%,0%,0%)" stroke-width="1" x1="35.812013918933054" x2="37.43604175679916" y1="96.26852721959001" y2="104.10195134840086" /><line stroke="rgb(100%,0%,0%)" stroke-width="1" x1="37.43604175679916" x2="34.4985077084951" y1="104.10195134840086" y2="104.71096178760065" /><line stroke="rgb(100%,0%,0%)" stroke-width="1" x1="34.4985077084951" x2="36.1225355463612" y1="104.71096178760065" y2="112.5443859164115" /><line stroke="rgb(100%,0%,0%)" stroke-width="1" x1="36.1225355463612" x2="39.060069594665265" y1="112.5443859164115" y2="111.93537547721171" /><line stroke="rgb(100%,0%,0%)" stroke-width="1" x1="39.060069594665265" x2="40.684097432531374" y1="111.93537547721171" y2="119.76879960602255" /><line stroke="rgb(100%,0%,0%)" stroke-width="1" x1="40.684097432531374" x2="37.74656338422731" y1="119.76879960602255" y2="120.37781004522235" /><line stroke="rgb(100%,0%,0%)" stroke-width="1" x1="37.74656338422731" x2="39.37059122209342" y1="120.37781004522235" y2="128.21123417403317" /><line stroke="rgb(100%,0%,0%)" stroke-width="1" x1="39.37059122209342" x2="42.30812527039748" y1="128.21123417403317" y2="127.60222373483339" /><line stroke="rgb(100%,0%,0%)" stroke-width="1" x1="42.30812527039748" x2="43.93215310826359" y1="127.60222373483339" y2="135.43564786364425" /><line stroke="rgb(100%,0%,0%)" stroke-width="1" x1="43.93215310826359" x2="40.994619059959525" y1="135.43564786364425" y2="136.04465830284403" /><line stroke="rgb(100%,0%,0%)" stroke-width="1" x1="40.994619059959525" x2="42.61864689782563" y1="136.04465830284403" y2="143.87808243165486" /><line stroke="rgb(100%,0%,0%)" stroke-width="1" x1="42.61864689782563" x2="45.55618094612969" y1="143.87808243165486" y2="143.26907199245508" /><line stroke="rgb(100%,0%,0%)" stroke-width="1" x1="45.55618094612969" x2="47.1802087839958" y1="143.26907199245508" y2="151.10249612126594" /><line stroke="rgb(100%,0%,0%)" stroke-width="1" x1="47.1802087839958" x2="44.242674735691736" y1="151.10249612126594" y2="151.71150656046572" /><line stroke="rgb(100%,0%,0%)" stroke-width="1" x1="44.242674735691736" x2="48.68649378956204" y1="151.71150656046572" y2="173.1460648783798" /><line stroke="rgb(100%,0%,0%)" stroke-width="1" x1="42.0" x2="62.0" y1="164.7036303103692" y2="164.7036303103692" /><line stroke="rgb(100%,0%,0%)" stroke-width="1" x1="62.0" x2="62.0" y1="164.7036303103692" y2="167.7036303103692" /><line stroke="rgb(100%,0%,0%)" stroke-width="1" x1="62.0" x2="70.0" y1="167.7036303103692" y2="167.7036303103692" /><line stroke="rgb(100%,0%,0%)" stroke-width="1" x1="70.0" x2="70.0" y1="167.7036303103692" y2="164.7036303103692" /><line stroke="rgb(100%,0%,0%)" stroke-width="1" x1="70.0" x2="78.0" y1="164.7036303103692" y2="164.7036303103692" /><line stroke="rgb(100%,0%,0%)" stroke-width="1" x1="78.0" x2="78.0" y1="164.7036303103692" y2="167.7036303103692" /><line stroke="rgb(100%,0%,0%)" stroke-width="1" x1="78.0" x2="86.0" y1="167.7036303103692" y2="167.7036303103692" /><line stroke="rgb(100%,0%,0%)" stroke-width="1" x1="86.0" x2="86.0" y1="167.7036303103692" y2="164.7036303103692" /><line stroke="rgb(100%,0%,0%)" stroke-width="1" x1="86.0" x2="94.0" y1="164.7036303103692" y2="164.7036303103692" /><line stroke="rgb(100%,0%,0%)" stroke-width="1" x1="94.0" x2="94.0" y1="164.7036303103692" y2="167.7036303103692" /><line stroke="rgb(100%,0%,0%)" stroke-width="1" x1="94.0" x2="102.0" y1="167.7036303103692" y2="167.7036303103692" /><line stroke="rgb(100%,0%,0%)" stroke-width="1" x1="102.0" x2="102.0" y1="167.7036303103692" y2="164.7036303103692" /><line stroke="rgb(100%,0%,0%)" stroke-width="1" x1="102.0" x2="122.0" y1="164.7036303103692" y2="164.7036303103692" /><line stroke="rgb(100%,0%,0%)" stroke-width="1" x1="115.31350621043796" x2="119.75732526430828" y1="173.1460648783798" y2="151.71150656046572" /><line stroke="rgb(100%,0%,0%)" stroke-width="1" x1="119.75732526430828" x2="116.8197912160042" y1="151.71150656046572" y2="151.10249612126594" /><line stroke="rgb(100%,0%,0%)" stroke-width="1" x1="116.8197912160042" x2="118.4438190538703" y1="151.10249612126594" y2="143.26907199245508" /><line stroke="rgb(100%,0%,0%)" stroke-width="1" x1="118.4438190538703" x2="121.38135310217437" y1="143.26907199245508" y2="143.87808243165486" /><line stroke="rgb(100%,0%,0%)" stroke-width="1" x1="121.38135310217437" x2="123.00538094004048" y1="143.87808243165486" y2="136.04465830284403" /><line stroke="rgb(100%,0%,0%)" stroke-width="1" x1="123.00538094004048" x2="120.06784689173641" y1="136.04465830284403" y2="135.43564786364425" /><line stroke="rgb(100%,0%,0%)" stroke-width="1" x1="120.06784689173641" x2="121.69187472960252" y1="135.43564786364425" y2="127.60222373483339" /><line stroke="rgb(100%,0%,0%)" stroke-width="1" x1="121.69187472960252" x2="124.62940877790659" y1="127.60222373483339" y2="128.21123417403317" /><line stroke="rgb(100%,0%,0%)" stroke-width="1" x1="124.62940877790659" x2="126.2534366157727" y1="128.21123417403317" y2="120.37781004522235" /><line stroke="rgb(100%,0%,0%)" stroke-width="1" x1="126.2534366157727" x2="123.31590256746863" y1="120.37781004522235" y2="119.76879960602255" /><line stroke="rgb(100%,0%,0%)" stroke-width="1" x1="123.31590256746863" x2="124.93993040533474" y1="119.76879960602255" y2="111.93537547721171" /><line stroke="rgb(100%,0%,0%)" stroke-width="1" x1="124.93993040533474" x2="127.87746445363881" y1="111.93537547721171" y2="112.5443859164115" /><line stroke="rgb(100%,0%,0%)" stroke-width="1" x1="127.87746445363881" x2="129.50149229150492" y1="112.5443859164115" y2="104.71096178760065" /><line stroke="rgb(100%,0%,0%)" stroke-width="1" x1="129.50149229150492" x2="126.56395824320084" y1="104.71096178760065" y2="104.10195134840086" /><line stroke="rgb(100%,0%,0%)" stroke-width="1" x1="126.56395824320084" x2="128.18798608106695" y1="104.10195134840086" y2="96.26852721959001" /><line stroke="rgb(100%,0%,0%)" stroke-width="1" x1="128.18798608106695" x2="131.125520129371" y1="96.26852721959001" y2="96.8775376587898" /><line stroke="rgb(100%,0%,0%)" stroke-width="1" x1="131.125520129371" x2="132.7495479672371" y1="96.8775376587898" y2="89.04411352997897" /><line stroke="rgb(100%,0%,0%)" stroke-width="1" x1="132.7495479672371" x2="129.81201391893305" y1="89.04411352997897" y2="88.43510309077918" /><line stroke="rgb(100%,0%,0%)" stroke-width="1" x1="129.81201391893305" x2="131.43604175679917" y1="88.43510309077918" y2="80.60167896196833" /><line stroke="rgb(100%,0%,0%)" stroke-width="1" x1="131.43604175679917" x2="134.37357580510323" y1="80.60167896196833" y2="81.21068940116812" /><line stroke="rgb(100%,0%,0%)" stroke-width="1" x1="134.37357580510323" x2="135.99760364296932" y1="81.21068940116812" y2="73.37726527235728" /><line stroke="rgb(100%,0%,0%)" stroke-width="1" x1="135.99760364296932" x2="133.06006959466526" y1="73.37726527235728" y2="72.76825483315748" /><line stroke="rgb(100%,0%,0%)" stroke-width="1" x1="133.06006959466526" x2="134.6840974325314" y1="72.76825483315748" y2="64.93483070434664" /><line stroke="rgb(100%,0%,0%)" stroke-width="1" x1="134.6840974325314" x2="137.62163148083545" y1="64.93483070434664" y2="65.54384114354643" /><line stroke="rgb(100%,0%,0%)" stroke-width="1" x1="137.62163148083545" x2="139.24565931870154" y1="65.54384114354643" y2="57.71041701473559" /><line stroke="rgb(100%,0%,0%)" stroke-width="1" x1="139.24565931870154" x2="136.30812527039748" y1="57.71041701473559" y2="57.1014065755358" /><line stroke="rgb(100%,0%,0%)" stroke-width="1" x1="136.30812527039748" x2="137.93215310826358" y1="57.1014065755358" y2="49.26798244672495" /><line stroke="rgb(100%,0%,0%)" stroke-width="1" x1="137.93215310826358" x2="140.86968715656764" y1="49.26798244672495" y2="49.87699288592474" /><line stroke="rgb(100%,0%,0%)" stroke-width="1" x1="140.86968715656764" x2="142.49371499443376" y1="49.87699288592474" y2="42.043568757113896" /><line stroke="rgb(100%,0%,0%)" stroke-width="1" x1="142.49371499443376" x2="139.5561809461297" y1="42.043568757113896" y2="41.4345583179141" /><line stroke="rgb(100%,0%,0%)" stroke-width="1" x1="139.5561809461297" x2="141.1802087839958" y1="41.4345583179141" y2="33.601134189103256" /><line stroke="rgb(100%,0%,0%)" stroke-width="1" x1="141.1802087839958" x2="144.11774283229985" y1="33.601134189103256" y2="34.21014462830305" /><line stroke="rgb(100%,0%,0%)" stroke-width="1" x1="144.11774283229985" x2="148.56156188617015" y1="34.21014462830305" y2="12.775586310388945" /><line stroke="rgb(100%,0%,0%)" stroke-width="1" x1="152.0" x2="126.0" y1="20.0" y2="20.0" /><line stroke="rgb(100%,0%,0%)" stroke-width="1" x1="126.0" x2="126.0" y1="20.0" y2="17.5" /><line stroke="rgb(100%,0%,0%)" stroke-width="1" x1="126.0" x2="118.0" y1="17.5" y2="17.5" /><line stroke="rgb(100%,0%,0%)" stroke-width="1" x1="118.0" x2="118.0" y1="17.5" y2="20.0" /><line stroke="rgb(100%,0%,0%)" stroke-width="1" x1="118.0" x2="110.0" y1="20.0" y2="20.0" /><line stroke="rgb(100%,0%,0%)" stroke-width="1" x1="110.0" x2="110.0" y1="20.0" y2="17.5" /><line stroke="rgb(100%,0%,0%)" stroke-width="1" x1="110.0" x2="102.0" y1="17.5" y2="17.5" /><line stroke="rgb(100%,0%,0%)" stroke-width="1" x1="102.0" x2="102.0" y1="17.5" y2="20.0" /><line stroke="rgb(100%,0%,0%)" stroke-width="1" x1="102.0" x2="94.0" y1="20.0" y2="20.0" /><line stroke="rgb(100%,0%,0%)" stroke-width="1" x1="94.0" x2="94.0" y1="20.0" y2="17.5" /><line stroke="rgb(100%,0%,0%)" stroke-width="1" x1="94.0" x2="86.0" y1="17.5" y2="17.5" /><line stroke="rgb(100%,0%,0%)" stroke-width="1" x1="86.0" x2="86.0" y1="17.5" y2="20.0" /><line stroke="rgb(100%,0%,0%)" stroke-width="1" x1="86.0" x2="78.0" y1="20.0" y2="20.0" /><line stroke="rgb(100%,0%,0%)" stroke-width="1" x1="78.0" x2="78.0" y1="20.0" y2="17.5" /><line stroke="rgb(100%,0%,0%)" stroke-width="1" x1="78.0" x2="70.0" y1="17.5" y2="17.5" /><line stroke="rgb(100%,0%,0%)" stroke-width="1" x1="70.0" x2="70.0" y1="17.5" y2="20.0" /><line stroke="rgb(100%,0%,0%)" stroke-width="1" x1="70.0" x2="62.0" y1="20.0" y2="20.0" /><line stroke="rgb(100%,0%,0%)" stroke-width="1" x1="62.0" x2="62.0" y1="20.0" y2="17.5" /><line stroke="rgb(100%,0%,0%)" stroke-width="1" x1="62.0" x2="54.0" y1="17.5" y2="17.5" /><line stroke="rgb(100%,0%,0%)" stroke-width="1" x1="54.0" x2="54.0" y1="17.5" y2="20.0" /><line stroke="rgb(100%,0%,0%)" stroke-width="1" x1="54.0" x2="46.0" y1="20.0" y2="20.0" /><line stroke="rgb(100%,0%,0%)" stroke-width="1" x1="46.0" x2="46.0" y1="20.0" y2="17.5" /><line stroke="rgb(100%,0%,0%)" stroke-width="1" x1="46.0" x2="38.0" y1="17.5" y2="17.5" /><line stroke="rgb(100%,0%,0%)" stroke-width="1" x1="38.0" x2="38.0" y1="17.5" y2="20.0" /><line stroke="rgb(100%,0%,0%)" stroke-width="1" x1="38.0" x2="12.0" y1="20.0" y2="20.0" /></svg>