<?xml version="1.0" encoding="utf-8" ?>
<svg baseProfile="full" height="240mm" version="1.1" viewBox="0 0 240 240" width="240mm" xmlns="http://www.w3.org/2000/svg" xmlns:ev="http://www.w3.org/2001/xml-events" xmlns:xlink="http://www.w3.org/1999/xlink"><defs /><line stroke="rgb(100%,0%,0%)" stroke-width="1" x1="15.395928709317449" x2="19.539768683987592" y1="12.80260272387909" y2="32.2138335150958" /><line stroke="rgb(100%,0%,0%)" stroke-width="1" x1="19.539768683987592" x2="22.47366150923478" y1="32.2138335150958" y2="31.58751659055754" /><line stroke="rgb(100%,0%,0%)" stroke-width="1" x1="22.47366150923478" x2="24.143839974670144" y1="31.58751659055754" y2="39.41123079121671" /><line stroke="rgb(100%,0%,0%)" stroke-width="1" x1="24.143839974670144" x2="21.209947149422955" y1="39.41123079121671" y2="40.03754771575497" /><line stroke="rgb(100%,0%,0%)" stroke-width="1" x1="21.209947149422955" x2="22.88012561485832" y1="40.03754771575497" y2="47.861261916414136" /><line stroke="rgb(100%,0%,0%)" stroke-width="1" x1="22.88012561485832" x2="25.814018440105507" y1="47.861261916414136" y2="47.23494499187588" /><line stroke="rgb(100%,0%,0%)" stroke-width="1" x1="25.814018440105507" x2="27.48419690554087" y1="47.23494499187588" y2="55.058659192535046" /><line stroke="rgb(100%,0%,0%)" stroke-width="1" x1="27.48419690554087" x2="24.55030408029368" y1="55.058659192535046" y2="55.684976117073305" /><line stroke="rgb(100%,0%,0%)" stroke-width="1" x1="24.55030408029368" x2="26.220482545729045" y1="55.684976117073305" y2="63.50869031773247" /><line stroke="rgb(100%,0%,0%)" stroke-width="1" x1="26.220482545729045" x2="29.154375370976233" y1="63.50869031773247" y2="62.882373393194214" /><line stroke="rgb(100%,0%,0%)" stroke-width="1" x1="29.154375370976233" x2="30.824553836411596" y1="62.882373393194214" y2="70.7060875938534" /><line stroke="rgb(100%,0%,0%)" stroke-width="1" x1="30.824553836411596" x2="27.890661011164408" y1="70.7060875938534" y2="71.33240451839166" /><line stroke="rgb(100%,0%,0%)" stroke-width="1" x1="27.890661011164408" x2="29.56083947659977" y1="71.33240451839166" y2="79.15611871905082" /><line stroke="rgb(100%,0%,0%)" stroke-width="1" x1="29.56083947659977" x2="32.49473230184696" y1="79.15611871905082" y2="78.52980179451257" /><line stroke="rgb(100%,0%,0%)" stroke-width="1" x1="32.49473230184696" x2="34.16491076728232" y1="78.52980179451257" y2="86.35351599517173" /><line stroke="rgb(100%,0%,0%)" stroke-width="1" x1="34.16491076728232" x2="31.231017942035134" y1="86.35351599517173" y2="86.97983291970999" /><line stroke="rgb(100%,0%,0%)" stroke-width="1" x1="31.231017942035134" x2="32.901196407470486" y1="86.97983291970999" y2="94.80354712036916" /><line stroke="rgb(100%,0%,0%)" stroke-width="1" x1="32.901196407470486" x2="35.83508923271768" y1="94.80354712036916" y2="94.1772301958309" /><line stroke="rgb(100%,0%,0%)" stroke-width="1" x1="35.83508923271768" x2="37.50526769815304" y1="94.1772301958309" y2="102.00094439649007" /><line stroke="rgb(100%,0%,0%)" stroke-width="1" x1="37.50526769815304" x2="34.57137487290585" y1="102.00094439649007" y2="102.62726132102833" /><line stroke="rgb(100%,0%,0%)" stroke-width="1" x1="34.57137487290585" x2="36.24155333834121" y1="102.62726132102833" y2="110.4509755216875" /><line stroke="rgb(100%,0%,0%)" stroke-width="1" x1="36.24155333834121" x2="39.175446163588404" y1="110.4509755216875" y2="109.82465859714924" /><line stroke="rgb(100%,0%,0%)" stroke-width="1" x1="39.175446163588404" x2="40.84562462902377" y1="109.82465859714924" y2="117.64837279780842" /><line stroke="rgb(100%,0%,0%)" stroke-width="1" x1="40.84562462902377" x2="37.911731803776576" y1="117.64837279780842" y2="118.27468972234668" /><line stroke="rgb(100%,0%,0%)" stroke-width="1" x1="37.911731803776576" x2="39.58191026921194" y1="118.27468972234668" y2="126.09840392300585" /><line stroke="rgb(100%,0%,0%)" stroke-width="1" x1="39.58191026921194" x2="42.51580309445913" y1="126.09840392300585" y2="125.47208699846759" /><line stroke="rgb(100%,0%,0%)" stroke-width="1" x1="42.51580309445913" x2="44.18598155989449" y1="125.47208699846759" y2="133.29580119912674" /><line stroke="rgb(100%,0%,0%)" stroke-width="1" x1="44.18598155989449" x2="41.2520887346473" y1="133.29580119912674" y2="133.922118123665" /><line stroke="rgb(100%,0%,0%)" stroke-width="1" x1="41.2520887346473" x2="42.922267200082665" y1="133.922118123665" y2="141.7458323243242" /><line stroke="rgb(100%,0%,0%)" stroke-width="1" x1="42.922267200082665" x2="45.85616002532986" y1="141.7458323243242" y2="141.11951539978594" /><line stroke="rgb(100%,0%,0%)" stroke-width="1" x1="45.85616002532986" x2="47.52633849076522" y1="141.11951539978594" y2="148.94322960044508" /><line stroke="rgb(100%,0%,0%)" stroke-width="1" x1="47.52633849076522" x2="44.59244566551803" y1="148.94322960044508" y2="149.56954652498334" /><line stroke="rgb(100%,0%,0%)" stroke-width="1" x1="44.59244566551803" x2="48.73628564018817" y1="149.56954652498334" y2="168.98077731620006" /><line stroke="rgb(100%,0%,0%)" stroke-width="1" x1="42.0" x2="62.0" y1="160.53074619100263" y2="160.53074619100263" /><line stroke="rgb(100%,0%,0%)" stroke-width="1" x1="62.0" x2="62.0" y1="160.53074619100263" y2="163.53074619100263" /><line stroke="rgb(100%,0%,0%)" stroke-width="1" x1="62.0" x2="70.0" y1="163.53074619100263" y2="163.53074619100263" /><line stroke="rgb(100%,0%,0%)" stroke-width="1" x1="70.0" x2="70.0" y1="163.53074619100263" y2="160.53074619100263" /><line stroke="rgb(100%,0%,0%)" stroke-width="1" x1="70.0" x2="78.0" y1="160.53074619100263" y2="160.53074619100263" /><line stroke="rgb(100%,0%,0%)" stroke-width="1" x1="78.0" x2="78.0" y1="160.53074619100263" y2="163.53074619100263" /><line stroke="rgb(100%,0%,0%)" stroke-width="1" x1="78.0" x2="86.0" y1="163.53074619100263" y2="163.53074619100263" /><line stroke="rgb(100%,0%,0%)" stroke-width="1" x1="86.0" x2="86.0" y1="163.53074619100263" y2="160.53074619100263" /><line stroke="rgb(100%,0%,0%)" stroke-width="1" x1="86.0" x2="94.0" y1="160.53074619100263" y2="160.53074619100263" /><line stroke="rgb(100%,0%,0%)" stroke-width="1" x1="94.0" x2="94.0" y1="160.53074619100263" y2="163.53074619100263" /><line stroke="rgb(100%,0%,0%)" stroke-width="1" x1="94.0" x2="102.0" y1="163.53074619100263" y2="163.53074619100263" /><line stroke="rgb(100%,0%,0%)" stroke-width="1" x1="102.0" x2="102.0" y1="163.53074619100263" y2="160.53074619100263" /><line stroke="rgb(100%,0%,0%)" stroke-width="1" x1="102.0" x2="122.0" y1="160.53074619100263" y2="160.53074619100263" /><line stroke="rgb(100%,0%,0%)" stroke-width="1" x1="115.26371435981183" x2="119.40755433448196" y1="168.98077731620006" y2="149.56954652498334" /><line stroke="rgb(100%,0%,0%)" stroke-width="1" x1="119.40755433448196" x2="116.47366150923477" y1="149.56954652498334" y2="148.94322960044508" /><line stroke="rgb(100%,0%,0%)" stroke-width="1" x1="116.47366150923477" x2="118.14383997467014" y1="148.94322960044508" y2="141.11951539978594" /><line stroke="rgb(100%,0%,0%)" stroke-width="1" x1="118.14383997467014" x2="121.07773279991733" y1="141.11951539978594" y2="141.7458323243242" /><line stroke="rgb(100%,0%,0%)" stroke-width="1" x1="121.07773279991733" x2="122.7479112653527" y1="141.7458323243242" y2="133.922118123665" /><line stroke="rgb(100%,0%,0%)" stroke-width="1" x1="122.7479112653527" x2="119.81401844010551" y1="133.922118123665" y2="133.29580119912674" /><line stroke="rgb(100%,0%,0%)" stroke-width="1" x1="119.81401844010551" x2="121.48419690554087" y1="133.29580119912674" y2="125.47208699846759" /><line stroke="rgb(100%,0%,0%)" stroke-width="1" x1="121.48419690554087" x2="124.41808973078805" y1="125.47208699846759" y2="126.09840392300585" /><line stroke="rgb(100%,0%,0%)" stroke-width="1" x1="124.41808973078805" x2="126.08826819622341" y1="126.09840392300585" y2="118.27468972234668" /><line stroke="rgb(100%,0%,0%)" stroke-width="1" x1="126.08826819622341" x2="123.15437537097623" y1="118.27468972234668" y2="117.64837279780842" /><line stroke="rgb(100%,0%,0%)" stroke-width="1" x1="123.15437537097623" x2="124.8245538364116" y1="117.64837279780842" y2="109.82465859714924" /><line stroke="rgb(100%,0%,0%)" stroke-width="1" x1="124.8245538364116" x2="127.75844666165878" y1="109.82465859714924" y2="110.4509755216875" /><line stroke="rgb(100%,0%,0%)" stroke-width="1" x1="127.75844666165878" x2="129.42862512709414" y1="110.4509755216875" y2="102.62726132102833" /><line stroke="rgb(100%,0%,0%)" stroke-width="1" x1="129.42862512709414" x2="126.49473230184695" y1="102.62726132102833" y2="102.00094439649007" /><line stroke="rgb(100%,0%,0%)" stroke-width="1" x1="126.49473230184695" x2="128.16491076728232" y1="102.00094439649007" y2="94.1772301958309" /><line stroke="rgb(100%,0%,0%)" stroke-width="1" x1="128.16491076728232" x2="131.09880359252952" y1="94.1772301958309" y2="94.80354712036916" /><line stroke="rgb(100%,0%,0%)" stroke-width="1" x1="131.09880359252952" x2="132.76898205796488" y1="94.80354712036916" y2="86.97983291970999" /><line stroke="rgb(100%,0%,0%)" stroke-width="1" x1="132.76898205796488" x2="129.83508923271768" y1="86.97983291970999" y2="86.35351599517173" /><line stroke="rgb(100%,0%,0%)" stroke-width="1" x1="129.83508923271768" x2="131.50526769815303" y1="86.35351599517173" y2="78.52980179451257" /><line stroke="rgb(100%,0%,0%)" stroke-width="1" x1="131.50526769815303" x2="134.43916052340023" y1="78.52980179451257" y2="79.15611871905082" /><line stroke="rgb(100%,0%,0%)" stroke-width="1" x1="134.43916052340023" x2="136.10933898883562" y1="79.15611871905082" y2="71.33240451839166" /><line stroke="rgb(100%,0%,0%)" stroke-width="1" x1="136.10933898883562" x2="133.17544616358842" y1="71.33240451839166" y2="70.7060875938534" /><line stroke="rgb(100%,0%,0%)" stroke-width="1" x1="133.17544616358842" x2="134.84562462902377" y1="70.7060875938534" y2="62.882373393194214" /><line stroke="rgb(100%,0%,0%)" stroke-width="1" x1="134.84562462902377" x2="137.77951745427097" y1="62.882373393194214" y2="63.50869031773247" /><line stroke="rgb(100%,0%,0%)" stroke-width="1" x1="137.77951745427097" x2="139.44969591970633" y1="63.50869031773247" y2="55.684976117073305" /><line stroke="rgb(100%,0%,0%)" stroke-width="1" x1="139.44969591970633" x2="136.51580309445913" y1="55.684976117073305" y2="55.058659192535046" /><line stroke="rgb(100%,0%,0%)" stroke-width="1" x1="136.51580309445913" x2="138.1859815598945" y1="55.058659192535046" y2="47.23494499187588" /><line stroke="rgb(100%,0%,0%)" stroke-width="1" x1="138.1859815598945" x2="141.11987438514169" y1="47.23494499187588" y2="47.861261916414136" /><line stroke="rgb(100%,0%,0%)" stroke-width="1" x1="141.11987438514169" x2="142.79005285057707" y1="47.861261916414136" y2="40.03754771575497" /><line stroke="rgb(100%,0%,0%)" stroke-width="1" x1="142.79005285057707" x2="139.85616002532987" y1="40.03754771575497" y2="39.41123079121671" /><line stroke="rgb(100%,0%,0%)" stroke-width="1" x1="139.85616002532987" x2="141.52633849076523" y1="39.41123079121671" y2="31.58751659055754" /><line stroke="rgb(100%,0%,0%)" stroke-width="1" x1="141.52633849076523" x2="144.46023131601243" y1="31.58751659055754" y2="32.2138335150958" /><line stroke="rgb(100%,0%,0%)" stroke-width="1" x1="144.46023131601243" x2="148.60407129068255" y1="32.2138335150958" y2="12.80260272387909" /><line stroke="rgb(100%,0%,0%)" stroke-width="1" x1="152.0" x2="126.0" y1="17.5" y2="17.5" /><line stroke="rgb(100%,0%,0%)" stroke-width="1" x1="126.0" x2="126.0" y1="17.5" y2="20.0" /><line stroke="rgb(100%,0%,0%)" stroke-width="1" x1="126.0" x2="118.0" y1="20.0" y2="20.0" /><line stroke="rgb(100%,0%,0%)" stroke-width="1" x1="118.0" x2="118.0" y1="20.0" y2="17.5" /><line stroke="rgb(100%,0%,0%)" stroke-width="1" x1="118.0" x2="110.0" y1="17.5" y2="17.5" /><line stroke="rgb(100%,0%,0%)" stroke-width="1" x1="110.0" x2="110.0" y1="17.5" y2="20.0" /><line stroke="rgb(100%,0%,0%)" stroke-width="1" x1="110.0" x2="102.0" y1="20.0" y2="20.0" /><line stroke="rgb(100%,0%,0%)" stroke-width="1" x1="102.0" x2="102.0" y1="20.0" y2="17.5" /><line stroke="rgb(100%,0%,0%)" stroke-width="1" x1="102.0" x2="94.0" y1="17.5" y2="17.5" /><line stroke="rgb(100%,0%,0%)" stroke-width="1" x1="94.0" x2="94.0" y1="17.5" y2="20.0" /><line stroke="rgb(100%,0%,0%)" stroke-width="1" x1="94.0" x2="86.0" y1="20.0" y2="20.0" /><line stroke="rgb(100%,0%,0%)" stroke-width="1" x1="86.0" x2="86.0" y1="20.0" y2="17.5" /><line stroke="rgb(100%,0%,0%)" stroke-width="1" x1="86.0" x2="78.0" y1="17.5" y2="17.5" /><line stroke="rgb(100%,0%,0%)" stroke-width="1" x1="78.0" x2="78.0" y1="17.5" y2="20.0" /><line stroke="rgb(100%,0%,0%)" stroke-width="1" x1="78.0" x2="70.0" y1="20.0" y2="20.0" /><line stroke="rgb(100%,0%,0%)" stroke-width="1" x1="70.0" x2="70.0" y1="20.0" y2="17.5" /><line stroke="rgb(100%,0%,0%)" stroke-width="1" x1="70.0" x2="62.0" y1="17.5" y2="17.5" /><line stroke="rgb(100%,0%,0%)" stroke-width="1" x1="62.0" x2="62.0" y1="17.5" y2="20.0" /><line stroke="rgb(100%,0%,0%)" stroke-width="1" x1="62.0" x2="54.0" y1="20.0" y2="20.0" /><line stroke="rgb(100%,0%,0%)" stroke-width="1" x1="54.0" x2="54.0" y1="20.0" y2="17.5" /><line stroke="rgb(100%,0%,0%)" stroke-width="1" x1="54.0" x2="46.0" y1="17.5" y2="17.5" /><line stroke="rgb(100%,0%,0%)" stroke-width="1" x1="46.0" x2="46.0" y1="17.5" y2="20.0" /><line stroke="rgb(100%,0%,0%)" stroke-width="1" x1="46.0" x2="38.0" y1="20.0" y2="20.0" /><line stroke="rgb(100%,0%,0%)" stroke-width="1" x1="38.0" x2="38.0" y1="20.0" y2="17.5" /><line stroke="rgb(100%,0%,0%)" stroke-width="1" x1="38.0" x2="12.0" y1="17.5" y2="17.5" /></svg>