<?xml version="1.0" encoding="utf-8" ?>
<svg baseProfile="full" height="240mm" version="1.1" viewBox="0 0 240 240" width="240mm" xmlns="http://www.w3.org/2000/svg" xmlns:ev="http://www.w3.org/2001/xml-events" xmlns:xlink="http://www.w3.org/1999/xlink"><defs /><line stroke="rgb(100%,0%,0%)" stroke-width="1" x1="15.293342579149389" x2="20.08825886147394" y1="12.869265400903505" y2="33.85402170544103" /><line stroke="rgb(100%,0%,0%)" stroke-width="1" x1="20.08825886147394" x2="23.01288279525437" y1="33.85402170544103" y2="33.18575914778971" /><line stroke="rgb(100%,0%,0%)" stroke-width="1" x1="23.01288279525437" x2="24.79491628232455" y1="33.18575914778971" y2="40.98475630453753" /><line stroke="rgb(100%,0%,0%)" stroke-width="1" x1="24.79491628232455" x2="21.87029234854412" y1="40.98475630453753" y2="41.653018862188844" /><line stroke="rgb(100%,0%,0%)" stroke-width="1" x1="21.87029234854412" x2="23.6523258356143" y1="41.653018862188844" y2="49.45201601893666" /><line stroke="rgb(100%,0%,0%)" stroke-width="1" x1="23.6523258356143" x2="26.57694976939473" y1="49.45201601893666" y2="48.78375346128534" /><line stroke="rgb(100%,0%,0%)" stroke-width="1" x1="26.57694976939473" x2="28.35898325646491" y1="48.78375346128534" y2="56.58275061803315" /><line stroke="rgb(100%,0%,0%)" stroke-width="1" x1="28.35898325646491" x2="25.43435932268448" y1="56.58275061803315" y2="57.25101317568447" /><line stroke="rgb(100%,0%,0%)" stroke-width="1" x1="25.43435932268448" x2="27.21639280975466" y1="57.25101317568447" y2="65.05001033243228" /><line stroke="rgb(100%,0%,0%)" stroke-width="1" x1="27.21639280975466" x2="30.14101674353509" y1="65.05001033243228" y2="64.38174777478096" /><line stroke="rgb(100%,0%,0%)" stroke-width="1" x1="30.14101674353509" x2="31.92305023060527" y1="64.38174777478096" y2="72.18074493152878" /><line stroke="rgb(100%,0%,0%)" stroke-width="1" x1="31.92305023060527" x2="28.99842629682484" y1="72.18074493152878" y2="72.8490074891801" /><line stroke="rgb(100%,0%,0%)" stroke-width="1" x1="28.99842629682484" x2="30.78045978389502" y1="72.8490074891801" y2="80.64800464592791" /><line stroke="rgb(100%,0%,0%)" stroke-width="1" x1="30.78045978389502" x2="33.70508371767545" y1="80.64800464592791" y2="79.9797420882766" /><line stroke="rgb(100%,0%,0%)" stroke-width="1" x1="33.70508371767545" x2="35.48711720474563" y1="79.9797420882766" y2="87.77873924502441" /><line stroke="rgb(100%,0%,0%)" stroke-width="1" x1="35.48711720474563" x2="32.5624932709652" y1="87.77873924502441" y2="88.44700180267573" /><line stroke="rgb(100%,0%,0%)" stroke-width="1" x1="32.5624932709652" x2="37.35740955328975" y1="88.44700180267573" y2="109.43175810721326" /><line stroke="rgb(100%,0%,0%)" stroke-width="1" x1="30.5" x2="56.5" y1="103.96449839281412" y2="103.96449839281412" /><line stroke="rgb(100%,0%,0%)" stroke-width="1" x1="56.5" x2="56.5" y1="103.96449839281412" y2="100.96449839281412" /><line stroke="rgb(100%,0%,0%)" stroke-width="1" x1="56.5" x2="64.5" y1="100.96449839281412" y2="100.96449839281412" /><line stroke="rgb(100%,0%,0%)" stroke-width="1" x1="64.5" x2="64.5" y1="100.96449839281412" y2="103.96449839281412" /><line stroke="rgb(100%,0%,0%)" stroke-width="1" x1="64.5" x2="72.5" y1="103.96449839281412" y2="103.96449839281412" /><line stroke="rgb(100%,0%,0%)" stroke-width="1" x1="72.5" x2="72.5" y1="103.96449839281412" y2="100.96449839281412" /><line stroke="rgb(100%,0%,0%)" stroke-width="1" x1="72.5" x2="80.5" y1="100.96449839281412" y2="100.96449839281412" /><line stroke="rgb(100%,0%,0%)" stroke-width="1" x1="80.5" x2="80.5" y1="100.96449839281412" y2="103.96449839281412" /><line stroke="rgb(100%,0%,0%)" stroke-width="1" x1="80.5" x2="106.5" y1="103.96449839281412" y2="103.96449839281412" /><line stroke="rgb(100%,0%,0%)" stroke-width="1" x1="99.64259044671024" x2="104.4375067290348" y1="109.43175810721326" y2="88.44700180267573" /><line stroke="rgb(100%,0%,0%)" stroke-width="1" x1="104.4375067290348" x2="101.51288279525437" y1="88.44700180267573" y2="87.77873924502441" /><line stroke="rgb(100%,0%,0%)" stroke-width="1" x1="101.51288279525437" x2="103.29491628232455" y1="87.77873924502441" y2="79.9797420882766" /><line stroke="rgb(100%,0%,0%)" stroke-width="1" x1="103.29491628232455" x2="106.21954021610497" y1="79.9797420882766" y2="80.64800464592791" /><line stroke="rgb(100%,0%,0%)" stroke-width="1" x1="106.21954021610497" x2="108.00157370317515" y1="80.64800464592791" y2="72.8490074891801" /><line stroke="rgb(100%,0%,0%)" stroke-width="1" x1="108.00157370317515" x2="105.07694976939473" y1="72.8490074891801" y2="72.18074493152878" /><line stroke="rgb(100%,0%,0%)" stroke-width="1" x1="105.07694976939473" x2="106.85898325646491" y1="72.18074493152878" y2="64.38174777478096" /><line stroke="rgb(100%,0%,0%)" stroke-width="1" x1="106.85898325646491" x2="109.78360719024533" y1="64.38174777478096" y2="65.05001033243228" /><line stroke="rgb(100%,0%,0%)" stroke-width="1" x1="109.78360719024533" x2="111.56564067731551" y1="65.05001033243228" y2="57.25101317568447" /><line stroke="rgb(100%,0%,0%)" stroke-width="1" x1="111.56564067731551" x2="108.64101674353509" y1="57.25101317568447" y2="56.58275061803315" /><line stroke="rgb(100%,0%,0%)" stroke-width="1" x1="108.64101674353509" x2="110.42305023060527" y1="56.58275061803315" y2="48.78375346128534" /><line stroke="rgb(100%,0%,0%)" stroke-width="1" x1="110.42305023060527" x2="113.3476741643857" y1="48.78375346128534" y2="49.45201601893666" /><line stroke="rgb(100%,0%,0%)" stroke-width="1" x1="113.3476741643857" x2="115.12970765145587" y1="49.45201601893666" y2="41.653018862188844" /><line stroke="rgb(100%,0%,0%)" stroke-width="1" x1="115.12970765145587" x2="112.20508371767545" y1="41.653018862188844" y2="40.98475630453753" /><line stroke="rgb(100%,0%,0%)" stroke-width="1" x1="112.20508371767545" x2="113.98711720474563" y1="40.98475630453753" y2="33.18575914778971" /><line stroke="rgb(100%,0%,0%)" stroke-width="1" x1="113.98711720474563" x2="116.91174113852605" y1="33.18575914778971" y2="33.85402170544103" /><line stroke="rgb(100%,0%,0%)" stroke-width="1" x1="116.91174113852605" x2="121.7066574208506" y1="33.85402170544103" y2="12.869265400903505" /><line stroke="rgb(100%,0%,0%)" stroke-width="1" x1="125.0" x2="104.5" y1="17.5" y2="17.5" /><line stroke="rgb(100%,0%,0%)" stroke-width="1" x1="104.5" x2="104.5" y1="17.5" y2="20.0" /><line stroke="rgb(100%,0%,0%)" stroke-width="1" x1="104.5" x2="96.5" y1="20.0" y2="20.0" /><line stroke="rgb(100%,0%,0%)" stroke-width="1" x1="96.5" x2="96.5" y1="20.0" y2="17.5" /><line stroke="rgb(100%,0%,0%)" stroke-width="1" x1="96.5" x2="88.5" y1="17.5" y2="17.5" /><line stroke="rgb(100%,0%,0%)" stroke-width="1" x1="88.5" x2="88.5" y1="17.5" y2="20.0" /><line stroke="rgb(100%,0%,0%)" stroke-width="1" x1="88.5" x2="80.5" y1="20.0" y2="20.0" /><line stroke="rgb(100%,0%,0%)" stroke-width="1" x1="80.5" x2="80.5" y1="20.0" y2="17.5" /><line stroke="rgb(100%,0%,0%)" stroke-width="1" x1="80.5" x2="72.5" y1="17.5" y2="17.5" /><line stroke="rgb(100%,0%,0%)" stroke-width="1" x1="72.5" x2="72.5" y1="17.5" y2="20.0" /><line stroke="rgb(100%,0%,0%)" stroke-width="1" x1="72.5" x2="64.5" y1="20.0" y2="20.0" /><line stroke="rgb(100%,0%,0%)" stroke-width="1" x1="64.5" x2="64.5" y1="20.0" y2="17.5" /><line stroke="rgb(100%,0%,0%)" stroke-width="1" x1="64.5" x2="56.5" y1="17.5" y2="17.5" /><line stroke="rgb(100%,0%,0%)" stroke-width="1" x1="56.5" x2="56.5" y1="17.5" y2="20.0" /><line stroke="rgb(100%,0%,0%)" stroke-width="1" x1="56.5" x2="48.5" y1="20.0" y2="20.0" /><line stroke="rgb(100%,0%,0%)" stroke-width="1" x1="48.5" x2="48.5" y1="20.0" y2="17.5" /><line stroke="rgb(100%,0%,0%)" stroke-width="1" x1="48.5" x2="40.5" y1="17.5" y2="17.5" /><line stroke="rgb(100%,0%,0%)" stroke-width="1" x1="40.5" x2="40.5" y1="17.5" y2="20.0" /><line stroke="rgb(100%,0%,0%)" stroke-width="1" x1="40.5" x2="32.5" y1="20.0" y2="20.0" /><line stroke="rgb(100%,0%,0%)" stroke-width="1" x1="32.5" x2="32.5" y1="20.0" y2="17.5" /><line stroke="rgb(100%,0%,0%)" stroke-width="1" x1="32.5" x2="12.0" y1="17.5" y2="17.5" /></svg>