<?xml version="1.0" encoding="utf-8" ?>
<svg baseProfile="full" height="240mm" version="1.1" viewBox="0 0 240 240" width="240mm" xmlns="http://www.w3.org/2000/svg" xmlns:ev="http://www.w3.org/2001/xml-events" xmlns:xlink="http://www.w3.org/1999/xlink"><defs /><line stroke="rgb(100%,0%,0%)" stroke-width="1" x1="15.255322666926784" x2="20.196161475422738" y1="12.894506561468006" y2="33.99817464887098" /><line stroke="rgb(100%,0%,0%)" stroke-width="1" x1="20.196161475422738" x2="23.117174331894336" y1="33.99817464887098" y2="33.31430047014537" /><line stroke="rgb(100%,0%,0%)" stroke-width="1" x1="23.117174331894336" x2="24.940838808495954" y1="33.31430047014537" y2="41.103668087402966" /><line stroke="rgb(100%,0%,0%)" stroke-width="1" x1="24.940838808495954" x2="22.019825952024355" y1="41.103668087402966" y2="41.787542266128575" /><line stroke="rgb(100%,0%,0%)" stroke-width="1" x1="22.019825952024355" x2="23.843490428625973" y1="41.787542266128575" y2="49.57690988338617" /><line stroke="rgb(100%,0%,0%)" stroke-width="1" x1="23.843490428625973" x2="26.76450328509757" y1="49.57690988338617" y2="48.89303570466056" /><line stroke="rgb(100%,0%,0%)" stroke-width="1" x1="26.76450328509757" x2="28.58816776169919" y1="48.89303570466056" y2="56.682403321918166" /><line stroke="rgb(100%,0%,0%)" stroke-width="1" x1="28.58816776169919" x2="25.66715490522759" y1="56.682403321918166" y2="57.366277500643776" /><line stroke="rgb(100%,0%,0%)" stroke-width="1" x1="25.66715490522759" x2="27.490819381829212" y1="57.366277500643776" y2="65.15564511790137" /><line stroke="rgb(100%,0%,0%)" stroke-width="1" x1="27.490819381829212" x2="30.41183223830081" y1="65.15564511790137" y2="64.47177093917577" /><line stroke="rgb(100%,0%,0%)" stroke-width="1" x1="30.41183223830081" x2="32.235496714902425" y1="64.47177093917577" y2="72.26113855643337" /><line stroke="rgb(100%,0%,0%)" stroke-width="1" x1="32.235496714902425" x2="29.314483858430826" y1="72.26113855643337" y2="72.94501273515897" /><line stroke="rgb(100%,0%,0%)" stroke-width="1" x1="29.314483858430826" x2="31.138148335032447" y1="72.94501273515897" y2="80.73438035241657" /><line stroke="rgb(100%,0%,0%)" stroke-width="1" x1="31.138148335032447" x2="34.059161191504046" y1="80.73438035241657" y2="80.05050617369096" /><line stroke="rgb(100%,0%,0%)" stroke-width="1" x1="34.059161191504046" x2="35.88282566810567" y1="80.05050617369096" y2="87.83987379094856" /><line stroke="rgb(100%,0%,0%)" stroke-width="1" x1="35.88282566810567" x2="32.96181281163407" y1="87.83987379094856" y2="88.52374796967416" /><line stroke="rgb(100%,0%,0%)" stroke-width="1" x1="32.96181281163407" x2="37.90265162013002" y1="88.52374796967416" y2="109.62741605707713" /><line stroke="rgb(100%,0%,0%)" stroke-width="1" x1="31.0" x2="57.0" y1="104.15417426109393" y2="104.15417426109393" /><line stroke="rgb(100%,0%,0%)" stroke-width="1" x1="57.0" x2="57.0" y1="104.15417426109393" y2="101.15417426109393" /><line stroke="rgb(100%,0%,0%)" stroke-width="1" x1="57.0" x2="65.0" y1="101.15417426109393" y2="101.15417426109393" /><line stroke="rgb(100%,0%,0%)" stroke-width="1" x1="65.0" x2="65.0" y1="101.15417426109393" y2="104.15417426109393" /><line stroke="rgb(100%,0%,0%)" stroke-width="1" x1="65.0" x2="73.0" y1="104.15417426109393" y2="104.15417426109393" /><line stroke="rgb(100%,0%,0%)" stroke-width="1" x1="73.0" x2="73.0" y1="104.15417426109393" y2="101.15417426109393" /><line stroke="rgb(100%,0%,0%)" stroke-width="1" x1="73.0" x2="81.0" y1="101.15417426109393" y2="101.15417426109393" /><line stroke="rgb(100%,0%,0%)" stroke-width="1" x1="81.0" x2="81.0" y1="101.15417426109393" y2="104.15417426109393" /><line stroke="rgb(100%,0%,0%)" stroke-width="1" x1="81.0" x2="107.0" y1="104.15417426109393" y2="104.15417426109393" /><line stroke="rgb(100%,0%,0%)" stroke-width="1" x1="100.09734837986998" x2="105.03818718836594" y1="109.62741605707713" y2="88.52374796967416" /><line stroke="rgb(100%,0%,0%)" stroke-width="1" x1="105.03818718836594" x2="102.11717433189433" y1="88.52374796967416" y2="87.83987379094856" /><line stroke="rgb(100%,0%,0%)" stroke-width="1" x1="102.11717433189433" x2="103.94083880849595" y1="87.83987379094856" y2="80.05050617369096" /><line stroke="rgb(100%,0%,0%)" stroke-width="1" x1="103.94083880849595" x2="106.86185166496756" y1="80.05050617369096" y2="80.73438035241657" /><line stroke="rgb(100%,0%,0%)" stroke-width="1" x1="106.86185166496756" x2="108.68551614156918" y1="80.73438035241657" y2="72.94501273515897" /><line stroke="rgb(100%,0%,0%)" stroke-width="1" x1="108.68551614156918" x2="105.76450328509758" y1="72.94501273515897" y2="72.26113855643337" /><line stroke="rgb(100%,0%,0%)" stroke-width="1" x1="105.76450328509758" x2="107.5881677616992" y1="72.26113855643337" y2="64.47177093917577" /><line stroke="rgb(100%,0%,0%)" stroke-width="1" x1="107.5881677616992" x2="110.5091806181708" y1="64.47177093917577" y2="65.15564511790137" /><line stroke="rgb(100%,0%,0%)" stroke-width="1" x1="110.5091806181708" x2="112.33284509477241" y1="65.15564511790137" y2="57.366277500643776" /><line stroke="rgb(100%,0%,0%)" stroke-width="1" x1="112.33284509477241" x2="109.4118322383008" y1="57.366277500643776" y2="56.682403321918166" /><line stroke="rgb(100%,0%,0%)" stroke-width="1" x1="109.4118322383008" x2="111.23549671490242" y1="56.682403321918166" y2="48.89303570466056" /><line stroke="rgb(100%,0%,0%)" stroke-width="1" x1="111.23549671490242" x2="114.15650957137403" y1="48.89303570466056" y2="49.57690988338617" /><line stroke="rgb(100%,0%,0%)" stroke-width="1" x1="114.15650957137403" x2="115.98017404797565" y1="49.57690988338617" y2="41.787542266128575" /><line stroke="rgb(100%,0%,0%)" stroke-width="1" x1="115.98017404797565" x2="113.05916119150405" y1="41.787542266128575" y2="41.103668087402966" /><line stroke="rgb(100%,0%,0%)" stroke-width="1" x1="113.05916119150405" x2="114.88282566810567" y1="41.103668087402966" y2="33.31430047014537" /><line stroke="rgb(100%,0%,0%)" stroke-width="1" x1="114.88282566810567" x2="117.80383852457727" y1="33.31430047014537" y2="33.99817464887098" /><line stroke="rgb(100%,0%,0%)" stroke-width="1" x1="117.80383852457727" x2="122.74467733307323" y1="33.99817464887098" y2="12.894506561468006" /><line stroke="rgb(100%,0%,0%)" stroke-width="1" x1="126.0" x2="105.0" y1="17.5" y2="17.5" /><line stroke="rgb(100%,0%,0%)" stroke-width="1" x1="105.0" x2="105.0" y1="17.5" y2="20.0" /><line stroke="rgb(100%,0%,0%)" stroke-width="1" x1="105.0" x2="97.0" y1="20.0" y2="20.0" /><line stroke="rgb(100%,0%,0%)" stroke-width="1" x1="97.0" x2="97.0" y1="20.0" y2="17.5" /><line stroke="rgb(100%,0%,0%)" stroke-width="1" x1="97.0" x2="89.0" y1="17.5" y2="17.5" /><line stroke="rgb(100%,0%,0%)" stroke-width="1" x1="89.0" x2="89.0" y1="17.5" y2="20.0" /><line stroke="rgb(100%,0%,0%)" stroke-width="1" x1="89.0" x2="81.0" y1="20.0" y2="20.0" /><line stroke="rgb(100%,0%,0%)" stroke-width="1" x1="81.0" x2="81.0" y1="20.0" y2="17.5" /><line stroke="rgb(100%,0%,0%)" stroke-width="1" x1="81.0" x2="73.0" y1="17.5" y2="17.5" /><line stroke="rgb(100%,0%,0%)" stroke-width="1" x1="73.0" x2="73.0" y1="17.5" y2="20.0" /><line stroke="rgb(100%,0%,0%)" stroke-width="1" x1="73.0" x2="65.0" y1="20.0" y2="20.0" /><line stroke="rgb(100%,0%,0%)" stroke-width="1" x1="65.0" x2="65.0" y1="20.0" y2="17.5" /><line stroke="rgb(100%,0%,0%)" stroke-width="1" x1="65.0" x2="57.0" y1="17.5" y2="17.5" /><line stroke="rgb(100%,0%,0%)" stroke-width="1" x1="57.0" x2="57.0" y1="17.5" y2="20.0" /><line stroke="rgb(100%,0%,0%)" stroke-width="1" x1="57.0" x2="49.0" y1="20.0" y2="20.0" /><line stroke="rgb(100%,0%,0%)" stroke-width="1" x1="49.0" x2="49.0" y1="20.0" y2="17.5" /><line stroke="rgb(100%,0%,0%)" stroke-width="1" x1="49.0" x2="41.0" y1="17.5" y2="17.5" /><line stroke="rgb(100%,0%,0%)" stroke-width="1" x1="41.0" x2="41.0" y1="17.5" y2="20.0" /><line stroke="rgb(100%,0%,0%)" stroke-width="1" x1="41.0" x2="33.0" y1="20.0" y2="20.0" /><line stroke="rgb(100%,0%,0%)" stroke-width="1" x1="33.0" x2="33.0" y1="20.0" y2="17.5" /><line stroke="rgb(100%,0%,0%)" stroke-width="1" x1="33.0" x2="12.0" y1="17.5" y2="17.5" /></svg>