<?xml version="1.0" encoding="utf-8" ?>
<svg baseProfile="full" height="240mm" version="1.1" viewBox="0 0 240 240" width="240mm" xmlns="http://www.w3.org/2000/svg" xmlns:ev="http://www.w3.org/2001/xml-events" xmlns:xlink="http://www.w3.org/1999/xlink"><defs /><line stroke="rgb(100%,0%,0%)" stroke-width="1" x1="18.432786676059237" x2="22.447540042266574" y1="12.155011638169082" y2="32.25163342691322" /><line stroke="rgb(100%,0%,0%)" stroke-width="1" x1="22.447540042266574" x2="19.50566940657998" y1="32.25163342691322" y2="32.839338423391006" /><line stroke="rgb(100%,0%,0%)" stroke-width="1" x1="19.50566940657998" x2="21.07288273052074" y1="32.839338423391006" y2="40.68432678522193" /><line stroke="rgb(100%,0%,0%)" stroke-width="1" x1="21.07288273052074" x2="24.014753366207334" y1="40.68432678522193" y2="40.096621788744145" /><line stroke="rgb(100%,0%,0%)" stroke-width="1" x1="24.014753366207334" x2="25.581966690148096" y1="40.096621788744145" y2="47.94161015057506" /><line stroke="rgb(100%,0%,0%)" stroke-width="1" x1="25.581966690148096" x2="22.6400960544615" y1="47.94161015057506" y2="48.52931514705284" /><line stroke="rgb(100%,0%,0%)" stroke-width="1" x1="22.6400960544615" x2="24.20730937840226" y1="48.52931514705284" y2="56.374303508883756" /><line stroke="rgb(100%,0%,0%)" stroke-width="1" x1="24.20730937840226" x2="27.149180014088856" y1="56.374303508883756" y2="55.78659851240597" /><line stroke="rgb(100%,0%,0%)" stroke-width="1" x1="27.149180014088856" x2="28.71639333802962" y1="55.78659851240597" y2="63.631586874236895" /><line stroke="rgb(100%,0%,0%)" stroke-width="1" x1="28.71639333802962" x2="25.774522702343024" y1="63.631586874236895" y2="64.21929187071468" /><line stroke="rgb(100%,0%,0%)" stroke-width="1" x1="25.774522702343024" x2="27.341736026283787" y1="64.21929187071468" y2="72.0642802325456" /><line stroke="rgb(100%,0%,0%)" stroke-width="1" x1="27.341736026283787" x2="30.28360666197038" y1="72.0642802325456" y2="71.47657523606782" /><line stroke="rgb(100%,0%,0%)" stroke-width="1" x1="30.28360666197038" x2="31.850819985911144" y1="71.47657523606782" y2="79.32156359789873" /><line stroke="rgb(100%,0%,0%)" stroke-width="1" x1="31.850819985911144" x2="28.90894935022455" y1="79.32156359789873" y2="79.90926859437651" /><line stroke="rgb(100%,0%,0%)" stroke-width="1" x1="28.90894935022455" x2="30.476162674165312" y1="79.90926859437651" y2="87.75425695620743" /><line stroke="rgb(100%,0%,0%)" stroke-width="1" x1="30.476162674165312" x2="33.41803330985191" y1="87.75425695620743" y2="87.16655195972965" /><line stroke="rgb(100%,0%,0%)" stroke-width="1" x1="33.41803330985191" x2="34.98524663379266" y1="87.16655195972965" y2="95.01154032156056" /><line stroke="rgb(100%,0%,0%)" stroke-width="1" x1="34.98524663379266" x2="32.04337599810607" y1="95.01154032156056" y2="95.59924531803834" /><line stroke="rgb(100%,0%,0%)" stroke-width="1" x1="32.04337599810607" x2="33.610589322046835" y1="95.59924531803834" y2="103.44423367986926" /><line stroke="rgb(100%,0%,0%)" stroke-width="1" x1="33.610589322046835" x2="36.552459957733426" y1="103.44423367986926" y2="102.85652868339147" /><line stroke="rgb(100%,0%,0%)" stroke-width="1" x1="36.552459957733426" x2="40.56721332394076" y1="102.85652868339147" y2="122.95315047213562" /><line stroke="rgb(100%,0%,0%)" stroke-width="1" x1="31.0" x2="57.0" y1="118.1081621103047" y2="118.1081621103047" /><line stroke="rgb(100%,0%,0%)" stroke-width="1" x1="57.0" x2="57.0" y1="118.1081621103047" y2="115.1081621103047" /><line stroke="rgb(100%,0%,0%)" stroke-width="1" x1="57.0" x2="65.0" y1="115.1081621103047" y2="115.1081621103047" /><line stroke="rgb(100%,0%,0%)" stroke-width="1" x1="65.0" x2="65.0" y1="115.1081621103047" y2="118.1081621103047" /><line stroke="rgb(100%,0%,0%)" stroke-width="1" x1="65.0" x2="73.0" y1="118.1081621103047" y2="118.1081621103047" /><line stroke="rgb(100%,0%,0%)" stroke-width="1" x1="73.0" x2="73.0" y1="118.1081621103047" y2="115.1081621103047" /><line stroke="rgb(100%,0%,0%)" stroke-width="1" x1="73.0" x2="81.0" y1="115.1081621103047" y2="115.1081621103047" /><line stroke="rgb(100%,0%,0%)" stroke-width="1" x1="81.0" x2="81.0" y1="115.1081621103047" y2="118.1081621103047" /><line stroke="rgb(100%,0%,0%)" stroke-width="1" x1="81.0" x2="107.0" y1="118.1081621103047" y2="118.1081621103047" /><line stroke="rgb(100%,0%,0%)" stroke-width="1" x1="97.43278667605924" x2="101.44754004226657" y1="122.95315047213562" y2="102.85652868339147" /><line stroke="rgb(100%,0%,0%)" stroke-width="1" x1="101.44754004226657" x2="104.38941067795317" y1="102.85652868339147" y2="103.44423367986926" /><line stroke="rgb(100%,0%,0%)" stroke-width="1" x1="104.38941067795317" x2="105.95662400189393" y1="103.44423367986926" y2="95.59924531803834" /><line stroke="rgb(100%,0%,0%)" stroke-width="1" x1="105.95662400189393" x2="103.01475336620733" y1="95.59924531803834" y2="95.01154032156056" /><line stroke="rgb(100%,0%,0%)" stroke-width="1" x1="103.01475336620733" x2="104.58196669014809" y1="95.01154032156056" y2="87.16655195972965" /><line stroke="rgb(100%,0%,0%)" stroke-width="1" x1="104.58196669014809" x2="107.52383732583469" y1="87.16655195972965" y2="87.75425695620743" /><line stroke="rgb(100%,0%,0%)" stroke-width="1" x1="107.52383732583469" x2="109.09105064977545" y1="87.75425695620743" y2="79.90926859437651" /><line stroke="rgb(100%,0%,0%)" stroke-width="1" x1="109.09105064977545" x2="106.14918001408886" y1="79.90926859437651" y2="79.32156359789873" /><line stroke="rgb(100%,0%,0%)" stroke-width="1" x1="106.14918001408886" x2="107.71639333802962" y1="79.32156359789873" y2="71.47657523606782" /><line stroke="rgb(100%,0%,0%)" stroke-width="1" x1="107.71639333802962" x2="110.65826397371622" y1="71.47657523606782" y2="72.0642802325456" /><line stroke="rgb(100%,0%,0%)" stroke-width="1" x1="110.65826397371622" x2="112.22547729765698" y1="72.0642802325456" y2="64.21929187071468" /><line stroke="rgb(100%,0%,0%)" stroke-width="1" x1="112.22547729765698" x2="109.28360666197038" y1="64.21929187071468" y2="63.631586874236895" /><line stroke="rgb(100%,0%,0%)" stroke-width="1" x1="109.28360666197038" x2="110.85081998591114" y1="63.631586874236895" y2="55.78659851240597" /><line stroke="rgb(100%,0%,0%)" stroke-width="1" x1="110.85081998591114" x2="113.79269062159774" y1="55.78659851240597" y2="56.374303508883756" /><line stroke="rgb(100%,0%,0%)" stroke-width="1" x1="113.79269062159774" x2="115.3599039455385" y1="56.374303508883756" y2="48.52931514705284" /><line stroke="rgb(100%,0%,0%)" stroke-width="1" x1="115.3599039455385" x2="112.41803330985191" y1="48.52931514705284" y2="47.94161015057506" /><line stroke="rgb(100%,0%,0%)" stroke-width="1" x1="112.41803330985191" x2="113.98524663379267" y1="47.94161015057506" y2="40.096621788744145" /><line stroke="rgb(100%,0%,0%)" stroke-width="1" x1="113.98524663379267" x2="116.92711726947927" y1="40.096621788744145" y2="40.68432678522193" /><line stroke="rgb(100%,0%,0%)" stroke-width="1" x1="116.92711726947927" x2="118.49433059342003" y1="40.68432678522193" y2="32.839338423391006" /><line stroke="rgb(100%,0%,0%)" stroke-width="1" x1="118.49433059342003" x2="115.55245995773343" y1="32.839338423391006" y2="32.25163342691322" /><line stroke="rgb(100%,0%,0%)" stroke-width="1" x1="115.55245995773343" x2="119.56721332394076" y1="32.25163342691322" y2="12.155011638169082" /><line stroke="rgb(100%,0%,0%)" stroke-width="1" x1="126.0" x2="105.0" y1="20.0" y2="20.0" /><line stroke="rgb(100%,0%,0%)" stroke-width="1" x1="105.0" x2="105.0" y1="20.0" y2="17.5" /><line stroke="rgb(100%,0%,0%)" stroke-width="1" x1="105.0" x2="97.0" y1="17.5" y2="17.5" /><line stroke="rgb(100%,0%,0%)" stroke-width="1" x1="97.0" x2="97.0" y1="17.5" y2="20.0" /><line stroke="rgb(100%,0%,0%)" stroke-width="1" x1="97.0" x2="89.0" y1="20.0" y2="20.0" /><line stroke="rgb(100%,0%,0%)" stroke-width="1" x1="89.0" x2="89.0" y1="20.0" y2="17.5" /><line stroke="rgb(100%,0%,0%)" stroke-width="1" x1="89.0" x2="81.0" y1="17.5" y2="17.5" /><line stroke="rgb(100%,0%,0%)" stroke-width="1" x1="81.0" x2="81.0" y1="17.5" y2="20.0" /><line stroke="rgb(100%,0%,0%)" stroke-width="1" x1="81.0" x2="73.0" y1="20.0" y2="20.0" /><line stroke="rgb(100%,0%,0%)" stroke-width="1" x1="73.0" x2="73.0" y1="20.0" y2="17.5" /><line stroke="rgb(100%,0%,0%)" stroke-width="1" x1="73.0" x2="65.0" y1="17.5" y2="17.5" /><line stroke="rgb(100%,0%,0%)" stroke-width="1" x1="65.0" x2="65.0" y1="17.5" y2="20.0" /><line stroke="rgb(100%,0%,0%)" stroke-width="1" x1="65.0" x2="57.0" y1="20.0" y2="20.0" /><line stroke="rgb(100%,0%,0%)" stroke-width="1" x1="57.0" x2="57.0" y1="20.0" y2="17.5" /><line stroke="rgb(100%,0%,0%)" stroke-width="1" x1="57.0" x2="49.0" y1="17.5" y2="17.5" /><line stroke="rgb(100%,0%,0%)" stroke-width="1" x1="49.0" x2="49.0" y1="17.5" y2="20.0" /><line stroke="rgb(100%,0%,0%)" stroke-width="1" x1="49.0" x2="41.0" y1="20.0" y2="20.0" /><line stroke="rgb(100%,0%,0%)" stroke-width="1" x1="41.0" x2="41.0" y1="20.0" y2="17.5" /><line stroke="rgb(100%,0%,0%)" stroke-width="1" x1="41.0" x2="33.0" y1="17.5" y2="17.5" /><line stroke="rgb(100%,0%,0%)" stroke-width="1" x1="33.0" x2="33.0" y1="17.5" y2="20.0" /><line stroke="rgb(100%,0%,0%)" stroke-width="1" x1="33.0" x2="12.0" y1="20.0" y2="20.0" /></svg>