<?xml version="1.0" encoding="utf-8" ?>
<svg baseProfile="full" height="240mm" version="1.1" viewBox="0 0 240 240" width="240mm" xmlns="http://www.w3.org/2000/svg" xmlns:ev="http://www.w3.org/2001/xml-events" xmlns:xlink="http://www.w3.org/1999/xlink"><defs /><line stroke="rgb(100%,0%,0%)" stroke-width="1" x1="18.370628887050945" x2="22.167829991729253" y1="12.167685541534535" y2="30.420662335779944" /><line stroke="rgb(100%,0%,0%)" stroke-width="1" x1="22.167829991729253" x2="19.230712069804703" y1="30.420662335779944" y2="31.03167650313584" /><line stroke="rgb(100%,0%,0%)" stroke-width="1" x1="19.230712069804703" x2="20.86008318275376" y1="31.03167650313584" y2="38.86399096160131" /><line stroke="rgb(100%,0%,0%)" stroke-width="1" x1="20.86008318275376" x2="23.797201104678308" y1="38.86399096160131" y2="38.25297679424541" /><line stroke="rgb(100%,0%,0%)" stroke-width="1" x1="23.797201104678308" x2="25.426572217627363" y1="38.25297679424541" y2="46.085291252710874" /><line stroke="rgb(100%,0%,0%)" stroke-width="1" x1="25.426572217627363" x2="22.489454295702814" y1="46.085291252710874" y2="46.69630542006677" /><line stroke="rgb(100%,0%,0%)" stroke-width="1" x1="22.489454295702814" x2="24.11882540865187" y1="46.69630542006677" y2="54.52861987853223" /><line stroke="rgb(100%,0%,0%)" stroke-width="1" x1="24.11882540865187" x2="27.05594333057642" y1="54.52861987853223" y2="53.917605711176336" /><line stroke="rgb(100%,0%,0%)" stroke-width="1" x1="27.05594333057642" x2="28.685314443525474" y1="53.917605711176336" y2="61.749920169641804" /><line stroke="rgb(100%,0%,0%)" stroke-width="1" x1="28.685314443525474" x2="25.748196521600924" y1="61.749920169641804" y2="62.3609343369977" /><line stroke="rgb(100%,0%,0%)" stroke-width="1" x1="25.748196521600924" x2="27.377567634549976" y1="62.3609343369977" y2="70.19324879546316" /><line stroke="rgb(100%,0%,0%)" stroke-width="1" x1="27.377567634549976" x2="30.314685556474526" y1="70.19324879546316" y2="69.58223462810727" /><line stroke="rgb(100%,0%,0%)" stroke-width="1" x1="30.314685556474526" x2="31.94405666942358" y1="69.58223462810727" y2="77.41454908657273" /><line stroke="rgb(100%,0%,0%)" stroke-width="1" x1="31.94405666942358" x2="29.00693874749903" y1="77.41454908657273" y2="78.02556325392862" /><line stroke="rgb(100%,0%,0%)" stroke-width="1" x1="29.00693874749903" x2="30.63630986044809" y1="78.02556325392862" y2="85.85787771239409" /><line stroke="rgb(100%,0%,0%)" stroke-width="1" x1="30.63630986044809" x2="33.57342778237264" y1="85.85787771239409" y2="85.2468635450382" /><line stroke="rgb(100%,0%,0%)" stroke-width="1" x1="33.57342778237264" x2="35.20279889532169" y1="85.2468635450382" y2="93.07917800350366" /><line stroke="rgb(100%,0%,0%)" stroke-width="1" x1="35.20279889532169" x2="32.265680973397146" y1="93.07917800350366" y2="93.69019217085955" /><line stroke="rgb(100%,0%,0%)" stroke-width="1" x1="32.265680973397146" x2="33.895052086346205" y1="93.69019217085955" y2="101.52250662932501" /><line stroke="rgb(100%,0%,0%)" stroke-width="1" x1="33.895052086346205" x2="36.83217000827075" y1="101.52250662932501" y2="100.91149246196912" /><line stroke="rgb(100%,0%,0%)" stroke-width="1" x1="36.83217000827075" x2="40.62937111294905" y1="100.91149246196912" y2="119.16446925621455" /><line stroke="rgb(100%,0%,0%)" stroke-width="1" x1="31.0" x2="57.0" y1="114.33215479774908" y2="114.33215479774908" /><line stroke="rgb(100%,0%,0%)" stroke-width="1" x1="57.0" x2="57.0" y1="114.33215479774908" y2="111.33215479774908" /><line stroke="rgb(100%,0%,0%)" stroke-width="1" x1="57.0" x2="65.0" y1="111.33215479774908" y2="111.33215479774908" /><line stroke="rgb(100%,0%,0%)" stroke-width="1" x1="65.0" x2="65.0" y1="111.33215479774908" y2="114.33215479774908" /><line stroke="rgb(100%,0%,0%)" stroke-width="1" x1="65.0" x2="73.0" y1="114.33215479774908" y2="114.33215479774908" /><line stroke="rgb(100%,0%,0%)" stroke-width="1" x1="73.0" x2="73.0" y1="114.33215479774908" y2="111.33215479774908" /><line stroke="rgb(100%,0%,0%)" stroke-width="1" x1="73.0" x2="81.0" y1="111.33215479774908" y2="111.33215479774908" /><line stroke="rgb(100%,0%,0%)" stroke-width="1" x1="81.0" x2="81.0" y1="111.33215479774908" y2="114.33215479774908" /><line stroke="rgb(100%,0%,0%)" stroke-width="1" x1="81.0" x2="107.0" y1="114.33215479774908" y2="114.33215479774908" /><line stroke="rgb(100%,0%,0%)" stroke-width="1" x1="97.37062888705094" x2="101.16782999172925" y1="119.16446925621455" y2="100.91149246196912" /><line stroke="rgb(100%,0%,0%)" stroke-width="1" x1="101.16782999172925" x2="104.1049479136538" y1="100.91149246196912" y2="101.52250662932501" /><line stroke="rgb(100%,0%,0%)" stroke-width="1" x1="104.1049479136538" x2="105.73431902660286" y1="101.52250662932501" y2="93.69019217085955" /><line stroke="rgb(100%,0%,0%)" stroke-width="1" x1="105.73431902660286" x2="102.79720110467831" y1="93.69019217085955" y2="93.07917800350366" /><line stroke="rgb(100%,0%,0%)" stroke-width="1" x1="102.79720110467831" x2="104.42657221762737" y1="93.07917800350366" y2="85.2468635450382" /><line stroke="rgb(100%,0%,0%)" stroke-width="1" x1="104.42657221762737" x2="107.36369013955192" y1="85.2468635450382" y2="85.85787771239409" /><line stroke="rgb(100%,0%,0%)" stroke-width="1" x1="107.36369013955192" x2="108.99306125250096" y1="85.85787771239409" y2="78.02556325392862" /><line stroke="rgb(100%,0%,0%)" stroke-width="1" x1="108.99306125250096" x2="106.05594333057641" y1="78.02556325392862" y2="77.41454908657273" /><line stroke="rgb(100%,0%,0%)" stroke-width="1" x1="106.05594333057641" x2="107.68531444352547" y1="77.41454908657273" y2="69.58223462810727" /><line stroke="rgb(100%,0%,0%)" stroke-width="1" x1="107.68531444352547" x2="110.62243236545002" y1="69.58223462810727" y2="70.19324879546316" /><line stroke="rgb(100%,0%,0%)" stroke-width="1" x1="110.62243236545002" x2="112.25180347839908" y1="70.19324879546316" y2="62.3609343369977" /><line stroke="rgb(100%,0%,0%)" stroke-width="1" x1="112.25180347839908" x2="109.31468555647453" y1="62.3609343369977" y2="61.749920169641804" /><line stroke="rgb(100%,0%,0%)" stroke-width="1" x1="109.31468555647453" x2="110.94405666942359" y1="61.749920169641804" y2="53.917605711176336" /><line stroke="rgb(100%,0%,0%)" stroke-width="1" x1="110.94405666942359" x2="113.88117459134814" y1="53.917605711176336" y2="54.52861987853223" /><line stroke="rgb(100%,0%,0%)" stroke-width="1" x1="113.88117459134814" x2="115.51054570429719" y1="54.52861987853223" y2="46.69630542006677" /><line stroke="rgb(100%,0%,0%)" stroke-width="1" x1="115.51054570429719" x2="112.57342778237263" y1="46.69630542006677" y2="46.085291252710874" /><line stroke="rgb(100%,0%,0%)" stroke-width="1" x1="112.57342778237263" x2="114.20279889532169" y1="46.085291252710874" y2="38.25297679424541" /><line stroke="rgb(100%,0%,0%)" stroke-width="1" x1="114.20279889532169" x2="117.13991681724625" y1="38.25297679424541" y2="38.86399096160131" /><line stroke="rgb(100%,0%,0%)" stroke-width="1" x1="117.13991681724625" x2="118.7692879301953" y1="38.86399096160131" y2="31.03167650313584" /><line stroke="rgb(100%,0%,0%)" stroke-width="1" x1="118.7692879301953" x2="115.83217000827075" y1="31.03167650313584" y2="30.420662335779944" /><line stroke="rgb(100%,0%,0%)" stroke-width="1" x1="115.83217000827075" x2="119.62937111294906" y1="30.420662335779944" y2="12.167685541534535" /><line stroke="rgb(100%,0%,0%)" stroke-width="1" x1="126.0" x2="105.0" y1="20.0" y2="20.0" /><line stroke="rgb(100%,0%,0%)" stroke-width="1" x1="105.0" x2="105.0" y1="20.0" y2="17.5" /><line stroke="rgb(100%,0%,0%)" stroke-width="1" x1="105.0" x2="97.0" y1="17.5" y2="17.5" /><line stroke="rgb(100%,0%,0%)" stroke-width="1" x1="97.0" x2="97.0" y1="17.5" y2="20.0" /><line stroke="rgb(100%,0%,0%)" stroke-width="1" x1="97.0" x2="89.0" y1="20.0" y2="20.0" /><line stroke="rgb(100%,0%,0%)" stroke-width="1" x1="89.0" x2="89.0" y1="20.0" y2="17.5" /><line stroke="rgb(100%,0%,0%)" stroke-width="1" x1="89.0" x2="81.0" y1="17.5" y2="17.5" /><line stroke="rgb(100%,0%,0%)" stroke-width="1" x1="81.0" x2="81.0" y1="17.5" y2="20.0" /><line stroke="rgb(100%,0%,0%)" stroke-width="1" x1="81.0" x2="73.0" y1="20.0" y2="20.0" /><line stroke="rgb(100%,0%,0%)" stroke-width="1" x1="73.0" x2="73.0" y1="20.0" y2="17.5" /><line stroke="rgb(100%,0%,0%)" stroke-width="1" x1="73.0" x2="65.0" y1="17.5" y2="17.5" /><line stroke="rgb(100%,0%,0%)" stroke-width="1" x1="65.0" x2="65.0" y1="17.5" y2="20.0" /><line stroke="rgb(100%,0%,0%)" stroke-width="1" x1="65.0" x2="57.0" y1="20.0" y2="20.0" /><line stroke="rgb(100%,0%,0%)" stroke-width="1" x1="57.0" x2="57.0" y1="20.0" y2="17.5" /><line stroke="rgb(100%,0%,0%)" stroke-width="1" x1="57.0" x2="49.0" y1="17.5" y2="17.5" /><line stroke="rgb(100%,0%,0%)" stroke-width="1" x1="49.0" x2="49.0" y1="17.5" y2="20.0" /><line stroke="rgb(100%,0%,0%)" stroke-width="1" x1="49.0" x2="41.0" y1="20.0" y2="20.0" /><line stroke="rgb(100%,0%,0%)" stroke-width="1" x1="41.0" x2="41.0" y1="20.0" y2="17.5" /><line stroke="rgb(100%,0%,0%)" stroke-width="1" x1="41.0" x2="33.0" y1="17.5" y2="17.5" /><line stroke="rgb(100%,0%,0%)" stroke-width="1" x1="33.0" x2="33.0" y1="17.5" y2="20.0" /><line stroke="rgb(100%,0%,0%)" stroke-width="1" x1="33.0" x2="12.0" y1="20.0" y2="20.0" /></svg>