<?xml version="1.0" encoding="utf-8" ?>
<svg baseProfile="full" height="260mm" version="1.1" viewBox="0 0 300 260" width="300mm" xmlns="http://www.w3.org/2000/svg" xmlns:ev="http://www.w3.org/2001/xml-events" xmlns:xlink="http://www.w3.org/1999/xlink"><defs /><line stroke="rgb(100%,0%,0%)" stroke-width="1" x1="20.0" x2="20.0" y1="20.0" y2="139.5" /><line stroke="rgb(100%,0%,0%)" stroke-width="1" x1="20.0" x2="179.5" y1="139.5" y2="139.5" /><line stroke="rgb(100%,0%,0%)" stroke-width="1" x1="179.5" x2="179.5" y1="139.5" y2="20.0" /><line stroke="rgb(100%,0%,0%)" stroke-width="1" x1="179.5" x2="20.0" y1="20.0" y2="20.0" /><line stroke="rgb(100%,0%,0%)" stroke-width="1" x1="36.0" x2="36.0" y1="31.25" y2="43.75" /><line stroke="rgb(100%,0%,0%)" stroke-width="1" x1="36.0" x2="33.0" y1="43.75" y2="43.75" /><line stroke="rgb(100%,0%,0%)" stroke-width="1" x1="33.0" x2="33.0" y1="43.75" y2="51.75" /><line stroke="rgb(100%,0%,0%)" stroke-width="1" x1="33.0" x2="36.0" y1="51.75" y2="51.75" /><line stroke="rgb(100%,0%,0%)" stroke-width="1" x1="36.0" x2="36.0" y1="51.75" y2="59.75" /><line stroke="rgb(100%,0%,0%)" stroke-width="1" x1="36.0" x2="33.0" y1="59.75" y2="59.75" /><line stroke="rgb(100%,0%,0%)" stroke-width="1" x1="33.0" x2="33.0" y1="59.75" y2="67.75" /><line stroke="rgb(100%,0%,0%)" stroke-width="1" x1="33.0" x2="36.0" y1="67.75" y2="67.75" /><line stroke="rgb(100%,0%,0%)" stroke-width="1" x1="36.0" x2="36.0" y1="67.75" y2="75.75" /><line stroke="rgb(100%,0%,0%)" stroke-width="1" x1="36.0" x2="33.0" y1="75.75" y2="75.75" /><line stroke="rgb(100%,0%,0%)" stroke-width="1" x1="33.0" x2="33.0" y1="75.75" y2="83.75" /><line stroke="rgb(100%,0%,0%)" stroke-width="1" x1="33.0" x2="36.0" y1="83.75" y2="83.75" /><line stroke="rgb(100%,0%,0%)" stroke-width="1" x1="36.0" x2="36.0" y1="83.75" y2="91.75" /><line stroke="rgb(100%,0%,0%)" stroke-width="1" x1="36.0" x2="33.0" y1="91.75" y2="91.75" /><line stroke="rgb(100%,0%,0%)" stroke-width="1" x1="33.0" x2="33.0" y1="91.75" y2="99.75" /><line stroke="rgb(100%,0%,0%)" stroke-width="1" x1="33.0" x2="36.0" y1="99.75" y2="99.75" /><line stroke="rgb(100%,0%,0%)" stroke-width="1" x1="36.0" x2="36.0" y1="99.75" y2="107.75" /><line stroke="rgb(100%,0%,0%)" stroke-width="1" x1="36.0" x2="33.0" y1="107.75" y2="107.75" /><line stroke="rgb(100%,0%,0%)" stroke-width="1" x1="33.0" x2="33.0" y1="107.75" y2="115.75" /><line stroke="rgb(100%,0%,0%)" stroke-width="1" x1="33.0" x2="36.0" y1="115.75" y2="115.75" /><line stroke="rgb(100%,0%,0%)" stroke-width="1" x1="36.0" x2="36.0" y1="115.75" y2="128.25" /><line stroke="rgb(100%,0%,0%)" stroke-width="1" x1="36.0" x2="52.5" y1="128.25" y2="128.25" /><line stroke="rgb(100%,0%,0%)" stroke-width="1" x1="52.5" x2="52.5" y1="128.25" y2="131.25" /><line stroke="rgb(100%,0%,0%)" stroke-width="1" x1="52.5" x2="60.5" y1="131.25" y2="131.25" /><line stroke="rgb(100%,0%,0%)" stroke-width="1" x1="60.5" x2="60.5" y1="131.25" y2="128.25" /><line stroke="rgb(100%,0%,0%)" stroke-width="1" x1="60.5" x2="68.5" y1="128.25" y2="128.25" /><line stroke="rgb(100%,0%,0%)" stroke-width="1" x1="68.5" x2="68.5" y1="128.25" y2="131.25" /><line stroke="rgb(100%,0%,0%)" stroke-width="1" x1="68.5" x2="76.5" y1="131.25" y2="131.25" /><line stroke="rgb(100%,0%,0%)" stroke-width="1" x1="76.5" x2="76.5" y1="131.25" y2="128.25" /><line stroke="rgb(100%,0%,0%)" stroke-width="1" x1="76.5" x2="84.5" y1="128.25" y2="128.25" /><line stroke="rgb(100%,0%,0%)" stroke-width="1" x1="84.5" x2="84.5" y1="128.25" y2="131.25" /><line stroke="rgb(100%,0%,0%)" stroke-width="1" x1="84.5" x2="92.5" y1="131.25" y2="131.25" /><line stroke="rgb(100%,0%,0%)" stroke-width="1" x1="92.5" x2="92.5" y1="131.25" y2="128.25" /><line stroke="rgb(100%,0%,0%)" stroke-width="1" x1="92.5" x2="100.5" y1="128.25" y2="128.25" /><line stroke="rgb(100%,0%,0%)" stroke-width="1" x1="100.5" x2="100.5" y1="128.25" y2="131.25" /><line stroke="rgb(100%,0%,0%)" stroke-width="1" x1="100.5" x2="108.5" y1="131.25" y2="131.25" /><line stroke="rgb(100%,0%,0%)" stroke-width="1" x1="108.5" x2="108.5" y1="131.25" y2="128.25" /><line stroke="rgb(100%,0%,0%)" stroke-width="1" x1="108.5" x2="116.5" y1="128.25" y2="128.25" /><line stroke="rgb(100%,0%,0%)" stroke-width="1" x1="116.5" x2="116.5" y1="128.25" y2="131.25" /><line stroke="rgb(100%,0%,0%)" stroke-width="1" x1="116.5" x2="124.5" y1="131.25" y2="131.25" /><line stroke="rgb(100%,0%,0%)" stroke-width="1" x1="124.5" x2="124.5" y1="131.25" y2="128.25" /><line stroke="rgb(100%,0%,0%)" stroke-width="1" x1="124.5" x2="132.5" y1="128.25" y2="128.25" /><line stroke="rgb(100%,0%,0%)" stroke-width="1" x1="132.5" x2="132.5" y1="128.25" y2="131.25" /><line stroke="rgb(100%,0%,0%)" stroke-width="1" x1="132.5" x2="140.5" y1="131.25" y2="131.25" /><line stroke="rgb(100%,0%,0%)" stroke-width="1" x1="140.5" x2="140.5" y1="131.25" y2="128.25" /><line stroke="rgb(100%,0%,0%)" stroke-width="1" x1="140.5" x2="157.0" y1="128.25" y2="128.25" /><line stroke="rgb(100%,0%,0%)" stroke-width="1" x1="157.0" x2="157.0" y1="128.25" y2="115.75" /><line stroke="rgb(100%,0%,0%)" stroke-width="1" x1="157.0" x2="160.0" y1="115.75" y2="115.75" /><line stroke="rgb(100%,0%,0%)" stroke-width="1" x1="160.0" x2="160.0" y1="115.75" y2="107.75" /><line stroke="rgb(100%,0%,0%)" stroke-width="1" x1="160.0" x2="157.0" y1="107.75" y2="107.75" /><line stroke="rgb(100%,0%,0%)" stroke-width="1" x1="157.0" x2="157.0" y1="107.75" y2="99.75" /><line stroke="rgb(100%,0%,0%)" stroke-width="1" x1="157.0" x2="160.0" y1="99.75" y2="99.75" /><line stroke="rgb(100%,0%,0%)" stroke-width="1" x1="160.0" x2="160.0" y1="99.75" y2="91.75" /><line stroke="rgb(100%,0%,0%)" stroke-width="1" x1="160.0" x2="157.0" y1="91.75" y2="91.75" /><line stroke="rgb(100%,0%,0%)" stroke-width="1" x1="157.0" x2="157.0" y1="91.75" y2="83.75" /><line stroke="rgb(100%,0%,0%)" stroke-width="1" x1="157.0" x2="160.0" y1="83.75" y2="83.75" /><line stroke="rgb(100%,0%,0%)" stroke-width="1" x1="160.0" x2="160.0" y1="83.75" y2="75.75" /><line stroke="rgb(100%,0%,0%)" stroke-width="1" x1="160.0" x2="157.0" y1="75.75" y2="75.75" /><line stroke="rgb(100%,0%,0%)" stroke-width="1" x1="157.0" x2="157.0" y1="75.75" y2="67.75" /><line stroke="rgb(100%,0%,0%)" stroke-width="1" x1="157.0" x2="160.0" y1="67.75" y2="67.75" /><line stroke="rgb(100%,0%,0%)" stroke-width="1" x1="160.0" x2="160.0" y1="67.75" y2="59.75" /><line stroke="rgb(100%,0%,0%)" stroke-width="1" x1="160.0" x2="157.0" y1="59.75" y2="59.75" /><line stroke="rgb(100%,0%,0%)" stroke-width="1" x1="157.0" x2="157.0" y1="59.75" y2="51.75" /><line stroke="rgb(100%,0%,0%)" stroke-width="1" x1="157.0" x2="160.0" y1="51.75" y2="51.75" /><line stroke="rgb(100%,0%,0%)" stroke-width="1" x1="160.0" x2="160.0" y1="51.75" y2="43.75" /><line stroke="rgb(100%,0%,0%)" stroke-width="1" x1="160.0" x2="157.0" y1="43.75" y2="43.75" /><line stroke="rgb(100%,0%,0%)" stroke-width="1" x1="157.0" x2="157.0" y1="43.75" y2="31.25" /><line stroke="rgb(100%,0%,0%)" stroke-width="1" x1="157.0" x2="140.5" y1="31.25" y2="31.25" /><line stroke="rgb(100%,0%,0%)" stroke-width="1" x1="140.5" x2="140.5" y1="31.25" y2="28.25" /><line stroke="rgb(100%,0%,0%)" stroke-width="1" x1="140.5" x2="132.5" y1="28.25" y2="28.25" /><line stroke="rgb(100%,0%,0%)" stroke-width="1" x1="132.5" x2="132.5" y1="28.25" y2="31.25" /><line stroke="rgb(100%,0%,0%)" stroke-width="1" x1="132.5" x2="124.5" y1="31.25" y2="31.25" /><line stroke="rgb(100%,0%,0%)" stroke-width="1" x1="124.5" x2="124.5" y1="31.25" y2="28.25" /><line stroke="rgb(100%,0%,0%)" stroke-width="1" x1="124.5" x2="116.5" y1="28.25" y2="28.25" /><line stroke="rgb(100%,0%,0%)" stroke-width="1" x1="116.5" x2="116.5" y1="28.25" y2="31.25" /><line stroke="rgb(100%,0%,0%)" stroke-width="1" x1="116.5" x2="108.5" y1="31.25" y2="31.25" /><line stroke="rgb(100%,0%,0%)" stroke-width="1" x1="108.5" x2="108.5" y1="31.25" y2="28.25" /><line stroke="rgb(100%,0%,0%)" stroke-width="1" x1="108.5" x2="100.5" y1="28.25" y2="28.25" /><line stroke="rgb(100%,0%,0%)" stroke-width="1" x1="100.5" x2="100.5" y1="28.25" y2="31.25" /><line stroke="rgb(100%,0%,0%)" stroke-width="1" x1="100.5" x2="92.5" y1="31.25" y2="31.25" /><line stroke="rgb(100%,0%,0%)" stroke-width="1" x1="92.5" x2="92.5" y1="31.25" y2="28.25" /><line stroke="rgb(100%,0%,0%)" stroke-width="1" x1="92.5" x2="84.5" y1="28.25" y2="28.25" /><line stroke="rgb(100%,0%,0%)" stroke-width="1" x1="84.5" x2="84.5" y1="28.25" y2="31.25" /><line stroke="rgb(100%,0%,0%)" stroke-width="1" x1="84.5" x2="76.5" y1="31.25" y2="31.25" /><line stroke="rgb(100%,0%,0%)" stroke-width="1" x1="76.5" x2="76.5" y1="31.25" y2="28.25" /><line stroke="rgb(100%,0%,0%)" stroke-width="1" x1="76.5" x2="68.5" y1="28.25" y2="28.25" /><line stroke="rgb(100%,0%,0%)" stroke-width="1" x1="68.5" x2="68.5" y1="28.25" y2="31.25" /><line stroke="rgb(100%,0%,0%)" stroke-width="1" x1="68.5" x2="60.5" y1="31.25" y2="31.25" /><line stroke="rgb(100%,0%,0%)" stroke-width="1" x1="60.5" x2="60.5" y1="31.25" y2="28.25" /><line stroke="rgb(100%,0%,0%)" stroke-width="1" x1="60.5" x2="52.5" y1="28.25" y2="28.25" /><line stroke="rgb(100%,0%,0%)" stroke-width="1" x1="52.5" x2="52.5" y1="28.25" y2="31.25" /><line stroke="rgb(100%,0%,0%)" stroke-width="1" x1="52.5" x2="36.0" y1="31.25" y2="31.25" /></svg>