<?xml version="1.0" encoding="utf-8" ?>
<svg baseProfile="full" height="260mm" version="1.1" viewBox="0 0 300 260" width="300mm" xmlns="http://www.w3.org/2000/svg" xmlns:ev="http://www.w3.org/2001/xml-events" xmlns:xlink="http://www.w3.org/1999/xlink"><defs /><line stroke="rgb(100%,0%,0%)" stroke-width="1" x1="20.0" x2="20.0" y1="20.0" y2="35.125" /><line stroke="rgb(100%,0%,0%)" stroke-width="1" x1="20.0" x2="17.0" y1="35.125" y2="35.125" /><line stroke="rgb(100%,0%,0%)" stroke-width="1" x1="17.0" x2="17.0" y1="35.125" y2="43.125" /><line stroke="rgb(100%,0%,0%)" stroke-width="1" x1="17.0" x2="20.0" y1="43.125" y2="43.125" /><line stroke="rgb(100%,0%,0%)" stroke-width="1" x1="20.0" x2="20.0" y1="43.125" y2="51.125" /><line stroke="rgb(100%,0%,0%)" stroke-width="1" x1="20.0" x2="17.0" y1="51.125" y2="51.125" /><line stroke="rgb(100%,0%,0%)" stroke-width="1" x1="17.0" x2="17.0" y1="51.125" y2="59.125" /><line stroke="rgb(100%,0%,0%)" stroke-width="1" x1="17.0" x2="20.0" y1="59.125" y2="59.125" /><line stroke="rgb(100%,0%,0%)" stroke-width="1" x1="20.0" x2="20.0" y1="59.125" y2="67.125" /><line stroke="rgb(100%,0%,0%)" stroke-width="1" x1="20.0" x2="17.0" y1="67.125" y2="67.125" /><line stroke="rgb(100%,0%,0%)" stroke-width="1" x1="17.0" x2="17.0" y1="67.125" y2="75.125" /><line stroke="rgb(100%,0%,0%)" stroke-width="1" x1="17.0" x2="20.0" y1="75.125" y2="75.125" /><line stroke="rgb(100%,0%,0%)" stroke-width="1" x1="20.0" x2="20.0" y1="75.125" y2="83.125" /><line stroke="rgb(100%,0%,0%)" stroke-width="1" x1="20.0" x2="17.0" y1="83.125" y2="83.125" /><line stroke="rgb(100%,0%,0%)" stroke-width="1" x1="17.0" x2="17.0" y1="83.125" y2="91.125" /><line stroke="rgb(100%,0%,0%)" stroke-width="1" x1="17.0" x2="20.0" y1="91.125" y2="91.125" /><line stroke="rgb(100%,0%,0%)" stroke-width="1" x1="20.0" x2="20.0" y1="91.125" y2="99.125" /><line stroke="rgb(100%,0%,0%)" stroke-width="1" x1="20.0" x2="17.0" y1="99.125" y2="99.125" /><line stroke="rgb(100%,0%,0%)" stroke-width="1" x1="17.0" x2="17.0" y1="99.125" y2="107.125" /><line stroke="rgb(100%,0%,0%)" stroke-width="1" x1="17.0" x2="20.0" y1="107.125" y2="107.125" /><line stroke="rgb(100%,0%,0%)" stroke-width="1" x1="20.0" x2="20.0" y1="107.125" y2="115.125" /><line stroke="rgb(100%,0%,0%)" stroke-width="1" x1="20.0" x2="17.0" y1="115.125" y2="115.125" /><line stroke="rgb(100%,0%,0%)" stroke-width="1" x1="17.0" x2="17.0" y1="115.125" y2="123.125" /><line stroke="rgb(100%,0%,0%)" stroke-width="1" x1="17.0" x2="20.0" y1="123.125" y2="123.125" /><line stroke="rgb(100%,0%,0%)" stroke-width="1" x1="20.0" x2="20.0" y1="123.125" y2="131.125" /><line stroke="rgb(100%,0%,0%)" stroke-width="1" x1="20.0" x2="17.0" y1="131.125" y2="131.125" /><line stroke="rgb(100%,0%,0%)" stroke-width="1" x1="17.0" x2="17.0" y1="131.125" y2="139.125" /><line stroke="rgb(100%,0%,0%)" stroke-width="1" x1="17.0" x2="20.0" y1="139.125" y2="139.125" /><line stroke="rgb(100%,0%,0%)" stroke-width="1" x1="20.0" x2="20.0" y1="139.125" y2="147.125" /><line stroke="rgb(100%,0%,0%)" stroke-width="1" x1="20.0" x2="17.0" y1="147.125" y2="147.125" /><line stroke="rgb(100%,0%,0%)" stroke-width="1" x1="17.0" x2="17.0" y1="147.125" y2="155.125" /><line stroke="rgb(100%,0%,0%)" stroke-width="1" x1="17.0" x2="20.0" y1="155.125" y2="155.125" /><line stroke="rgb(100%,0%,0%)" stroke-width="1" x1="20.0" x2="20.0" y1="155.125" y2="170.25" /><line stroke="rgb(100%,0%,0%)" stroke-width="1" x1="20.0" x2="35.0" y1="170.25" y2="170.25" /><line stroke="rgb(100%,0%,0%)" stroke-width="1" x1="35.0" x2="35.0" y1="170.25" y2="173.25" /><line stroke="rgb(100%,0%,0%)" stroke-width="1" x1="35.0" x2="43.0" y1="173.25" y2="173.25" /><line stroke="rgb(100%,0%,0%)" stroke-width="1" x1="43.0" x2="43.0" y1="173.25" y2="170.25" /><line stroke="rgb(100%,0%,0%)" stroke-width="1" x1="43.0" x2="51.0" y1="170.25" y2="170.25" /><line stroke="rgb(100%,0%,0%)" stroke-width="1" x1="51.0" x2="51.0" y1="170.25" y2="173.25" /><line stroke="rgb(100%,0%,0%)" stroke-width="1" x1="51.0" x2="59.0" y1="173.25" y2="173.25" /><line stroke="rgb(100%,0%,0%)" stroke-width="1" x1="59.0" x2="59.0" y1="173.25" y2="170.25" /><line stroke="rgb(100%,0%,0%)" stroke-width="1" x1="59.0" x2="67.0" y1="170.25" y2="170.25" /><line stroke="rgb(100%,0%,0%)" stroke-width="1" x1="67.0" x2="67.0" y1="170.25" y2="173.25" /><line stroke="rgb(100%,0%,0%)" stroke-width="1" x1="67.0" x2="75.0" y1="173.25" y2="173.25" /><line stroke="rgb(100%,0%,0%)" stroke-width="1" x1="75.0" x2="75.0" y1="173.25" y2="170.25" /><line stroke="rgb(100%,0%,0%)" stroke-width="1" x1="75.0" x2="83.0" y1="170.25" y2="170.25" /><line stroke="rgb(100%,0%,0%)" stroke-width="1" x1="83.0" x2="83.0" y1="170.25" y2="173.25" /><line stroke="rgb(100%,0%,0%)" stroke-width="1" x1="83.0" x2="91.0" y1="173.25" y2="173.25" /><line stroke="rgb(100%,0%,0%)" stroke-width="1" x1="91.0" x2="91.0" y1="173.25" y2="170.25" /><line stroke="rgb(100%,0%,0%)" stroke-width="1" x1="91.0" x2="99.0" y1="170.25" y2="170.25" /><line stroke="rgb(100%,0%,0%)" stroke-width="1" x1="99.0" x2="99.0" y1="170.25" y2="173.25" /><line stroke="rgb(100%,0%,0%)" stroke-width="1" x1="99.0" x2="107.0" y1="173.25" y2="173.25" /><line stroke="rgb(100%,0%,0%)" stroke-width="1" x1="107.0" x2="107.0" y1="173.25" y2="170.25" /><line stroke="rgb(100%,0%,0%)" stroke-width="1" x1="107.0" x2="115.0" y1="170.25" y2="170.25" /><line stroke="rgb(100%,0%,0%)" stroke-width="1" x1="115.0" x2="115.0" y1="170.25" y2="173.25" /><line stroke="rgb(100%,0%,0%)" stroke-width="1" x1="115.0" x2="123.0" y1="173.25" y2="173.25" /><line stroke="rgb(100%,0%,0%)" stroke-width="1" x1="123.0" x2="123.0" y1="173.25" y2="170.25" /><line stroke="rgb(100%,0%,0%)" stroke-width="1" x1="123.0" x2="131.0" y1="170.25" y2="170.25" /><line stroke="rgb(100%,0%,0%)" stroke-width="1" x1="131.0" x2="131.0" y1="170.25" y2="173.25" /><line stroke="rgb(100%,0%,0%)" stroke-width="1" x1="131.0" x2="139.0" y1="173.25" y2="173.25" /><line stroke="rgb(100%,0%,0%)" stroke-width="1" x1="139.0" x2="139.0" y1="173.25" y2="170.25" /><line stroke="rgb(100%,0%,0%)" stroke-width="1" x1="139.0" x2="147.0" y1="170.25" y2="170.25" /><line stroke="rgb(100%,0%,0%)" stroke-width="1" x1="147.0" x2="147.0" y1="170.25" y2="173.25" /><line stroke="rgb(100%,0%,0%)" stroke-width="1" x1="147.0" x2="155.0" y1="173.25" y2="173.25" /><line stroke="rgb(100%,0%,0%)" stroke-width="1" x1="155.0" x2="155.0" y1="173.25" y2="170.25" /><line stroke="rgb(100%,0%,0%)" stroke-width="1" x1="155.0" x2="163.0" y1="170.25" y2="170.25" /><line stroke="rgb(100%,0%,0%)" stroke-width="1" x1="163.0" x2="163.0" y1="170.25" y2="173.25" /><line stroke="rgb(100%,0%,0%)" stroke-width="1" x1="163.0" x2="171.0" y1="173.25" y2="173.25" /><line stroke="rgb(100%,0%,0%)" stroke-width="1" x1="171.0" x2="171.0" y1="173.25" y2="170.25" /><line stroke="rgb(100%,0%,0%)" stroke-width="1" x1="171.0" x2="179.0" y1="170.25" y2="170.25" /><line stroke="rgb(100%,0%,0%)" stroke-width="1" x1="179.0" x2="179.0" y1="170.25" y2="173.25" /><line stroke="rgb(100%,0%,0%)" stroke-width="1" x1="179.0" x2="187.0" y1="173.25" y2="173.25" /><line stroke="rgb(100%,0%,0%)" stroke-width="1" x1="187.0" x2="187.0" y1="173.25" y2="170.25" /><line stroke="rgb(100%,0%,0%)" stroke-width="1" x1="187.0" x2="195.0" y1="170.25" y2="170.25" /><line stroke="rgb(100%,0%,0%)" stroke-width="1" x1="195.0" x2="195.0" y1="170.25" y2="173.25" /><line stroke="rgb(100%,0%,0%)" stroke-width="1" x1="195.0" x2="203.0" y1="173.25" y2="173.25" /><line stroke="rgb(100%,0%,0%)" stroke-width="1" x1="203.0" x2="203.0" y1="173.25" y2="170.25" /><line stroke="rgb(100%,0%,0%)" stroke-width="1" x1="203.0" x2="211.0" y1="170.25" y2="170.25" /><line stroke="rgb(100%,0%,0%)" stroke-width="1" x1="211.0" x2="211.0" y1="170.25" y2="173.25" /><line stroke="rgb(100%,0%,0%)" stroke-width="1" x1="211.0" x2="219.0" y1="173.25" y2="173.25" /><line stroke="rgb(100%,0%,0%)" stroke-width="1" x1="219.0" x2="219.0" y1="173.25" y2="170.25" /><line stroke="rgb(100%,0%,0%)" stroke-width="1" x1="219.0" x2="234.0" y1="170.25" y2="170.25" /><line stroke="rgb(100%,0%,0%)" stroke-width="1" x1="234.0" x2="234.0" y1="170.25" y2="20.0" /><line stroke="rgb(100%,0%,0%)" stroke-width="1" x1="234.0" x2="219.0" y1="20.0" y2="20.0" /><line stroke="rgb(100%,0%,0%)" stroke-width="1" x1="219.0" x2="219.0" y1="20.0" y2="17.0" /><line stroke="rgb(100%,0%,0%)" stroke-width="1" x1="219.0" x2="211.0" y1="17.0" y2="17.0" /><line stroke="rgb(100%,0%,0%)" stroke-width="1" x1="211.0" x2="211.0" y1="17.0" y2="20.0" /><line stroke="rgb(100%,0%,0%)" stroke-width="1" x1="211.0" x2="203.0" y1="20.0" y2="20.0" /><line stroke="rgb(100%,0%,0%)" stroke-width="1" x1="203.0" x2="203.0" y1="20.0" y2="17.0" /><line stroke="rgb(100%,0%,0%)" stroke-width="1" x1="203.0" x2="195.0" y1="17.0" y2="17.0" /><line stroke="rgb(100%,0%,0%)" stroke-width="1" x1="195.0" x2="195.0" y1="17.0" y2="20.0" /><line stroke="rgb(100%,0%,0%)" stroke-width="1" x1="195.0" x2="187.0" y1="20.0" y2="20.0" /><line stroke="rgb(100%,0%,0%)" stroke-width="1" x1="187.0" x2="187.0" y1="20.0" y2="17.0" /><line stroke="rgb(100%,0%,0%)" stroke-width="1" x1="187.0" x2="179.0" y1="17.0" y2="17.0" /><line stroke="rgb(100%,0%,0%)" stroke-width="1" x1="179.0" x2="179.0" y1="17.0" y2="20.0" /><line stroke="rgb(100%,0%,0%)" stroke-width="1" x1="179.0" x2="171.0" y1="20.0" y2="20.0" /><line stroke="rgb(100%,0%,0%)" stroke-width="1" x1="171.0" x2="171.0" y1="20.0" y2="17.0" /><line stroke="rgb(100%,0%,0%)" stroke-width="1" x1="171.0" x2="163.0" y1="17.0" y2="17.0" /><line stroke="rgb(100%,0%,0%)" stroke-width="1" x1="163.0" x2="163.0" y1="17.0" y2="20.0" /><line stroke="rgb(100%,0%,0%)" stroke-width="1" x1="163.0" x2="155.0" y1="20.0" y2="20.0" /><line stroke="rgb(100%,0%,0%)" stroke-width="1" x1="155.0" x2="155.0" y1="20.0" y2="17.0" /><line stroke="rgb(100%,0%,0%)" stroke-width="1" x1="155.0" x2="147.0" y1="17.0" y2="17.0" /><line stroke="rgb(100%,0%,0%)" stroke-width="1" x1="147.0" x2="147.0" y1="17.0" y2="20.0" /><line stroke="rgb(100%,0%,0%)" stroke-width="1" x1="147.0" x2="139.0" y1="20.0" y2="20.0" /><line stroke="rgb(100%,0%,0%)" stroke-width="1" x1="139.0" x2="139.0" y1="20.0" y2="17.0" /><line stroke="rgb(100%,0%,0%)" stroke-width="1" x1="139.0" x2="131.0" y1="17.0" y2="17.0" /><line stroke="rgb(100%,0%,0%)" stroke-width="1" x1="131.0" x2="131.0" y1="17.0" y2="20.0" /><line stroke="rgb(100%,0%,0%)" stroke-width="1" x1="131.0" x2="123.0" y1="20.0" y2="20.0" /><line stroke="rgb(100%,0%,0%)" stroke-width="1" x1="123.0" x2="123.0" y1="20.0" y2="17.0" /><line stroke="rgb(100%,0%,0%)" stroke-width="1" x1="123.0" x2="115.0" y1="17.0" y2="17.0" /><line stroke="rgb(100%,0%,0%)" stroke-width="1" x1="115.0" x2="115.0" y1="17.0" y2="20.0" /><line stroke="rgb(100%,0%,0%)" stroke-width="1" x1="115.0" x2="107.0" y1="20.0" y2="20.0" /><line stroke="rgb(100%,0%,0%)" stroke-width="1" x1="107.0" x2="107.0" y1="20.0" y2="17.0" /><line stroke="rgb(100%,0%,0%)" stroke-width="1" x1="107.0" x2="99.0" y1="17.0" y2="17.0" /><line stroke="rgb(100%,0%,0%)" stroke-width="1" x1="99.0" x2="99.0" y1="17.0" y2="20.0" /><line stroke="rgb(100%,0%,0%)" stroke-width="1" x1="99.0" x2="91.0" y1="20.0" y2="20.0" /><line stroke="rgb(100%,0%,0%)" stroke-width="1" x1="91.0" x2="91.0" y1="20.0" y2="17.0" /><line stroke="rgb(100%,0%,0%)" stroke-width="1" x1="91.0" x2="83.0" y1="17.0" y2="17.0" /><line stroke="rgb(100%,0%,0%)" stroke-width="1" x1="83.0" x2="83.0" y1="17.0" y2="20.0" /><line stroke="rgb(100%,0%,0%)" stroke-width="1" x1="83.0" x2="75.0" y1="20.0" y2="20.0" /><line stroke="rgb(100%,0%,0%)" stroke-width="1" x1="75.0" x2="75.0" y1="20.0" y2="17.0" /><line stroke="rgb(100%,0%,0%)" stroke-width="1" x1="75.0" x2="67.0" y1="17.0" y2="17.0" /><line stroke="rgb(100%,0%,0%)" stroke-width="1" x1="67.0" x2="67.0" y1="17.0" y2="20.0" /><line stroke="rgb(100%,0%,0%)" stroke-width="1" x1="67.0" x2="59.0" y1="20.0" y2="20.0" /><line stroke="rgb(100%,0%,0%)" stroke-width="1" x1="59.0" x2="59.0" y1="20.0" y2="17.0" /><line stroke="rgb(100%,0%,0%)" stroke-width="1" x1="59.0" x2="51.0" y1="17.0" y2="17.0" /><line stroke="rgb(100%,0%,0%)" stroke-width="1" x1="51.0" x2="51.0" y1="17.0" y2="20.0" /><line stroke="rgb(100%,0%,0%)" stroke-width="1" x1="51.0" x2="43.0" y1="20.0" y2="20.0" /><line stroke="rgb(100%,0%,0%)" stroke-width="1" x1="43.0" x2="43.0" y1="20.0" y2="17.0" /><line stroke="rgb(100%,0%,0%)" stroke-width="1" x1="43.0" x2="35.0" y1="17.0" y2="17.0" /><line stroke="rgb(100%,0%,0%)" stroke-width="1" x1="35.0" x2="35.0" y1="17.0" y2="20.0" /><line stroke="rgb(100%,0%,0%)" stroke-width="1" x1="35.0" x2="20.0" y1="20.0" y2="20.0" /><line stroke="rgb(100%,0%,0%)" stroke-width="1" x1="37.5" x2="37.5" y1="33.125" y2="51.125" /><line stroke="rgb(100%,0%,0%)" stroke-width="1" x1="37.5" x2="34.5" y1="51.125" y2="51.125" /><line stroke="rgb(100%,0%,0%)" stroke-width="1" x1="34.5" x2="34.5" y1="51.125" y2="59.125" /><line stroke="rgb(100%,0%,0%)" stroke-width="1" x1="34.5" x2="37.5" y1="59.125" y2="59.125" /><line stroke="rgb(100%,0%,0%)" stroke-width="1" x1="37.5" x2="37.5" y1="59.125" y2="67.125" /><line stroke="rgb(100%,0%,0%)" stroke-width="1" x1="37.5" x2="34.5" y1="67.125" y2="67.125" /><line stroke="rgb(100%,0%,0%)" stroke-width="1" x1="34.5" x2="34.5" y1="67.125" y2="75.125" /><line stroke="rgb(100%,0%,0%)" stroke-width="1" x1="34.5" x2="37.5" y1="75.125" y2="75.125" /><line stroke="rgb(100%,0%,0%)" stroke-width="1" x1="37.5" x2="37.5" y1="75.125" y2="83.125" /><line stroke="rgb(100%,0%,0%)" stroke-width="1" x1="37.5" x2="34.5" y1="83.125" y2="83.125" /><line stroke="rgb(100%,0%,0%)" stroke-width="1" x1="34.5" x2="34.5" y1="83.125" y2="91.125" /><line stroke="rgb(100%,0%,0%)" stroke-width="1" x1="34.5" x2="37.5" y1="91.125" y2="91.125" /><line stroke="rgb(100%,0%,0%)" stroke-width="1" x1="37.5" x2="37.5" y1="91.125" y2="99.125" /><line stroke="rgb(100%,0%,0%)" stroke-width="1" x1="37.5" x2="34.5" y1="99.125" y2="99.125" /><line stroke="rgb(100%,0%,0%)" stroke-width="1" x1="34.5" x2="34.5" y1="99.125" y2="107.125" /><line stroke="rgb(100%,0%,0%)" stroke-width="1" x1="34.5" x2="37.5" y1="107.125" y2="107.125" /><line stroke="rgb(100%,0%,0%)" stroke-width="1" x1="37.5" x2="37.5" y1="107.125" y2="115.125" /><line stroke="rgb(100%,0%,0%)" stroke-width="1" x1="37.5" x2="34.5" y1="115.125" y2="115.125" /><line stroke="rgb(100%,0%,0%)" stroke-width="1" x1="34.5" x2="34.5" y1="115.125" y2="123.125" /><line stroke="rgb(100%,0%,0%)" stroke-width="1" x1="34.5" x2="37.5" y1="123.125" y2="123.125" /><line stroke="rgb(100%,0%,0%)" stroke-width="1" x1="37.5" x2="37.5" y1="123.125" y2="131.125" /><line stroke="rgb(100%,0%,0%)" stroke-width="1" x1="37.5" x2="34.5" y1="131.125" y2="131.125" /><line stroke="rgb(100%,0%,0%)" stroke-width="1" x1="34.5" x2="34.5" y1="131.125" y2="139.125" /><line stroke="rgb(100%,0%,0%)" stroke-width="1" x1="34.5" x2="37.5" y1="139.125" y2="139.125" /><line stroke="rgb(100%,0%,0%)" stroke-width="1" x1="37.5" x2="37.5" y1="139.125" y2="157.125" /><line stroke="rgb(100%,0%,0%)" stroke-width="1" x1="37.5" x2="54.875" y1="157.125" y2="157.125" /><line stroke="rgb(100%,0%,0%)" stroke-width="1" x1="54.875" x2="54.875" y1="157.125" y2="160.125" /><line stroke="rgb(100%,0%,0%)" stroke-width="1" x1="54.875" x2="62.875" y1="160.125" y2="160.125" /><line stroke="rgb(100%,0%,0%)" stroke-width="1" x1="62.875" x2="62.875" y1="160.125" y2="157.125" /><line stroke="rgb(100%,0%,0%)" stroke-width="1" x1="62.875" x2="70.875" y1="157.125" y2="157.125" /><line stroke="rgb(100%,0%,0%)" stroke-width="1" x1="70.875" x2="70.875" y1="157.125" y2="160.125" /><line stroke="rgb(100%,0%,0%)" stroke-width="1" x1="70.875" x2="78.875" y1="160.125" y2="160.125" /><line stroke="rgb(100%,0%,0%)" stroke-width="1" x1="78.875" x2="78.875" y1="160.125" y2="157.125" /><line stroke="rgb(100%,0%,0%)" stroke-width="1" x1="78.875" x2="86.875" y1="157.125" y2="157.125" /><line stroke="rgb(100%,0%,0%)" stroke-width="1" x1="86.875" x2="86.875" y1="157.125" y2="160.125" /><line stroke="rgb(100%,0%,0%)" stroke-width="1" x1="86.875" x2="94.875" y1="160.125" y2="160.125" /><line stroke="rgb(100%,0%,0%)" stroke-width="1" x1="94.875" x2="94.875" y1="160.125" y2="157.125" /><line stroke="rgb(100%,0%,0%)" stroke-width="1" x1="94.875" x2="102.875" y1="157.125" y2="157.125" /><line stroke="rgb(100%,0%,0%)" stroke-width="1" x1="102.875" x2="102.875" y1="157.125" y2="160.125" /><line stroke="rgb(100%,0%,0%)" stroke-width="1" x1="102.875" x2="110.875" y1="160.125" y2="160.125" /><line stroke="rgb(100%,0%,0%)" stroke-width="1" x1="110.875" x2="110.875" y1="160.125" y2="157.125" /><line stroke="rgb(100%,0%,0%)" stroke-width="1" x1="110.875" x2="118.875" y1="157.125" y2="157.125" /><line stroke="rgb(100%,0%,0%)" stroke-width="1" x1="118.875" x2="118.875" y1="157.125" y2="160.125" /><line stroke="rgb(100%,0%,0%)" stroke-width="1" x1="118.875" x2="126.875" y1="160.125" y2="160.125" /><line stroke="rgb(100%,0%,0%)" stroke-width="1" x1="126.875" x2="126.875" y1="160.125" y2="157.125" /><line stroke="rgb(100%,0%,0%)" stroke-width="1" x1="126.875" x2="134.875" y1="157.125" y2="157.125" /><line stroke="rgb(100%,0%,0%)" stroke-width="1" x1="134.875" x2="134.875" y1="157.125" y2="160.125" /><line stroke="rgb(100%,0%,0%)" stroke-width="1" x1="134.875" x2="142.875" y1="160.125" y2="160.125" /><line stroke="rgb(100%,0%,0%)" stroke-width="1" x1="142.875" x2="142.875" y1="160.125" y2="157.125" /><line stroke="rgb(100%,0%,0%)" stroke-width="1" x1="142.875" x2="150.875" y1="157.125" y2="157.125" /><line stroke="rgb(100%,0%,0%)" stroke-width="1" x1="150.875" x2="150.875" y1="157.125" y2="160.125" /><line stroke="rgb(100%,0%,0%)" stroke-width="1" x1="150.875" x2="158.875" y1="160.125" y2="160.125" /><line stroke="rgb(100%,0%,0%)" stroke-width="1" x1="158.875" x2="158.875" y1="160.125" y2="157.125" /><line stroke="rgb(100%,0%,0%)" stroke-width="1" x1="158.875" x2="166.875" y1="157.125" y2="157.125" /><line stroke="rgb(100%,0%,0%)" stroke-width="1" x1="166.875" x2="166.875" y1="157.125" y2="160.125" /><line stroke="rgb(100%,0%,0%)" stroke-width="1" x1="166.875" x2="174.875" y1="160.125" y2="160.125" /><line stroke="rgb(100%,0%,0%)" stroke-width="1" x1="174.875" x2="174.875" y1="160.125" y2="157.125" /><line stroke="rgb(100%,0%,0%)" stroke-width="1" x1="174.875" x2="182.875" y1="157.125" y2="157.125" /><line stroke="rgb(100%,0%,0%)" stroke-width="1" x1="182.875" x2="182.875" y1="157.125" y2="160.125" /><line stroke="rgb(100%,0%,0%)" stroke-width="1" x1="182.875" x2="190.875" y1="160.125" y2="160.125" /><line stroke="rgb(100%,0%,0%)" stroke-width="1" x1="190.875" x2="190.875" y1="160.125" y2="157.125" /><line stroke="rgb(100%,0%,0%)" stroke-width="1" x1="190.875" x2="208.25" y1="157.125" y2="157.125" /><line stroke="rgb(100%,0%,0%)" stroke-width="1" x1="208.25" x2="208.25" y1="157.125" y2="139.125" /><line stroke="rgb(100%,0%,0%)" stroke-width="1" x1="208.25" x2="211.25" y1="139.125" y2="139.125" /><line stroke="rgb(100%,0%,0%)" stroke-width="1" x1="211.25" x2="211.25" y1="139.125" y2="131.125" /><line stroke="rgb(100%,0%,0%)" stroke-width="1" x1="211.25" x2="208.25" y1="131.125" y2="131.125" /><line stroke="rgb(100%,0%,0%)" stroke-width="1" x1="208.25" x2="208.25" y1="131.125" y2="123.125" /><line stroke="rgb(100%,0%,0%)" stroke-width="1" x1="208.25" x2="211.25" y1="123.125" y2="123.125" /><line stroke="rgb(100%,0%,0%)" stroke-width="1" x1="211.25" x2="211.25" y1="123.125" y2="115.125" /><line stroke="rgb(100%,0%,0%)" stroke-width="1" x1="211.25" x2="208.25" y1="115.125" y2="115.125" /><line stroke="rgb(100%,0%,0%)" stroke-width="1" x1="208.25" x2="208.25" y1="115.125" y2="107.125" /><line stroke="rgb(100%,0%,0%)" stroke-width="1" x1="208.25" x2="211.25" y1="107.125" y2="107.125" /><line stroke="rgb(100%,0%,0%)" stroke-width="1" x1="211.25" x2="211.25" y1="107.125" y2="99.125" /><line stroke="rgb(100%,0%,0%)" stroke-width="1" x1="211.25" x2="208.25" y1="99.125" y2="99.125" /><line stroke="rgb(100%,0%,0%)" stroke-width="1" x1="208.25" x2="208.25" y1="99.125" y2="91.125" /><line stroke="rgb(100%,0%,0%)" stroke-width="1" x1="208.25" x2="211.25" y1="91.125" y2="91.125" /><line stroke="rgb(100%,0%,0%)" stroke-width="1" x1="211.25" x2="211.25" y1="91.125" y2="83.125" /><line stroke="rgb(100%,0%,0%)" stroke-width="1" x1="211.25" x2="208.25" y1="83.125" y2="83.125" /><line stroke="rgb(100%,0%,0%)" stroke-width="1" x1="208.25" x2="208.25" y1="83.125" y2="75.125" /><line stroke="rgb(100%,0%,0%)" stroke-width="1" x1="208.25" x2="211.25" y1="75.125" y2="75.125" /><line stroke="rgb(100%,0%,0%)" stroke-width="1" x1="211.25" x2="211.25" y1="75.125" y2="67.125" /><line stroke="rgb(100%,0%,0%)" stroke-width="1" x1="211.25" x2="208.25" y1="67.125" y2="67.125" /><line stroke="rgb(100%,0%,0%)" stroke-width="1" x1="208.25" x2="208.25" y1="67.125" y2="59.125" /><line stroke="rgb(100%,0%,0%)" stroke-width="1" x1="208.25" x2="211.25" y1="59.125" y2="59.125" /><line stroke="rgb(100%,0%,0%)" stroke-width="1" x1="211.25" x2="211.25" y1="59.125" y2="51.125" /><line stroke="rgb(100%,0%,0%)" stroke-width="1" x1="211.25" x2="208.25" y1="51.125" y2="51.125" /><line stroke="rgb(100%,0%,0%)" stroke-width="1" x1="208.25" x2="208.25" y1="51.125" y2="33.125" /><line stroke="rgb(100%,0%,0%)" stroke-width="1" x1="208.25" x2="190.875" y1="33.125" y2="33.125" /><line stroke="rgb(100%,0%,0%)" stroke-width="1" x1="190.875" x2="190.875" y1="33.125" y2="30.125" /><line stroke="rgb(100%,0%,0%)" stroke-width="1" x1="190.875" x2="182.875" y1="30.125" y2="30.125" /><line stroke="rgb(100%,0%,0%)" stroke-width="1" x1="182.875" x2="182.875" y1="30.125" y2="33.125" /><line stroke="rgb(100%,0%,0%)" stroke-width="1" x1="182.875" x2="174.875" y1="33.125" y2="33.125" /><line stroke="rgb(100%,0%,0%)" stroke-width="1" x1="174.875" x2="174.875" y1="33.125" y2="30.125" /><line stroke="rgb(100%,0%,0%)" stroke-width="1" x1="174.875" x2="166.875" y1="30.125" y2="30.125" /><line stroke="rgb(100%,0%,0%)" stroke-width="1" x1="166.875" x2="166.875" y1="30.125" y2="33.125" /><line stroke="rgb(100%,0%,0%)" stroke-width="1" x1="166.875" x2="158.875" y1="33.125" y2="33.125" /><line stroke="rgb(100%,0%,0%)" stroke-width="1" x1="158.875" x2="158.875" y1="33.125" y2="30.125" /><line stroke="rgb(100%,0%,0%)" stroke-width="1" x1="158.875" x2="150.875" y1="30.125" y2="30.125" /><line stroke="rgb(100%,0%,0%)" stroke-width="1" x1="150.875" x2="150.875" y1="30.125" y2="33.125" /><line stroke="rgb(100%,0%,0%)" stroke-width="1" x1="150.875" x2="142.875" y1="33.125" y2="33.125" /><line stroke="rgb(100%,0%,0%)" stroke-width="1" x1="142.875" x2="142.875" y1="33.125" y2="30.125" /><line stroke="rgb(100%,0%,0%)" stroke-width="1" x1="142.875" x2="134.875" y1="30.125" y2="30.125" /><line stroke="rgb(100%,0%,0%)" stroke-width="1" x1="134.875" x2="134.875" y1="30.125" y2="33.125" /><line stroke="rgb(100%,0%,0%)" stroke-width="1" x1="134.875" x2="126.875" y1="33.125" y2="33.125" /><line stroke="rgb(100%,0%,0%)" stroke-width="1" x1="126.875" x2="126.875" y1="33.125" y2="30.125" /><line stroke="rgb(100%,0%,0%)" stroke-width="1" x1="126.875" x2="118.875" y1="30.125" y2="30.125" /><line stroke="rgb(100%,0%,0%)" stroke-width="1" x1="118.875" x2="118.875" y1="30.125" y2="33.125" /><line stroke="rgb(100%,0%,0%)" stroke-width="1" x1="118.875" x2="110.875" y1="33.125" y2="33.125" /><line stroke="rgb(100%,0%,0%)" stroke-width="1" x1="110.875" x2="110.875" y1="33.125" y2="30.125" /><line stroke="rgb(100%,0%,0%)" stroke-width="1" x1="110.875" x2="102.875" y1="30.125" y2="30.125" /><line stroke="rgb(100%,0%,0%)" stroke-width="1" x1="102.875" x2="102.875" y1="30.125" y2="33.125" /><line stroke="rgb(100%,0%,0%)" stroke-width="1" x1="102.875" x2="94.875" y1="33.125" y2="33.125" /><line stroke="rgb(100%,0%,0%)" stroke-width="1" x1="94.875" x2="94.875" y1="33.125" y2="30.125" /><line stroke="rgb(100%,0%,0%)" stroke-width="1" x1="94.875" x2="86.875" y1="30.125" y2="30.125" /><line stroke="rgb(100%,0%,0%)" stroke-width="1" x1="86.875" x2="86.875" y1="30.125" y2="33.125" /><line stroke="rgb(100%,0%,0%)" stroke-width="1" x1="86.875" x2="78.875" y1="33.125" y2="33.125" /><line stroke="rgb(100%,0%,0%)" stroke-width="1" x1="78.875" x2="78.875" y1="33.125" y2="30.125" /><line stroke="rgb(100%,0%,0%)" stroke-width="1" x1="78.875" x2="70.875" y1="30.125" y2="30.125" /><line stroke="rgb(100%,0%,0%)" stroke-width="1" x1="70.875" x2="70.875" y1="30.125" y2="33.125" /><line stroke="rgb(100%,0%,0%)" stroke-width="1" x1="70.875" x2="62.875" y1="33.125" y2="33.125" /><line stroke="rgb(100%,0%,0%)" stroke-width="1" x1="62.875" x2="62.875" y1="33.125" y2="30.125" /><line stroke="rgb(100%,0%,0%)" stroke-width="1" x1="62.875" x2="54.875" y1="30.125" y2="30.125" /><line stroke="rgb(100%,0%,0%)" stroke-width="1" x1="54.875" x2="54.875" y1="30.125" y2="33.125" /><line stroke="rgb(100%,0%,0%)" stroke-width="1" x1="54.875" x2="37.5" y1="33.125" y2="33.125" /><line stroke="rgb(100%,0%,0%)" stroke-width="1" x1="20.0" x2="20.0" y1="174.25" y2="178.5" /><line stroke="rgb(100%,0%,0%)" stroke-width="1" x1="20.0" x2="17.0" y1="178.5" y2="178.5" /><line stroke="rgb(100%,0%,0%)" stroke-width="1" x1="17.0" x2="17.0" y1="178.5" y2="186.5" /><line stroke="rgb(100%,0%,0%)" stroke-width="1" x1="17.0" x2="20.0" y1="186.5" y2="186.5" /><line stroke="rgb(100%,0%,0%)" stroke-width="1" x1="20.0" x2="20.0" y1="186.5" y2="194.75" /><line stroke="rgb(100%,0%,0%)" stroke-width="1" x1="20.0" x2="234.0" y1="190.75" y2="190.75" /><line stroke="rgb(100%,0%,0%)" stroke-width="1" x1="234.0" x2="234.0" y1="194.75" y2="174.25" /><line stroke="rgb(100%,0%,0%)" stroke-width="1" x1="234.0" x2="219.0" y1="175.25" y2="175.25" /><line stroke="rgb(100%,0%,0%)" stroke-width="1" x1="219.0" x2="219.0" y1="175.25" y2="178.25" /><line stroke="rgb(100%,0%,0%)" stroke-width="1" x1="219.0" x2="211.0" y1="178.25" y2="178.25" /><line stroke="rgb(100%,0%,0%)" stroke-width="1" x1="211.0" x2="211.0" y1="178.25" y2="175.25" /><line stroke="rgb(100%,0%,0%)" stroke-width="1" x1="211.0" x2="203.0" y1="175.25" y2="175.25" /><line stroke="rgb(100%,0%,0%)" stroke-width="1" x1="203.0" x2="203.0" y1="175.25" y2="178.25" /><line stroke="rgb(100%,0%,0%)" stroke-width="1" x1="203.0" x2="195.0" y1="178.25" y2="178.25" /><line stroke="rgb(100%,0%,0%)" stroke-width="1" x1="195.0" x2="195.0" y1="178.25" y2="175.25" /><line stroke="rgb(100%,0%,0%)" stroke-width="1" x1="195.0" x2="187.0" y1="175.25" y2="175.25" /><line stroke="rgb(100%,0%,0%)" stroke-width="1" x1="187.0" x2="187.0" y1="175.25" y2="178.25" /><line stroke="rgb(100%,0%,0%)" stroke-width="1" x1="187.0" x2="179.0" y1="178.25" y2="178.25" /><line stroke="rgb(100%,0%,0%)" stroke-width="1" x1="179.0" x2="179.0" y1="178.25" y2="175.25" /><line stroke="rgb(100%,0%,0%)" stroke-width="1" x1="179.0" x2="171.0" y1="175.25" y2="175.25" /><line stroke="rgb(100%,0%,0%)" stroke-width="1" x1="171.0" x2="171.0" y1="175.25" y2="178.25" /><line stroke="rgb(100%,0%,0%)" stroke-width="1" x1="171.0" x2="163.0" y1="178.25" y2="178.25" /><line stroke="rgb(100%,0%,0%)" stroke-width="1" x1="163.0" x2="163.0" y1="178.25" y2="175.25" /><line stroke="rgb(100%,0%,0%)" stroke-width="1" x1="163.0" x2="155.0" y1="175.25" y2="175.25" /><line stroke="rgb(100%,0%,0%)" stroke-width="1" x1="155.0" x2="155.0" y1="175.25" y2="178.25" /><line stroke="rgb(100%,0%,0%)" stroke-width="1" x1="155.0" x2="147.0" y1="178.25" y2="178.25" /><line stroke="rgb(100%,0%,0%)" stroke-width="1" x1="147.0" x2="147.0" y1="178.25" y2="175.25" /><line stroke="rgb(100%,0%,0%)" stroke-width="1" x1="147.0" x2="139.0" y1="175.25" y2="175.25" /><line stroke="rgb(100%,0%,0%)" stroke-width="1" x1="139.0" x2="139.0" y1="175.25" y2="178.25" /><line stroke="rgb(100%,0%,0%)" stroke-width="1" x1="139.0" x2="131.0" y1="178.25" y2="178.25" /><line stroke="rgb(100%,0%,0%)" stroke-width="1" x1="131.0" x2="131.0" y1="178.25" y2="175.25" /><line stroke="rgb(100%,0%,0%)" stroke-width="1" x1="131.0" x2="123.0" y1="175.25" y2="175.25" /><line stroke="rgb(100%,0%,0%)" stroke-width="1" x1="123.0" x2="123.0" y1="175.25" y2="178.25" /><line stroke="rgb(100%,0%,0%)" stroke-width="1" x1="123.0" x2="115.0" y1="178.25" y2="178.25" /><line stroke="rgb(100%,0%,0%)" stroke-width="1" x1="115.0" x2="115.0" y1="178.25" y2="175.25" /><line stroke="rgb(100%,0%,0%)" stroke-width="1" x1="115.0" x2="107.0" y1="175.25" y2="175.25" /><line stroke="rgb(100%,0%,0%)" stroke-width="1" x1="107.0" x2="107.0" y1="175.25" y2="178.25" /><line stroke="rgb(100%,0%,0%)" stroke-width="1" x1="107.0" x2="99.0" y1="178.25" y2="178.25" /><line stroke="rgb(100%,0%,0%)" stroke-width="1" x1="99.0" x2="99.0" y1="178.25" y2="175.25" /><line stroke="rgb(100%,0%,0%)" stroke-width="1" x1="99.0" x2="91.0" y1="175.25" y2="175.25" /><line stroke="rgb(100%,0%,0%)" stroke-width="1" x1="91.0" x2="91.0" y1="175.25" y2="178.25" /><line stroke="rgb(100%,0%,0%)" stroke-width="1" x1="91.0" x2="83.0" y1="178.25" y2="178.25" /><line stroke="rgb(100%,0%,0%)" stroke-width="1" x1="83.0" x2="83.0" y1="178.25" y2="175.25" /><line stroke="rgb(100%,0%,0%)" stroke-width="1" x1="83.0" x2="75.0" y1="175.25" y2="175.25" /><line stroke="rgb(100%,0%,0%)" stroke-width="1" x1="75.0" x2="75.0" y1="175.25" y2="178.25" /><line stroke="rgb(100%,0%,0%)" stroke-width="1" x1="75.0" x2="67.0" y1="178.25" y2="178.25" /><line stroke="rgb(100%,0%,0%)" stroke-width="1" x1="67.0" x2="67.0" y1="178.25" y2="175.25" /><line stroke="rgb(100%,0%,0%)" stroke-width="1" x1="67.0" x2="59.0" y1="175.25" y2="175.25" /><line stroke="rgb(100%,0%,0%)" stroke-width="1" x1="59.0" x2="59.0" y1="175.25" y2="178.25" /><line stroke="rgb(100%,0%,0%)" stroke-width="1" x1="59.0" x2="51.0" y1="178.25" y2="178.25" /><line stroke="rgb(100%,0%,0%)" stroke-width="1" x1="51.0" x2="51.0" y1="178.25" y2="175.25" /><line stroke="rgb(100%,0%,0%)" stroke-width="1" x1="51.0" x2="43.0" y1="175.25" y2="175.25" /><line stroke="rgb(100%,0%,0%)" stroke-width="1" x1="43.0" x2="43.0" y1="175.25" y2="178.25" /><line stroke="rgb(100%,0%,0%)" stroke-width="1" x1="43.0" x2="35.0" y1="178.25" y2="178.25" /><line stroke="rgb(100%,0%,0%)" stroke-width="1" x1="35.0" x2="35.0" y1="178.25" y2="175.25" /><line stroke="rgb(100%,0%,0%)" stroke-width="1" x1="35.0" x2="20.0" y1="175.25" y2="175.25" /><line stroke="rgb(100%,0%,0%)" stroke-width="1" x1="20.0" x2="20.0" y1="194.0" y2="202.25" /><line stroke="rgb(100%,0%,0%)" stroke-width="1" x1="20.0" x2="17.0" y1="202.25" y2="202.25" /><line stroke="rgb(100%,0%,0%)" stroke-width="1" x1="17.0" x2="17.0" y1="202.25" y2="210.25" /><line stroke="rgb(100%,0%,0%)" stroke-width="1" x1="17.0" x2="20.0" y1="210.25" y2="210.25" /><line stroke="rgb(100%,0%,0%)" stroke-width="1" x1="20.0" x2="20.0" y1="210.25" y2="214.5" /><line stroke="rgb(100%,0%,0%)" stroke-width="1" x1="20.0" x2="35.0" y1="213.5" y2="213.5" /><line stroke="rgb(100%,0%,0%)" stroke-width="1" x1="35.0" x2="35.0" y1="213.5" y2="210.5" /><line stroke="rgb(100%,0%,0%)" stroke-width="1" x1="35.0" x2="43.0" y1="210.5" y2="210.5" /><line stroke="rgb(100%,0%,0%)" stroke-width="1" x1="43.0" x2="43.0" y1="210.5" y2="213.5" /><line stroke="rgb(100%,0%,0%)" stroke-width="1" x1="43.0" x2="51.0" y1="213.5" y2="213.5" /><line stroke="rgb(100%,0%,0%)" stroke-width="1" x1="51.0" x2="51.0" y1="213.5" y2="210.5" /><line stroke="rgb(100%,0%,0%)" stroke-width="1" x1="51.0" x2="59.0" y1="210.5" y2="210.5" /><line stroke="rgb(100%,0%,0%)" stroke-width="1" x1="59.0" x2="59.0" y1="210.5" y2="213.5" /><line stroke="rgb(100%,0%,0%)" stroke-width="1" x1="59.0" x2="67.0" y1="213.5" y2="213.5" /><line stroke="rgb(100%,0%,0%)" stroke-width="1" x1="67.0" x2="67.0" y1="213.5" y2="210.5" /><line stroke="rgb(100%,0%,0%)" stroke-width="1" x1="67.0" x2="75.0" y1="210.5" y2="210.5" /><line stroke="rgb(100%,0%,0%)" stroke-width="1" x1="75.0" x2="75.0" y1="210.5" y2="213.5" /><line stroke="rgb(100%,0%,0%)" stroke-width="1" x1="75.0" x2="83.0" y1="213.5" y2="213.5" /><line stroke="rgb(100%,0%,0%)" stroke-width="1" x1="83.0" x2="83.0" y1="213.5" y2="210.5" /><line stroke="rgb(100%,0%,0%)" stroke-width="1" x1="83.0" x2="91.0" y1="210.5" y2="210.5" /><line stroke="rgb(100%,0%,0%)" stroke-width="1" x1="91.0" x2="91.0" y1="210.5" y2="213.5" /><line stroke="rgb(100%,0%,0%)" stroke-width="1" x1="91.0" x2="99.0" y1="213.5" y2="213.5" /><line stroke="rgb(100%,0%,0%)" stroke-width="1" x1="99.0" x2="99.0" y1="213.5" y2="210.5" /><line stroke="rgb(100%,0%,0%)" stroke-width="1" x1="99.0" x2="107.0" y1="210.5" y2="210.5" /><line stroke="rgb(100%,0%,0%)" stroke-width="1" x1="107.0" x2="107.0" y1="210.5" y2="213.5" /><line stroke="rgb(100%,0%,0%)" stroke-width="1" x1="107.0" x2="115.0" y1="213.5" y2="213.5" /><line stroke="rgb(100%,0%,0%)" stroke-width="1" x1="115.0" x2="115.0" y1="213.5" y2="210.5" /><line stroke="rgb(100%,0%,0%)" stroke-width="1" x1="115.0" x2="123.0" y1="210.5" y2="210.5" /><line stroke="rgb(100%,0%,0%)" stroke-width="1" x1="123.0" x2="123.0" y1="210.5" y2="213.5" /><line stroke="rgb(100%,0%,0%)" stroke-width="1" x1="123.0" x2="131.0" y1="213.5" y2="213.5" /><line stroke="rgb(100%,0%,0%)" stroke-width="1" x1="131.0" x2="131.0" y1="213.5" y2="210.5" /><line stroke="rgb(100%,0%,0%)" stroke-width="1" x1="131.0" x2="139.0" y1="210.5" y2="210.5" /><line stroke="rgb(100%,0%,0%)" stroke-width="1" x1="139.0" x2="139.0" y1="210.5" y2="213.5" /><line stroke="rgb(100%,0%,0%)" stroke-width="1" x1="139.0" x2="147.0" y1="213.5" y2="213.5" /><line stroke="rgb(100%,0%,0%)" stroke-width="1" x1="147.0" x2="147.0" y1="213.5" y2="210.5" /><line stroke="rgb(100%,0%,0%)" stroke-width="1" x1="147.0" x2="155.0" y1="210.5" y2="210.5" /><line stroke="rgb(100%,0%,0%)" stroke-width="1" x1="155.0" x2="155.0" y1="210.5" y2="213.5" /><line stroke="rgb(100%,0%,0%)" stroke-width="1" x1="155.0" x2="163.0" y1="213.5" y2="213.5" /><line stroke="rgb(100%,0%,0%)" stroke-width="1" x1="163.0" x2="163.0" y1="213.5" y2="210.5" /><line stroke="rgb(100%,0%,0%)" stroke-width="1" x1="163.0" x2="171.0" y1="210.5" y2="210.5" /><line stroke="rgb(100%,0%,0%)" stroke-width="1" x1="171.0" x2="171.0" y1="210.5" y2="213.5" /><line stroke="rgb(100%,0%,0%)" stroke-width="1" x1="171.0" x2="179.0" y1="213.5" y2="213.5" /><line stroke="rgb(100%,0%,0%)" stroke-width="1" x1="179.0" x2="179.0" y1="213.5" y2="210.5" /><line stroke="rgb(100%,0%,0%)" stroke-width="1" x1="179.0" x2="187.0" y1="210.5" y2="210.5" /><line stroke="rgb(100%,0%,0%)" stroke-width="1" x1="187.0" x2="187.0" y1="210.5" y2="213.5" /><line stroke="rgb(100%,0%,0%)" stroke-width="1" x1="187.0" x2="195.0" y1="213.5" y2="213.5" /><line stroke="rgb(100%,0%,0%)" stroke-width="1" x1="195.0" x2="195.0" y1="213.5" y2="210.5" /><line stroke="rgb(100%,0%,0%)" stroke-width="1" x1="195.0" x2="203.0" y1="210.5" y2="210.5" /><line stroke="rgb(100%,0%,0%)" stroke-width="1" x1="203.0" x2="203.0" y1="210.5" y2="213.5" /><line stroke="rgb(100%,0%,0%)" stroke-width="1" x1="203.0" x2="211.0" y1="213.5" y2="213.5" /><line stroke="rgb(100%,0%,0%)" stroke-width="1" x1="211.0" x2="211.0" y1="213.5" y2="210.5" /><line stroke="rgb(100%,0%,0%)" stroke-width="1" x1="211.0" x2="219.0" y1="210.5" y2="210.5" /><line stroke="rgb(100%,0%,0%)" stroke-width="1" x1="219.0" x2="219.0" y1="210.5" y2="213.5" /><line stroke="rgb(100%,0%,0%)" stroke-width="1" x1="219.0" x2="234.0" y1="213.5" y2="213.5" /><line stroke="rgb(100%,0%,0%)" stroke-width="1" x1="234.0" x2="234.0" y1="214.5" y2="194.0" /><line stroke="rgb(100%,0%,0%)" stroke-width="1" x1="234.0" x2="20.0" y1="198.0" y2="198.0" /><line stroke="rgb(100%,0%,0%)" stroke-width="1" x1="250.0" x2="250.0" y1="16.0" y2="174.25" /><line stroke="rgb(100%,0%,0%)" stroke-width="1" x1="246.0" x2="254.25" y1="173.25" y2="173.25" /><line stroke="rgb(100%,0%,0%)" stroke-width="1" x1="254.25" x2="254.25" y1="173.25" y2="170.25" /><line stroke="rgb(100%,0%,0%)" stroke-width="1" x1="254.25" x2="262.25" y1="170.25" y2="170.25" /><line stroke="rgb(100%,0%,0%)" stroke-width="1" x1="262.25" x2="262.25" y1="170.25" y2="173.25" /><line stroke="rgb(100%,0%,0%)" stroke-width="1" x1="262.25" x2="266.5" y1="173.25" y2="173.25" /><line stroke="rgb(100%,0%,0%)" stroke-width="1" x1="265.5" x2="265.5" y1="174.25" y2="155.125" /><line stroke="rgb(100%,0%,0%)" stroke-width="1" x1="265.5" x2="262.5" y1="155.125" y2="155.125" /><line stroke="rgb(100%,0%,0%)" stroke-width="1" x1="262.5" x2="262.5" y1="155.125" y2="147.125" /><line stroke="rgb(100%,0%,0%)" stroke-width="1" x1="262.5" x2="265.5" y1="147.125" y2="147.125" /><line stroke="rgb(100%,0%,0%)" stroke-width="1" x1="265.5" x2="265.5" y1="147.125" y2="139.125" /><line stroke="rgb(100%,0%,0%)" stroke-width="1" x1="265.5" x2="262.5" y1="139.125" y2="139.125" /><line stroke="rgb(100%,0%,0%)" stroke-width="1" x1="262.5" x2="262.5" y1="139.125" y2="131.125" /><line stroke="rgb(100%,0%,0%)" stroke-width="1" x1="262.5" x2="265.5" y1="131.125" y2="131.125" /><line stroke="rgb(100%,0%,0%)" stroke-width="1" x1="265.5" x2="265.5" y1="131.125" y2="123.125" /><line stroke="rgb(100%,0%,0%)" stroke-width="1" x1="265.5" x2="262.5" y1="123.125" y2="123.125" /><line stroke="rgb(100%,0%,0%)" stroke-width="1" x1="262.5" x2="262.5" y1="123.125" y2="115.125" /><line stroke="rgb(100%,0%,0%)" stroke-width="1" x1="262.5" x2="265.5" y1="115.125" y2="115.125" /><line stroke="rgb(100%,0%,0%)" stroke-width="1" x1="265.5" x2="265.5" y1="115.125" y2="107.125" /><line stroke="rgb(100%,0%,0%)" stroke-width="1" x1="265.5" x2="262.5" y1="107.125" y2="107.125" /><line stroke="rgb(100%,0%,0%)" stroke-width="1" x1="262.5" x2="262.5" y1="107.125" y2="99.125" /><line stroke="rgb(100%,0%,0%)" stroke-width="1" x1="262.5" x2="265.5" y1="99.125" y2="99.125" /><line stroke="rgb(100%,0%,0%)" stroke-width="1" x1="265.5" x2="265.5" y1="99.125" y2="91.125" /><line stroke="rgb(100%,0%,0%)" stroke-width="1" x1="265.5" x2="262.5" y1="91.125" y2="91.125" /><line stroke="rgb(100%,0%,0%)" stroke-width="1" x1="262.5" x2="262.5" y1="91.125" y2="83.125" /><line stroke="rgb(100%,0%,0%)" stroke-width="1" x1="262.5" x2="265.5" y1="83.125" y2="83.125" /><line stroke="rgb(100%,0%,0%)" stroke-width="1" x1="265.5" x2="265.5" y1="83.125" y2="75.125" /><line stroke="rgb(100%,0%,0%)" stroke-width="1" x1="265.5" x2="262.5" y1="75.125" y2="75.125" /><line stroke="rgb(100%,0%,0%)" stroke-width="1" x1="262.5" x2="262.5" y1="75.125" y2="67.125" /><line stroke="rgb(100%,0%,0%)" stroke-width="1" x1="262.5" x2="265.5" y1="67.125" y2="67.125" /><line stroke="rgb(100%,0%,0%)" stroke-width="1" x1="265.5" x2="265.5" y1="67.125" y2="59.125" /><line stroke="rgb(100%,0%,0%)" stroke-width="1" x1="265.5" x2="262.5" y1="59.125" y2="59.125" /><line stroke="rgb(100%,0%,0%)" stroke-width="1" x1="262.5" x2="262.5" y1="59.125" y2="51.125" /><line stroke="rgb(100%,0%,0%)" stroke-width="1" x1="262.5" x2="265.5" y1="51.125" y2="51.125" /><line stroke="rgb(100%,0%,0%)" stroke-width="1" x1="265.5" x2="265.5" y1="51.125" y2="43.125" /><line stroke="rgb(100%,0%,0%)" stroke-width="1" x1="265.5" x2="262.5" y1="43.125" y2="43.125" /><line stroke="rgb(100%,0%,0%)" stroke-width="1" x1="262.5" x2="262.5" y1="43.125" y2="35.125" /><line stroke="rgb(100%,0%,0%)" stroke-width="1" x1="262.5" x2="265.5" y1="35.125" y2="35.125" /><line stroke="rgb(100%,0%,0%)" stroke-width="1" x1="265.5" x2="265.5" y1="35.125" y2="16.0" /><line stroke="rgb(100%,0%,0%)" stroke-width="1" x1="266.5" x2="262.25" y1="17.0" y2="17.0" /><line stroke="rgb(100%,0%,0%)" stroke-width="1" x1="262.25" x2="262.25" y1="17.0" y2="20.0" /><line stroke="rgb(100%,0%,0%)" stroke-width="1" x1="262.25" x2="254.25" y1="20.0" y2="20.0" /><line stroke="rgb(100%,0%,0%)" stroke-width="1" x1="254.25" x2="254.25" y1="20.0" y2="17.0" /><line stroke="rgb(100%,0%,0%)" stroke-width="1" x1="254.25" x2="246.0" y1="17.0" y2="17.0" /></svg>