<?xml version="1.0" encoding="utf-8" ?>
<svg baseProfile="full" height="260mm" version="1.1" viewBox="0 0 300 260" width="300mm" xmlns="http://www.w3.org/2000/svg" xmlns:ev="http://www.w3.org/2001/xml-events" xmlns:xlink="http://www.w3.org/1999/xlink"><defs /><line stroke="rgb(100%,0%,0%)" stroke-width="1" x1="20.0" x2="20.0" y1="20.0" y2="35.125" /><line stroke="rgb(100%,0%,0%)" stroke-width="1" x1="20.0" x2="16.0" y1="35.125" y2="35.125" /><line stroke="rgb(100%,0%,0%)" stroke-width="1" x1="16.0" x2="16.0" y1="35.125" y2="43.125" /><line stroke="rgb(100%,0%,0%)" stroke-width="1" x1="16.0" x2="20.0" y1="43.125" y2="43.125" /><line stroke="rgb(100%,0%,0%)" stroke-width="1" x1="20.0" x2="20.0" y1="43.125" y2="51.125" /><line stroke="rgb(100%,0%,0%)" stroke-width="1" x1="20.0" x2="16.0" y1="51.125" y2="51.125" /><line stroke="rgb(100%,0%,0%)" stroke-width="1" x1="16.0" x2="16.0" y1="51.125" y2="59.125" /><line stroke="rgb(100%,0%,0%)" stroke-width="1" x1="16.0" x2="20.0" y1="59.125" y2="59.125" /><line stroke="rgb(100%,0%,0%)" stroke-width="1" x1="20.0" x2="20.0" y1="59.125" y2="67.125" /><line stroke="rgb(100%,0%,0%)" stroke-width="1" x1="20.0" x2="16.0" y1="67.125" y2="67.125" /><line stroke="rgb(100%,0%,0%)" stroke-width="1" x1="16.0" x2="16.0" y1="67.125" y2="75.125" /><line stroke="rgb(100%,0%,0%)" stroke-width="1" x1="16.0" x2="20.0" y1="75.125" y2="75.125" /><line stroke="rgb(100%,0%,0%)" stroke-width="1" x1="20.0" x2="20.0" y1="75.125" y2="83.125" /><line stroke="rgb(100%,0%,0%)" stroke-width="1" x1="20.0" x2="16.0" y1="83.125" y2="83.125" /><line stroke="rgb(100%,0%,0%)" stroke-width="1" x1="16.0" x2="16.0" y1="83.125" y2="91.125" /><line stroke="rgb(100%,0%,0%)" stroke-width="1" x1="16.0" x2="20.0" y1="91.125" y2="91.125" /><line stroke="rgb(100%,0%,0%)" stroke-width="1" x1="20.0" x2="20.0" y1="91.125" y2="99.125" /><line stroke="rgb(100%,0%,0%)" stroke-width="1" x1="20.0" x2="16.0" y1="99.125" y2="99.125" /><line stroke="rgb(100%,0%,0%)" stroke-width="1" x1="16.0" x2="16.0" y1="99.125" y2="107.125" /><line stroke="rgb(100%,0%,0%)" stroke-width="1" x1="16.0" x2="20.0" y1="107.125" y2="107.125" /><line stroke="rgb(100%,0%,0%)" stroke-width="1" x1="20.0" x2="20.0" y1="107.125" y2="115.125" /><line stroke="rgb(100%,0%,0%)" stroke-width="1" x1="20.0" x2="16.0" y1="115.125" y2="115.125" /><line stroke="rgb(100%,0%,0%)" stroke-width="1" x1="16.0" x2="16.0" y1="115.125" y2="123.125" /><line stroke="rgb(100%,0%,0%)" stroke-width="1" x1="16.0" x2="20.0" y1="123.125" y2="123.125" /><line stroke="rgb(100%,0%,0%)" stroke-width="1" x1="20.0" x2="20.0" y1="123.125" y2="131.125" /><line stroke="rgb(100%,0%,0%)" stroke-width="1" x1="20.0" x2="16.0" y1="131.125" y2="131.125" /><line stroke="rgb(100%,0%,0%)" stroke-width="1" x1="16.0" x2="16.0" y1="131.125" y2="139.125" /><line stroke="rgb(100%,0%,0%)" stroke-width="1" x1="16.0" x2="20.0" y1="139.125" y2="139.125" /><line stroke="rgb(100%,0%,0%)" stroke-width="1" x1="20.0" x2="20.0" y1="139.125" y2="147.125" /><line stroke="rgb(100%,0%,0%)" stroke-width="1" x1="20.0" x2="16.0" y1="147.125" y2="147.125" /><line stroke="rgb(100%,0%,0%)" stroke-width="1" x1="16.0" x2="16.0" y1="147.125" y2="155.125" /><line stroke="rgb(100%,0%,0%)" stroke-width="1" x1="16.0" x2="20.0" y1="155.125" y2="155.125" /><line stroke="rgb(100%,0%,0%)" stroke-width="1" x1="20.0" x2="20.0" y1="155.125" y2="170.25" /><line stroke="rgb(100%,0%,0%)" stroke-width="1" x1="20.0" x2="38.0" y1="170.25" y2="170.25" /><line stroke="rgb(100%,0%,0%)" stroke-width="1" x1="38.0" x2="38.0" y1="170.25" y2="174.25" /><line stroke="rgb(100%,0%,0%)" stroke-width="1" x1="38.0" x2="46.0" y1="174.25" y2="174.25" /><line stroke="rgb(100%,0%,0%)" stroke-width="1" x1="46.0" x2="46.0" y1="174.25" y2="170.25" /><line stroke="rgb(100%,0%,0%)" stroke-width="1" x1="46.0" x2="54.0" y1="170.25" y2="170.25" /><line stroke="rgb(100%,0%,0%)" stroke-width="1" x1="54.0" x2="54.0" y1="170.25" y2="174.25" /><line stroke="rgb(100%,0%,0%)" stroke-width="1" x1="54.0" x2="62.0" y1="174.25" y2="174.25" /><line stroke="rgb(100%,0%,0%)" stroke-width="1" x1="62.0" x2="62.0" y1="174.25" y2="170.25" /><line stroke="rgb(100%,0%,0%)" stroke-width="1" x1="62.0" x2="70.0" y1="170.25" y2="170.25" /><line stroke="rgb(100%,0%,0%)" stroke-width="1" x1="70.0" x2="70.0" y1="170.25" y2="174.25" /><line stroke="rgb(100%,0%,0%)" stroke-width="1" x1="70.0" x2="78.0" y1="174.25" y2="174.25" /><line stroke="rgb(100%,0%,0%)" stroke-width="1" x1="78.0" x2="78.0" y1="174.25" y2="170.25" /><line stroke="rgb(100%,0%,0%)" stroke-width="1" x1="78.0" x2="86.0" y1="170.25" y2="170.25" /><line stroke="rgb(100%,0%,0%)" stroke-width="1" x1="86.0" x2="86.0" y1="170.25" y2="174.25" /><line stroke="rgb(100%,0%,0%)" stroke-width="1" x1="86.0" x2="94.0" y1="174.25" y2="174.25" /><line stroke="rgb(100%,0%,0%)" stroke-width="1" x1="94.0" x2="94.0" y1="174.25" y2="170.25" /><line stroke="rgb(100%,0%,0%)" stroke-width="1" x1="94.0" x2="102.0" y1="170.25" y2="170.25" /><line stroke="rgb(100%,0%,0%)" stroke-width="1" x1="102.0" x2="102.0" y1="170.25" y2="174.25" /><line stroke="rgb(100%,0%,0%)" stroke-width="1" x1="102.0" x2="110.0" y1="174.25" y2="174.25" /><line stroke="rgb(100%,0%,0%)" stroke-width="1" x1="110.0" x2="110.0" y1="174.25" y2="170.25" /><line stroke="rgb(100%,0%,0%)" stroke-width="1" x1="110.0" x2="118.0" y1="170.25" y2="170.25" /><line stroke="rgb(100%,0%,0%)" stroke-width="1" x1="118.0" x2="118.0" y1="170.25" y2="174.25" /><line stroke="rgb(100%,0%,0%)" stroke-width="1" x1="118.0" x2="126.0" y1="174.25" y2="174.25" /><line stroke="rgb(100%,0%,0%)" stroke-width="1" x1="126.0" x2="126.0" y1="174.25" y2="170.25" /><line stroke="rgb(100%,0%,0%)" stroke-width="1" x1="126.0" x2="134.0" y1="170.25" y2="170.25" /><line stroke="rgb(100%,0%,0%)" stroke-width="1" x1="134.0" x2="134.0" y1="170.25" y2="174.25" /><line stroke="rgb(100%,0%,0%)" stroke-width="1" x1="134.0" x2="142.0" y1="174.25" y2="174.25" /><line stroke="rgb(100%,0%,0%)" stroke-width="1" x1="142.0" x2="142.0" y1="174.25" y2="170.25" /><line stroke="rgb(100%,0%,0%)" stroke-width="1" x1="142.0" x2="150.0" y1="170.25" y2="170.25" /><line stroke="rgb(100%,0%,0%)" stroke-width="1" x1="150.0" x2="150.0" y1="170.25" y2="174.25" /><line stroke="rgb(100%,0%,0%)" stroke-width="1" x1="150.0" x2="158.0" y1="174.25" y2="174.25" /><line stroke="rgb(100%,0%,0%)" stroke-width="1" x1="158.0" x2="158.0" y1="174.25" y2="170.25" /><line stroke="rgb(100%,0%,0%)" stroke-width="1" x1="158.0" x2="166.0" y1="170.25" y2="170.25" /><line stroke="rgb(100%,0%,0%)" stroke-width="1" x1="166.0" x2="166.0" y1="170.25" y2="174.25" /><line stroke="rgb(100%,0%,0%)" stroke-width="1" x1="166.0" x2="174.0" y1="174.25" y2="174.25" /><line stroke="rgb(100%,0%,0%)" stroke-width="1" x1="174.0" x2="174.0" y1="174.25" y2="170.25" /><line stroke="rgb(100%,0%,0%)" stroke-width="1" x1="174.0" x2="182.0" y1="170.25" y2="170.25" /><line stroke="rgb(100%,0%,0%)" stroke-width="1" x1="182.0" x2="182.0" y1="170.25" y2="174.25" /><line stroke="rgb(100%,0%,0%)" stroke-width="1" x1="182.0" x2="190.0" y1="174.25" y2="174.25" /><line stroke="rgb(100%,0%,0%)" stroke-width="1" x1="190.0" x2="190.0" y1="174.25" y2="170.25" /><line stroke="rgb(100%,0%,0%)" stroke-width="1" x1="190.0" x2="198.0" y1="170.25" y2="170.25" /><line stroke="rgb(100%,0%,0%)" stroke-width="1" x1="198.0" x2="198.0" y1="170.25" y2="174.25" /><line stroke="rgb(100%,0%,0%)" stroke-width="1" x1="198.0" x2="206.0" y1="174.25" y2="174.25" /><line stroke="rgb(100%,0%,0%)" stroke-width="1" x1="206.0" x2="206.0" y1="174.25" y2="170.25" /><line stroke="rgb(100%,0%,0%)" stroke-width="1" x1="206.0" x2="214.0" y1="170.25" y2="170.25" /><line stroke="rgb(100%,0%,0%)" stroke-width="1" x1="214.0" x2="214.0" y1="170.25" y2="174.25" /><line stroke="rgb(100%,0%,0%)" stroke-width="1" x1="214.0" x2="222.0" y1="174.25" y2="174.25" /><line stroke="rgb(100%,0%,0%)" stroke-width="1" x1="222.0" x2="222.0" y1="174.25" y2="170.25" /><line stroke="rgb(100%,0%,0%)" stroke-width="1" x1="222.0" x2="240.0" y1="170.25" y2="170.25" /><line stroke="rgb(100%,0%,0%)" stroke-width="1" x1="240.0" x2="240.0" y1="170.25" y2="20.0" /><line stroke="rgb(100%,0%,0%)" stroke-width="1" x1="240.0" x2="222.0" y1="20.0" y2="20.0" /><line stroke="rgb(100%,0%,0%)" stroke-width="1" x1="222.0" x2="222.0" y1="20.0" y2="16.0" /><line stroke="rgb(100%,0%,0%)" stroke-width="1" x1="222.0" x2="214.0" y1="16.0" y2="16.0" /><line stroke="rgb(100%,0%,0%)" stroke-width="1" x1="214.0" x2="214.0" y1="16.0" y2="20.0" /><line stroke="rgb(100%,0%,0%)" stroke-width="1" x1="214.0" x2="206.0" y1="20.0" y2="20.0" /><line stroke="rgb(100%,0%,0%)" stroke-width="1" x1="206.0" x2="206.0" y1="20.0" y2="16.0" /><line stroke="rgb(100%,0%,0%)" stroke-width="1" x1="206.0" x2="198.0" y1="16.0" y2="16.0" /><line stroke="rgb(100%,0%,0%)" stroke-width="1" x1="198.0" x2="198.0" y1="16.0" y2="20.0" /><line stroke="rgb(100%,0%,0%)" stroke-width="1" x1="198.0" x2="190.0" y1="20.0" y2="20.0" /><line stroke="rgb(100%,0%,0%)" stroke-width="1" x1="190.0" x2="190.0" y1="20.0" y2="16.0" /><line stroke="rgb(100%,0%,0%)" stroke-width="1" x1="190.0" x2="182.0" y1="16.0" y2="16.0" /><line stroke="rgb(100%,0%,0%)" stroke-width="1" x1="182.0" x2="182.0" y1="16.0" y2="20.0" /><line stroke="rgb(100%,0%,0%)" stroke-width="1" x1="182.0" x2="174.0" y1="20.0" y2="20.0" /><line stroke="rgb(100%,0%,0%)" stroke-width="1" x1="174.0" x2="174.0" y1="20.0" y2="16.0" /><line stroke="rgb(100%,0%,0%)" stroke-width="1" x1="174.0" x2="166.0" y1="16.0" y2="16.0" /><line stroke="rgb(100%,0%,0%)" stroke-width="1" x1="166.0" x2="166.0" y1="16.0" y2="20.0" /><line stroke="rgb(100%,0%,0%)" stroke-width="1" x1="166.0" x2="158.0" y1="20.0" y2="20.0" /><line stroke="rgb(100%,0%,0%)" stroke-width="1" x1="158.0" x2="158.0" y1="20.0" y2="16.0" /><line stroke="rgb(100%,0%,0%)" stroke-width="1" x1="158.0" x2="150.0" y1="16.0" y2="16.0" /><line stroke="rgb(100%,0%,0%)" stroke-width="1" x1="150.0" x2="150.0" y1="16.0" y2="20.0" /><line stroke="rgb(100%,0%,0%)" stroke-width="1" x1="150.0" x2="142.0" y1="20.0" y2="20.0" /><line stroke="rgb(100%,0%,0%)" stroke-width="1" x1="142.0" x2="142.0" y1="20.0" y2="16.0" /><line stroke="rgb(100%,0%,0%)" stroke-width="1" x1="142.0" x2="134.0" y1="16.0" y2="16.0" /><line stroke="rgb(100%,0%,0%)" stroke-width="1" x1="134.0" x2="134.0" y1="16.0" y2="20.0" /><line stroke="rgb(100%,0%,0%)" stroke-width="1" x1="134.0" x2="126.0" y1="20.0" y2="20.0" /><line stroke="rgb(100%,0%,0%)" stroke-width="1" x1="126.0" x2="126.0" y1="20.0" y2="16.0" /><line stroke="rgb(100%,0%,0%)" stroke-width="1" x1="126.0" x2="118.0" y1="16.0" y2="16.0" /><line stroke="rgb(100%,0%,0%)" stroke-width="1" x1="118.0" x2="118.0" y1="16.0" y2="20.0" /><line stroke="rgb(100%,0%,0%)" stroke-width="1" x1="118.0" x2="110.0" y1="20.0" y2="20.0" /><line stroke="rgb(100%,0%,0%)" stroke-width="1" x1="110.0" x2="110.0" y1="20.0" y2="16.0" /><line stroke="rgb(100%,0%,0%)" stroke-width="1" x1="110.0" x2="102.0" y1="16.0" y2="16.0" /><line stroke="rgb(100%,0%,0%)" stroke-width="1" x1="102.0" x2="102.0" y1="16.0" y2="20.0" /><line stroke="rgb(100%,0%,0%)" stroke-width="1" x1="102.0" x2="94.0" y1="20.0" y2="20.0" /><line stroke="rgb(100%,0%,0%)" stroke-width="1" x1="94.0" x2="94.0" y1="20.0" y2="16.0" /><line stroke="rgb(100%,0%,0%)" stroke-width="1" x1="94.0" x2="86.0" y1="16.0" y2="16.0" /><line stroke="rgb(100%,0%,0%)" stroke-width="1" x1="86.0" x2="86.0" y1="16.0" y2="20.0" /><line stroke="rgb(100%,0%,0%)" stroke-width="1" x1="86.0" x2="78.0" y1="20.0" y2="20.0" /><line stroke="rgb(100%,0%,0%)" stroke-width="1" x1="78.0" x2="78.0" y1="20.0" y2="16.0" /><line stroke="rgb(100%,0%,0%)" stroke-width="1" x1="78.0" x2="70.0" y1="16.0" y2="16.0" /><line stroke="rgb(100%,0%,0%)" stroke-width="1" x1="70.0" x2="70.0" y1="16.0" y2="20.0" /><line stroke="rgb(100%,0%,0%)" stroke-width="1" x1="70.0" x2="62.0" y1="20.0" y2="20.0" /><line stroke="rgb(100%,0%,0%)" stroke-width="1" x1="62.0" x2="62.0" y1="20.0" y2="16.0" /><line stroke="rgb(100%,0%,0%)" stroke-width="1" x1="62.0" x2="54.0" y1="16.0" y2="16.0" /><line stroke="rgb(100%,0%,0%)" stroke-width="1" x1="54.0" x2="54.0" y1="16.0" y2="20.0" /><line stroke="rgb(100%,0%,0%)" stroke-width="1" x1="54.0" x2="46.0" y1="20.0" y2="20.0" /><line stroke="rgb(100%,0%,0%)" stroke-width="1" x1="46.0" x2="46.0" y1="20.0" y2="16.0" /><line stroke="rgb(100%,0%,0%)" stroke-width="1" x1="46.0" x2="38.0" y1="16.0" y2="16.0" /><line stroke="rgb(100%,0%,0%)" stroke-width="1" x1="38.0" x2="38.0" y1="16.0" y2="20.0" /><line stroke="rgb(100%,0%,0%)" stroke-width="1" x1="38.0" x2="20.0" y1="20.0" y2="20.0" /><line stroke="rgb(100%,0%,0%)" stroke-width="1" x1="37.5" x2="37.5" y1="31.375" y2="43.125" /><line stroke="rgb(100%,0%,0%)" stroke-width="1" x1="37.5" x2="33.5" y1="43.125" y2="43.125" /><line stroke="rgb(100%,0%,0%)" stroke-width="1" x1="33.5" x2="33.5" y1="43.125" y2="51.125" /><line stroke="rgb(100%,0%,0%)" stroke-width="1" x1="33.5" x2="37.5" y1="51.125" y2="51.125" /><line stroke="rgb(100%,0%,0%)" stroke-width="1" x1="37.5" x2="37.5" y1="51.125" y2="59.125" /><line stroke="rgb(100%,0%,0%)" stroke-width="1" x1="37.5" x2="33.5" y1="59.125" y2="59.125" /><line stroke="rgb(100%,0%,0%)" stroke-width="1" x1="33.5" x2="33.5" y1="59.125" y2="67.125" /><line stroke="rgb(100%,0%,0%)" stroke-width="1" x1="33.5" x2="37.5" y1="67.125" y2="67.125" /><line stroke="rgb(100%,0%,0%)" stroke-width="1" x1="37.5" x2="37.5" y1="67.125" y2="75.125" /><line stroke="rgb(100%,0%,0%)" stroke-width="1" x1="37.5" x2="33.5" y1="75.125" y2="75.125" /><line stroke="rgb(100%,0%,0%)" stroke-width="1" x1="33.5" x2="33.5" y1="75.125" y2="83.125" /><line stroke="rgb(100%,0%,0%)" stroke-width="1" x1="33.5" x2="37.5" y1="83.125" y2="83.125" /><line stroke="rgb(100%,0%,0%)" stroke-width="1" x1="37.5" x2="37.5" y1="83.125" y2="91.125" /><line stroke="rgb(100%,0%,0%)" stroke-width="1" x1="37.5" x2="33.5" y1="91.125" y2="91.125" /><line stroke="rgb(100%,0%,0%)" stroke-width="1" x1="33.5" x2="33.5" y1="91.125" y2="99.125" /><line stroke="rgb(100%,0%,0%)" stroke-width="1" x1="33.5" x2="37.5" y1="99.125" y2="99.125" /><line stroke="rgb(100%,0%,0%)" stroke-width="1" x1="37.5" x2="37.5" y1="99.125" y2="107.125" /><line stroke="rgb(100%,0%,0%)" stroke-width="1" x1="37.5" x2="33.5" y1="107.125" y2="107.125" /><line stroke="rgb(100%,0%,0%)" stroke-width="1" x1="33.5" x2="33.5" y1="107.125" y2="115.125" /><line stroke="rgb(100%,0%,0%)" stroke-width="1" x1="33.5" x2="37.5" y1="115.125" y2="115.125" /><line stroke="rgb(100%,0%,0%)" stroke-width="1" x1="37.5" x2="37.5" y1="115.125" y2="123.125" /><line stroke="rgb(100%,0%,0%)" stroke-width="1" x1="37.5" x2="33.5" y1="123.125" y2="123.125" /><line stroke="rgb(100%,0%,0%)" stroke-width="1" x1="33.5" x2="33.5" y1="123.125" y2="131.125" /><line stroke="rgb(100%,0%,0%)" stroke-width="1" x1="33.5" x2="37.5" y1="131.125" y2="131.125" /><line stroke="rgb(100%,0%,0%)" stroke-width="1" x1="37.5" x2="37.5" y1="131.125" y2="139.125" /><line stroke="rgb(100%,0%,0%)" stroke-width="1" x1="37.5" x2="33.5" y1="139.125" y2="139.125" /><line stroke="rgb(100%,0%,0%)" stroke-width="1" x1="33.5" x2="33.5" y1="139.125" y2="147.125" /><line stroke="rgb(100%,0%,0%)" stroke-width="1" x1="33.5" x2="37.5" y1="147.125" y2="147.125" /><line stroke="rgb(100%,0%,0%)" stroke-width="1" x1="37.5" x2="37.5" y1="147.125" y2="158.875" /><line stroke="rgb(100%,0%,0%)" stroke-width="1" x1="37.5" x2="50.25" y1="158.875" y2="158.875" /><line stroke="rgb(100%,0%,0%)" stroke-width="1" x1="50.25" x2="50.25" y1="158.875" y2="162.875" /><line stroke="rgb(100%,0%,0%)" stroke-width="1" x1="50.25" x2="58.25" y1="162.875" y2="162.875" /><line stroke="rgb(100%,0%,0%)" stroke-width="1" x1="58.25" x2="58.25" y1="162.875" y2="158.875" /><line stroke="rgb(100%,0%,0%)" stroke-width="1" x1="58.25" x2="66.25" y1="158.875" y2="158.875" /><line stroke="rgb(100%,0%,0%)" stroke-width="1" x1="66.25" x2="66.25" y1="158.875" y2="162.875" /><line stroke="rgb(100%,0%,0%)" stroke-width="1" x1="66.25" x2="74.25" y1="162.875" y2="162.875" /><line stroke="rgb(100%,0%,0%)" stroke-width="1" x1="74.25" x2="74.25" y1="162.875" y2="158.875" /><line stroke="rgb(100%,0%,0%)" stroke-width="1" x1="74.25" x2="82.25" y1="158.875" y2="158.875" /><line stroke="rgb(100%,0%,0%)" stroke-width="1" x1="82.25" x2="82.25" y1="158.875" y2="162.875" /><line stroke="rgb(100%,0%,0%)" stroke-width="1" x1="82.25" x2="90.25" y1="162.875" y2="162.875" /><line stroke="rgb(100%,0%,0%)" stroke-width="1" x1="90.25" x2="90.25" y1="162.875" y2="158.875" /><line stroke="rgb(100%,0%,0%)" stroke-width="1" x1="90.25" x2="98.25" y1="158.875" y2="158.875" /><line stroke="rgb(100%,0%,0%)" stroke-width="1" x1="98.25" x2="98.25" y1="158.875" y2="162.875" /><line stroke="rgb(100%,0%,0%)" stroke-width="1" x1="98.25" x2="106.25" y1="162.875" y2="162.875" /><line stroke="rgb(100%,0%,0%)" stroke-width="1" x1="106.25" x2="106.25" y1="162.875" y2="158.875" /><line stroke="rgb(100%,0%,0%)" stroke-width="1" x1="106.25" x2="114.25" y1="158.875" y2="158.875" /><line stroke="rgb(100%,0%,0%)" stroke-width="1" x1="114.25" x2="114.25" y1="158.875" y2="162.875" /><line stroke="rgb(100%,0%,0%)" stroke-width="1" x1="114.25" x2="122.25" y1="162.875" y2="162.875" /><line stroke="rgb(100%,0%,0%)" stroke-width="1" x1="122.25" x2="122.25" y1="162.875" y2="158.875" /><line stroke="rgb(100%,0%,0%)" stroke-width="1" x1="122.25" x2="130.25" y1="158.875" y2="158.875" /><line stroke="rgb(100%,0%,0%)" stroke-width="1" x1="130.25" x2="130.25" y1="158.875" y2="162.875" /><line stroke="rgb(100%,0%,0%)" stroke-width="1" x1="130.25" x2="138.25" y1="162.875" y2="162.875" /><line stroke="rgb(100%,0%,0%)" stroke-width="1" x1="138.25" x2="138.25" y1="162.875" y2="158.875" /><line stroke="rgb(100%,0%,0%)" stroke-width="1" x1="138.25" x2="146.25" y1="158.875" y2="158.875" /><line stroke="rgb(100%,0%,0%)" stroke-width="1" x1="146.25" x2="146.25" y1="158.875" y2="162.875" /><line stroke="rgb(100%,0%,0%)" stroke-width="1" x1="146.25" x2="154.25" y1="162.875" y2="162.875" /><line stroke="rgb(100%,0%,0%)" stroke-width="1" x1="154.25" x2="154.25" y1="162.875" y2="158.875" /><line stroke="rgb(100%,0%,0%)" stroke-width="1" x1="154.25" x2="162.25" y1="158.875" y2="158.875" /><line stroke="rgb(100%,0%,0%)" stroke-width="1" x1="162.25" x2="162.25" y1="158.875" y2="162.875" /><line stroke="rgb(100%,0%,0%)" stroke-width="1" x1="162.25" x2="170.25" y1="162.875" y2="162.875" /><line stroke="rgb(100%,0%,0%)" stroke-width="1" x1="170.25" x2="170.25" y1="162.875" y2="158.875" /><line stroke="rgb(100%,0%,0%)" stroke-width="1" x1="170.25" x2="178.25" y1="158.875" y2="158.875" /><line stroke="rgb(100%,0%,0%)" stroke-width="1" x1="178.25" x2="178.25" y1="158.875" y2="162.875" /><line stroke="rgb(100%,0%,0%)" stroke-width="1" x1="178.25" x2="186.25" y1="162.875" y2="162.875" /><line stroke="rgb(100%,0%,0%)" stroke-width="1" x1="186.25" x2="186.25" y1="162.875" y2="158.875" /><line stroke="rgb(100%,0%,0%)" stroke-width="1" x1="186.25" x2="194.25" y1="158.875" y2="158.875" /><line stroke="rgb(100%,0%,0%)" stroke-width="1" x1="194.25" x2="194.25" y1="158.875" y2="162.875" /><line stroke="rgb(100%,0%,0%)" stroke-width="1" x1="194.25" x2="202.25" y1="162.875" y2="162.875" /><line stroke="rgb(100%,0%,0%)" stroke-width="1" x1="202.25" x2="202.25" y1="162.875" y2="158.875" /><line stroke="rgb(100%,0%,0%)" stroke-width="1" x1="202.25" x2="215.0" y1="158.875" y2="158.875" /><line stroke="rgb(100%,0%,0%)" stroke-width="1" x1="215.0" x2="215.0" y1="158.875" y2="147.125" /><line stroke="rgb(100%,0%,0%)" stroke-width="1" x1="215.0" x2="219.0" y1="147.125" y2="147.125" /><line stroke="rgb(100%,0%,0%)" stroke-width="1" x1="219.0" x2="219.0" y1="147.125" y2="139.125" /><line stroke="rgb(100%,0%,0%)" stroke-width="1" x1="219.0" x2="215.0" y1="139.125" y2="139.125" /><line stroke="rgb(100%,0%,0%)" stroke-width="1" x1="215.0" x2="215.0" y1="139.125" y2="131.125" /><line stroke="rgb(100%,0%,0%)" stroke-width="1" x1="215.0" x2="219.0" y1="131.125" y2="131.125" /><line stroke="rgb(100%,0%,0%)" stroke-width="1" x1="219.0" x2="219.0" y1="131.125" y2="123.125" /><line stroke="rgb(100%,0%,0%)" stroke-width="1" x1="219.0" x2="215.0" y1="123.125" y2="123.125" /><line stroke="rgb(100%,0%,0%)" stroke-width="1" x1="215.0" x2="215.0" y1="123.125" y2="115.125" /><line stroke="rgb(100%,0%,0%)" stroke-width="1" x1="215.0" x2="219.0" y1="115.125" y2="115.125" /><line stroke="rgb(100%,0%,0%)" stroke-width="1" x1="219.0" x2="219.0" y1="115.125" y2="107.125" /><line stroke="rgb(100%,0%,0%)" stroke-width="1" x1="219.0" x2="215.0" y1="107.125" y2="107.125" /><line stroke="rgb(100%,0%,0%)" stroke-width="1" x1="215.0" x2="215.0" y1="107.125" y2="99.125" /><line stroke="rgb(100%,0%,0%)" stroke-width="1" x1="215.0" x2="219.0" y1="99.125" y2="99.125" /><line stroke="rgb(100%,0%,0%)" stroke-width="1" x1="219.0" x2="219.0" y1="99.125" y2="91.125" /><line stroke="rgb(100%,0%,0%)" stroke-width="1" x1="219.0" x2="215.0" y1="91.125" y2="91.125" /><line stroke="rgb(100%,0%,0%)" stroke-width="1" x1="215.0" x2="215.0" y1="91.125" y2="83.125" /><line stroke="rgb(100%,0%,0%)" stroke-width="1" x1="215.0" x2="219.0" y1="83.125" y2="83.125" /><line stroke="rgb(100%,0%,0%)" stroke-width="1" x1="219.0" x2="219.0" y1="83.125" y2="75.125" /><line stroke="rgb(100%,0%,0%)" stroke-width="1" x1="219.0" x2="215.0" y1="75.125" y2="75.125" /><line stroke="rgb(100%,0%,0%)" stroke-width="1" x1="215.0" x2="215.0" y1="75.125" y2="67.125" /><line stroke="rgb(100%,0%,0%)" stroke-width="1" x1="215.0" x2="219.0" y1="67.125" y2="67.125" /><line stroke="rgb(100%,0%,0%)" stroke-width="1" x1="219.0" x2="219.0" y1="67.125" y2="59.125" /><line stroke="rgb(100%,0%,0%)" stroke-width="1" x1="219.0" x2="215.0" y1="59.125" y2="59.125" /><line stroke="rgb(100%,0%,0%)" stroke-width="1" x1="215.0" x2="215.0" y1="59.125" y2="51.125" /><line stroke="rgb(100%,0%,0%)" stroke-width="1" x1="215.0" x2="219.0" y1="51.125" y2="51.125" /><line stroke="rgb(100%,0%,0%)" stroke-width="1" x1="219.0" x2="219.0" y1="51.125" y2="43.125" /><line stroke="rgb(100%,0%,0%)" stroke-width="1" x1="219.0" x2="215.0" y1="43.125" y2="43.125" /><line stroke="rgb(100%,0%,0%)" stroke-width="1" x1="215.0" x2="215.0" y1="43.125" y2="31.375" /><line stroke="rgb(100%,0%,0%)" stroke-width="1" x1="215.0" x2="202.25" y1="31.375" y2="31.375" /><line stroke="rgb(100%,0%,0%)" stroke-width="1" x1="202.25" x2="202.25" y1="31.375" y2="27.375" /><line stroke="rgb(100%,0%,0%)" stroke-width="1" x1="202.25" x2="194.25" y1="27.375" y2="27.375" /><line stroke="rgb(100%,0%,0%)" stroke-width="1" x1="194.25" x2="194.25" y1="27.375" y2="31.375" /><line stroke="rgb(100%,0%,0%)" stroke-width="1" x1="194.25" x2="186.25" y1="31.375" y2="31.375" /><line stroke="rgb(100%,0%,0%)" stroke-width="1" x1="186.25" x2="186.25" y1="31.375" y2="27.375" /><line stroke="rgb(100%,0%,0%)" stroke-width="1" x1="186.25" x2="178.25" y1="27.375" y2="27.375" /><line stroke="rgb(100%,0%,0%)" stroke-width="1" x1="178.25" x2="178.25" y1="27.375" y2="31.375" /><line stroke="rgb(100%,0%,0%)" stroke-width="1" x1="178.25" x2="170.25" y1="31.375" y2="31.375" /><line stroke="rgb(100%,0%,0%)" stroke-width="1" x1="170.25" x2="170.25" y1="31.375" y2="27.375" /><line stroke="rgb(100%,0%,0%)" stroke-width="1" x1="170.25" x2="162.25" y1="27.375" y2="27.375" /><line stroke="rgb(100%,0%,0%)" stroke-width="1" x1="162.25" x2="162.25" y1="27.375" y2="31.375" /><line stroke="rgb(100%,0%,0%)" stroke-width="1" x1="162.25" x2="154.25" y1="31.375" y2="31.375" /><line stroke="rgb(100%,0%,0%)" stroke-width="1" x1="154.25" x2="154.25" y1="31.375" y2="27.375" /><line stroke="rgb(100%,0%,0%)" stroke-width="1" x1="154.25" x2="146.25" y1="27.375" y2="27.375" /><line stroke="rgb(100%,0%,0%)" stroke-width="1" x1="146.25" x2="146.25" y1="27.375" y2="31.375" /><line stroke="rgb(100%,0%,0%)" stroke-width="1" x1="146.25" x2="138.25" y1="31.375" y2="31.375" /><line stroke="rgb(100%,0%,0%)" stroke-width="1" x1="138.25" x2="138.25" y1="31.375" y2="27.375" /><line stroke="rgb(100%,0%,0%)" stroke-width="1" x1="138.25" x2="130.25" y1="27.375" y2="27.375" /><line stroke="rgb(100%,0%,0%)" stroke-width="1" x1="130.25" x2="130.25" y1="27.375" y2="31.375" /><line stroke="rgb(100%,0%,0%)" stroke-width="1" x1="130.25" x2="122.25" y1="31.375" y2="31.375" /><line stroke="rgb(100%,0%,0%)" stroke-width="1" x1="122.25" x2="122.25" y1="31.375" y2="27.375" /><line stroke="rgb(100%,0%,0%)" stroke-width="1" x1="122.25" x2="114.25" y1="27.375" y2="27.375" /><line stroke="rgb(100%,0%,0%)" stroke-width="1" x1="114.25" x2="114.25" y1="27.375" y2="31.375" /><line stroke="rgb(100%,0%,0%)" stroke-width="1" x1="114.25" x2="106.25" y1="31.375" y2="31.375" /><line stroke="rgb(100%,0%,0%)" stroke-width="1" x1="106.25" x2="106.25" y1="31.375" y2="27.375" /><line stroke="rgb(100%,0%,0%)" stroke-width="1" x1="106.25" x2="98.25" y1="27.375" y2="27.375" /><line stroke="rgb(100%,0%,0%)" stroke-width="1" x1="98.25" x2="98.25" y1="27.375" y2="31.375" /><line stroke="rgb(100%,0%,0%)" stroke-width="1" x1="98.25" x2="90.25" y1="31.375" y2="31.375" /><line stroke="rgb(100%,0%,0%)" stroke-width="1" x1="90.25" x2="90.25" y1="31.375" y2="27.375" /><line stroke="rgb(100%,0%,0%)" stroke-width="1" x1="90.25" x2="82.25" y1="27.375" y2="27.375" /><line stroke="rgb(100%,0%,0%)" stroke-width="1" x1="82.25" x2="82.25" y1="27.375" y2="31.375" /><line stroke="rgb(100%,0%,0%)" stroke-width="1" x1="82.25" x2="74.25" y1="31.375" y2="31.375" /><line stroke="rgb(100%,0%,0%)" stroke-width="1" x1="74.25" x2="74.25" y1="31.375" y2="27.375" /><line stroke="rgb(100%,0%,0%)" stroke-width="1" x1="74.25" x2="66.25" y1="27.375" y2="27.375" /><line stroke="rgb(100%,0%,0%)" stroke-width="1" x1="66.25" x2="66.25" y1="27.375" y2="31.375" /><line stroke="rgb(100%,0%,0%)" stroke-width="1" x1="66.25" x2="58.25" y1="31.375" y2="31.375" /><line stroke="rgb(100%,0%,0%)" stroke-width="1" x1="58.25" x2="58.25" y1="31.375" y2="27.375" /><line stroke="rgb(100%,0%,0%)" stroke-width="1" x1="58.25" x2="50.25" y1="27.375" y2="27.375" /><line stroke="rgb(100%,0%,0%)" stroke-width="1" x1="50.25" x2="50.25" y1="27.375" y2="31.375" /><line stroke="rgb(100%,0%,0%)" stroke-width="1" x1="50.25" x2="37.5" y1="31.375" y2="31.375" /><line stroke="rgb(100%,0%,0%)" stroke-width="1" x1="20.0" x2="20.0" y1="174.25" y2="178.5" /><line stroke="rgb(100%,0%,0%)" stroke-width="1" x1="20.0" x2="16.0" y1="178.5" y2="178.5" /><line stroke="rgb(100%,0%,0%)" stroke-width="1" x1="16.0" x2="16.0" y1="178.5" y2="186.5" /><line stroke="rgb(100%,0%,0%)" stroke-width="1" x1="16.0" x2="20.0" y1="186.5" y2="186.5" /><line stroke="rgb(100%,0%,0%)" stroke-width="1" x1="20.0" x2="20.0" y1="186.5" y2="194.75" /><line stroke="rgb(100%,0%,0%)" stroke-width="1" x1="20.0" x2="240.0" y1="190.75" y2="190.75" /><line stroke="rgb(100%,0%,0%)" stroke-width="1" x1="240.0" x2="240.0" y1="194.75" y2="174.25" /><line stroke="rgb(100%,0%,0%)" stroke-width="1" x1="240.0" x2="222.0" y1="174.25" y2="174.25" /><line stroke="rgb(100%,0%,0%)" stroke-width="1" x1="222.0" x2="222.0" y1="174.25" y2="178.25" /><line stroke="rgb(100%,0%,0%)" stroke-width="1" x1="222.0" x2="214.0" y1="178.25" y2="178.25" /><line stroke="rgb(100%,0%,0%)" stroke-width="1" x1="214.0" x2="214.0" y1="178.25" y2="174.25" /><line stroke="rgb(100%,0%,0%)" stroke-width="1" x1="214.0" x2="206.0" y1="174.25" y2="174.25" /><line stroke="rgb(100%,0%,0%)" stroke-width="1" x1="206.0" x2="206.0" y1="174.25" y2="178.25" /><line stroke="rgb(100%,0%,0%)" stroke-width="1" x1="206.0" x2="198.0" y1="178.25" y2="178.25" /><line stroke="rgb(100%,0%,0%)" stroke-width="1" x1="198.0" x2="198.0" y1="178.25" y2="174.25" /><line stroke="rgb(100%,0%,0%)" stroke-width="1" x1="198.0" x2="190.0" y1="174.25" y2="174.25" /><line stroke="rgb(100%,0%,0%)" stroke-width="1" x1="190.0" x2="190.0" y1="174.25" y2="178.25" /><line stroke="rgb(100%,0%,0%)" stroke-width="1" x1="190.0" x2="182.0" y1="178.25" y2="178.25" /><line stroke="rgb(100%,0%,0%)" stroke-width="1" x1="182.0" x2="182.0" y1="178.25" y2="174.25" /><line stroke="rgb(100%,0%,0%)" stroke-width="1" x1="182.0" x2="174.0" y1="174.25" y2="174.25" /><line stroke="rgb(100%,0%,0%)" stroke-width="1" x1="174.0" x2="174.0" y1="174.25" y2="178.25" /><line stroke="rgb(100%,0%,0%)" stroke-width="1" x1="174.0" x2="166.0" y1="178.25" y2="178.25" /><line stroke="rgb(100%,0%,0%)" stroke-width="1" x1="166.0" x2="166.0" y1="178.25" y2="174.25" /><line stroke="rgb(100%,0%,0%)" stroke-width="1" x1="166.0" x2="158.0" y1="174.25" y2="174.25" /><line stroke="rgb(100%,0%,0%)" stroke-width="1" x1="158.0" x2="158.0" y1="174.25" y2="178.25" /><line stroke="rgb(100%,0%,0%)" stroke-width="1" x1="158.0" x2="150.0" y1="178.25" y2="178.25" /><line stroke="rgb(100%,0%,0%)" stroke-width="1" x1="150.0" x2="150.0" y1="178.25" y2="174.25" /><line stroke="rgb(100%,0%,0%)" stroke-width="1" x1="150.0" x2="142.0" y1="174.25" y2="174.25" /><line stroke="rgb(100%,0%,0%)" stroke-width="1" x1="142.0" x2="142.0" y1="174.25" y2="178.25" /><line stroke="rgb(100%,0%,0%)" stroke-width="1" x1="142.0" x2="134.0" y1="178.25" y2="178.25" /><line stroke="rgb(100%,0%,0%)" stroke-width="1" x1="134.0" x2="134.0" y1="178.25" y2="174.25" /><line stroke="rgb(100%,0%,0%)" stroke-width="1" x1="134.0" x2="126.0" y1="174.25" y2="174.25" /><line stroke="rgb(100%,0%,0%)" stroke-width="1" x1="126.0" x2="126.0" y1="174.25" y2="178.25" /><line stroke="rgb(100%,0%,0%)" stroke-width="1" x1="126.0" x2="118.0" y1="178.25" y2="178.25" /><line stroke="rgb(100%,0%,0%)" stroke-width="1" x1="118.0" x2="118.0" y1="178.25" y2="174.25" /><line stroke="rgb(100%,0%,0%)" stroke-width="1" x1="118.0" x2="110.0" y1="174.25" y2="174.25" /><line stroke="rgb(100%,0%,0%)" stroke-width="1" x1="110.0" x2="110.0" y1="174.25" y2="178.25" /><line stroke="rgb(100%,0%,0%)" stroke-width="1" x1="110.0" x2="102.0" y1="178.25" y2="178.25" /><line stroke="rgb(100%,0%,0%)" stroke-width="1" x1="102.0" x2="102.0" y1="178.25" y2="174.25" /><line stroke="rgb(100%,0%,0%)" stroke-width="1" x1="102.0" x2="94.0" y1="174.25" y2="174.25" /><line stroke="rgb(100%,0%,0%)" stroke-width="1" x1="94.0" x2="94.0" y1="174.25" y2="178.25" /><line stroke="rgb(100%,0%,0%)" stroke-width="1" x1="94.0" x2="86.0" y1="178.25" y2="178.25" /><line stroke="rgb(100%,0%,0%)" stroke-width="1" x1="86.0" x2="86.0" y1="178.25" y2="174.25" /><line stroke="rgb(100%,0%,0%)" stroke-width="1" x1="86.0" x2="78.0" y1="174.25" y2="174.25" /><line stroke="rgb(100%,0%,0%)" stroke-width="1" x1="78.0" x2="78.0" y1="174.25" y2="178.25" /><line stroke="rgb(100%,0%,0%)" stroke-width="1" x1="78.0" x2="70.0" y1="178.25" y2="178.25" /><line stroke="rgb(100%,0%,0%)" stroke-width="1" x1="70.0" x2="70.0" y1="178.25" y2="174.25" /><line stroke="rgb(100%,0%,0%)" stroke-width="1" x1="70.0" x2="62.0" y1="174.25" y2="174.25" /><line stroke="rgb(100%,0%,0%)" stroke-width="1" x1="62.0" x2="62.0" y1="174.25" y2="178.25" /><line stroke="rgb(100%,0%,0%)" stroke-width="1" x1="62.0" x2="54.0" y1="178.25" y2="178.25" /><line stroke="rgb(100%,0%,0%)" stroke-width="1" x1="54.0" x2="54.0" y1="178.25" y2="174.25" /><line stroke="rgb(100%,0%,0%)" stroke-width="1" x1="54.0" x2="46.0" y1="174.25" y2="174.25" /><line stroke="rgb(100%,0%,0%)" stroke-width="1" x1="46.0" x2="46.0" y1="174.25" y2="178.25" /><line stroke="rgb(100%,0%,0%)" stroke-width="1" x1="46.0" x2="38.0" y1="178.25" y2="178.25" /><line stroke="rgb(100%,0%,0%)" stroke-width="1" x1="38.0" x2="38.0" y1="178.25" y2="174.25" /><line stroke="rgb(100%,0%,0%)" stroke-width="1" x1="38.0" x2="20.0" y1="174.25" y2="174.25" /><line stroke="rgb(100%,0%,0%)" stroke-width="1" x1="20.0" x2="20.0" y1="194.0" y2="202.25" /><line stroke="rgb(100%,0%,0%)" stroke-width="1" x1="20.0" x2="16.0" y1="202.25" y2="202.25" /><line stroke="rgb(100%,0%,0%)" stroke-width="1" x1="16.0" x2="16.0" y1="202.25" y2="210.25" /><line stroke="rgb(100%,0%,0%)" stroke-width="1" x1="16.0" x2="20.0" y1="210.25" y2="210.25" /><line stroke="rgb(100%,0%,0%)" stroke-width="1" x1="20.0" x2="20.0" y1="210.25" y2="214.5" /><line stroke="rgb(100%,0%,0%)" stroke-width="1" x1="20.0" x2="38.0" y1="214.5" y2="214.5" /><line stroke="rgb(100%,0%,0%)" stroke-width="1" x1="38.0" x2="38.0" y1="214.5" y2="210.5" /><line stroke="rgb(100%,0%,0%)" stroke-width="1" x1="38.0" x2="46.0" y1="210.5" y2="210.5" /><line stroke="rgb(100%,0%,0%)" stroke-width="1" x1="46.0" x2="46.0" y1="210.5" y2="214.5" /><line stroke="rgb(100%,0%,0%)" stroke-width="1" x1="46.0" x2="54.0" y1="214.5" y2="214.5" /><line stroke="rgb(100%,0%,0%)" stroke-width="1" x1="54.0" x2="54.0" y1="214.5" y2="210.5" /><line stroke="rgb(100%,0%,0%)" stroke-width="1" x1="54.0" x2="62.0" y1="210.5" y2="210.5" /><line stroke="rgb(100%,0%,0%)" stroke-width="1" x1="62.0" x2="62.0" y1="210.5" y2="214.5" /><line stroke="rgb(100%,0%,0%)" stroke-width="1" x1="62.0" x2="70.0" y1="214.5" y2="214.5" /><line stroke="rgb(100%,0%,0%)" stroke-width="1" x1="70.0" x2="70.0" y1="214.5" y2="210.5" /><line stroke="rgb(100%,0%,0%)" stroke-width="1" x1="70.0" x2="78.0" y1="210.5" y2="210.5" /><line stroke="rgb(100%,0%,0%)" stroke-width="1" x1="78.0" x2="78.0" y1="210.5" y2="214.5" /><line stroke="rgb(100%,0%,0%)" stroke-width="1" x1="78.0" x2="86.0" y1="214.5" y2="214.5" /><line stroke="rgb(100%,0%,0%)" stroke-width="1" x1="86.0" x2="86.0" y1="214.5" y2="210.5" /><line stroke="rgb(100%,0%,0%)" stroke-width="1" x1="86.0" x2="94.0" y1="210.5" y2="210.5" /><line stroke="rgb(100%,0%,0%)" stroke-width="1" x1="94.0" x2="94.0" y1="210.5" y2="214.5" /><line stroke="rgb(100%,0%,0%)" stroke-width="1" x1="94.0" x2="102.0" y1="214.5" y2="214.5" /><line stroke="rgb(100%,0%,0%)" stroke-width="1" x1="102.0" x2="102.0" y1="214.5" y2="210.5" /><line stroke="rgb(100%,0%,0%)" stroke-width="1" x1="102.0" x2="110.0" y1="210.5" y2="210.5" /><line stroke="rgb(100%,0%,0%)" stroke-width="1" x1="110.0" x2="110.0" y1="210.5" y2="214.5" /><line stroke="rgb(100%,0%,0%)" stroke-width="1" x1="110.0" x2="118.0" y1="214.5" y2="214.5" /><line stroke="rgb(100%,0%,0%)" stroke-width="1" x1="118.0" x2="118.0" y1="214.5" y2="210.5" /><line stroke="rgb(100%,0%,0%)" stroke-width="1" x1="118.0" x2="126.0" y1="210.5" y2="210.5" /><line stroke="rgb(100%,0%,0%)" stroke-width="1" x1="126.0" x2="126.0" y1="210.5" y2="214.5" /><line stroke="rgb(100%,0%,0%)" stroke-width="1" x1="126.0" x2="134.0" y1="214.5" y2="214.5" /><line stroke="rgb(100%,0%,0%)" stroke-width="1" x1="134.0" x2="134.0" y1="214.5" y2="210.5" /><line stroke="rgb(100%,0%,0%)" stroke-width="1" x1="134.0" x2="142.0" y1="210.5" y2="210.5" /><line stroke="rgb(100%,0%,0%)" stroke-width="1" x1="142.0" x2="142.0" y1="210.5" y2="214.5" /><line stroke="rgb(100%,0%,0%)" stroke-width="1" x1="142.0" x2="150.0" y1="214.5" y2="214.5" /><line stroke="rgb(100%,0%,0%)" stroke-width="1" x1="150.0" x2="150.0" y1="214.5" y2="210.5" /><line stroke="rgb(100%,0%,0%)" stroke-width="1" x1="150.0" x2="158.0" y1="210.5" y2="210.5" /><line stroke="rgb(100%,0%,0%)" stroke-width="1" x1="158.0" x2="158.0" y1="210.5" y2="214.5" /><line stroke="rgb(100%,0%,0%)" stroke-width="1" x1="158.0" x2="166.0" y1="214.5" y2="214.5" /><line stroke="rgb(100%,0%,0%)" stroke-width="1" x1="166.0" x2="166.0" y1="214.5" y2="210.5" /><line stroke="rgb(100%,0%,0%)" stroke-width="1" x1="166.0" x2="174.0" y1="210.5" y2="210.5" /><line stroke="rgb(100%,0%,0%)" stroke-width="1" x1="174.0" x2="174.0" y1="210.5" y2="214.5" /><line stroke="rgb(100%,0%,0%)" stroke-width="1" x1="174.0" x2="182.0" y1="214.5" y2="214.5" /><line stroke="rgb(100%,0%,0%)" stroke-width="1" x1="182.0" x2="182.0" y1="214.5" y2="210.5" /><line stroke="rgb(100%,0%,0%)" stroke-width="1" x1="182.0" x2="190.0" y1="210.5" y2="210.5" /><line stroke="rgb(100%,0%,0%)" stroke-width="1" x1="190.0" x2="190.0" y1="210.5" y2="214.5" /><line stroke="rgb(100%,0%,0%)" stroke-width="1" x1="190.0" x2="198.0" y1="214.5" y2="214.5" /><line stroke="rgb(100%,0%,0%)" stroke-width="1" x1="198.0" x2="198.0" y1="214.5" y2="210.5" /><line stroke="rgb(100%,0%,0%)" stroke-width="1" x1="198.0" x2="206.0" y1="210.5" y2="210.5" /><line stroke="rgb(100%,0%,0%)" stroke-width="1" x1="206.0" x2="206.0" y1="210.5" y2="214.5" /><line stroke="rgb(100%,0%,0%)" stroke-width="1" x1="206.0" x2="214.0" y1="214.5" y2="214.5" /><line stroke="rgb(100%,0%,0%)" stroke-width="1" x1="214.0" x2="214.0" y1="214.5" y2="210.5" /><line stroke="rgb(100%,0%,0%)" stroke-width="1" x1="214.0" x2="222.0" y1="210.5" y2="210.5" /><line stroke="rgb(100%,0%,0%)" stroke-width="1" x1="222.0" x2="222.0" y1="210.5" y2="214.5" /><line stroke="rgb(100%,0%,0%)" stroke-width="1" x1="222.0" x2="240.0" y1="214.5" y2="214.5" /><line stroke="rgb(100%,0%,0%)" stroke-width="1" x1="240.0" x2="240.0" y1="214.5" y2="194.0" /><line stroke="rgb(100%,0%,0%)" stroke-width="1" x1="240.0" x2="20.0" y1="198.0" y2="198.0" /><line stroke="rgb(100%,0%,0%)" stroke-width="1" x1="250.0" x2="250.0" y1="16.0" y2="174.25" /><line stroke="rgb(100%,0%,0%)" stroke-width="1" x1="246.0" x2="254.25" y1="174.25" y2="174.25" /><line stroke="rgb(100%,0%,0%)" stroke-width="1" x1="254.25" x2="254.25" y1="174.25" y2="170.25" /><line stroke="rgb(100%,0%,0%)" stroke-width="1" x1="254.25" x2="262.25" y1="170.25" y2="170.25" /><line stroke="rgb(100%,0%,0%)" stroke-width="1" x1="262.25" x2="262.25" y1="170.25" y2="174.25" /><line stroke="rgb(100%,0%,0%)" stroke-width="1" x1="262.25" x2="266.5" y1="174.25" y2="174.25" /><line stroke="rgb(100%,0%,0%)" stroke-width="1" x1="266.5" x2="266.5" y1="174.25" y2="155.125" /><line stroke="rgb(100%,0%,0%)" stroke-width="1" x1="266.5" x2="262.5" y1="155.125" y2="155.125" /><line stroke="rgb(100%,0%,0%)" stroke-width="1" x1="262.5" x2="262.5" y1="155.125" y2="147.125" /><line stroke="rgb(100%,0%,0%)" stroke-width="1" x1="262.5" x2="266.5" y1="147.125" y2="147.125" /><line stroke="rgb(100%,0%,0%)" stroke-width="1" x1="266.5" x2="266.5" y1="147.125" y2="139.125" /><line stroke="rgb(100%,0%,0%)" stroke-width="1" x1="266.5" x2="262.5" y1="139.125" y2="139.125" /><line stroke="rgb(100%,0%,0%)" stroke-width="1" x1="262.5" x2="262.5" y1="139.125" y2="131.125" /><line stroke="rgb(100%,0%,0%)" stroke-width="1" x1="262.5" x2="266.5" y1="131.125" y2="131.125" /><line stroke="rgb(100%,0%,0%)" stroke-width="1" x1="266.5" x2="266.5" y1="131.125" y2="123.125" /><line stroke="rgb(100%,0%,0%)" stroke-width="1" x1="266.5" x2="262.5" y1="123.125" y2="123.125" /><line stroke="rgb(100%,0%,0%)" stroke-width="1" x1="262.5" x2="262.5" y1="123.125" y2="115.125" /><line stroke="rgb(100%,0%,0%)" stroke-width="1" x1="262.5" x2="266.5" y1="115.125" y2="115.125" /><line stroke="rgb(100%,0%,0%)" stroke-width="1" x1="266.5" x2="266.5" y1="115.125" y2="107.125" /><line stroke="rgb(100%,0%,0%)" stroke-width="1" x1="266.5" x2="262.5" y1="107.125" y2="107.125" /><line stroke="rgb(100%,0%,0%)" stroke-width="1" x1="262.5" x2="262.5" y1="107.125" y2="99.125" /><line stroke="rgb(100%,0%,0%)" stroke-width="1" x1="262.5" x2="266.5" y1="99.125" y2="99.125" /><line stroke="rgb(100%,0%,0%)" stroke-width="1" x1="266.5" x2="266.5" y1="99.125" y2="91.125" /><line stroke="rgb(100%,0%,0%)" stroke-width="1" x1="266.5" x2="262.5" y1="91.125" y2="91.125" /><line stroke="rgb(100%,0%,0%)" stroke-width="1" x1="262.5" x2="262.5" y1="91.125" y2="83.125" /><line stroke="rgb(100%,0%,0%)" stroke-width="1" x1="262.5" x2="266.5" y1="83.125" y2="83.125" /><line stroke="rgb(100%,0%,0%)" stroke-width="1" x1="266.5" x2="266.5" y1="83.125" y2="75.125" /><line stroke="rgb(100%,0%,0%)" stroke-width="1" x1="266.5" x2="262.5" y1="75.125" y2="75.125" /><line stroke="rgb(100%,0%,0%)" stroke-width="1" x1="262.5" x2="262.5" y1="75.125" y2="67.125" /><line stroke="rgb(100%,0%,0%)" stroke-width="1" x1="262.5" x2="266.5" y1="67.125" y2="67.125" /><line stroke="rgb(100%,0%,0%)" stroke-width="1" x1="266.5" x2="266.5" y1="67.125" y2="59.125" /><line stroke="rgb(100%,0%,0%)" stroke-width="1" x1="266.5" x2="262.5" y1="59.125" y2="59.125" /><line stroke="rgb(100%,0%,0%)" stroke-width="1" x1="262.5" x2="262.5" y1="59.125" y2="51.125" /><line stroke="rgb(100%,0%,0%)" stroke-width="1" x1="262.5" x2="266.5" y1="51.125" y2="51.125" /><line stroke="rgb(100%,0%,0%)" stroke-width="1" x1="266.5" x2="266.5" y1="51.125" y2="43.125" /><line stroke="rgb(100%,0%,0%)" stroke-width="1" x1="266.5" x2="262.5" y1="43.125" y2="43.125" /><line stroke="rgb(100%,0%,0%)" stroke-width="1" x1="262.5" x2="262.5" y1="43.125" y2="35.125" /><line stroke="rgb(100%,0%,0%)" stroke-width="1" x1="262.5" x2="266.5" y1="35.125" y2="35.125" /><line stroke="rgb(100%,0%,0%)" stroke-width="1" x1="266.5" x2="266.5" y1="35.125" y2="16.0" /><line stroke="rgb(100%,0%,0%)" stroke-width="1" x1="266.5" x2="262.25" y1="16.0" y2="16.0" /><line stroke="rgb(100%,0%,0%)" stroke-width="1" x1="262.25" x2="262.25" y1="16.0" y2="20.0" /><line stroke="rgb(100%,0%,0%)" stroke-width="1" x1="262.25" x2="254.25" y1="20.0" y2="20.0" /><line stroke="rgb(100%,0%,0%)" stroke-width="1" x1="254.25" x2="254.25" y1="20.0" y2="16.0" /><line stroke="rgb(100%,0%,0%)" stroke-width="1" x1="254.25" x2="246.0" y1="16.0" y2="16.0" /></svg>