<?xml version="1.0" encoding="utf-8" ?>
<svg baseProfile="full" height="260mm" version="1.1" viewBox="0 0 300 260" width="300mm" xmlns="http://www.w3.org/2000/svg" xmlns:ev="http://www.w3.org/2001/xml-events" xmlns:xlink="http://www.w3.org/1999/xlink"><defs /><line stroke="rgb(100%,0%,0%)" stroke-width="1" x1="20.0" x2="20.0" y1="20.0" y2="170.25" /><line stroke="rgb(100%,0%,0%)" stroke-width="1" x1="20.0" x2="234.0" y1="170.25" y2="170.25" /><line stroke="rgb(100%,0%,0%)" stroke-width="1" x1="234.0" x2="234.0" y1="170.25" y2="20.0" /><line stroke="rgb(100%,0%,0%)" stroke-width="1" x1="234.0" x2="20.0" y1="20.0" y2="20.0" /><path d="M 37.500000 152.125000 A 5 5 0 0 0 42.500000 157.125000" fill="none" stroke="rgb(255,0,0)" stroke-width="1" /><line stroke="rgb(100%,0%,0%)" stroke-width="1" x1="37.5" x2="37.5" y1="38.125" y2="152.125" /><path d="M 203.250000 157.125000 A 5 5 0 0 0 208.250000 152.125000" fill="none" stroke="rgb(255,0,0)" stroke-width="1" /><line stroke="rgb(100%,0%,0%)" stroke-width="1" x1="42.5" x2="203.25" y1="157.125" y2="157.125" /><path d="M 208.250000 38.125000 A 5 5 0 0 0 203.250000 33.125000" fill="none" stroke="rgb(255,0,0)" stroke-width="1" /><line stroke="rgb(100%,0%,0%)" stroke-width="1" x1="208.25" x2="208.25" y1="152.125" y2="38.125" /><path d="M 42.500000 33.125000 A 5 5 0 0 0 37.500000 38.125000" fill="none" stroke="rgb(255,0,0)" stroke-width="1" /><line stroke="rgb(100%,0%,0%)" stroke-width="1" x1="203.25" x2="42.5" y1="33.125" y2="33.125" /><circle cx="32.0" cy="70.08333333333334" fill="none" r="1.4" stroke="rgb(255,0,0)" stroke-width="1" /><circle cx="32.0" cy="120.16666666666667" fill="none" r="1.4" stroke="rgb(255,0,0)" stroke-width="1" /><circle cx="213.75" cy="70.08333333333334" fill="none" r="1.4" stroke="rgb(255,0,0)" stroke-width="1" /><circle cx="213.75" cy="120.16666666666667" fill="none" r="1.4" stroke="rgb(255,0,0)" stroke-width="1" /><circle cx="94.41666666666666" cy="29.125" fill="none" r="1.4" stroke="rgb(255,0,0)" stroke-width="1" /><circle cx="151.33333333333331" cy="29.125" fill="none" r="1.4" stroke="rgb(255,0,0)" stroke-width="1" /><circle cx="94.41666666666666" cy="161.125" fill="none" r="1.4" stroke="rgb(255,0,0)" stroke-width="1" /><circle cx="151.33333333333331" cy="161.125" fill="none" r="1.4" stroke="rgb(255,0,0)" stroke-width="1" /></svg>