<?xml version="1.0" encoding="utf-8" ?>
<svg baseProfile="full" height="300mm" version="1.1" viewBox="0 0 450 300" width="450mm" xmlns="http://www.w3.org/2000/svg" xmlns:ev="http://www.w3.org/2001/xml-events" xmlns:xlink="http://www.w3.org/1999/xlink"><defs /><circle cx="85" cy="55" fill="none" r="50" stroke="red" /><circle cx="230" cy="55" fill="none" r="50" stroke="red" /><line stroke="rgb(100%,0%,0%)" stroke-width="1" x1="5.0" x2="5.0" y1="240" y2="140" /><line stroke="rgb(100%,0%,0%)" stroke-width="1" x1="5.0" x2="5.99745566751" y1="140" y2="127.3" /><line stroke="rgb(100%,0%,0%)" stroke-width="1" x1="5.99745566751" x2="11.8565259665" y1="127.3" y2="127.3" /><line stroke="rgb(100%,0%,0%)" stroke-width="1" x1="11.8565259665" x2="12.853981634" y1="127.3" y2="140" /><line stroke="rgb(100%,0%,0%)" stroke-width="1" x1="12.853981634" x2="13.8514373015" y1="140" y2="127.3" /><line stroke="rgb(100%,0%,0%)" stroke-width="1" x1="13.8514373015" x2="19.7105076004" y1="127.3" y2="127.3" /><line stroke="rgb(100%,0%,0%)" stroke-width="1" x1="19.7105076004" x2="20.7079632679" y1="127.3" y2="140" /><line stroke="rgb(100%,0%,0%)" stroke-width="1" x1="20.7079632679" x2="21.7054189355" y1="140" y2="127.3" /><line stroke="rgb(100%,0%,0%)" stroke-width="1" x1="21.7054189355" x2="27.5644892344" y1="127.3" y2="127.3" /><line stroke="rgb(100%,0%,0%)" stroke-width="1" x1="27.5644892344" x2="28.5619449019" y1="127.3" y2="140" /><line stroke="rgb(100%,0%,0%)" stroke-width="1" x1="28.5619449019" x2="29.5594005694" y1="140" y2="127.3" /><line stroke="rgb(100%,0%,0%)" stroke-width="1" x1="29.5594005694" x2="35.4184708684" y1="127.3" y2="127.3" /><line stroke="rgb(100%,0%,0%)" stroke-width="1" x1="35.4184708684" x2="36.4159265359" y1="127.3" y2="140" /><line stroke="rgb(100%,0%,0%)" stroke-width="1" x1="36.4159265359" x2="37.4133822034" y1="140" y2="127.3" /><line stroke="rgb(100%,0%,0%)" stroke-width="1" x1="37.4133822034" x2="43.2724525024" y1="127.3" y2="127.3" /><line stroke="rgb(100%,0%,0%)" stroke-width="1" x1="43.2724525024" x2="44.2699081699" y1="127.3" y2="140" /><line stroke="rgb(100%,0%,0%)" stroke-width="1" x1="44.2699081699" x2="45.2673638374" y1="140" y2="127.3" /><line stroke="rgb(100%,0%,0%)" stroke-width="1" x1="45.2673638374" x2="51.1264341363" y1="127.3" y2="127.3" /><line stroke="rgb(100%,0%,0%)" stroke-width="1" x1="51.1264341363" x2="52.1238898038" y1="127.3" y2="140" /><line stroke="rgb(100%,0%,0%)" stroke-width="1" x1="52.1238898038" x2="53.1213454714" y1="140" y2="127.3" /><line stroke="rgb(100%,0%,0%)" stroke-width="1" x1="53.1213454714" x2="58.9804157703" y1="127.3" y2="127.3" /><line stroke="rgb(100%,0%,0%)" stroke-width="1" x1="58.9804157703" x2="59.9778714378" y1="127.3" y2="140" /><line stroke="rgb(100%,0%,0%)" stroke-width="1" x1="59.9778714378" x2="60.9753271053" y1="140" y2="127.3" /><line stroke="rgb(100%,0%,0%)" stroke-width="1" x1="60.9753271053" x2="66.8343974043" y1="127.3" y2="127.3" /><line stroke="rgb(100%,0%,0%)" stroke-width="1" x1="66.8343974043" x2="67.8318530718" y1="127.3" y2="140" /><line stroke="rgb(100%,0%,0%)" stroke-width="1" x1="67.8318530718" x2="68.8293087393" y1="140" y2="127.3" /><line stroke="rgb(100%,0%,0%)" stroke-width="1" x1="68.8293087393" x2="74.6883790383" y1="127.3" y2="127.3" /><line stroke="rgb(100%,0%,0%)" stroke-width="1" x1="74.6883790383" x2="75.6858347058" y1="127.3" y2="140" /><line stroke="rgb(100%,0%,0%)" stroke-width="1" x1="75.6858347058" x2="76.6832903733" y1="140" y2="127.3" /><line stroke="rgb(100%,0%,0%)" stroke-width="1" x1="76.6832903733" x2="82.5423606722" y1="127.3" y2="127.3" /><line stroke="rgb(100%,0%,0%)" stroke-width="1" x1="82.5423606722" x2="83.5398163397" y1="127.3" y2="140" /><line stroke="rgb(100%,0%,0%)" stroke-width="1" x1="83.5398163397" x2="84.5372720073" y1="140" y2="127.3" /><line stroke="rgb(100%,0%,0%)" stroke-width="1" x1="84.5372720073" x2="90.3963423062" y1="127.3" y2="127.3" /><line stroke="rgb(100%,0%,0%)" stroke-width="1" x1="90.3963423062" x2="91.3937979737" y1="127.3" y2="140" /><line stroke="rgb(100%,0%,0%)" stroke-width="1" x1="91.3937979737" x2="92.3912536412" y1="140" y2="127.3" /><line stroke="rgb(100%,0%,0%)" stroke-width="1" x1="92.3912536412" x2="98.2503239402" y1="127.3" y2="127.3" /><line stroke="rgb(100%,0%,0%)" stroke-width="1" x1="98.2503239402" x2="99.2477796077" y1="127.3" y2="140" /><line stroke="rgb(100%,0%,0%)" stroke-width="1" x1="99.2477796077" x2="100.245235275" y1="140" y2="127.3" /><line stroke="rgb(100%,0%,0%)" stroke-width="1" x1="100.245235275" x2="106.104305574" y1="127.3" y2="127.3" /><line stroke="rgb(100%,0%,0%)" stroke-width="1" x1="106.104305574" x2="107.101761242" y1="127.3" y2="140" /><line stroke="rgb(100%,0%,0%)" stroke-width="1" x1="107.101761242" x2="108.099216909" y1="140" y2="127.3" /><line stroke="rgb(100%,0%,0%)" stroke-width="1" x1="108.099216909" x2="113.958287208" y1="127.3" y2="127.3" /><line stroke="rgb(100%,0%,0%)" stroke-width="1" x1="113.958287208" x2="114.955742876" y1="127.3" y2="140" /><line stroke="rgb(100%,0%,0%)" stroke-width="1" x1="114.955742876" x2="115.953198543" y1="140" y2="127.3" /><line stroke="rgb(100%,0%,0%)" stroke-width="1" x1="115.953198543" x2="121.812268842" y1="127.3" y2="127.3" /><line stroke="rgb(100%,0%,0%)" stroke-width="1" x1="121.812268842" x2="122.80972451" y1="127.3" y2="140" /><line stroke="rgb(100%,0%,0%)" stroke-width="1" x1="122.80972451" x2="123.807180177" y1="140" y2="127.3" /><line stroke="rgb(100%,0%,0%)" stroke-width="1" x1="123.807180177" x2="129.666250476" y1="127.3" y2="127.3" /><line stroke="rgb(100%,0%,0%)" stroke-width="1" x1="129.666250476" x2="130.663706144" y1="127.3" y2="140" /><line stroke="rgb(100%,0%,0%)" stroke-width="1" x1="130.663706144" x2="131.661161811" y1="140" y2="127.3" /><line stroke="rgb(100%,0%,0%)" stroke-width="1" x1="131.661161811" x2="137.52023211" y1="127.3" y2="127.3" /><line stroke="rgb(100%,0%,0%)" stroke-width="1" x1="137.52023211" x2="138.517687778" y1="127.3" y2="140" /><line stroke="rgb(100%,0%,0%)" stroke-width="1" x1="138.517687778" x2="139.515143445" y1="140" y2="127.3" /><line stroke="rgb(100%,0%,0%)" stroke-width="1" x1="139.515143445" x2="145.374213744" y1="127.3" y2="127.3" /><line stroke="rgb(100%,0%,0%)" stroke-width="1" x1="145.374213744" x2="146.371669412" y1="127.3" y2="140" /><line stroke="rgb(100%,0%,0%)" stroke-width="1" x1="146.371669412" x2="147.369125079" y1="140" y2="127.3" /><line stroke="rgb(100%,0%,0%)" stroke-width="1" x1="147.369125079" x2="153.228195378" y1="127.3" y2="127.3" /><line stroke="rgb(100%,0%,0%)" stroke-width="1" x1="153.228195378" x2="154.225651046" y1="127.3" y2="140" /><line stroke="rgb(100%,0%,0%)" stroke-width="1" x1="154.225651046" x2="155.223106713" y1="140" y2="127.3" /><line stroke="rgb(100%,0%,0%)" stroke-width="1" x1="155.223106713" x2="161.082177012" y1="127.3" y2="127.3" /><line stroke="rgb(100%,0%,0%)" stroke-width="1" x1="161.082177012" x2="162.079632679" y1="127.3" y2="140" /><line stroke="rgb(100%,0%,0%)" stroke-width="1" x1="162.079632679" x2="163.077088347" y1="140" y2="127.3" /><line stroke="rgb(100%,0%,0%)" stroke-width="1" x1="163.077088347" x2="168.936158646" y1="127.3" y2="127.3" /><line stroke="rgb(100%,0%,0%)" stroke-width="1" x1="168.936158646" x2="169.933614313" y1="127.3" y2="140" /><line stroke="rgb(100%,0%,0%)" stroke-width="1" x1="169.933614313" x2="170.931069981" y1="140" y2="127.3" /><line stroke="rgb(100%,0%,0%)" stroke-width="1" x1="170.931069981" x2="176.79014028" y1="127.3" y2="127.3" /><line stroke="rgb(100%,0%,0%)" stroke-width="1" x1="176.79014028" x2="177.787595947" y1="127.3" y2="140" /><line stroke="rgb(100%,0%,0%)" stroke-width="1" x1="177.787595947" x2="178.785051615" y1="140" y2="127.3" /><line stroke="rgb(100%,0%,0%)" stroke-width="1" x1="178.785051615" x2="184.644121914" y1="127.3" y2="127.3" /><line stroke="rgb(100%,0%,0%)" stroke-width="1" x1="184.644121914" x2="185.641577581" y1="127.3" y2="140" /><line stroke="rgb(100%,0%,0%)" stroke-width="1" x1="185.641577581" x2="186.639033249" y1="140" y2="127.3" /><line stroke="rgb(100%,0%,0%)" stroke-width="1" x1="186.639033249" x2="192.498103548" y1="127.3" y2="127.3" /><line stroke="rgb(100%,0%,0%)" stroke-width="1" x1="192.498103548" x2="193.495559215" y1="127.3" y2="140" /><line stroke="rgb(100%,0%,0%)" stroke-width="1" x1="193.495559215" x2="194.493014883" y1="140" y2="127.3" /><line stroke="rgb(100%,0%,0%)" stroke-width="1" x1="194.493014883" x2="200.352085182" y1="127.3" y2="127.3" /><line stroke="rgb(100%,0%,0%)" stroke-width="1" x1="200.352085182" x2="201.349540849" y1="127.3" y2="140" /><line stroke="rgb(100%,0%,0%)" stroke-width="1" x1="201.349540849" x2="202.346996517" y1="140" y2="127.3" /><line stroke="rgb(100%,0%,0%)" stroke-width="1" x1="202.346996517" x2="208.206066816" y1="127.3" y2="127.3" /><line stroke="rgb(100%,0%,0%)" stroke-width="1" x1="208.206066816" x2="209.203522483" y1="127.3" y2="140" /><line stroke="rgb(100%,0%,0%)" stroke-width="1" x1="209.203522483" x2="210.200978151" y1="140" y2="127.3" /><line stroke="rgb(100%,0%,0%)" stroke-width="1" x1="210.200978151" x2="216.06004845" y1="127.3" y2="127.3" /><line stroke="rgb(100%,0%,0%)" stroke-width="1" x1="216.06004845" x2="217.057504117" y1="127.3" y2="140" /><line stroke="rgb(100%,0%,0%)" stroke-width="1" x1="217.057504117" x2="218.054959785" y1="140" y2="127.3" /><line stroke="rgb(100%,0%,0%)" stroke-width="1" x1="218.054959785" x2="223.914030084" y1="127.3" y2="127.3" /><line stroke="rgb(100%,0%,0%)" stroke-width="1" x1="223.914030084" x2="224.911485751" y1="127.3" y2="140" /><line stroke="rgb(100%,0%,0%)" stroke-width="1" x1="224.911485751" x2="225.908941419" y1="140" y2="127.3" /><line stroke="rgb(100%,0%,0%)" stroke-width="1" x1="225.908941419" x2="231.768011718" y1="127.3" y2="127.3" /><line stroke="rgb(100%,0%,0%)" stroke-width="1" x1="231.768011718" x2="232.765467385" y1="127.3" y2="140" /><line stroke="rgb(100%,0%,0%)" stroke-width="1" x1="232.765467385" x2="233.762923053" y1="140" y2="127.3" /><line stroke="rgb(100%,0%,0%)" stroke-width="1" x1="233.762923053" x2="239.621993352" y1="127.3" y2="127.3" /><line stroke="rgb(100%,0%,0%)" stroke-width="1" x1="239.621993352" x2="240.619449019" y1="127.3" y2="140" /><line stroke="rgb(100%,0%,0%)" stroke-width="1" x1="240.619449019" x2="241.616904687" y1="140" y2="127.3" /><line stroke="rgb(100%,0%,0%)" stroke-width="1" x1="241.616904687" x2="247.475974986" y1="127.3" y2="127.3" /><line stroke="rgb(100%,0%,0%)" stroke-width="1" x1="247.475974986" x2="248.473430653" y1="127.3" y2="140" /><line stroke="rgb(100%,0%,0%)" stroke-width="1" x1="248.473430653" x2="249.470886321" y1="140" y2="127.3" /><line stroke="rgb(100%,0%,0%)" stroke-width="1" x1="249.470886321" x2="255.32995662" y1="127.3" y2="127.3" /><line stroke="rgb(100%,0%,0%)" stroke-width="1" x1="255.32995662" x2="256.327412287" y1="127.3" y2="140" /><line stroke="rgb(100%,0%,0%)" stroke-width="1" x1="256.327412287" x2="257.324867955" y1="140" y2="127.3" /><line stroke="rgb(100%,0%,0%)" stroke-width="1" x1="257.324867955" x2="263.183938254" y1="127.3" y2="127.3" /><line stroke="rgb(100%,0%,0%)" stroke-width="1" x1="263.183938254" x2="264.181393921" y1="127.3" y2="140" /><line stroke="rgb(100%,0%,0%)" stroke-width="1" x1="264.181393921" x2="265.178849589" y1="140" y2="127.3" /><line stroke="rgb(100%,0%,0%)" stroke-width="1" x1="265.178849589" x2="271.037919888" y1="127.3" y2="127.3" /><line stroke="rgb(100%,0%,0%)" stroke-width="1" x1="271.037919888" x2="272.035375555" y1="127.3" y2="140" /><line stroke="rgb(100%,0%,0%)" stroke-width="1" x1="272.035375555" x2="273.032831223" y1="140" y2="127.3" /><line stroke="rgb(100%,0%,0%)" stroke-width="1" x1="273.032831223" x2="278.891901522" y1="127.3" y2="127.3" /><line stroke="rgb(100%,0%,0%)" stroke-width="1" x1="278.891901522" x2="279.889357189" y1="127.3" y2="140" /><line stroke="rgb(100%,0%,0%)" stroke-width="1" x1="279.889357189" x2="280.886812857" y1="140" y2="127.3" /><line stroke="rgb(100%,0%,0%)" stroke-width="1" x1="280.886812857" x2="286.745883156" y1="127.3" y2="127.3" /><line stroke="rgb(100%,0%,0%)" stroke-width="1" x1="286.745883156" x2="287.743338823" y1="127.3" y2="140" /><line stroke="rgb(100%,0%,0%)" stroke-width="1" x1="287.743338823" x2="288.740794491" y1="140" y2="127.3" /><line stroke="rgb(100%,0%,0%)" stroke-width="1" x1="288.740794491" x2="294.59986479" y1="127.3" y2="127.3" /><line stroke="rgb(100%,0%,0%)" stroke-width="1" x1="294.59986479" x2="295.597320457" y1="127.3" y2="140" /><line stroke="rgb(100%,0%,0%)" stroke-width="1" x1="295.597320457" x2="296.594776125" y1="140" y2="127.3" /><line stroke="rgb(100%,0%,0%)" stroke-width="1" x1="296.594776125" x2="302.453846424" y1="127.3" y2="127.3" /><line stroke="rgb(100%,0%,0%)" stroke-width="1" x1="302.453846424" x2="303.451302091" y1="127.3" y2="140" /><line stroke="rgb(100%,0%,0%)" stroke-width="1" x1="303.451302091" x2="304.448757759" y1="140" y2="127.3" /><line stroke="rgb(100%,0%,0%)" stroke-width="1" x1="304.448757759" x2="310.307828057" y1="127.3" y2="127.3" /><line stroke="rgb(100%,0%,0%)" stroke-width="1" x1="310.307828057" x2="311.305283725" y1="127.3" y2="140" /><line stroke="rgb(100%,0%,0%)" stroke-width="1" x1="311.305283725" x2="312.302739393" y1="140" y2="127.3" /><line stroke="rgb(100%,0%,0%)" stroke-width="1" x1="312.302739393" x2="318.161809691" y1="127.3" y2="127.3" /><line stroke="rgb(100%,0%,0%)" stroke-width="1" x1="318.161809691" x2="319.159265359" y1="127.3" y2="140" /><line stroke="rgb(100%,0%,0%)" stroke-width="1" x1="319.159265359" x2="331.859265359" y1="140" y2="140" /><line stroke="rgb(100%,0%,0%)" stroke-width="1" x1="331.859265359" x2="331.859265359" y1="140" y2="240" /><line stroke="rgb(100%,0%,0%)" stroke-width="1" x1="331.859265359" x2="319.159265359" y1="240" y2="240" /><line stroke="rgb(100%,0%,0%)" stroke-width="1" x1="319.159265359" x2="318.161809691" y1="240" y2="252.7" /><line stroke="rgb(100%,0%,0%)" stroke-width="1" x1="318.161809691" x2="312.302739393" y1="252.7" y2="252.7" /><line stroke="rgb(100%,0%,0%)" stroke-width="1" x1="312.302739393" x2="311.305283725" y1="252.7" y2="240" /><line stroke="rgb(100%,0%,0%)" stroke-width="1" x1="311.305283725" x2="310.307828057" y1="240" y2="252.7" /><line stroke="rgb(100%,0%,0%)" stroke-width="1" x1="310.307828057" x2="304.448757759" y1="252.7" y2="252.7" /><line stroke="rgb(100%,0%,0%)" stroke-width="1" x1="304.448757759" x2="303.451302091" y1="252.7" y2="240" /><line stroke="rgb(100%,0%,0%)" stroke-width="1" x1="303.451302091" x2="302.453846424" y1="240" y2="252.7" /><line stroke="rgb(100%,0%,0%)" stroke-width="1" x1="302.453846424" x2="296.594776125" y1="252.7" y2="252.7" /><line stroke="rgb(100%,0%,0%)" stroke-width="1" x1="296.594776125" x2="295.597320457" y1="252.7" y2="240" /><line stroke="rgb(100%,0%,0%)" stroke-width="1" x1="295.597320457" x2="294.59986479" y1="240" y2="252.7" /><line stroke="rgb(100%,0%,0%)" stroke-width="1" x1="294.59986479" x2="288.740794491" y1="252.7" y2="252.7" /><line stroke="rgb(100%,0%,0%)" stroke-width="1" x1="288.740794491" x2="287.743338823" y1="252.7" y2="240" /><line stroke="rgb(100%,0%,0%)" stroke-width="1" x1="287.743338823" x2="286.745883156" y1="240" y2="252.7" /><line stroke="rgb(100%,0%,0%)" stroke-width="1" x1="286.745883156" x2="280.886812857" y1="252.7" y2="252.7" /><line stroke="rgb(100%,0%,0%)" stroke-width="1" x1="280.886812857" x2="279.889357189" y1="252.7" y2="240" /><line stroke="rgb(100%,0%,0%)" stroke-width="1" x1="279.889357189" x2="278.891901522" y1="240" y2="252.7" /><line stroke="rgb(100%,0%,0%)" stroke-width="1" x1="278.891901522" x2="273.032831223" y1="252.7" y2="252.7" /><line stroke="rgb(100%,0%,0%)" stroke-width="1" x1="273.032831223" x2="272.035375555" y1="252.7" y2="240" /><line stroke="rgb(100%,0%,0%)" stroke-width="1" x1="272.035375555" x2="271.037919888" y1="240" y2="252.7" /><line stroke="rgb(100%,0%,0%)" stroke-width="1" x1="271.037919888" x2="265.178849589" y1="252.7" y2="252.7" /><line stroke="rgb(100%,0%,0%)" stroke-width="1" x1="265.178849589" x2="264.181393921" y1="252.7" y2="240" /><line stroke="rgb(100%,0%,0%)" stroke-width="1" x1="264.181393921" x2="263.183938254" y1="240" y2="252.7" /><line stroke="rgb(100%,0%,0%)" stroke-width="1" x1="263.183938254" x2="257.324867955" y1="252.7" y2="252.7" /><line stroke="rgb(100%,0%,0%)" stroke-width="1" x1="257.324867955" x2="256.327412287" y1="252.7" y2="240" /><line stroke="rgb(100%,0%,0%)" stroke-width="1" x1="256.327412287" x2="255.32995662" y1="240" y2="252.7" /><line stroke="rgb(100%,0%,0%)" stroke-width="1" x1="255.32995662" x2="249.470886321" y1="252.7" y2="252.7" /><line stroke="rgb(100%,0%,0%)" stroke-width="1" x1="249.470886321" x2="248.473430653" y1="252.7" y2="240" /><line stroke="rgb(100%,0%,0%)" stroke-width="1" x1="248.473430653" x2="247.475974986" y1="240" y2="252.7" /><line stroke="rgb(100%,0%,0%)" stroke-width="1" x1="247.475974986" x2="241.616904687" y1="252.7" y2="252.7" /><line stroke="rgb(100%,0%,0%)" stroke-width="1" x1="241.616904687" x2="240.619449019" y1="252.7" y2="240" /><line stroke="rgb(100%,0%,0%)" stroke-width="1" x1="240.619449019" x2="239.621993352" y1="240" y2="252.7" /><line stroke="rgb(100%,0%,0%)" stroke-width="1" x1="239.621993352" x2="233.762923053" y1="252.7" y2="252.7" /><line stroke="rgb(100%,0%,0%)" stroke-width="1" x1="233.762923053" x2="232.765467385" y1="252.7" y2="240" /><line stroke="rgb(100%,0%,0%)" stroke-width="1" x1="232.765467385" x2="231.768011718" y1="240" y2="252.7" /><line stroke="rgb(100%,0%,0%)" stroke-width="1" x1="231.768011718" x2="225.908941419" y1="252.7" y2="252.7" /><line stroke="rgb(100%,0%,0%)" stroke-width="1" x1="225.908941419" x2="224.911485751" y1="252.7" y2="240" /><line stroke="rgb(100%,0%,0%)" stroke-width="1" x1="224.911485751" x2="223.914030084" y1="240" y2="252.7" /><line stroke="rgb(100%,0%,0%)" stroke-width="1" x1="223.914030084" x2="218.054959785" y1="252.7" y2="252.7" /><line stroke="rgb(100%,0%,0%)" stroke-width="1" x1="218.054959785" x2="217.057504117" y1="252.7" y2="240" /><line stroke="rgb(100%,0%,0%)" stroke-width="1" x1="217.057504117" x2="216.06004845" y1="240" y2="252.7" /><line stroke="rgb(100%,0%,0%)" stroke-width="1" x1="216.06004845" x2="210.200978151" y1="252.7" y2="252.7" /><line stroke="rgb(100%,0%,0%)" stroke-width="1" x1="210.200978151" x2="209.203522483" y1="252.7" y2="240" /><line stroke="rgb(100%,0%,0%)" stroke-width="1" x1="209.203522483" x2="208.206066816" y1="240" y2="252.7" /><line stroke="rgb(100%,0%,0%)" stroke-width="1" x1="208.206066816" x2="202.346996517" y1="252.7" y2="252.7" /><line stroke="rgb(100%,0%,0%)" stroke-width="1" x1="202.346996517" x2="201.349540849" y1="252.7" y2="240" /><line stroke="rgb(100%,0%,0%)" stroke-width="1" x1="201.349540849" x2="200.352085182" y1="240" y2="252.7" /><line stroke="rgb(100%,0%,0%)" stroke-width="1" x1="200.352085182" x2="194.493014883" y1="252.7" y2="252.7" /><line stroke="rgb(100%,0%,0%)" stroke-width="1" x1="194.493014883" x2="193.495559215" y1="252.7" y2="240" /><line stroke="rgb(100%,0%,0%)" stroke-width="1" x1="193.495559215" x2="192.498103548" y1="240" y2="252.7" /><line stroke="rgb(100%,0%,0%)" stroke-width="1" x1="192.498103548" x2="186.639033249" y1="252.7" y2="252.7" /><line stroke="rgb(100%,0%,0%)" stroke-width="1" x1="186.639033249" x2="185.641577581" y1="252.7" y2="240" /><line stroke="rgb(100%,0%,0%)" stroke-width="1" x1="185.641577581" x2="184.644121914" y1="240" y2="252.7" /><line stroke="rgb(100%,0%,0%)" stroke-width="1" x1="184.644121914" x2="178.785051615" y1="252.7" y2="252.7" /><line stroke="rgb(100%,0%,0%)" stroke-width="1" x1="178.785051615" x2="177.787595947" y1="252.7" y2="240" /><line stroke="rgb(100%,0%,0%)" stroke-width="1" x1="177.787595947" x2="176.79014028" y1="240" y2="252.7" /><line stroke="rgb(100%,0%,0%)" stroke-width="1" x1="176.79014028" x2="170.931069981" y1="252.7" y2="252.7" /><line stroke="rgb(100%,0%,0%)" stroke-width="1" x1="170.931069981" x2="169.933614313" y1="252.7" y2="240" /><line stroke="rgb(100%,0%,0%)" stroke-width="1" x1="169.933614313" x2="168.936158646" y1="240" y2="252.7" /><line stroke="rgb(100%,0%,0%)" stroke-width="1" x1="168.936158646" x2="163.077088347" y1="252.7" y2="252.7" /><line stroke="rgb(100%,0%,0%)" stroke-width="1" x1="163.077088347" x2="162.079632679" y1="252.7" y2="240" /><line stroke="rgb(100%,0%,0%)" stroke-width="1" x1="162.079632679" x2="161.082177012" y1="240" y2="252.7" /><line stroke="rgb(100%,0%,0%)" stroke-width="1" x1="161.082177012" x2="155.223106713" y1="252.7" y2="252.7" /><line stroke="rgb(100%,0%,0%)" stroke-width="1" x1="155.223106713" x2="154.225651046" y1="252.7" y2="240" /><line stroke="rgb(100%,0%,0%)" stroke-width="1" x1="154.225651046" x2="153.228195378" y1="240" y2="252.7" /><line stroke="rgb(100%,0%,0%)" stroke-width="1" x1="153.228195378" x2="147.369125079" y1="252.7" y2="252.7" /><line stroke="rgb(100%,0%,0%)" stroke-width="1" x1="147.369125079" x2="146.371669412" y1="252.7" y2="240" /><line stroke="rgb(100%,0%,0%)" stroke-width="1" x1="146.371669412" x2="145.374213744" y1="240" y2="252.7" /><line stroke="rgb(100%,0%,0%)" stroke-width="1" x1="145.374213744" x2="139.515143445" y1="252.7" y2="252.7" /><line stroke="rgb(100%,0%,0%)" stroke-width="1" x1="139.515143445" x2="138.517687778" y1="252.7" y2="240" /><line stroke="rgb(100%,0%,0%)" stroke-width="1" x1="138.517687778" x2="137.52023211" y1="240" y2="252.7" /><line stroke="rgb(100%,0%,0%)" stroke-width="1" x1="137.52023211" x2="131.661161811" y1="252.7" y2="252.7" /><line stroke="rgb(100%,0%,0%)" stroke-width="1" x1="131.661161811" x2="130.663706144" y1="252.7" y2="240" /><line stroke="rgb(100%,0%,0%)" stroke-width="1" x1="130.663706144" x2="129.666250476" y1="240" y2="252.7" /><line stroke="rgb(100%,0%,0%)" stroke-width="1" x1="129.666250476" x2="123.807180177" y1="252.7" y2="252.7" /><line stroke="rgb(100%,0%,0%)" stroke-width="1" x1="123.807180177" x2="122.80972451" y1="252.7" y2="240" /><line stroke="rgb(100%,0%,0%)" stroke-width="1" x1="122.80972451" x2="121.812268842" y1="240" y2="252.7" /><line stroke="rgb(100%,0%,0%)" stroke-width="1" x1="121.812268842" x2="115.953198543" y1="252.7" y2="252.7" /><line stroke="rgb(100%,0%,0%)" stroke-width="1" x1="115.953198543" x2="114.955742876" y1="252.7" y2="240" /><line stroke="rgb(100%,0%,0%)" stroke-width="1" x1="114.955742876" x2="113.958287208" y1="240" y2="252.7" /><line stroke="rgb(100%,0%,0%)" stroke-width="1" x1="113.958287208" x2="108.099216909" y1="252.7" y2="252.7" /><line stroke="rgb(100%,0%,0%)" stroke-width="1" x1="108.099216909" x2="107.101761242" y1="252.7" y2="240" /><line stroke="rgb(100%,0%,0%)" stroke-width="1" x1="107.101761242" x2="106.104305574" y1="240" y2="252.7" /><line stroke="rgb(100%,0%,0%)" stroke-width="1" x1="106.104305574" x2="100.245235275" y1="252.7" y2="252.7" /><line stroke="rgb(100%,0%,0%)" stroke-width="1" x1="100.245235275" x2="99.2477796077" y1="252.7" y2="240" /><line stroke="rgb(100%,0%,0%)" stroke-width="1" x1="99.2477796077" x2="98.2503239402" y1="240" y2="252.7" /><line stroke="rgb(100%,0%,0%)" stroke-width="1" x1="98.2503239402" x2="92.3912536412" y1="252.7" y2="252.7" /><line stroke="rgb(100%,0%,0%)" stroke-width="1" x1="92.3912536412" x2="91.3937979737" y1="252.7" y2="240" /><line stroke="rgb(100%,0%,0%)" stroke-width="1" x1="91.3937979737" x2="90.3963423062" y1="240" y2="252.7" /><line stroke="rgb(100%,0%,0%)" stroke-width="1" x1="90.3963423062" x2="84.5372720073" y1="252.7" y2="252.7" /><line stroke="rgb(100%,0%,0%)" stroke-width="1" x1="84.5372720073" x2="83.5398163397" y1="252.7" y2="240" /><line stroke="rgb(100%,0%,0%)" stroke-width="1" x1="83.5398163397" x2="82.5423606722" y1="240" y2="252.7" /><line stroke="rgb(100%,0%,0%)" stroke-width="1" x1="82.5423606722" x2="76.6832903733" y1="252.7" y2="252.7" /><line stroke="rgb(100%,0%,0%)" stroke-width="1" x1="76.6832903733" x2="75.6858347058" y1="252.7" y2="240" /><line stroke="rgb(100%,0%,0%)" stroke-width="1" x1="75.6858347058" x2="74.6883790383" y1="240" y2="252.7" /><line stroke="rgb(100%,0%,0%)" stroke-width="1" x1="74.6883790383" x2="68.8293087393" y1="252.7" y2="252.7" /><line stroke="rgb(100%,0%,0%)" stroke-width="1" x1="68.8293087393" x2="67.8318530718" y1="252.7" y2="240" /><line stroke="rgb(100%,0%,0%)" stroke-width="1" x1="67.8318530718" x2="66.8343974043" y1="240" y2="252.7" /><line stroke="rgb(100%,0%,0%)" stroke-width="1" x1="66.8343974043" x2="60.9753271053" y1="252.7" y2="252.7" /><line stroke="rgb(100%,0%,0%)" stroke-width="1" x1="60.9753271053" x2="59.9778714378" y1="252.7" y2="240" /><line stroke="rgb(100%,0%,0%)" stroke-width="1" x1="59.9778714378" x2="58.9804157703" y1="240" y2="252.7" /><line stroke="rgb(100%,0%,0%)" stroke-width="1" x1="58.9804157703" x2="53.1213454714" y1="252.7" y2="252.7" /><line stroke="rgb(100%,0%,0%)" stroke-width="1" x1="53.1213454714" x2="52.1238898038" y1="252.7" y2="240" /><line stroke="rgb(100%,0%,0%)" stroke-width="1" x1="52.1238898038" x2="51.1264341363" y1="240" y2="252.7" /><line stroke="rgb(100%,0%,0%)" stroke-width="1" x1="51.1264341363" x2="45.2673638374" y1="252.7" y2="252.7" /><line stroke="rgb(100%,0%,0%)" stroke-width="1" x1="45.2673638374" x2="44.2699081699" y1="252.7" y2="240" /><line stroke="rgb(100%,0%,0%)" stroke-width="1" x1="44.2699081699" x2="43.2724525024" y1="240" y2="252.7" /><line stroke="rgb(100%,0%,0%)" stroke-width="1" x1="43.2724525024" x2="37.4133822034" y1="252.7" y2="252.7" /><line stroke="rgb(100%,0%,0%)" stroke-width="1" x1="37.4133822034" x2="36.4159265359" y1="252.7" y2="240" /><line stroke="rgb(100%,0%,0%)" stroke-width="1" x1="36.4159265359" x2="35.4184708684" y1="240" y2="252.7" /><line stroke="rgb(100%,0%,0%)" stroke-width="1" x1="35.4184708684" x2="29.5594005694" y1="252.7" y2="252.7" /><line stroke="rgb(100%,0%,0%)" stroke-width="1" x1="29.5594005694" x2="28.5619449019" y1="252.7" y2="240" /><line stroke="rgb(100%,0%,0%)" stroke-width="1" x1="28.5619449019" x2="27.5644892344" y1="240" y2="252.7" /><line stroke="rgb(100%,0%,0%)" stroke-width="1" x1="27.5644892344" x2="21.7054189355" y1="252.7" y2="252.7" /><line stroke="rgb(100%,0%,0%)" stroke-width="1" x1="21.7054189355" x2="20.7079632679" y1="252.7" y2="240" /><line stroke="rgb(100%,0%,0%)" stroke-width="1" x1="20.7079632679" x2="19.7105076004" y1="240" y2="252.7" /><line stroke="rgb(100%,0%,0%)" stroke-width="1" x1="19.7105076004" x2="13.8514373015" y1="252.7" y2="252.7" /><line stroke="rgb(100%,0%,0%)" stroke-width="1" x1="13.8514373015" x2="12.853981634" y1="252.7" y2="240" /><line stroke="rgb(100%,0%,0%)" stroke-width="1" x1="12.853981634" x2="11.8565259665" y1="240" y2="252.7" /><line stroke="rgb(100%,0%,0%)" stroke-width="1" x1="11.8565259665" x2="5.99745566751" y1="252.7" y2="252.7" /><line stroke="rgb(100%,0%,0%)" stroke-width="1" x1="5.99745566751" x2="5.0" y1="252.7" y2="240" /></svg>